%TF.GenerationSoftware,KiCad,Pcbnew,10.0.0*%
%TF.CreationDate,2026-08-15T17:39:26-07:00*%
%TF.ProjectId,DI2C_Endpoint,44493243-5f45-46e6-9470-6f696e742e6b,1*%
%TF.SameCoordinates,Original*%
%TF.FileFunction,Paste,Top*%
%TF.FilePolarity,Positive*%
%FSLAX46Y46*%
G04 Gerber Fmt 4.6, Leading zero omitted, Abs format (unit mm)*
G04 Created by KiCad (PCBNEW 10.0.0) date 2026-08-15 17:39:26*
%MOMM*%
%LPD*%
G01*
G04 APERTURE LIST*
G04 Aperture macros list*
%AMRoundRect*
0 Rectangle with rounded corners*
0 $1 Rounding radius*
0 $2 $3 $4 $5 $6 $7 $8 $9 X,Y pos of 4 corners*
0 Add a 4 corners polygon primitive as box body*
4,1,4,$2,$3,$4,$5,$6,$7,$8,$9,$2,$3,0*
0 Add four circle primitives for the rounded corners*
1,1,$1+$1,$2,$3*
1,1,$1+$1,$4,$5*
1,1,$1+$1,$6,$7*
1,1,$1+$1,$8,$9*
0 Add four rect primitives between the rounded corners*
20,1,$1+$1,$2,$3,$4,$5,0*
20,1,$1+$1,$4,$5,$6,$7,0*
20,1,$1+$1,$6,$7,$8,$9,0*
20,1,$1+$1,$8,$9,$2,$3,0*%
G04 Aperture macros list end*
%ADD10RoundRect,0.225000X-0.225000X-0.250000X0.225000X-0.250000X0.225000X0.250000X-0.225000X0.250000X0*%
%ADD11R,1.308100X0.304800*%
%ADD12RoundRect,0.200000X-0.200000X-0.275000X0.200000X-0.275000X0.200000X0.275000X-0.200000X0.275000X0*%
%ADD13R,0.600000X1.550000*%
%ADD14R,1.200000X1.800000*%
%ADD15R,0.600000X1.700000*%
%ADD16R,1.000000X2.700000*%
%ADD17RoundRect,0.225000X0.225000X0.250000X-0.225000X0.250000X-0.225000X-0.250000X0.225000X-0.250000X0*%
%ADD18RoundRect,0.200000X0.200000X0.275000X-0.200000X0.275000X-0.200000X-0.275000X0.200000X-0.275000X0*%
%ADD19RoundRect,0.200000X0.275000X-0.200000X0.275000X0.200000X-0.275000X0.200000X-0.275000X-0.200000X0*%
%ADD20RoundRect,0.200000X-0.275000X0.200000X-0.275000X-0.200000X0.275000X-0.200000X0.275000X0.200000X0*%
%ADD21R,1.700000X0.600000*%
%ADD22R,2.700000X1.000000*%
%ADD23R,0.876300X0.304800*%
G04 APERTURE END LIST*
D10*
%TO.C,C1*%
X147624999Y-63410000D03*
X149174999Y-63410000D03*
%TD*%
D11*
%TO.C,U1*%
X150614999Y-61720000D03*
X150614999Y-61219998D03*
X150614999Y-60719999D03*
X150614999Y-60220000D03*
X150614999Y-59719998D03*
X146208099Y-59719998D03*
X146208099Y-60220000D03*
X146208099Y-60719999D03*
X146208099Y-61219998D03*
X146208099Y-61720000D03*
%TD*%
D12*
%TO.C,R9*%
X140724999Y-61450000D03*
X142374999Y-61450000D03*
%TD*%
%TO.C,R6*%
X140724999Y-59940000D03*
X142374999Y-59940000D03*
%TD*%
D13*
%TO.C,J8*%
X140189999Y-53460000D03*
X139189999Y-53460000D03*
X138189999Y-53460000D03*
X137189999Y-53460000D03*
D14*
X141489999Y-49585000D03*
X135889999Y-49585000D03*
%TD*%
D15*
%TO.C,J5*%
X143929999Y-68175000D03*
X145179999Y-68175000D03*
X146429999Y-68175000D03*
X147679999Y-68175000D03*
D16*
X142079999Y-71375000D03*
X149529999Y-71375000D03*
%TD*%
D17*
%TO.C,C3*%
X149184999Y-56500000D03*
X147634999Y-56500000D03*
%TD*%
D12*
%TO.C,R1*%
X147569999Y-64980000D03*
X149219999Y-64980000D03*
%TD*%
D18*
%TO.C,R4*%
X142379999Y-58380000D03*
X140729999Y-58380000D03*
%TD*%
D19*
%TO.C,R2*%
X136639999Y-71265000D03*
X136639999Y-69615000D03*
%TD*%
%TO.C,R8*%
X139064999Y-63025000D03*
X139064999Y-61375000D03*
%TD*%
D17*
%TO.C,C2*%
X149194999Y-58040000D03*
X147644999Y-58040000D03*
%TD*%
D20*
%TO.C,R5*%
X139064999Y-58375000D03*
X139064999Y-60025000D03*
%TD*%
D13*
%TO.C,J9*%
X148029999Y-53450000D03*
X147029999Y-53450000D03*
X146029999Y-53450000D03*
X145029999Y-53450000D03*
D14*
X149329999Y-49575000D03*
X143729999Y-49575000D03*
%TD*%
D21*
%TO.C,J1*%
X133509999Y-57585000D03*
X133509999Y-58835000D03*
X133509999Y-60085000D03*
X133509999Y-61335000D03*
X133509999Y-62585000D03*
X133509999Y-63835000D03*
D22*
X130309999Y-55735000D03*
X130309999Y-65685000D03*
%TD*%
D23*
%TO.C,CR2*%
X135304999Y-58590002D03*
X135304999Y-59240001D03*
X135304999Y-59890000D03*
X137527499Y-59890000D03*
X137527499Y-58590002D03*
%TD*%
D19*
%TO.C,R3*%
X139179999Y-71265000D03*
X139179999Y-69615000D03*
%TD*%
D23*
%TO.C,CR1*%
X135299999Y-61505000D03*
X135299999Y-62154999D03*
X135299999Y-62804998D03*
X137522499Y-62804998D03*
X137522499Y-61505000D03*
%TD*%
D18*
%TO.C,R7*%
X142374999Y-63030000D03*
X140724999Y-63030000D03*
%TD*%
M02*
