%TF.GenerationSoftware,KiCad,Pcbnew,10.0.0*%
%TF.CreationDate,2026-08-15T17:39:26-07:00*%
%TF.ProjectId,DI2C_Endpoint,44493243-5f45-46e6-9470-6f696e742e6b,1*%
%TF.SameCoordinates,Original*%
%TF.FileFunction,Copper,L1,Top*%
%TF.FilePolarity,Positive*%
%FSLAX46Y46*%
G04 Gerber Fmt 4.6, Leading zero omitted, Abs format (unit mm)*
G04 Created by KiCad (PCBNEW 10.0.0) date 2026-08-15 17:39:26*
%MOMM*%
%LPD*%
G01*
G04 APERTURE LIST*
G04 Aperture macros list*
%AMRoundRect*
0 Rectangle with rounded corners*
0 $1 Rounding radius*
0 $2 $3 $4 $5 $6 $7 $8 $9 X,Y pos of 4 corners*
0 Add a 4 corners polygon primitive as box body*
4,1,4,$2,$3,$4,$5,$6,$7,$8,$9,$2,$3,0*
0 Add four circle primitives for the rounded corners*
1,1,$1+$1,$2,$3*
1,1,$1+$1,$4,$5*
1,1,$1+$1,$6,$7*
1,1,$1+$1,$8,$9*
0 Add four rect primitives between the rounded corners*
20,1,$1+$1,$2,$3,$4,$5,0*
20,1,$1+$1,$4,$5,$6,$7,0*
20,1,$1+$1,$6,$7,$8,$9,0*
20,1,$1+$1,$8,$9,$2,$3,0*%
G04 Aperture macros list end*
%TA.AperFunction,SMDPad,CuDef*%
%ADD10C,1.500000*%
%TD*%
%TA.AperFunction,SMDPad,CuDef*%
%ADD11RoundRect,0.225000X-0.225000X-0.250000X0.225000X-0.250000X0.225000X0.250000X-0.225000X0.250000X0*%
%TD*%
%TA.AperFunction,SMDPad,CuDef*%
%ADD12R,1.308100X0.304800*%
%TD*%
%TA.AperFunction,ComponentPad*%
%ADD13C,1.700000*%
%TD*%
%TA.AperFunction,SMDPad,CuDef*%
%ADD14RoundRect,0.200000X-0.200000X-0.275000X0.200000X-0.275000X0.200000X0.275000X-0.200000X0.275000X0*%
%TD*%
%TA.AperFunction,SMDPad,CuDef*%
%ADD15R,0.600000X1.550000*%
%TD*%
%TA.AperFunction,SMDPad,CuDef*%
%ADD16R,1.200000X1.800000*%
%TD*%
%TA.AperFunction,ComponentPad*%
%ADD17C,4.000000*%
%TD*%
%TA.AperFunction,SMDPad,CuDef*%
%ADD18R,0.600000X1.700000*%
%TD*%
%TA.AperFunction,SMDPad,CuDef*%
%ADD19R,1.000000X2.700000*%
%TD*%
%TA.AperFunction,SMDPad,CuDef*%
%ADD20RoundRect,0.225000X0.225000X0.250000X-0.225000X0.250000X-0.225000X-0.250000X0.225000X-0.250000X0*%
%TD*%
%TA.AperFunction,SMDPad,CuDef*%
%ADD21RoundRect,0.200000X0.200000X0.275000X-0.200000X0.275000X-0.200000X-0.275000X0.200000X-0.275000X0*%
%TD*%
%TA.AperFunction,SMDPad,CuDef*%
%ADD22RoundRect,0.200000X0.275000X-0.200000X0.275000X0.200000X-0.275000X0.200000X-0.275000X-0.200000X0*%
%TD*%
%TA.AperFunction,SMDPad,CuDef*%
%ADD23RoundRect,0.200000X-0.275000X0.200000X-0.275000X-0.200000X0.275000X-0.200000X0.275000X0.200000X0*%
%TD*%
%TA.AperFunction,SMDPad,CuDef*%
%ADD24R,1.700000X0.600000*%
%TD*%
%TA.AperFunction,SMDPad,CuDef*%
%ADD25R,2.700000X1.000000*%
%TD*%
%TA.AperFunction,SMDPad,CuDef*%
%ADD26R,0.876300X0.304800*%
%TD*%
%TA.AperFunction,ViaPad*%
%ADD27C,0.600000*%
%TD*%
%TA.AperFunction,Conductor*%
%ADD28C,0.300000*%
%TD*%
G04 APERTURE END LIST*
D10*
%TO.P,TP5,1,1_1*%
%TO.N,/SCL-P*%
X135989999Y-55750000D03*
%TD*%
D11*
%TO.P,C1,1*%
%TO.N,GND*%
X147624999Y-63410000D03*
%TO.P,C1,2*%
%TO.N,+3V3*%
X149174999Y-63410000D03*
%TD*%
D12*
%TO.P,U1,1,VDD(A)_1*%
%TO.N,+3V3*%
X150614999Y-61720000D03*
%TO.P,U1,2,SDA_2*%
%TO.N,/SDA*%
X150614999Y-61219998D03*
%TO.P,U1,3,EN_3*%
%TO.N,/EN*%
X150614999Y-60719999D03*
%TO.P,U1,4,SCL_4*%
%TO.N,/SCL*%
X150614999Y-60220000D03*
%TO.P,U1,5,VSS_5*%
%TO.N,GND*%
X150614999Y-59719998D03*
%TO.P,U1,6,DSCLM_6*%
%TO.N,/SCL-*%
X146208099Y-59719998D03*
%TO.P,U1,7,DSCLP_7*%
%TO.N,/SCL+*%
X146208099Y-60220000D03*
%TO.P,U1,8,DSDAP_8*%
%TO.N,/SDA+*%
X146208099Y-60719999D03*
%TO.P,U1,9,DSDAM_9*%
%TO.N,/SDA-*%
X146208099Y-61219998D03*
%TO.P,U1,10,VDD(B)_10*%
%TO.N,+3V3B*%
X146208099Y-61720000D03*
%TD*%
D13*
%TO.P,J6,1,Pin_1_1*%
%TO.N,/SCL*%
X154800000Y-55490000D03*
%TO.P,J6,2,Pin_2_2*%
%TO.N,/SDA*%
X154800000Y-58030000D03*
%TO.P,J6,3,Pin_3_3*%
%TO.N,/EN*%
X154800000Y-60569999D03*
%TO.P,J6,4,Pin_4_4*%
%TO.N,+3V3*%
X154800000Y-63110000D03*
%TO.P,J6,5,Pin_5_5*%
%TO.N,GND*%
X154800000Y-65650000D03*
%TD*%
D14*
%TO.P,R9,1*%
%TO.N,/SDA+*%
X140724999Y-61450000D03*
%TO.P,R9,2*%
%TO.N,+3V3B*%
X142374999Y-61450000D03*
%TD*%
%TO.P,R6,1*%
%TO.N,/SCL+*%
X140724999Y-59940000D03*
%TO.P,R6,2*%
%TO.N,+3V3B*%
X142374999Y-59940000D03*
%TD*%
D10*
%TO.P,TP2,1,1_1*%
%TO.N,/SDA-P*%
X135989999Y-65670000D03*
%TD*%
D15*
%TO.P,J8,1,Pin_1_1*%
%TO.N,GND*%
X140189999Y-53460000D03*
%TO.P,J8,2,Pin_2_2*%
%TO.N,+3V3*%
X139189999Y-53460000D03*
%TO.P,J8,3,Pin_3_3*%
%TO.N,/SDA*%
X138189999Y-53460000D03*
%TO.P,J8,4,Pin_4_4*%
%TO.N,/SCL*%
X137189999Y-53460000D03*
D16*
%TO.P,J8,NC1,5_NC1*%
%TO.N,unconnected-(J8-5-PadNC1)*%
X141489999Y-49585000D03*
%TO.P,J8,NC2,6_NC2*%
%TO.N,unconnected-(J8-6-PadNC2)*%
X135889999Y-49585000D03*
%TD*%
D17*
%TO.P,REF\u002A\u002A,1*%
%TO.N,N/C*%
X153449999Y-70020000D03*
%TD*%
D18*
%TO.P,J5,1,1_1*%
%TO.N,+3V3*%
X143929999Y-68175000D03*
%TO.P,J5,2,2_2*%
%TO.N,/SCL*%
X145179999Y-68175000D03*
%TO.P,J5,3,3_3*%
%TO.N,/SDA*%
X146429999Y-68175000D03*
%TO.P,J5,4,4_4*%
%TO.N,GND*%
X147679999Y-68175000D03*
D19*
%TO.P,J5,MP1*%
%TO.N,N/C*%
X142079999Y-71375000D03*
%TO.P,J5,MP2*%
X149529999Y-71375000D03*
%TD*%
D20*
%TO.P,C3,1*%
%TO.N,GND*%
X149184999Y-56500000D03*
%TO.P,C3,2*%
%TO.N,+3V3B*%
X147634999Y-56500000D03*
%TD*%
D14*
%TO.P,R1,1*%
%TO.N,+3V3*%
X147569999Y-64980000D03*
%TO.P,R1,2*%
%TO.N,/EN*%
X149219999Y-64980000D03*
%TD*%
D10*
%TO.P,TP3,1,1_1*%
%TO.N,/SDA+P*%
X141589999Y-65660000D03*
%TD*%
D21*
%TO.P,R4,1*%
%TO.N,GNDP*%
X142379999Y-58380000D03*
%TO.P,R4,2*%
%TO.N,/SCL-*%
X140729999Y-58380000D03*
%TD*%
D17*
%TO.P,REF\u002A\u002A,1*%
%TO.N,N/C*%
X131819999Y-51430000D03*
%TD*%
D10*
%TO.P,TP4,1,1_1*%
%TO.N,/SCL+P*%
X141569999Y-55780000D03*
%TD*%
D22*
%TO.P,R2,1*%
%TO.N,Net-(JP4-A)*%
X136639999Y-71265000D03*
%TO.P,R2,2*%
%TO.N,+3V3*%
X136639999Y-69615000D03*
%TD*%
%TO.P,R8,1*%
%TO.N,/SDA-*%
X139064999Y-63025000D03*
%TO.P,R8,2*%
%TO.N,/SDA+*%
X139064999Y-61375000D03*
%TD*%
D20*
%TO.P,C2,1*%
%TO.N,GND*%
X149194999Y-58040000D03*
%TO.P,C2,2*%
%TO.N,+3V3B*%
X147644999Y-58040000D03*
%TD*%
D23*
%TO.P,R5,1*%
%TO.N,/SCL-*%
X139064999Y-58375000D03*
%TO.P,R5,2*%
%TO.N,/SCL+*%
X139064999Y-60025000D03*
%TD*%
D15*
%TO.P,J9,1,Pin_1_1*%
%TO.N,GND*%
X148029999Y-53450000D03*
%TO.P,J9,2,Pin_2_2*%
%TO.N,+3V3*%
X147029999Y-53450000D03*
%TO.P,J9,3,Pin_3_3*%
%TO.N,/SDA*%
X146029999Y-53450000D03*
%TO.P,J9,4,Pin_4_4*%
%TO.N,/SCL*%
X145029999Y-53450000D03*
D16*
%TO.P,J9,NC1,5_NC1*%
%TO.N,unconnected-(J9-5-PadNC1)*%
X149329999Y-49575000D03*
%TO.P,J9,NC2,6_NC2*%
%TO.N,unconnected-(J9-6-PadNC2)*%
X143729999Y-49575000D03*
%TD*%
D24*
%TO.P,J1,1,Pin_1_1*%
%TO.N,+3V3B*%
X133509999Y-57585000D03*
%TO.P,J1,2,Pin_2_2*%
%TO.N,/SCL-P*%
X133509999Y-58835000D03*
%TO.P,J1,3,Pin_3_3*%
%TO.N,/SCL+P*%
X133509999Y-60085000D03*
%TO.P,J1,4,Pin_4_4*%
%TO.N,/SDA+P*%
X133509999Y-61335000D03*
%TO.P,J1,5,Pin_5_5*%
%TO.N,/SDA-P*%
X133509999Y-62585000D03*
%TO.P,J1,6,Pin_6_6*%
%TO.N,GNDP*%
X133509999Y-63835000D03*
D25*
%TO.P,J1,MP1*%
%TO.N,N/C*%
X130309999Y-55735000D03*
%TO.P,J1,MP2*%
X130309999Y-65685000D03*
%TD*%
D26*
%TO.P,CR2,1,1_1*%
%TO.N,/SCL-P*%
X135304999Y-58590002D03*
%TO.P,CR2,2,2_2*%
%TO.N,GNDP*%
X135304999Y-59240001D03*
%TO.P,CR2,3,3_3*%
%TO.N,/SCL+P*%
X135304999Y-59890000D03*
%TO.P,CR2,4,4_4*%
%TO.N,/SCL+*%
X137527499Y-59890000D03*
%TO.P,CR2,5,5_5*%
%TO.N,/SCL-*%
X137527499Y-58590002D03*
%TD*%
D17*
%TO.P,REF\u002A\u002A,1*%
%TO.N,N/C*%
X131829999Y-70010000D03*
%TD*%
D22*
%TO.P,R3,1*%
%TO.N,Net-(JP5-B)*%
X139179999Y-71265000D03*
%TO.P,R3,2*%
%TO.N,+3V3*%
X139179999Y-69615000D03*
%TD*%
D26*
%TO.P,CR1,1,1_1*%
%TO.N,/SDA+P*%
X135299999Y-61505000D03*
%TO.P,CR1,2,2_2*%
%TO.N,GNDP*%
X135299999Y-62154999D03*
%TO.P,CR1,3,3_3*%
%TO.N,/SDA-P*%
X135299999Y-62804998D03*
%TO.P,CR1,4,4_4*%
%TO.N,/SDA-*%
X137522499Y-62804998D03*
%TO.P,CR1,5,5_5*%
%TO.N,/SDA+*%
X137522499Y-61505000D03*
%TD*%
D21*
%TO.P,R7,1*%
%TO.N,GNDP*%
X142374999Y-63030000D03*
%TO.P,R7,2*%
%TO.N,/SDA-*%
X140724999Y-63030000D03*
%TD*%
D17*
%TO.P,REF\u002A\u002A,1*%
%TO.N,N/C*%
X153439999Y-51440000D03*
%TD*%
D27*
%TO.N,/SCL-P*%
X133509999Y-58835000D03*
X135989999Y-55750000D03*
%TO.N,GND*%
X152069999Y-59320000D03*
X148029999Y-53450000D03*
X147624999Y-63410000D03*
X140189999Y-53460000D03*
X147679999Y-68175000D03*
X149194999Y-58040000D03*
X149184999Y-56500000D03*
%TO.N,+3V3*%
X133259999Y-54685002D03*
%TO.N,/SDA*%
X146429999Y-68175000D03*
X149319999Y-60810000D03*
%TO.N,/EN*%
X149219999Y-64980000D03*
%TO.N,/SCL*%
X145179999Y-68175000D03*
X149329999Y-59750000D03*
X145029999Y-53450000D03*
X137189999Y-53460000D03*
%TO.N,/SCL-*%
X144899999Y-59190001D03*
X140729999Y-58380000D03*
%TO.N,/SCL+*%
X140724999Y-59940000D03*
X144070000Y-59950000D03*
%TO.N,/SDA+*%
X140724999Y-61450000D03*
X144070000Y-61060000D03*
%TO.N,/SDA-*%
X140724999Y-63030000D03*
X144904999Y-61734999D03*
%TO.N,+3V3B*%
X133259999Y-55985000D03*
%TO.N,/SDA-P*%
X135989999Y-65670000D03*
X133509999Y-62585000D03*
%TO.N,/SDA+P*%
X141589999Y-65660000D03*
X133509999Y-61335000D03*
%TO.N,GNDP*%
X133509999Y-63835000D03*
X142379999Y-58380000D03*
X136419999Y-59240000D03*
X142374999Y-63030000D03*
X136405001Y-62154999D03*
%TO.N,/SCL+P*%
X141569999Y-55780000D03*
X133509999Y-60085000D03*
%TO.N,Net-(JP4-A)*%
X136639999Y-71265000D03*
%TO.N,Net-(JP5-B)*%
X139179999Y-71265000D03*
%TD*%
%TO.N,/SCL-P*%
D28*
X133509999Y-58835000D02*
X133754997Y-58590002D01*
X133754997Y-58590002D02*
X135304999Y-58590002D01*
%TO.N,GND*%
X151670001Y-59719998D02*
X152069999Y-59320000D01*
X150614999Y-59719998D02*
X151670001Y-59719998D01*
%TO.N,+3V3*%
X150614999Y-61720000D02*
X150614999Y-62375000D01*
X150614999Y-61720000D02*
X151699999Y-61720000D01*
%TO.N,/SDA*%
X146029999Y-51480000D02*
X138889999Y-51480000D01*
X138889999Y-51480000D02*
X138189999Y-52180000D01*
X146029999Y-53450000D02*
X146029999Y-51480000D01*
X148250000Y-51480000D02*
X154800000Y-58030000D01*
X149729997Y-61219998D02*
X149319999Y-60810000D01*
X146029999Y-51480000D02*
X148250000Y-51480000D01*
X150614999Y-61219998D02*
X149729997Y-61219998D01*
X138189999Y-52180000D02*
X138189999Y-53460000D01*
%TO.N,/EN*%
X150614999Y-60719999D02*
X154650000Y-60719999D01*
X154650000Y-60719999D02*
X154800000Y-60569999D01*
X154659999Y-60719999D02*
X154809999Y-60569999D01*
%TO.N,/SCL*%
X149799999Y-60220000D02*
X149329999Y-59750000D01*
X150614999Y-60220000D02*
X149799999Y-60220000D01*
%TO.N,/SCL-*%
X137527499Y-58590002D02*
X138849997Y-58590002D01*
X144899999Y-59190001D02*
X145429997Y-59719998D01*
X145429997Y-59719998D02*
X146208099Y-59719998D01*
X139064999Y-58375000D02*
X140724999Y-58375000D01*
X138849997Y-58590002D02*
X139064999Y-58375000D01*
X140724999Y-58375000D02*
X140729999Y-58380000D01*
%TO.N,/SCL+*%
X139149999Y-59940000D02*
X139064999Y-60025000D01*
X137527499Y-59890000D02*
X138929999Y-59890000D01*
X140724999Y-59940000D02*
X139149999Y-59940000D01*
X146208099Y-60220000D02*
X145222891Y-60219999D01*
X138929999Y-59890000D02*
X139064999Y-60025000D01*
X145222891Y-60219999D02*
X144952892Y-59950000D01*
X144952892Y-59950000D02*
X144070000Y-59950000D01*
%TO.N,/SDA+*%
X145212894Y-60719998D02*
X144872892Y-61060000D01*
X139139999Y-61450000D02*
X139064999Y-61375000D01*
X138934999Y-61505000D02*
X139064999Y-61375000D01*
X137522499Y-61505000D02*
X138934999Y-61505000D01*
X146208099Y-60719999D02*
X145212894Y-60719998D01*
X144872892Y-61060000D02*
X144070000Y-61060000D01*
X140724999Y-61450000D02*
X139139999Y-61450000D01*
%TO.N,/SDA-*%
X140724999Y-63030000D02*
X139069999Y-63030000D01*
X139069999Y-63030000D02*
X139064999Y-63025000D01*
X144904999Y-61734999D02*
X145420001Y-61219998D01*
X138844997Y-62804998D02*
X139064999Y-63025000D01*
X145420001Y-61219998D02*
X146208099Y-61219998D01*
X137522499Y-62804998D02*
X138844997Y-62804998D01*
%TO.N,+3V3B*%
X147634999Y-56500000D02*
X147634999Y-58030000D01*
X145738099Y-62730000D02*
X146208099Y-62260000D01*
X147644999Y-58040000D02*
X147644999Y-61239548D01*
X147644999Y-61239548D02*
X147164547Y-61720000D01*
X143560000Y-62730000D02*
X143330000Y-62500000D01*
X147164547Y-61720000D02*
X146208099Y-61720000D01*
X145738099Y-62730000D02*
X143560000Y-62730000D01*
X146208099Y-62260000D02*
X146208099Y-61720000D01*
%TO.N,/SDA-P*%
X133729997Y-62804998D02*
X133509999Y-62585000D01*
X135299999Y-62804998D02*
X133729997Y-62804998D01*
%TO.N,/SDA+P*%
X135299999Y-61505000D02*
X133679999Y-61505000D01*
X133679999Y-61505000D02*
X133509999Y-61335000D01*
%TO.N,GNDP*%
X135304999Y-59240001D02*
X136419999Y-59240000D01*
X135299999Y-62154999D02*
X136405001Y-62154999D01*
X136405001Y-62154999D02*
X136405000Y-62154999D01*
%TO.N,/SCL+P*%
X133704999Y-59890000D02*
X133509999Y-60085000D01*
X135304999Y-59890000D02*
X133704999Y-59890000D01*
%TD*%
%TA.AperFunction,Conductor*%
%TO.N,+3V3*%
G36*
X134943265Y-48475521D02*
G01*
X134956584Y-48479432D01*
X135015362Y-48517206D01*
X135044387Y-48580760D01*
X135045954Y-48591657D01*
X135043004Y-48612177D01*
X135044860Y-48612388D01*
X135040002Y-48655201D01*
X135039499Y-48660318D01*
X135039499Y-48660321D01*
X135039499Y-50509678D01*
X135039499Y-50509680D01*
X135039498Y-50509680D01*
X135054027Y-50582717D01*
X135054031Y-50582735D01*
X135054032Y-50582739D01*
X135054378Y-50583350D01*
X135054579Y-50583558D01*
X135109398Y-50665601D01*
X135168421Y-50705038D01*
X135179396Y-50712371D01*
X135179399Y-50712374D01*
X135192255Y-50720964D01*
X135192256Y-50720964D01*
X135192259Y-50720966D01*
X135192263Y-50720967D01*
X135192279Y-50720970D01*
X135192287Y-50720972D01*
X135237020Y-50729869D01*
X135257680Y-50733979D01*
X135260414Y-50734703D01*
X135265322Y-50735500D01*
X136514675Y-50735500D01*
X136518795Y-50735500D01*
X136526647Y-50733117D01*
X136587739Y-50720966D01*
X136670600Y-50665601D01*
X136725965Y-50582740D01*
X136740499Y-50509674D01*
X136740499Y-48660326D01*
X136740499Y-48660323D01*
X136740499Y-48660139D01*
X136740067Y-48658153D01*
X136735696Y-48636180D01*
X136733806Y-48600941D01*
X136735044Y-48587108D01*
X136760624Y-48522093D01*
X136817294Y-48481227D01*
X136827690Y-48477559D01*
X136868933Y-48470500D01*
X140508333Y-48470500D01*
X140543265Y-48475521D01*
X140556584Y-48479432D01*
X140615362Y-48517206D01*
X140644387Y-48580760D01*
X140645954Y-48591657D01*
X140644834Y-48633499D01*
X140639499Y-48660318D01*
X140639499Y-48660321D01*
X140639499Y-50509678D01*
X140639499Y-50509680D01*
X140639498Y-50509680D01*
X140654027Y-50582717D01*
X140654031Y-50582735D01*
X140654032Y-50582739D01*
X140654378Y-50583350D01*
X140654579Y-50583558D01*
X140709398Y-50665601D01*
X140768421Y-50705038D01*
X140779396Y-50712371D01*
X140779399Y-50712374D01*
X140792255Y-50720964D01*
X140792256Y-50720964D01*
X140792259Y-50720966D01*
X140792263Y-50720967D01*
X140792279Y-50720970D01*
X140792287Y-50720972D01*
X140837020Y-50729869D01*
X140857680Y-50733979D01*
X140860414Y-50734703D01*
X140865322Y-50735500D01*
X142114675Y-50735500D01*
X142118795Y-50735500D01*
X142126647Y-50733117D01*
X142187739Y-50720966D01*
X142270600Y-50665601D01*
X142325965Y-50582740D01*
X142340499Y-50509674D01*
X142340499Y-48660326D01*
X142340499Y-48660323D01*
X142340499Y-48660139D01*
X142340067Y-48658153D01*
X142335696Y-48636180D01*
X142333806Y-48600941D01*
X142335044Y-48587108D01*
X142360624Y-48522093D01*
X142417294Y-48481227D01*
X142427690Y-48477559D01*
X142468933Y-48470500D01*
X142746344Y-48470500D01*
X142781276Y-48475521D01*
X142794595Y-48479432D01*
X142853373Y-48517206D01*
X142882398Y-48580760D01*
X142883965Y-48591657D01*
X142882845Y-48633498D01*
X142879499Y-48650318D01*
X142879499Y-50499677D01*
X142879498Y-50499680D01*
X142894027Y-50572717D01*
X142894031Y-50572733D01*
X142894032Y-50572740D01*
X142912403Y-50600234D01*
X142912404Y-50600235D01*
X142949398Y-50655601D01*
X143023387Y-50705038D01*
X143032259Y-50710966D01*
X143032263Y-50710967D01*
X143104298Y-50725295D01*
X143104547Y-50725374D01*
X143105322Y-50725500D01*
X144354675Y-50725500D01*
X144358795Y-50725500D01*
X144366647Y-50723117D01*
X144427739Y-50710966D01*
X144510600Y-50655601D01*
X144565965Y-50572740D01*
X144568644Y-50559274D01*
X144580499Y-50499677D01*
X144580499Y-48650322D01*
X144577686Y-48636184D01*
X144575795Y-48600941D01*
X144577033Y-48587108D01*
X144602614Y-48522093D01*
X144659285Y-48481227D01*
X144659285Y-48481226D01*
X144669677Y-48477561D01*
X144710924Y-48470500D01*
X148346344Y-48470500D01*
X148381276Y-48475521D01*
X148394595Y-48479432D01*
X148453373Y-48517206D01*
X148482398Y-48580760D01*
X148483965Y-48591657D01*
X148482845Y-48633498D01*
X148479499Y-48650318D01*
X148479499Y-50499677D01*
X148479498Y-50499680D01*
X148494027Y-50572717D01*
X148494031Y-50572733D01*
X148494032Y-50572740D01*
X148512403Y-50600234D01*
X148512404Y-50600235D01*
X148549398Y-50655601D01*
X148623387Y-50705038D01*
X148632259Y-50710966D01*
X148632263Y-50710967D01*
X148704298Y-50725295D01*
X148704547Y-50725374D01*
X148705322Y-50725500D01*
X149954675Y-50725500D01*
X149958795Y-50725500D01*
X149966647Y-50723117D01*
X150027739Y-50710966D01*
X150110600Y-50655601D01*
X150165965Y-50572740D01*
X150168644Y-50559274D01*
X150180499Y-50499677D01*
X150180499Y-48650322D01*
X150177686Y-48636184D01*
X150175795Y-48600941D01*
X150177033Y-48587108D01*
X150202614Y-48522093D01*
X150259285Y-48481227D01*
X150259285Y-48481226D01*
X150269677Y-48477561D01*
X150310924Y-48470500D01*
X153634789Y-48470500D01*
X153638224Y-48470547D01*
X153641759Y-48470647D01*
X153645137Y-48470788D01*
X153931866Y-48486890D01*
X153938739Y-48487470D01*
X153945661Y-48488250D01*
X153952519Y-48489218D01*
X154230403Y-48536433D01*
X154237200Y-48537785D01*
X154237218Y-48537789D01*
X154243994Y-48539335D01*
X154250699Y-48541064D01*
X154278591Y-48549100D01*
X154521578Y-48619103D01*
X154528171Y-48621205D01*
X154534753Y-48623508D01*
X154541219Y-48625976D01*
X154801632Y-48733843D01*
X154807972Y-48736680D01*
X154814230Y-48739694D01*
X154820388Y-48742875D01*
X154983442Y-48832992D01*
X155067099Y-48879228D01*
X155073051Y-48882738D01*
X155078965Y-48886455D01*
X155084725Y-48890304D01*
X155314601Y-49053409D01*
X155320164Y-49057596D01*
X155325593Y-49061926D01*
X155330894Y-49066403D01*
X155500536Y-49218006D01*
X155541044Y-49254206D01*
X155546098Y-49258984D01*
X155551013Y-49263899D01*
X155555791Y-49268953D01*
X155743592Y-49479101D01*
X155748066Y-49484398D01*
X155752408Y-49489842D01*
X155756586Y-49495392D01*
X155919693Y-49725272D01*
X155923547Y-49731040D01*
X155927252Y-49736936D01*
X155930777Y-49742911D01*
X156067113Y-49989593D01*
X156070303Y-49995768D01*
X156073317Y-50002026D01*
X156076160Y-50008379D01*
X156184012Y-50268757D01*
X156186491Y-50275252D01*
X156188787Y-50281813D01*
X156190901Y-50288443D01*
X156268925Y-50559270D01*
X156270662Y-50566006D01*
X156272209Y-50572784D01*
X156273566Y-50579605D01*
X156320776Y-50857460D01*
X156321749Y-50864357D01*
X156322525Y-50871249D01*
X156323109Y-50878170D01*
X156339207Y-51164802D01*
X156339353Y-51168273D01*
X156339450Y-51171726D01*
X156339499Y-51175208D01*
X156339499Y-70164790D01*
X156339450Y-70168272D01*
X156339353Y-70171725D01*
X156339207Y-70175196D01*
X156323109Y-70461828D01*
X156322525Y-70468749D01*
X156321749Y-70475641D01*
X156320776Y-70482538D01*
X156273566Y-70760393D01*
X156272209Y-70767214D01*
X156270662Y-70773992D01*
X156268925Y-70780728D01*
X156190901Y-71051555D01*
X156188787Y-71058185D01*
X156186491Y-71064746D01*
X156184012Y-71071241D01*
X156076160Y-71331619D01*
X156073317Y-71337972D01*
X156070303Y-71344230D01*
X156067113Y-71350405D01*
X155930777Y-71597087D01*
X155927242Y-71603078D01*
X155925532Y-71605800D01*
X155923551Y-71608953D01*
X155919693Y-71614726D01*
X155756586Y-71844606D01*
X155752390Y-71850180D01*
X155748067Y-71855599D01*
X155743592Y-71860897D01*
X155555791Y-72071045D01*
X155551013Y-72076099D01*
X155546098Y-72081014D01*
X155541044Y-72085792D01*
X155330896Y-72273593D01*
X155325598Y-72278068D01*
X155320179Y-72282391D01*
X155314605Y-72286587D01*
X155084725Y-72449694D01*
X155078952Y-72453552D01*
X155075799Y-72455533D01*
X155073077Y-72457243D01*
X155067086Y-72460778D01*
X154820404Y-72597114D01*
X154814229Y-72600304D01*
X154807971Y-72603318D01*
X154801618Y-72606161D01*
X154541240Y-72714013D01*
X154534745Y-72716492D01*
X154528184Y-72718788D01*
X154521554Y-72720902D01*
X154250727Y-72798926D01*
X154243991Y-72800663D01*
X154237213Y-72802210D01*
X154230392Y-72803567D01*
X153952537Y-72850777D01*
X153945640Y-72851750D01*
X153938748Y-72852526D01*
X153931827Y-72853110D01*
X153645195Y-72869208D01*
X153641724Y-72869353D01*
X153638259Y-72869451D01*
X153634789Y-72869500D01*
X150422329Y-72869500D01*
X150387388Y-72864475D01*
X150372389Y-72860070D01*
X150313643Y-72822327D01*
X150312456Y-72820958D01*
X150284976Y-72766083D01*
X150283331Y-72758521D01*
X150280499Y-72732168D01*
X150280499Y-70000139D01*
X150280063Y-69998134D01*
X150268348Y-69939239D01*
X150267504Y-69930677D01*
X150265329Y-69924598D01*
X150259185Y-69917112D01*
X150229362Y-69872478D01*
X151199499Y-69872478D01*
X151199499Y-70167520D01*
X151211958Y-70262148D01*
X151231570Y-70411113D01*
X151238006Y-70459993D01*
X151244047Y-70482537D01*
X151311675Y-70734931D01*
X151311681Y-70734952D01*
X151314359Y-70744950D01*
X151314366Y-70744970D01*
X151426971Y-71016819D01*
X151427231Y-71017457D01*
X151427255Y-71017507D01*
X151568987Y-71262994D01*
X151574760Y-71272993D01*
X151754351Y-71507040D01*
X151754357Y-71507047D01*
X151962951Y-71715641D01*
X151962958Y-71715647D01*
X152197005Y-71895238D01*
X152232100Y-71915500D01*
X152449028Y-72040744D01*
X152454243Y-72043754D01*
X152454262Y-72043765D01*
X152454848Y-72044103D01*
X152459987Y-72045847D01*
X152725047Y-72155639D01*
X153010006Y-72231993D01*
X153302493Y-72270500D01*
X153302500Y-72270500D01*
X153597498Y-72270500D01*
X153597505Y-72270500D01*
X153889992Y-72231993D01*
X154174951Y-72155639D01*
X154447506Y-72042743D01*
X154702993Y-71895238D01*
X154937041Y-71715646D01*
X155145645Y-71507042D01*
X155325237Y-71272994D01*
X155472742Y-71017507D01*
X155585638Y-70744952D01*
X155661992Y-70459993D01*
X155700499Y-70167506D01*
X155700499Y-69872494D01*
X155661992Y-69580007D01*
X155585638Y-69295048D01*
X155577333Y-69274999D01*
X155577003Y-69274203D01*
X155522987Y-69143795D01*
X155514564Y-69123460D01*
X155472742Y-69022493D01*
X155472736Y-69022483D01*
X155472735Y-69022480D01*
X155466966Y-69012488D01*
X155466965Y-69012487D01*
X155325240Y-68767010D01*
X155317563Y-68757005D01*
X155145646Y-68532959D01*
X155145640Y-68532952D01*
X154937046Y-68324358D01*
X154937039Y-68324352D01*
X154702992Y-68144761D01*
X154447506Y-67997256D01*
X154447456Y-67997232D01*
X154446818Y-67996972D01*
X154179002Y-67886037D01*
X154179001Y-67886037D01*
X154174961Y-67884363D01*
X153953832Y-67825112D01*
X153889992Y-67808007D01*
X153889986Y-67808006D01*
X153889985Y-67808006D01*
X153871757Y-67805606D01*
X153841112Y-67801571D01*
X153841111Y-67801570D01*
X153597519Y-67769500D01*
X153597512Y-67769500D01*
X153597505Y-67769500D01*
X153302493Y-67769500D01*
X153302485Y-67769500D01*
X153302477Y-67769500D01*
X153024084Y-67806152D01*
X153024084Y-67806153D01*
X153022446Y-67806368D01*
X153010006Y-67808006D01*
X152762368Y-67874361D01*
X152725050Y-67884359D01*
X152725027Y-67884368D01*
X152453178Y-67996972D01*
X152452548Y-67997228D01*
X152452490Y-67997256D01*
X152197004Y-68144761D01*
X152017413Y-68282567D01*
X151975983Y-68314358D01*
X151962957Y-68324353D01*
X151962950Y-68324359D01*
X151962942Y-68324366D01*
X151754365Y-68532943D01*
X151754358Y-68532951D01*
X151754352Y-68532958D01*
X151574760Y-68767005D01*
X151427255Y-69022491D01*
X151427227Y-69022549D01*
X151426971Y-69023179D01*
X151314367Y-69295028D01*
X151314358Y-69295051D01*
X151258881Y-69502099D01*
X151240684Y-69570015D01*
X151240679Y-69570035D01*
X151238006Y-69580007D01*
X151238002Y-69580035D01*
X151199499Y-69872478D01*
X150229362Y-69872478D01*
X150210601Y-69844400D01*
X150137890Y-69795816D01*
X150127739Y-69789033D01*
X150127735Y-69789032D01*
X150127734Y-69789032D01*
X150127724Y-69789030D01*
X150127708Y-69789026D01*
X150054679Y-69774500D01*
X150054676Y-69774500D01*
X150054673Y-69774500D01*
X149005325Y-69774500D01*
X149005322Y-69774500D01*
X149005318Y-69774500D01*
X148932284Y-69789027D01*
X148932261Y-69789032D01*
X148932257Y-69789033D01*
X148849398Y-69844399D01*
X148794032Y-69927258D01*
X148794031Y-69927266D01*
X148794027Y-69927281D01*
X148779499Y-70000318D01*
X148779499Y-72727670D01*
X148774474Y-72762614D01*
X148770069Y-72777612D01*
X148732326Y-72836355D01*
X148730957Y-72837542D01*
X148676096Y-72865018D01*
X148668538Y-72866663D01*
X148642167Y-72869500D01*
X142972329Y-72869500D01*
X142937388Y-72864475D01*
X142922389Y-72860070D01*
X142863643Y-72822327D01*
X142862456Y-72820958D01*
X142834976Y-72766083D01*
X142833331Y-72758521D01*
X142830499Y-72732168D01*
X142830499Y-70001315D01*
X142830499Y-70000323D01*
X142830498Y-70000321D01*
X142815966Y-69927264D01*
X142815965Y-69927260D01*
X142815962Y-69927256D01*
X142803480Y-69908575D01*
X142803480Y-69908574D01*
X142760601Y-69844401D01*
X142760600Y-69844400D01*
X142760600Y-69844399D01*
X142760599Y-69844398D01*
X142687890Y-69795816D01*
X142683825Y-69792480D01*
X142677738Y-69789033D01*
X142677734Y-69789032D01*
X142677724Y-69789030D01*
X142677708Y-69789026D01*
X142604679Y-69774500D01*
X142604676Y-69774500D01*
X142604673Y-69774500D01*
X141555325Y-69774500D01*
X141555322Y-69774500D01*
X141555318Y-69774500D01*
X141482284Y-69789027D01*
X141482261Y-69789032D01*
X141482257Y-69789033D01*
X141399398Y-69844399D01*
X141344032Y-69927258D01*
X141344031Y-69927266D01*
X141344027Y-69927281D01*
X141329499Y-70000318D01*
X141329499Y-72727670D01*
X141324474Y-72762614D01*
X141320069Y-72777612D01*
X141282326Y-72836355D01*
X141280957Y-72837542D01*
X141226096Y-72865018D01*
X141218538Y-72866663D01*
X141192167Y-72869500D01*
X131645209Y-72869500D01*
X131641737Y-72869451D01*
X131638273Y-72869353D01*
X131634802Y-72869208D01*
X131348169Y-72853110D01*
X131341248Y-72852526D01*
X131334356Y-72851750D01*
X131327459Y-72850777D01*
X131049604Y-72803567D01*
X131042783Y-72802210D01*
X131036005Y-72800663D01*
X131029269Y-72798926D01*
X130758442Y-72720902D01*
X130751812Y-72718788D01*
X130745251Y-72716492D01*
X130738756Y-72714013D01*
X130478378Y-72606161D01*
X130472025Y-72603318D01*
X130465767Y-72600304D01*
X130459592Y-72597114D01*
X130212910Y-72460778D01*
X130206935Y-72457253D01*
X130201039Y-72453548D01*
X130195271Y-72449694D01*
X130051410Y-72347620D01*
X129965380Y-72286579D01*
X129959863Y-72282426D01*
X129954377Y-72278051D01*
X129949121Y-72273612D01*
X129945645Y-72270506D01*
X129945640Y-72270497D01*
X129945638Y-72270500D01*
X129902547Y-72231991D01*
X129902547Y-72231990D01*
X129738952Y-72085792D01*
X129733898Y-72081014D01*
X129728983Y-72076099D01*
X129724205Y-72071045D01*
X129558157Y-71885239D01*
X129558157Y-71885238D01*
X129536396Y-71860887D01*
X129531925Y-71855594D01*
X129527580Y-71850146D01*
X129523405Y-71844598D01*
X129360303Y-71614726D01*
X129356454Y-71608966D01*
X129352737Y-71603052D01*
X129349219Y-71597087D01*
X129306208Y-71519265D01*
X129293929Y-71497047D01*
X129212879Y-71350399D01*
X129209693Y-71344231D01*
X129206679Y-71337973D01*
X129203847Y-71331644D01*
X129095977Y-71071224D01*
X129093505Y-71064746D01*
X129091209Y-71058185D01*
X129089101Y-71051574D01*
X129011067Y-70780714D01*
X129009332Y-70773984D01*
X129007785Y-70767204D01*
X129006430Y-70760388D01*
X129003450Y-70742849D01*
X129003450Y-70742850D01*
X128959217Y-70482520D01*
X128958248Y-70475652D01*
X128958247Y-70475641D01*
X128957469Y-70468740D01*
X128956889Y-70461867D01*
X128940787Y-70175138D01*
X128940645Y-70171725D01*
X128940546Y-70168225D01*
X128940499Y-70164790D01*
X128940499Y-69862478D01*
X129579499Y-69862478D01*
X129579499Y-70157520D01*
X129593275Y-70262148D01*
X129603916Y-70342972D01*
X129618006Y-70449993D01*
X129647902Y-70561566D01*
X129662850Y-70617354D01*
X129694358Y-70734947D01*
X129694366Y-70734970D01*
X129806971Y-71006819D01*
X129807231Y-71007457D01*
X129807255Y-71007507D01*
X129813029Y-71017507D01*
X129954760Y-71262993D01*
X130134351Y-71497040D01*
X130134357Y-71497047D01*
X130342951Y-71705641D01*
X130342958Y-71705647D01*
X130577005Y-71885238D01*
X130678241Y-71943686D01*
X130829028Y-72030744D01*
X130834243Y-72033754D01*
X130834262Y-72033765D01*
X130834848Y-72034103D01*
X130839987Y-72035847D01*
X131105047Y-72145639D01*
X131390006Y-72221993D01*
X131682493Y-72260500D01*
X131682500Y-72260500D01*
X131977498Y-72260500D01*
X131977505Y-72260500D01*
X132269992Y-72221993D01*
X132554951Y-72145639D01*
X132827506Y-72032743D01*
X133082993Y-71885238D01*
X133317041Y-71705646D01*
X133525645Y-71497042D01*
X133705237Y-71262994D01*
X133850881Y-71010730D01*
X135914499Y-71010730D01*
X135914499Y-71519269D01*
X135914514Y-71519429D01*
X135914514Y-71519431D01*
X135915577Y-71530774D01*
X135915577Y-71530776D01*
X135917352Y-71549699D01*
X135917352Y-71549701D01*
X135959606Y-71670452D01*
X135960241Y-71672267D01*
X135960244Y-71672276D01*
X135962204Y-71677879D01*
X135962205Y-71677881D01*
X135962206Y-71677882D01*
X136042849Y-71787150D01*
X136139264Y-71858307D01*
X136152117Y-71867793D01*
X136280298Y-71912646D01*
X136280302Y-71912647D01*
X136298741Y-71914375D01*
X136310729Y-71915500D01*
X136310733Y-71915500D01*
X136310738Y-71915500D01*
X136969269Y-71915500D01*
X136969270Y-71915500D01*
X136970575Y-71915377D01*
X136999698Y-71912646D01*
X136999700Y-71912646D01*
X137063789Y-71890219D01*
X137127881Y-71867793D01*
X137237149Y-71787150D01*
X137317792Y-71677882D01*
X137345001Y-71600124D01*
X137362645Y-71549701D01*
X137362645Y-71549699D01*
X137365499Y-71519269D01*
X137365499Y-71010730D01*
X138454499Y-71010730D01*
X138454499Y-71519269D01*
X138454887Y-71523416D01*
X138455577Y-71530774D01*
X138455577Y-71530776D01*
X138457352Y-71549699D01*
X138457352Y-71549701D01*
X138499606Y-71670452D01*
X138500241Y-71672267D01*
X138500244Y-71672276D01*
X138502204Y-71677879D01*
X138502205Y-71677881D01*
X138502206Y-71677882D01*
X138582849Y-71787150D01*
X138679264Y-71858307D01*
X138692117Y-71867793D01*
X138820298Y-71912646D01*
X138820302Y-71912647D01*
X138838741Y-71914375D01*
X138850729Y-71915500D01*
X138850733Y-71915500D01*
X138850738Y-71915500D01*
X139509269Y-71915500D01*
X139509270Y-71915500D01*
X139510575Y-71915377D01*
X139539698Y-71912646D01*
X139539700Y-71912646D01*
X139603789Y-71890219D01*
X139667881Y-71867793D01*
X139777149Y-71787150D01*
X139857792Y-71677882D01*
X139885001Y-71600124D01*
X139902645Y-71549701D01*
X139902645Y-71549699D01*
X139905499Y-71519269D01*
X139905499Y-71010730D01*
X139903186Y-70986078D01*
X139903019Y-70982502D01*
X139902645Y-70980300D01*
X139902645Y-70980298D01*
X139857792Y-70852119D01*
X139857791Y-70852117D01*
X139857791Y-70852116D01*
X139777150Y-70742851D01*
X139777149Y-70742850D01*
X139667881Y-70662207D01*
X139667879Y-70662206D01*
X139539703Y-70617354D01*
X139539701Y-70617353D01*
X139539699Y-70617353D01*
X139509269Y-70614500D01*
X139509265Y-70614500D01*
X139509263Y-70614500D01*
X138850733Y-70614500D01*
X138850729Y-70614500D01*
X138832073Y-70616249D01*
X138826068Y-70616812D01*
X138824861Y-70616577D01*
X138820296Y-70617353D01*
X138692117Y-70662206D01*
X138582848Y-70742849D01*
X138502205Y-70852118D01*
X138457352Y-70980297D01*
X138456977Y-70982499D01*
X138456811Y-70986069D01*
X138454499Y-71010730D01*
X137365499Y-71010730D01*
X137363138Y-70985563D01*
X137363097Y-70985077D01*
X137363132Y-70984904D01*
X137363019Y-70982502D01*
X137362645Y-70980300D01*
X137362645Y-70980298D01*
X137317792Y-70852119D01*
X137317791Y-70852117D01*
X137317791Y-70852116D01*
X137237150Y-70742851D01*
X137237149Y-70742850D01*
X137127881Y-70662207D01*
X137127879Y-70662206D01*
X136999703Y-70617354D01*
X136999701Y-70617353D01*
X136999699Y-70617353D01*
X136969269Y-70614500D01*
X136969265Y-70614500D01*
X136969263Y-70614500D01*
X136310733Y-70614500D01*
X136310729Y-70614500D01*
X136292073Y-70616249D01*
X136286068Y-70616812D01*
X136284861Y-70616577D01*
X136280296Y-70617353D01*
X136152117Y-70662206D01*
X136042848Y-70742849D01*
X135962205Y-70852118D01*
X135917352Y-70980297D01*
X135917322Y-70980472D01*
X135917321Y-70980628D01*
X135914499Y-71010730D01*
X133850881Y-71010730D01*
X133852742Y-71007507D01*
X133862033Y-70985077D01*
X133872263Y-70960380D01*
X133872263Y-70960379D01*
X133917106Y-70852118D01*
X133965638Y-70734952D01*
X134041992Y-70449993D01*
X134080499Y-70157506D01*
X134080499Y-69869194D01*
X135915000Y-69869194D01*
X135917849Y-69899603D01*
X135962651Y-70027644D01*
X135962652Y-70027645D01*
X136043206Y-70136792D01*
X136152353Y-70217346D01*
X136280396Y-70262149D01*
X136310777Y-70264998D01*
X136310805Y-70264999D01*
X136889999Y-70264999D01*
X136969189Y-70264999D01*
X136969195Y-70264999D01*
X136999605Y-70262148D01*
X137127644Y-70217346D01*
X137236791Y-70136792D01*
X137317345Y-70027645D01*
X137362148Y-69899604D01*
X137362148Y-69899600D01*
X137362295Y-69898735D01*
X137362327Y-69897684D01*
X137364999Y-69869206D01*
X137364999Y-69869194D01*
X138455000Y-69869194D01*
X138457849Y-69899603D01*
X138502651Y-70027644D01*
X138502652Y-70027645D01*
X138583206Y-70136792D01*
X138692353Y-70217346D01*
X138820396Y-70262149D01*
X138850777Y-70264998D01*
X138850805Y-70264999D01*
X139429999Y-70264999D01*
X139509189Y-70264999D01*
X139509195Y-70264999D01*
X139539605Y-70262148D01*
X139667644Y-70217346D01*
X139776791Y-70136792D01*
X139857345Y-70027645D01*
X139902148Y-69899604D01*
X139902148Y-69899600D01*
X139902522Y-69897398D01*
X139902690Y-69893822D01*
X139904998Y-69869216D01*
X139904999Y-69869197D01*
X139904999Y-69865000D01*
X139429999Y-69865000D01*
X139429999Y-70264999D01*
X138850805Y-70264999D01*
X138929998Y-70264998D01*
X138929999Y-70264998D01*
X138929999Y-69865000D01*
X138455000Y-69865000D01*
X138455000Y-69869194D01*
X137364999Y-69869194D01*
X137364999Y-69865000D01*
X137363344Y-69865000D01*
X136889999Y-69865000D01*
X136889999Y-70264999D01*
X136310805Y-70264999D01*
X136389998Y-70264998D01*
X136389999Y-70264998D01*
X136389999Y-69865000D01*
X135915000Y-69865000D01*
X135915000Y-69869194D01*
X134080499Y-69869194D01*
X134080499Y-69862494D01*
X134078116Y-69844398D01*
X134076198Y-69829825D01*
X134070827Y-69789033D01*
X134070827Y-69789031D01*
X134068914Y-69774500D01*
X134043312Y-69580035D01*
X134041992Y-69570007D01*
X133985934Y-69360793D01*
X135914999Y-69360793D01*
X135914999Y-69365000D01*
X136389999Y-69365000D01*
X136889999Y-69365000D01*
X137364998Y-69365000D01*
X137364998Y-69360803D01*
X137364997Y-69360793D01*
X138454999Y-69360793D01*
X138454999Y-69365000D01*
X138929999Y-69365000D01*
X139429999Y-69365000D01*
X139904998Y-69365000D01*
X139904998Y-69360803D01*
X139902147Y-69330393D01*
X139889779Y-69295048D01*
X139857345Y-69202354D01*
X139824731Y-69158164D01*
X139776791Y-69093207D01*
X139717745Y-69049629D01*
X143379999Y-69049629D01*
X143380009Y-69049678D01*
X143394083Y-69120436D01*
X143394502Y-69122539D01*
X143394503Y-69122543D01*
X143395116Y-69123460D01*
X143449759Y-69205239D01*
X143532454Y-69260494D01*
X143532458Y-69260496D01*
X143597730Y-69273479D01*
X143600464Y-69274203D01*
X143605372Y-69275000D01*
X143605373Y-69275000D01*
X143679999Y-69275000D01*
X143679999Y-68425000D01*
X143379999Y-68425000D01*
X143379999Y-69049629D01*
X139717745Y-69049629D01*
X139680974Y-69022491D01*
X139667643Y-69012652D01*
X139539598Y-68967849D01*
X139539600Y-68967849D01*
X139509210Y-68965000D01*
X139509206Y-68965000D01*
X139429999Y-68965000D01*
X139429999Y-69365000D01*
X138929999Y-69365000D01*
X138929999Y-68965000D01*
X138929998Y-68964999D01*
X138850809Y-68964999D01*
X138820390Y-68967851D01*
X138692353Y-69012652D01*
X138583206Y-69093207D01*
X138502651Y-69202354D01*
X138457848Y-69330396D01*
X138457701Y-69331262D01*
X138457667Y-69332331D01*
X138454999Y-69360793D01*
X137364997Y-69360793D01*
X137362147Y-69330393D01*
X137349779Y-69295048D01*
X137317345Y-69202354D01*
X137284731Y-69158164D01*
X137236791Y-69093207D01*
X137140974Y-69022491D01*
X137127643Y-69012652D01*
X136999598Y-68967849D01*
X136999600Y-68967849D01*
X136969210Y-68965000D01*
X136969206Y-68965000D01*
X136889999Y-68965000D01*
X136889999Y-69365000D01*
X136389999Y-69365000D01*
X136389999Y-68965000D01*
X136389998Y-68964999D01*
X136310809Y-68964999D01*
X136280390Y-68967851D01*
X136152353Y-69012652D01*
X136043206Y-69093207D01*
X135962651Y-69202354D01*
X135917848Y-69330396D01*
X135917701Y-69331262D01*
X135917667Y-69332331D01*
X135914999Y-69360793D01*
X133985934Y-69360793D01*
X133965638Y-69285048D01*
X133961474Y-69274996D01*
X133852743Y-69012494D01*
X133826967Y-68967850D01*
X133826966Y-68967849D01*
X133705237Y-68757006D01*
X133525646Y-68522959D01*
X133525640Y-68522952D01*
X133317046Y-68314358D01*
X133317039Y-68314352D01*
X133082992Y-68134761D01*
X132844823Y-67997254D01*
X132827506Y-67987256D01*
X132827456Y-67987232D01*
X132826818Y-67986972D01*
X132559002Y-67876037D01*
X132559001Y-67876037D01*
X132554961Y-67874363D01*
X132333832Y-67815112D01*
X132269992Y-67798007D01*
X132269986Y-67798006D01*
X132269985Y-67798006D01*
X132251757Y-67795606D01*
X132221112Y-67791571D01*
X132221111Y-67791570D01*
X131977519Y-67759500D01*
X131977512Y-67759500D01*
X131977505Y-67759500D01*
X131682493Y-67759500D01*
X131682485Y-67759500D01*
X131682477Y-67759500D01*
X131404084Y-67796152D01*
X131404084Y-67796153D01*
X131402446Y-67796368D01*
X131390006Y-67798006D01*
X131105050Y-67874359D01*
X131105027Y-67874368D01*
X130833178Y-67986972D01*
X130832548Y-67987228D01*
X130832490Y-67987256D01*
X130577004Y-68134761D01*
X130342957Y-68314353D01*
X130342950Y-68314359D01*
X130342942Y-68314366D01*
X130134365Y-68522943D01*
X130134358Y-68522951D01*
X130134357Y-68522952D01*
X130134351Y-68522959D01*
X130126678Y-68532959D01*
X129954760Y-68757005D01*
X129807257Y-69012488D01*
X129807227Y-69012549D01*
X129806971Y-69013179D01*
X129694367Y-69285028D01*
X129694358Y-69285051D01*
X129618007Y-69570004D01*
X129618007Y-69570005D01*
X129618005Y-69570012D01*
X129618002Y-69570035D01*
X129579499Y-69862478D01*
X128940499Y-69862478D01*
X128940499Y-67300371D01*
X143379999Y-67300371D01*
X143379999Y-67925000D01*
X143679999Y-67925000D01*
X143679999Y-67075000D01*
X144179999Y-67075000D01*
X144179999Y-69275000D01*
X144254625Y-69275000D01*
X144254806Y-69275000D01*
X144256803Y-69274566D01*
X144327539Y-69260496D01*
X144327543Y-69260494D01*
X144410239Y-69205239D01*
X144441694Y-69158163D01*
X144465267Y-69131919D01*
X144475924Y-69123012D01*
X144539982Y-69095126D01*
X144608948Y-69106297D01*
X144613691Y-69108566D01*
X144663269Y-69151530D01*
X144677502Y-69172830D01*
X144699398Y-69205602D01*
X144765550Y-69249802D01*
X144765551Y-69249802D01*
X144781553Y-69260494D01*
X144782259Y-69260966D01*
X144782263Y-69260967D01*
X144852838Y-69275005D01*
X144853561Y-69275214D01*
X144855322Y-69275500D01*
X145504675Y-69275500D01*
X145508795Y-69275500D01*
X145516647Y-69273117D01*
X145577739Y-69260966D01*
X145660600Y-69205601D01*
X145691995Y-69158611D01*
X145715572Y-69132364D01*
X145726229Y-69123457D01*
X145790290Y-69095575D01*
X145859246Y-69106746D01*
X145863972Y-69109007D01*
X145913568Y-69151978D01*
X145949398Y-69205602D01*
X146015550Y-69249802D01*
X146015551Y-69249802D01*
X146031553Y-69260494D01*
X146032259Y-69260966D01*
X146032263Y-69260967D01*
X146102838Y-69275005D01*
X146103561Y-69275214D01*
X146105322Y-69275500D01*
X146754675Y-69275500D01*
X146758795Y-69275500D01*
X146766647Y-69273117D01*
X146827739Y-69260966D01*
X146910600Y-69205601D01*
X146941995Y-69158611D01*
X146965572Y-69132364D01*
X146976229Y-69123457D01*
X147040290Y-69095575D01*
X147109246Y-69106746D01*
X147113972Y-69109007D01*
X147163568Y-69151978D01*
X147199398Y-69205602D01*
X147265550Y-69249802D01*
X147265551Y-69249802D01*
X147281553Y-69260494D01*
X147282259Y-69260966D01*
X147282263Y-69260967D01*
X147352838Y-69275005D01*
X147353561Y-69275214D01*
X147355322Y-69275500D01*
X148004675Y-69275500D01*
X148008795Y-69275500D01*
X148016647Y-69273117D01*
X148077739Y-69260966D01*
X148160600Y-69205601D01*
X148215965Y-69122740D01*
X148230499Y-69049674D01*
X148230499Y-67300326D01*
X148230499Y-67300323D01*
X148230498Y-67300321D01*
X148215966Y-67227264D01*
X148215965Y-67227260D01*
X148202197Y-67206655D01*
X148191992Y-67191382D01*
X148160603Y-67144402D01*
X148160599Y-67144398D01*
X148087890Y-67095816D01*
X148083825Y-67092480D01*
X148077738Y-67089033D01*
X148077734Y-67089032D01*
X148077708Y-67089026D01*
X148004679Y-67074500D01*
X148004676Y-67074500D01*
X148004673Y-67074500D01*
X147355325Y-67074500D01*
X147355322Y-67074500D01*
X147355318Y-67074500D01*
X147282284Y-67089027D01*
X147282261Y-67089032D01*
X147282257Y-67089033D01*
X147199396Y-67144399D01*
X147168004Y-67191382D01*
X147144425Y-67217634D01*
X147133776Y-67226533D01*
X147069715Y-67254422D01*
X147000745Y-67243250D01*
X147000731Y-67243243D01*
X146996006Y-67240982D01*
X146946428Y-67198020D01*
X146941993Y-67191382D01*
X146910600Y-67144399D01*
X146837890Y-67095816D01*
X146827739Y-67089033D01*
X146827736Y-67089032D01*
X146827734Y-67089032D01*
X146827724Y-67089030D01*
X146827708Y-67089026D01*
X146754679Y-67074500D01*
X146754676Y-67074500D01*
X146754673Y-67074500D01*
X146105325Y-67074500D01*
X146105322Y-67074500D01*
X146105318Y-67074500D01*
X146032284Y-67089027D01*
X146032261Y-67089032D01*
X146032257Y-67089033D01*
X145949396Y-67144399D01*
X145918004Y-67191382D01*
X145894425Y-67217634D01*
X145883776Y-67226533D01*
X145819715Y-67254422D01*
X145750745Y-67243250D01*
X145750731Y-67243243D01*
X145746006Y-67240982D01*
X145696428Y-67198020D01*
X145691993Y-67191382D01*
X145660600Y-67144399D01*
X145587890Y-67095816D01*
X145577739Y-67089033D01*
X145577736Y-67089032D01*
X145577734Y-67089032D01*
X145577724Y-67089030D01*
X145577708Y-67089026D01*
X145504679Y-67074500D01*
X145504676Y-67074500D01*
X145504673Y-67074500D01*
X144855325Y-67074500D01*
X144855322Y-67074500D01*
X144855318Y-67074500D01*
X144782284Y-67089027D01*
X144782261Y-67089032D01*
X144782257Y-67089033D01*
X144699397Y-67144398D01*
X144699395Y-67144401D01*
X144667704Y-67191831D01*
X144644118Y-67218088D01*
X144633471Y-67226986D01*
X144569408Y-67254872D01*
X144500448Y-67243701D01*
X144495721Y-67241440D01*
X144446127Y-67198471D01*
X144410238Y-67144760D01*
X144409703Y-67144402D01*
X144327542Y-67089504D01*
X144327536Y-67089502D01*
X144278708Y-67079790D01*
X144254626Y-67075000D01*
X144254625Y-67075000D01*
X144179999Y-67075000D01*
X143679999Y-67075000D01*
X143605373Y-67075000D01*
X143605372Y-67075000D01*
X143590870Y-67077884D01*
X143532459Y-67089502D01*
X143532454Y-67089504D01*
X143449759Y-67144760D01*
X143394503Y-67227455D01*
X143394502Y-67227459D01*
X143380009Y-67300323D01*
X143379999Y-67300371D01*
X128940499Y-67300371D01*
X128940499Y-66577329D01*
X128945522Y-66542393D01*
X128949926Y-66527395D01*
X128987671Y-66468644D01*
X128989040Y-66467457D01*
X129043919Y-66439977D01*
X129051478Y-66438333D01*
X129077831Y-66435500D01*
X131465307Y-66435500D01*
X131532346Y-66455185D01*
X131578101Y-66507989D01*
X131583239Y-66521184D01*
X131597395Y-66564756D01*
X131622542Y-66619306D01*
X131622542Y-66619307D01*
X131663464Y-66663576D01*
X131690211Y-66692511D01*
X131739711Y-66728476D01*
X131810935Y-66764768D01*
X131821337Y-66768148D01*
X131860323Y-66777508D01*
X131890917Y-66782354D01*
X131930889Y-66785500D01*
X135184342Y-66785500D01*
X135184352Y-66785500D01*
X135214396Y-66783727D01*
X135237519Y-66780989D01*
X135267152Y-66775695D01*
X135272747Y-66774351D01*
X135337925Y-66748834D01*
X135384804Y-66722577D01*
X135425878Y-66693949D01*
X135471580Y-66635978D01*
X135528541Y-66595520D01*
X135598335Y-66592278D01*
X135616405Y-66598185D01*
X135674024Y-66622052D01*
X135692554Y-66629727D01*
X135696963Y-66631812D01*
X135698168Y-66632051D01*
X135698169Y-66632052D01*
X135704971Y-66633405D01*
X135891452Y-66670500D01*
X136088542Y-66670500D01*
X136088543Y-66670500D01*
X136104314Y-66667362D01*
X136218581Y-66644632D01*
X136281834Y-66632051D01*
X136366872Y-66596826D01*
X136371931Y-66595223D01*
X136401754Y-66594585D01*
X136431417Y-66591396D01*
X136436311Y-66593846D01*
X136441785Y-66593729D01*
X136467220Y-66609317D01*
X136493897Y-66622670D01*
X136500459Y-66629256D01*
X136532183Y-66663576D01*
X136558930Y-66692511D01*
X136608430Y-66728476D01*
X136679654Y-66764768D01*
X136690056Y-66768148D01*
X136729042Y-66777508D01*
X136759636Y-66782354D01*
X136799608Y-66785500D01*
X140794342Y-66785500D01*
X140794352Y-66785500D01*
X140824396Y-66783727D01*
X140847519Y-66780989D01*
X140877152Y-66775695D01*
X140882747Y-66774351D01*
X140947925Y-66748834D01*
X140994804Y-66722577D01*
X141035878Y-66693949D01*
X141085061Y-66631562D01*
X141142023Y-66591103D01*
X141211818Y-66587863D01*
X141229880Y-66593767D01*
X141292563Y-66619731D01*
X141296989Y-66621825D01*
X141297727Y-66621967D01*
X141298468Y-66622112D01*
X141491452Y-66660500D01*
X141688542Y-66660500D01*
X141688544Y-66660500D01*
X141733125Y-66651631D01*
X141831571Y-66632049D01*
X141881834Y-66622051D01*
X141952889Y-66592619D01*
X141957876Y-66591032D01*
X141987772Y-66590357D01*
X142017503Y-66587161D01*
X142022331Y-66589577D01*
X142027728Y-66589456D01*
X142053238Y-66605049D01*
X142079982Y-66618436D01*
X142086542Y-66625020D01*
X142122183Y-66663576D01*
X142148930Y-66692511D01*
X142198430Y-66728476D01*
X142269654Y-66764768D01*
X142280056Y-66768148D01*
X142319042Y-66777508D01*
X142349636Y-66782354D01*
X142389608Y-66785500D01*
X142389614Y-66785500D01*
X143050270Y-66785500D01*
X143050301Y-66785500D01*
X143056455Y-66785398D01*
X143058651Y-66785363D01*
X143065141Y-66785150D01*
X143073509Y-66784737D01*
X143079963Y-66784313D01*
X143088277Y-66783631D01*
X143094709Y-66782997D01*
X143102995Y-66782043D01*
X143203398Y-66768825D01*
X143219899Y-66766101D01*
X143230484Y-66763995D01*
X143232603Y-66763574D01*
X143241351Y-66761533D01*
X143248886Y-66759776D01*
X143248891Y-66759774D01*
X143248898Y-66759773D01*
X143252616Y-66758776D01*
X143261320Y-66756444D01*
X143277319Y-66751591D01*
X143289579Y-66747429D01*
X143305221Y-66741541D01*
X143389736Y-66706534D01*
X143404960Y-66699637D01*
X143404965Y-66699634D01*
X143404986Y-66699625D01*
X143416550Y-66693922D01*
X143416553Y-66693919D01*
X143416574Y-66693910D01*
X143431323Y-66686026D01*
X143442462Y-66679595D01*
X143442461Y-66679595D01*
X143442469Y-66679591D01*
X143446659Y-66676985D01*
X143456654Y-66670771D01*
X143467423Y-66663576D01*
X143481022Y-66653832D01*
X143553601Y-66598140D01*
X143566522Y-66587535D01*
X143576258Y-66578997D01*
X143588464Y-66567566D01*
X143597565Y-66558465D01*
X143608996Y-66546259D01*
X143617534Y-66536523D01*
X143628139Y-66523602D01*
X143683831Y-66451023D01*
X143693575Y-66437424D01*
X143700770Y-66426655D01*
X143709594Y-66412463D01*
X143716025Y-66401324D01*
X143723909Y-66386575D01*
X143723921Y-66386551D01*
X143729624Y-66374987D01*
X143733274Y-66366930D01*
X143736533Y-66359737D01*
X143771540Y-66275222D01*
X143777428Y-66259580D01*
X143781590Y-66247320D01*
X143786443Y-66231321D01*
X143789775Y-66218887D01*
X143793573Y-66202603D01*
X143796100Y-66189900D01*
X143798824Y-66173398D01*
X143812042Y-66072994D01*
X143812996Y-66064709D01*
X143813630Y-66058277D01*
X143814312Y-66049963D01*
X143814736Y-66043509D01*
X143815149Y-66035141D01*
X143815362Y-66028651D01*
X143815499Y-66020270D01*
X143815499Y-65309196D01*
X146920000Y-65309196D01*
X146920007Y-65309269D01*
X146922849Y-65339603D01*
X146967651Y-65467644D01*
X146980373Y-65484881D01*
X147048206Y-65576792D01*
X147157353Y-65657346D01*
X147219875Y-65679223D01*
X147285396Y-65702149D01*
X147302282Y-65703732D01*
X147315788Y-65704999D01*
X147315792Y-65704999D01*
X147319998Y-65704999D01*
X147819999Y-65704999D01*
X147824189Y-65704999D01*
X147824195Y-65704999D01*
X147854605Y-65702148D01*
X147982644Y-65657346D01*
X148091791Y-65576792D01*
X148172345Y-65467645D01*
X148217148Y-65339604D01*
X148217148Y-65339600D01*
X148218900Y-65329292D01*
X148220949Y-65329640D01*
X148219863Y-65312105D01*
X148219999Y-65309197D01*
X148219999Y-65230000D01*
X147819999Y-65230000D01*
X147819999Y-65704999D01*
X147319998Y-65704999D01*
X147319999Y-65704998D01*
X147319999Y-65230000D01*
X146920000Y-65230000D01*
X146920000Y-65309196D01*
X143815499Y-65309196D01*
X143815499Y-63254500D01*
X143835184Y-63187461D01*
X143887988Y-63141706D01*
X143939499Y-63130500D01*
X145790824Y-63130500D01*
X145790826Y-63130500D01*
X145892687Y-63103207D01*
X145984012Y-63050480D01*
X146528579Y-62505913D01*
X146541180Y-62484087D01*
X146581306Y-62414587D01*
X146608599Y-62312727D01*
X146608599Y-62262329D01*
X146613622Y-62227393D01*
X146618026Y-62212395D01*
X146655801Y-62153617D01*
X146656947Y-62152624D01*
X146720503Y-62123600D01*
X146789661Y-62133544D01*
X146842465Y-62179299D01*
X146862149Y-62246338D01*
X146862149Y-62680000D01*
X146917629Y-62680000D01*
X146984668Y-62699685D01*
X147030423Y-62752489D01*
X147040367Y-62821647D01*
X147020871Y-62872682D01*
X147018973Y-62875534D01*
X146978372Y-62929771D01*
X146978371Y-62929774D01*
X146972604Y-62945234D01*
X146972601Y-62945240D01*
X146933351Y-63050476D01*
X146933349Y-63050480D01*
X146930586Y-63057886D01*
X146930585Y-63057890D01*
X146924499Y-63114489D01*
X146924499Y-63114498D01*
X146924499Y-63705481D01*
X146924500Y-63705490D01*
X146930586Y-63762114D01*
X146965914Y-63856828D01*
X146967978Y-63862362D01*
X146967980Y-63862369D01*
X146978371Y-63890227D01*
X147000863Y-63920272D01*
X147060312Y-63999687D01*
X147157273Y-64072270D01*
X147170633Y-64083848D01*
X147189064Y-64102279D01*
X147222549Y-64163602D01*
X147217565Y-64233294D01*
X147181953Y-64284217D01*
X147175707Y-64289556D01*
X147161112Y-64300291D01*
X147157352Y-64302653D01*
X147048208Y-64383204D01*
X147048200Y-64383212D01*
X146967653Y-64492351D01*
X146967651Y-64492354D01*
X146922848Y-64620396D01*
X146922474Y-64622599D01*
X146922307Y-64626178D01*
X146920005Y-64650733D01*
X146919999Y-64650793D01*
X146919999Y-64730000D01*
X148219998Y-64730000D01*
X148219998Y-64650803D01*
X148217147Y-64620393D01*
X148217114Y-64620300D01*
X148172345Y-64492354D01*
X148172343Y-64492351D01*
X148091796Y-64383212D01*
X148091792Y-64383209D01*
X148091791Y-64383207D01*
X148045716Y-64349202D01*
X148015007Y-64326538D01*
X147989881Y-64301751D01*
X147981535Y-64290759D01*
X147956678Y-64225462D01*
X147971068Y-64157090D01*
X148012909Y-64111691D01*
X148019605Y-64107356D01*
X148043653Y-64095269D01*
X148045429Y-64094606D01*
X148054084Y-64091378D01*
X148080225Y-64081628D01*
X148189686Y-63999687D01*
X148271627Y-63890226D01*
X148277852Y-63873535D01*
X148294770Y-63842549D01*
X148301548Y-63833495D01*
X148357483Y-63791627D01*
X148427174Y-63786645D01*
X148488493Y-63820129D01*
X148492171Y-63823807D01*
X148520672Y-63868155D01*
X148524406Y-63878167D01*
X148528813Y-63889984D01*
X148531214Y-63893719D01*
X148534126Y-63897080D01*
X148610669Y-63999329D01*
X148720014Y-64081184D01*
X148720019Y-64081187D01*
X148720021Y-64081188D01*
X148728655Y-64084408D01*
X148745603Y-64090729D01*
X148776577Y-64107641D01*
X148787624Y-64115910D01*
X148829497Y-64171842D01*
X148834484Y-64241533D01*
X148806756Y-64296698D01*
X148801518Y-64302702D01*
X148781714Y-64320953D01*
X148697853Y-64382846D01*
X148697849Y-64382850D01*
X148617205Y-64492118D01*
X148572352Y-64620297D01*
X148571977Y-64622499D01*
X148571811Y-64626069D01*
X148569499Y-64650733D01*
X148569499Y-65309265D01*
X148571811Y-65333929D01*
X148571977Y-65337499D01*
X148572352Y-65339699D01*
X148572352Y-65339701D01*
X148617123Y-65467645D01*
X148617206Y-65467882D01*
X148644087Y-65504304D01*
X148697847Y-65577148D01*
X148697848Y-65577148D01*
X148697849Y-65577150D01*
X148806511Y-65657346D01*
X148807117Y-65657793D01*
X148935298Y-65702646D01*
X148935302Y-65702647D01*
X148953741Y-65704375D01*
X148965729Y-65705500D01*
X148965733Y-65705500D01*
X148965738Y-65705500D01*
X149474269Y-65705500D01*
X149474270Y-65705500D01*
X149475575Y-65705377D01*
X149504698Y-65702646D01*
X149504700Y-65702646D01*
X149568789Y-65680219D01*
X149632881Y-65657793D01*
X149742149Y-65577150D01*
X149752309Y-65563384D01*
X153699500Y-65563384D01*
X153699500Y-65563389D01*
X153699500Y-65736611D01*
X153726598Y-65907701D01*
X153780127Y-66072445D01*
X153858768Y-66226788D01*
X153960586Y-66366928D01*
X154083072Y-66489414D01*
X154223212Y-66591232D01*
X154377555Y-66669873D01*
X154542299Y-66723402D01*
X154713389Y-66750500D01*
X154713390Y-66750500D01*
X154886610Y-66750500D01*
X154886611Y-66750500D01*
X155057701Y-66723402D01*
X155222445Y-66669873D01*
X155376788Y-66591232D01*
X155516928Y-66489414D01*
X155639414Y-66366928D01*
X155741232Y-66226788D01*
X155819873Y-66072445D01*
X155873402Y-65907701D01*
X155900500Y-65736611D01*
X155900500Y-65563389D01*
X155873402Y-65392299D01*
X155819873Y-65227555D01*
X155741232Y-65073212D01*
X155639414Y-64933072D01*
X155516928Y-64810586D01*
X155376788Y-64708768D01*
X155376780Y-64708764D01*
X155222449Y-64630128D01*
X155071215Y-64580988D01*
X155071203Y-64580985D01*
X155057701Y-64576598D01*
X155057699Y-64576597D01*
X155057698Y-64576597D01*
X155043312Y-64574318D01*
X155043306Y-64574317D01*
X154953188Y-64560044D01*
X154926271Y-64555781D01*
X154910407Y-64553268D01*
X154886614Y-64549500D01*
X154886611Y-64549500D01*
X154713389Y-64549500D01*
X154713388Y-64549500D01*
X154673726Y-64555781D01*
X154673725Y-64555780D01*
X154542298Y-64576597D01*
X154542271Y-64576604D01*
X154541862Y-64576739D01*
X154407495Y-64620399D01*
X154407494Y-64620399D01*
X154377554Y-64630126D01*
X154377551Y-64630128D01*
X154223218Y-64708764D01*
X154223215Y-64708765D01*
X154223211Y-64708768D01*
X154149313Y-64762459D01*
X154149312Y-64762460D01*
X154094941Y-64801962D01*
X154087563Y-64806093D01*
X153956093Y-64937563D01*
X153951959Y-64944946D01*
X153948989Y-64949032D01*
X153948990Y-64949033D01*
X153858768Y-65073211D01*
X153858765Y-65073215D01*
X153858764Y-65073218D01*
X153780129Y-65227549D01*
X153726596Y-65392305D01*
X153726595Y-65392306D01*
X153711934Y-65484881D01*
X153711934Y-65484883D01*
X153699500Y-65563384D01*
X149752309Y-65563384D01*
X149822792Y-65467882D01*
X149845218Y-65403790D01*
X149867645Y-65339701D01*
X149867645Y-65339699D01*
X149868019Y-65337499D01*
X149868187Y-65333919D01*
X149870499Y-65309270D01*
X149870499Y-64650728D01*
X149869386Y-64638862D01*
X149869385Y-64638861D01*
X149867645Y-64620300D01*
X149867645Y-64620298D01*
X149834005Y-64524163D01*
X149822792Y-64492118D01*
X149742149Y-64382850D01*
X149742147Y-64382849D01*
X149742147Y-64382848D01*
X149640362Y-64307728D01*
X149640359Y-64307726D01*
X149636480Y-64304863D01*
X149633791Y-64302878D01*
X149633786Y-64302871D01*
X149620957Y-64291982D01*
X149607192Y-64278586D01*
X149572877Y-64217724D01*
X149576914Y-64147971D01*
X149611839Y-64096561D01*
X149622038Y-64087602D01*
X149629540Y-64081516D01*
X149629986Y-64081182D01*
X149629988Y-64081181D01*
X149739328Y-63999329D01*
X149795182Y-63924719D01*
X149795181Y-63924719D01*
X149798509Y-63920275D01*
X149798511Y-63920272D01*
X149821172Y-63890000D01*
X149821176Y-63889995D01*
X149821176Y-63889993D01*
X149821181Y-63889988D01*
X149821184Y-63889983D01*
X149868915Y-63762010D01*
X149873092Y-63723148D01*
X149874999Y-63715682D01*
X149874999Y-63660000D01*
X149316829Y-63660000D01*
X149281888Y-63654975D01*
X149266889Y-63650570D01*
X149208143Y-63612827D01*
X149206956Y-63611458D01*
X149179476Y-63556583D01*
X149177831Y-63549021D01*
X149174999Y-63522668D01*
X149174999Y-63410000D01*
X149066829Y-63410000D01*
X149031888Y-63404975D01*
X149016889Y-63400570D01*
X148958143Y-63362827D01*
X148956956Y-63361458D01*
X148929476Y-63306583D01*
X148927831Y-63299021D01*
X148924999Y-63272668D01*
X148924999Y-62804000D01*
X148944684Y-62736961D01*
X148997488Y-62691206D01*
X149048999Y-62680000D01*
X149300999Y-62680000D01*
X149368038Y-62699685D01*
X149413793Y-62752489D01*
X149424999Y-62804000D01*
X149424999Y-63160000D01*
X149874998Y-63160000D01*
X149874998Y-63114559D01*
X149874930Y-63113745D01*
X149874847Y-63113170D01*
X149868917Y-63057993D01*
X149856023Y-63023423D01*
X153700000Y-63023423D01*
X153700000Y-63196575D01*
X153721194Y-63330391D01*
X153727085Y-63367584D01*
X153780592Y-63532259D01*
X153780593Y-63532260D01*
X153780594Y-63532264D01*
X153850193Y-63668856D01*
X153855067Y-63689157D01*
X153863709Y-63692737D01*
X154190297Y-63366149D01*
X154251620Y-63332664D01*
X154321311Y-63337648D01*
X154377245Y-63379519D01*
X154385365Y-63391830D01*
X154399901Y-63417007D01*
X154492993Y-63510099D01*
X154518167Y-63524633D01*
X154566382Y-63575199D01*
X154579606Y-63643806D01*
X154553638Y-63708671D01*
X154543848Y-63719701D01*
X154217260Y-64046288D01*
X154217261Y-64046288D01*
X154217261Y-64046289D01*
X154217262Y-64046290D01*
X154223471Y-64050801D01*
X154283105Y-64081187D01*
X154377137Y-64129100D01*
X154377742Y-64129408D01*
X154542415Y-64182914D01*
X154713429Y-64210000D01*
X154886570Y-64210000D01*
X154886571Y-64210000D01*
X155057584Y-64182914D01*
X155222257Y-64129408D01*
X155358858Y-64059805D01*
X155379156Y-64054931D01*
X155382737Y-64046288D01*
X155056150Y-63719702D01*
X155022665Y-63658379D01*
X155027649Y-63588688D01*
X155069520Y-63532754D01*
X155081822Y-63524639D01*
X155107007Y-63510099D01*
X155200099Y-63417007D01*
X155214634Y-63391830D01*
X155265199Y-63343616D01*
X155333805Y-63330391D01*
X155398671Y-63356358D01*
X155409702Y-63366149D01*
X155736288Y-63692736D01*
X155736288Y-63692735D01*
X155736289Y-63692736D01*
X155740803Y-63686525D01*
X155819408Y-63532257D01*
X155872914Y-63367584D01*
X155900000Y-63196571D01*
X155900000Y-63023428D01*
X155872914Y-62852415D01*
X155819408Y-62687742D01*
X155740801Y-62533471D01*
X155736290Y-62527262D01*
X155736289Y-62527261D01*
X155736288Y-62527261D01*
X155409701Y-62853848D01*
X155348378Y-62887333D01*
X155278686Y-62882349D01*
X155222753Y-62840477D01*
X155214633Y-62828167D01*
X155210869Y-62821647D01*
X155200099Y-62802993D01*
X155107007Y-62709901D01*
X155081830Y-62695365D01*
X155033614Y-62644798D01*
X155020392Y-62576191D01*
X155046360Y-62511326D01*
X155056149Y-62500297D01*
X155382737Y-62173709D01*
X155376525Y-62169196D01*
X155376519Y-62169192D01*
X155222265Y-62090594D01*
X155222261Y-62090593D01*
X155222259Y-62090592D01*
X155057584Y-62037085D01*
X155057578Y-62037084D01*
X154886575Y-62010000D01*
X154886571Y-62010000D01*
X154713429Y-62010000D01*
X154713425Y-62010000D01*
X154542420Y-62037084D01*
X154542418Y-62037084D01*
X154542415Y-62037085D01*
X154377740Y-62090592D01*
X154377738Y-62090592D01*
X154377738Y-62090593D01*
X154377734Y-62090594D01*
X154223491Y-62169187D01*
X154223473Y-62169196D01*
X154223459Y-62169205D01*
X154217261Y-62173707D01*
X154217261Y-62173708D01*
X154217261Y-62173709D01*
X154442844Y-62399292D01*
X154543850Y-62500297D01*
X154577335Y-62561620D01*
X154572351Y-62631311D01*
X154530480Y-62687245D01*
X154518171Y-62695364D01*
X154492996Y-62709899D01*
X154492990Y-62709903D01*
X154399903Y-62802990D01*
X154399899Y-62802996D01*
X154385364Y-62828171D01*
X154334796Y-62876385D01*
X154266189Y-62889607D01*
X154201325Y-62863638D01*
X154190297Y-62853850D01*
X154088936Y-62752489D01*
X153863709Y-62527261D01*
X153863708Y-62527261D01*
X153859205Y-62533459D01*
X153859203Y-62533463D01*
X153859187Y-62533491D01*
X153780594Y-62687734D01*
X153780592Y-62687738D01*
X153780592Y-62687740D01*
X153727085Y-62852415D01*
X153727084Y-62852418D01*
X153727084Y-62852420D01*
X153700000Y-63023423D01*
X149856023Y-63023423D01*
X149821185Y-62930018D01*
X149821183Y-62930015D01*
X149782476Y-62878309D01*
X149758060Y-62812847D01*
X149772911Y-62744574D01*
X149822316Y-62695168D01*
X149881744Y-62680000D01*
X149960949Y-62680000D01*
X149960949Y-62246400D01*
X149980634Y-62179361D01*
X150033438Y-62133606D01*
X150084949Y-62122400D01*
X150462599Y-62122400D01*
X150767399Y-62122400D01*
X151293675Y-62122400D01*
X151293854Y-62122400D01*
X151295810Y-62121974D01*
X151366589Y-62107896D01*
X151366593Y-62107895D01*
X151449288Y-62052639D01*
X151504543Y-61969944D01*
X151504545Y-61969940D01*
X151518615Y-61899204D01*
X151519049Y-61897207D01*
X151519049Y-61872400D01*
X150767399Y-61872400D01*
X150767399Y-62122400D01*
X150462599Y-62122400D01*
X150462599Y-61872400D01*
X150084949Y-61872400D01*
X150017910Y-61852715D01*
X149972155Y-61799911D01*
X149960949Y-61748400D01*
X149960949Y-61744498D01*
X149980634Y-61677459D01*
X150033438Y-61631704D01*
X150084949Y-61620498D01*
X150667724Y-61620498D01*
X150667726Y-61620498D01*
X150769586Y-61593205D01*
X150771017Y-61592378D01*
X150800920Y-61579990D01*
X150831395Y-61571824D01*
X150863485Y-61567600D01*
X151519049Y-61567600D01*
X151519049Y-61542789D01*
X151518613Y-61540784D01*
X151517422Y-61534798D01*
X151504545Y-61470059D01*
X151504543Y-61470055D01*
X151449288Y-61387359D01*
X151439477Y-61380803D01*
X151413223Y-61357220D01*
X151399765Y-61341116D01*
X151373521Y-61286884D01*
X151373041Y-61284579D01*
X151375461Y-61224359D01*
X151378976Y-61212390D01*
X151416720Y-61153643D01*
X151418089Y-61152456D01*
X151472968Y-61124976D01*
X151480527Y-61123332D01*
X151506880Y-61120499D01*
X153758657Y-61120499D01*
X153793591Y-61125522D01*
X153814962Y-61131797D01*
X153865157Y-61160613D01*
X153868409Y-61163683D01*
X153883592Y-61180954D01*
X153887854Y-61186821D01*
X153960586Y-61286927D01*
X154083072Y-61409413D01*
X154223212Y-61511231D01*
X154377555Y-61589872D01*
X154542299Y-61643401D01*
X154713389Y-61670499D01*
X154713390Y-61670499D01*
X154886610Y-61670499D01*
X154886611Y-61670499D01*
X155057701Y-61643401D01*
X155222445Y-61589872D01*
X155376788Y-61511231D01*
X155516928Y-61409413D01*
X155639414Y-61286927D01*
X155741232Y-61146787D01*
X155819873Y-60992444D01*
X155873402Y-60827700D01*
X155900500Y-60656610D01*
X155900500Y-60483388D01*
X155873402Y-60312298D01*
X155819873Y-60147554D01*
X155741232Y-59993211D01*
X155639414Y-59853071D01*
X155516928Y-59730585D01*
X155376788Y-59628767D01*
X155222449Y-59550127D01*
X155071215Y-59500987D01*
X155071203Y-59500984D01*
X155057701Y-59496597D01*
X155057699Y-59496596D01*
X155057698Y-59496596D01*
X155043312Y-59494317D01*
X155043306Y-59494316D01*
X154953188Y-59480043D01*
X154926271Y-59475780D01*
X154910407Y-59473267D01*
X154886614Y-59469499D01*
X154886611Y-59469499D01*
X154713389Y-59469499D01*
X154713388Y-59469499D01*
X154673726Y-59475780D01*
X154673725Y-59475779D01*
X154542300Y-59496596D01*
X154491111Y-59513229D01*
X154425647Y-59534500D01*
X154425645Y-59534500D01*
X154377556Y-59550124D01*
X154223210Y-59628767D01*
X154182961Y-59658011D01*
X154156100Y-59677527D01*
X154156099Y-59677528D01*
X154094941Y-59721961D01*
X154087563Y-59726092D01*
X153956094Y-59857561D01*
X153951968Y-59864930D01*
X153947930Y-59870489D01*
X153947923Y-59870499D01*
X153858772Y-59993204D01*
X153858768Y-59993210D01*
X153858766Y-59993212D01*
X153858764Y-59993217D01*
X153780127Y-60147548D01*
X153780126Y-60147551D01*
X153757607Y-60216860D01*
X153742034Y-60248534D01*
X153733211Y-60261437D01*
X153679135Y-60305659D01*
X153669545Y-60309713D01*
X153621263Y-60319499D01*
X151913241Y-60319499D01*
X151878306Y-60314476D01*
X151867452Y-60311289D01*
X151808674Y-60273515D01*
X151779649Y-60209959D01*
X151789570Y-60140851D01*
X151789829Y-60140284D01*
X151823697Y-60096131D01*
X151825439Y-60094693D01*
X151842373Y-60082937D01*
X151915914Y-60040478D01*
X152036971Y-59919420D01*
X152065218Y-59898275D01*
X152088310Y-59885667D01*
X152134711Y-59873823D01*
X152134414Y-59871561D01*
X152142470Y-59870500D01*
X152142471Y-59870500D01*
X152142474Y-59870500D01*
X152282484Y-59832984D01*
X152408014Y-59760509D01*
X152510508Y-59658015D01*
X152582983Y-59532485D01*
X152620499Y-59392475D01*
X152620499Y-59247525D01*
X152582983Y-59107515D01*
X152580608Y-59103402D01*
X152510510Y-58981988D01*
X152510505Y-58981982D01*
X152510500Y-58981977D01*
X152510492Y-58981968D01*
X152408029Y-58879505D01*
X152408013Y-58879490D01*
X152408005Y-58879485D01*
X152360386Y-58851992D01*
X152354241Y-58848444D01*
X152325807Y-58818624D01*
X152271006Y-58803939D01*
X152271006Y-58803940D01*
X152183612Y-58780523D01*
X152142474Y-58769500D01*
X152142473Y-58769500D01*
X151997524Y-58769500D01*
X151868993Y-58803939D01*
X151868992Y-58803940D01*
X151861337Y-58805991D01*
X151857509Y-58807017D01*
X151731990Y-58879485D01*
X151731983Y-58879490D01*
X151731967Y-58879505D01*
X151629504Y-58981968D01*
X151629489Y-58981984D01*
X151629487Y-58981988D01*
X151557016Y-59107509D01*
X151556989Y-59107577D01*
X151556747Y-59108512D01*
X151529453Y-59210373D01*
X151515560Y-59242816D01*
X151507426Y-59256161D01*
X151455730Y-59303158D01*
X151447756Y-59307032D01*
X151393570Y-59319498D01*
X150562272Y-59319498D01*
X150460414Y-59346790D01*
X150460400Y-59346796D01*
X150369087Y-59399515D01*
X150369081Y-59399520D01*
X150350428Y-59418173D01*
X150322178Y-59439321D01*
X150299089Y-59451929D01*
X150239660Y-59467098D01*
X150084949Y-59467098D01*
X150017910Y-59447413D01*
X149972155Y-59394609D01*
X149960949Y-59343098D01*
X149960949Y-59120000D01*
X148169499Y-59120000D01*
X148102460Y-59100315D01*
X148056705Y-59047511D01*
X148045499Y-58996000D01*
X148045499Y-58832494D01*
X148050522Y-58797559D01*
X148056929Y-58775739D01*
X148085138Y-58726192D01*
X148087627Y-58723519D01*
X148104063Y-58708754D01*
X148146460Y-58677017D01*
X148209686Y-58629687D01*
X148291627Y-58520226D01*
X148297586Y-58504247D01*
X148314500Y-58473268D01*
X148315864Y-58471446D01*
X148321277Y-58464215D01*
X148377207Y-58422344D01*
X148446899Y-58417357D01*
X148508221Y-58450838D01*
X148510905Y-58453523D01*
X148511915Y-58454533D01*
X148540403Y-58498866D01*
X148548369Y-58520224D01*
X148550776Y-58523968D01*
X148553686Y-58527326D01*
X148630312Y-58629687D01*
X148699928Y-58681800D01*
X148699929Y-58681802D01*
X148736615Y-58709265D01*
X148739769Y-58711626D01*
X148739775Y-58711629D01*
X148758052Y-58718446D01*
X148867885Y-58759412D01*
X148924514Y-58765500D01*
X149465483Y-58765499D01*
X149522113Y-58759412D01*
X149650225Y-58711628D01*
X149759686Y-58629687D01*
X149841627Y-58520226D01*
X149889411Y-58392114D01*
X149893466Y-58354398D01*
X149895498Y-58335501D01*
X149895498Y-58335490D01*
X149895499Y-58335485D01*
X149895498Y-57744516D01*
X149889411Y-57687886D01*
X149879994Y-57662639D01*
X149876958Y-57654499D01*
X149876957Y-57654496D01*
X149859821Y-57608551D01*
X149841628Y-57559776D01*
X149841624Y-57559769D01*
X149769876Y-57463924D01*
X149769870Y-57463917D01*
X149759686Y-57450313D01*
X149759684Y-57450312D01*
X149759684Y-57450311D01*
X149752846Y-57445192D01*
X149752286Y-57444576D01*
X149750787Y-57443650D01*
X149660688Y-57376204D01*
X149635737Y-57351252D01*
X149627420Y-57340142D01*
X149603002Y-57274678D01*
X149617852Y-57206408D01*
X149621582Y-57199577D01*
X149656096Y-57159746D01*
X149680081Y-57141792D01*
X149749686Y-57089687D01*
X149831627Y-56980226D01*
X149879411Y-56852114D01*
X149881686Y-56830944D01*
X149884902Y-56801039D01*
X149885033Y-56800186D01*
X149885440Y-56796080D01*
X149885498Y-56795507D01*
X149885498Y-56795490D01*
X149885499Y-56795485D01*
X149885498Y-56204516D01*
X149879411Y-56147886D01*
X149868246Y-56117953D01*
X149856133Y-56085477D01*
X149831627Y-56019774D01*
X149749686Y-55910313D01*
X149749684Y-55910312D01*
X149749684Y-55910311D01*
X149693473Y-55868233D01*
X149693474Y-55868233D01*
X149683910Y-55861074D01*
X149640227Y-55828373D01*
X149640225Y-55828372D01*
X149512884Y-55780875D01*
X149512453Y-55780667D01*
X149510161Y-55780126D01*
X149505506Y-55779877D01*
X149496140Y-55778870D01*
X149455492Y-55774500D01*
X149455488Y-55774500D01*
X148914517Y-55774500D01*
X148914494Y-55774501D01*
X148914172Y-55774537D01*
X148857881Y-55780587D01*
X148729774Y-55828370D01*
X148729771Y-55828372D01*
X148620312Y-55910313D01*
X148538371Y-56019773D01*
X148538368Y-56019778D01*
X148532409Y-56035755D01*
X148515495Y-56066730D01*
X148508718Y-56075783D01*
X148452784Y-56117655D01*
X148383093Y-56122639D01*
X148321770Y-56089154D01*
X148318093Y-56085477D01*
X148289592Y-56041128D01*
X148281629Y-56019777D01*
X148281627Y-56019774D01*
X148201283Y-55912447D01*
X148199686Y-55910313D01*
X148133910Y-55861074D01*
X148090227Y-55828373D01*
X148090225Y-55828372D01*
X147962884Y-55780875D01*
X147962453Y-55780667D01*
X147960161Y-55780126D01*
X147955506Y-55779877D01*
X147946140Y-55778870D01*
X147905492Y-55774500D01*
X147905488Y-55774500D01*
X147364517Y-55774500D01*
X147364494Y-55774501D01*
X147364172Y-55774537D01*
X147307881Y-55780587D01*
X147179774Y-55828370D01*
X147179771Y-55828372D01*
X147136087Y-55861074D01*
X147070312Y-55910313D01*
X146988372Y-56019771D01*
X146980141Y-56041839D01*
X146980140Y-56041842D01*
X146980139Y-56041841D01*
X146955318Y-56108392D01*
X146951751Y-56117956D01*
X146946211Y-56132808D01*
X146940585Y-56147891D01*
X146934499Y-56204489D01*
X146934499Y-56204498D01*
X146934499Y-56795481D01*
X146934500Y-56795490D01*
X146940586Y-56852114D01*
X146976179Y-56947539D01*
X146988371Y-56980226D01*
X147010754Y-57010127D01*
X147070313Y-57089688D01*
X147169304Y-57163791D01*
X147194259Y-57188746D01*
X147202576Y-57199856D01*
X147226994Y-57265320D01*
X147212143Y-57333593D01*
X147212139Y-57333601D01*
X147208415Y-57340420D01*
X147173898Y-57380252D01*
X147080315Y-57450309D01*
X147080314Y-57450310D01*
X147078142Y-57453212D01*
X146998369Y-57559775D01*
X146998243Y-57560015D01*
X146997608Y-57561816D01*
X146961751Y-57657955D01*
X146961750Y-57657957D01*
X146950585Y-57687888D01*
X146944499Y-57744489D01*
X146944499Y-57744498D01*
X146944499Y-58335481D01*
X146944500Y-58335490D01*
X146945098Y-58341053D01*
X146950586Y-58392116D01*
X146992411Y-58504248D01*
X146994678Y-58510326D01*
X146998371Y-58520226D01*
X147080311Y-58629686D01*
X147080313Y-58629688D01*
X147180541Y-58704717D01*
X147205494Y-58729671D01*
X147219121Y-58747875D01*
X147241879Y-58800146D01*
X147242525Y-58803723D01*
X147244499Y-58825761D01*
X147244499Y-58996000D01*
X147224814Y-59063039D01*
X147172010Y-59108794D01*
X147120499Y-59120000D01*
X146862149Y-59120000D01*
X146862149Y-59343098D01*
X146842464Y-59410137D01*
X146789660Y-59455892D01*
X146738149Y-59467098D01*
X146590784Y-59467098D01*
X146555848Y-59462075D01*
X146530606Y-59454663D01*
X146477861Y-59423367D01*
X146454013Y-59399519D01*
X146454012Y-59399518D01*
X146362686Y-59346791D01*
X146260826Y-59319498D01*
X146260825Y-59319498D01*
X145665082Y-59319498D01*
X145630146Y-59314475D01*
X145604904Y-59307063D01*
X145552158Y-59275766D01*
X145499422Y-59223029D01*
X145478272Y-59194776D01*
X145465664Y-59171685D01*
X145453823Y-59125288D01*
X145451560Y-59125586D01*
X145450499Y-59117533D01*
X145450499Y-59117528D01*
X145450499Y-59117526D01*
X145412983Y-58977516D01*
X145412980Y-58977510D01*
X145412772Y-58977150D01*
X145412738Y-58977092D01*
X145340512Y-58851992D01*
X145340507Y-58851985D01*
X145340492Y-58851969D01*
X145238029Y-58749506D01*
X145238013Y-58749491D01*
X145238005Y-58749486D01*
X145184242Y-58718446D01*
X145155807Y-58688625D01*
X145101006Y-58673940D01*
X145101006Y-58673941D01*
X145036739Y-58656721D01*
X144972474Y-58639501D01*
X144972473Y-58639501D01*
X144827524Y-58639501D01*
X144698993Y-58673940D01*
X144698992Y-58673941D01*
X144691337Y-58675992D01*
X144687509Y-58677018D01*
X144561990Y-58749486D01*
X144561983Y-58749491D01*
X144561967Y-58749506D01*
X144459504Y-58851969D01*
X144459489Y-58851985D01*
X144459484Y-58851993D01*
X144387016Y-58977510D01*
X144385928Y-58981572D01*
X144385817Y-58981988D01*
X144351915Y-59108512D01*
X144349499Y-59117527D01*
X144349499Y-59260212D01*
X144349464Y-59263173D01*
X144348725Y-59294113D01*
X144327445Y-59360663D01*
X144273563Y-59405144D01*
X144273532Y-59405157D01*
X144272036Y-59405797D01*
X144214403Y-59415475D01*
X144209406Y-59415117D01*
X144186188Y-59411213D01*
X144185611Y-59411058D01*
X144183577Y-59410513D01*
X144183565Y-59410506D01*
X144183565Y-59410510D01*
X144142475Y-59399500D01*
X143997525Y-59399500D01*
X143971591Y-59406448D01*
X143901742Y-59404786D01*
X143843880Y-59365623D01*
X143816376Y-59301395D01*
X143815499Y-59286674D01*
X143815499Y-55359697D01*
X143815362Y-55351357D01*
X143815150Y-55344891D01*
X143815149Y-55344857D01*
X143814736Y-55336489D01*
X143814312Y-55330035D01*
X143813630Y-55321721D01*
X143812996Y-55315289D01*
X143812042Y-55307004D01*
X143798824Y-55206600D01*
X143796100Y-55190098D01*
X143793573Y-55177395D01*
X143789775Y-55161111D01*
X143786443Y-55148677D01*
X143781590Y-55132678D01*
X143777428Y-55120418D01*
X143771540Y-55104776D01*
X143736533Y-55020261D01*
X143729632Y-55005029D01*
X143728636Y-55003010D01*
X143723914Y-54993432D01*
X143719139Y-54984500D01*
X143716023Y-54978671D01*
X143709589Y-54967527D01*
X143709586Y-54967523D01*
X143709575Y-54967503D01*
X143700772Y-54953347D01*
X143700766Y-54953337D01*
X143695247Y-54945076D01*
X143693571Y-54942567D01*
X143683828Y-54928973D01*
X143677758Y-54921063D01*
X143650657Y-54885744D01*
X143628134Y-54856392D01*
X143617531Y-54843472D01*
X143617528Y-54843468D01*
X143608998Y-54833741D01*
X143597566Y-54821534D01*
X143588467Y-54812435D01*
X143580937Y-54805383D01*
X143576269Y-54801011D01*
X143572923Y-54798077D01*
X143566525Y-54792466D01*
X143553605Y-54781862D01*
X143553604Y-54781861D01*
X143553594Y-54781853D01*
X143481032Y-54726174D01*
X143481027Y-54726171D01*
X143481020Y-54726165D01*
X143467415Y-54716417D01*
X143467408Y-54716412D01*
X143456665Y-54709234D01*
X143442450Y-54700395D01*
X143431323Y-54693971D01*
X143416601Y-54686101D01*
X143405003Y-54680381D01*
X143391639Y-54674326D01*
X143389748Y-54673469D01*
X143323654Y-54646092D01*
X143305190Y-54638444D01*
X143289548Y-54632557D01*
X143287340Y-54631807D01*
X143277280Y-54628394D01*
X143267328Y-54625376D01*
X143261317Y-54623553D01*
X143261312Y-54623551D01*
X143261300Y-54623548D01*
X143258038Y-54622674D01*
X143256501Y-54622262D01*
X143256495Y-54622260D01*
X143252850Y-54621284D01*
X143252833Y-54621279D01*
X143248857Y-54620214D01*
X143232607Y-54616426D01*
X143220458Y-54614008D01*
X143218677Y-54613601D01*
X143217709Y-54613059D01*
X143205437Y-54611443D01*
X143205303Y-54611424D01*
X143115129Y-54599553D01*
X143115127Y-54599553D01*
X143115089Y-54599548D01*
X143115090Y-54599548D01*
X143102991Y-54597955D01*
X143102984Y-54597954D01*
X143101980Y-54597822D01*
X143101940Y-54597816D01*
X143031642Y-54588561D01*
X142999281Y-54594500D01*
X142305625Y-54594500D01*
X142275634Y-54596268D01*
X142252525Y-54599003D01*
X142252516Y-54599004D01*
X142222929Y-54604286D01*
X142217321Y-54605632D01*
X142152111Y-54631149D01*
X142105228Y-54657401D01*
X142105218Y-54657408D01*
X142064122Y-54686047D01*
X142064116Y-54686052D01*
X142002398Y-54764337D01*
X142001405Y-54765890D01*
X142000673Y-54766525D01*
X141998627Y-54769122D01*
X141998134Y-54768733D01*
X141948681Y-54811736D01*
X141879540Y-54821799D01*
X141864728Y-54818543D01*
X141864699Y-54818661D01*
X141861827Y-54817946D01*
X141668545Y-54779500D01*
X141668542Y-54779500D01*
X141668540Y-54779500D01*
X141471458Y-54779500D01*
X141471456Y-54779500D01*
X141471452Y-54779500D01*
X141278172Y-54817946D01*
X141276001Y-54818486D01*
X141275552Y-54818467D01*
X141275277Y-54818522D01*
X141275263Y-54818455D01*
X141206192Y-54815560D01*
X141149048Y-54775357D01*
X141142978Y-54767043D01*
X141138729Y-54760685D01*
X141138727Y-54760681D01*
X141106819Y-54726165D01*
X141071059Y-54687481D01*
X141071058Y-54687480D01*
X141071055Y-54687477D01*
X141021555Y-54651515D01*
X141021554Y-54651514D01*
X141021552Y-54651513D01*
X140950338Y-54615229D01*
X140950332Y-54615227D01*
X140939929Y-54611847D01*
X140939921Y-54611845D01*
X140939910Y-54611841D01*
X140900938Y-54602487D01*
X140870343Y-54597643D01*
X140830399Y-54594500D01*
X140830390Y-54594500D01*
X140783051Y-54594500D01*
X140716012Y-54574815D01*
X140670257Y-54522011D01*
X140660313Y-54452853D01*
X140679948Y-54401610D01*
X140683843Y-54395781D01*
X140725965Y-54332740D01*
X140740499Y-54259674D01*
X140740499Y-52660326D01*
X140740499Y-52660323D01*
X140740498Y-52660321D01*
X140725966Y-52587264D01*
X140725965Y-52587260D01*
X140719283Y-52577260D01*
X140709370Y-52562424D01*
X140709370Y-52562423D01*
X140670603Y-52504403D01*
X140670599Y-52504398D01*
X140597890Y-52455816D01*
X140593825Y-52452480D01*
X140587738Y-52449033D01*
X140587734Y-52449032D01*
X140587708Y-52449026D01*
X140514679Y-52434500D01*
X140514676Y-52434500D01*
X140514673Y-52434500D01*
X139865325Y-52434500D01*
X139865322Y-52434500D01*
X139842140Y-52439111D01*
X139792261Y-52449032D01*
X139792254Y-52449034D01*
X139773258Y-52461727D01*
X139741417Y-52476959D01*
X139726500Y-52481629D01*
X139656645Y-52482874D01*
X139643516Y-52479272D01*
X139607434Y-52462794D01*
X139587547Y-52449506D01*
X139587545Y-52449505D01*
X139587539Y-52449503D01*
X139587538Y-52449502D01*
X139587536Y-52449502D01*
X139543845Y-52440812D01*
X139514626Y-52435000D01*
X139514624Y-52435000D01*
X139439999Y-52435000D01*
X139439999Y-54470500D01*
X139420314Y-54537539D01*
X139367510Y-54583294D01*
X139315999Y-54594500D01*
X139063999Y-54594500D01*
X138996960Y-54574815D01*
X138951205Y-54522011D01*
X138939999Y-54470500D01*
X138939999Y-52435000D01*
X138865375Y-52435000D01*
X138829414Y-52442152D01*
X138768957Y-52439111D01*
X138758230Y-52435830D01*
X138758244Y-52435783D01*
X138748568Y-52434918D01*
X138693388Y-52392058D01*
X138670140Y-52326169D01*
X138673283Y-52291020D01*
X138673822Y-52288740D01*
X138706816Y-52229574D01*
X139006968Y-51929423D01*
X139035218Y-51908275D01*
X139058310Y-51895667D01*
X139117735Y-51880500D01*
X145487669Y-51880500D01*
X145522605Y-51885523D01*
X145537603Y-51889927D01*
X145596354Y-51927672D01*
X145597541Y-51929041D01*
X145625017Y-51983902D01*
X145626662Y-51991460D01*
X145629499Y-52017831D01*
X145629499Y-52324027D01*
X145624475Y-52358967D01*
X145620637Y-52372036D01*
X145582860Y-52430812D01*
X145519303Y-52459835D01*
X145457293Y-52452886D01*
X145449582Y-52449931D01*
X145435266Y-52442524D01*
X145435189Y-52442682D01*
X145427744Y-52439035D01*
X145427731Y-52439031D01*
X145427722Y-52439028D01*
X145354680Y-52424500D01*
X145354676Y-52424500D01*
X145354673Y-52424500D01*
X144705325Y-52424500D01*
X144705322Y-52424500D01*
X144705318Y-52424500D01*
X144632284Y-52439027D01*
X144632261Y-52439032D01*
X144632257Y-52439033D01*
X144549398Y-52494399D01*
X144494032Y-52577258D01*
X144494029Y-52577273D01*
X144479499Y-52650318D01*
X144479499Y-52650321D01*
X144479499Y-54249678D01*
X144479499Y-54249680D01*
X144479498Y-54249680D01*
X144494027Y-54322717D01*
X144494031Y-54322733D01*
X144494032Y-54322740D01*
X144512403Y-54350234D01*
X144542837Y-54395781D01*
X144549398Y-54405601D01*
X144578442Y-54425007D01*
X144598885Y-54438667D01*
X144613406Y-54448369D01*
X144632259Y-54460966D01*
X144632263Y-54460967D01*
X144705320Y-54475499D01*
X144705323Y-54475500D01*
X144705325Y-54475500D01*
X144705525Y-54475500D01*
X145354675Y-54475500D01*
X145358795Y-54475500D01*
X145366647Y-54473117D01*
X145415761Y-54463348D01*
X145428213Y-54462122D01*
X145437876Y-54454192D01*
X145446290Y-54448569D01*
X145478120Y-54433341D01*
X145493039Y-54428669D01*
X145562893Y-54427422D01*
X145576029Y-54431025D01*
X145612113Y-54447505D01*
X145622110Y-54454185D01*
X145626847Y-54458073D01*
X145626879Y-54458090D01*
X145631080Y-54460607D01*
X145632255Y-54460963D01*
X145632259Y-54460966D01*
X145632261Y-54460966D01*
X145632262Y-54460967D01*
X145632275Y-54460969D01*
X145638091Y-54462734D01*
X145638096Y-54462736D01*
X145638132Y-54462747D01*
X145644229Y-54463347D01*
X145697696Y-54473982D01*
X145700419Y-54474704D01*
X145705322Y-54475500D01*
X146354675Y-54475500D01*
X146356197Y-54475500D01*
X146358240Y-54474790D01*
X146427739Y-54460966D01*
X146450175Y-54445975D01*
X146459934Y-54439454D01*
X146474924Y-54434246D01*
X146476182Y-54434184D01*
X146478566Y-54433044D01*
X146485971Y-54430725D01*
X146493485Y-54428371D01*
X146563342Y-54427122D01*
X146576481Y-54430726D01*
X146612564Y-54447204D01*
X146632455Y-54460495D01*
X146632458Y-54460496D01*
X146697741Y-54473481D01*
X146700467Y-54474204D01*
X146705372Y-54475000D01*
X146705373Y-54475000D01*
X146779999Y-54475000D01*
X146779999Y-52425000D01*
X146705373Y-52425000D01*
X146705372Y-52425000D01*
X146692803Y-52427500D01*
X146632454Y-52439503D01*
X146632450Y-52439505D01*
X146624999Y-52443155D01*
X146624533Y-52442204D01*
X146606370Y-52450890D01*
X146593378Y-52454958D01*
X146523520Y-52456205D01*
X146464077Y-52419485D01*
X146435400Y-52364060D01*
X146433571Y-52356000D01*
X146430499Y-52328570D01*
X146430499Y-52022329D01*
X146435522Y-51987393D01*
X146439926Y-51972395D01*
X146477671Y-51913644D01*
X146479040Y-51912457D01*
X146533919Y-51884977D01*
X146541478Y-51883333D01*
X146567831Y-51880500D01*
X148014915Y-51880500D01*
X148049847Y-51885521D01*
X148075091Y-51892934D01*
X148127837Y-51924230D01*
X148403818Y-52200211D01*
X148424967Y-52228461D01*
X148430388Y-52238388D01*
X148445242Y-52306661D01*
X148420828Y-52372126D01*
X148364896Y-52413999D01*
X148364892Y-52414001D01*
X148357704Y-52416682D01*
X148314370Y-52424500D01*
X147705322Y-52424500D01*
X147680969Y-52429344D01*
X147632261Y-52439032D01*
X147632254Y-52439034D01*
X147613258Y-52451727D01*
X147581417Y-52466959D01*
X147566500Y-52471629D01*
X147496645Y-52472874D01*
X147483516Y-52469272D01*
X147447434Y-52452794D01*
X147427547Y-52439506D01*
X147427545Y-52439505D01*
X147427539Y-52439503D01*
X147427538Y-52439502D01*
X147427536Y-52439502D01*
X147383845Y-52430812D01*
X147354626Y-52425000D01*
X147354624Y-52425000D01*
X147279999Y-52425000D01*
X147279999Y-54475000D01*
X147352370Y-54475000D01*
X147354625Y-54475000D01*
X147354627Y-54474999D01*
X147427539Y-54460496D01*
X147427543Y-54460495D01*
X147459614Y-54439065D01*
X147475326Y-54433801D01*
X147476148Y-54433769D01*
X147477670Y-54433041D01*
X147489497Y-54429338D01*
X147492594Y-54428369D01*
X147562445Y-54427123D01*
X147575578Y-54430725D01*
X147611660Y-54447203D01*
X147622110Y-54454185D01*
X147626847Y-54458073D01*
X147626883Y-54458092D01*
X147631083Y-54460609D01*
X147632257Y-54460965D01*
X147632259Y-54460966D01*
X147632260Y-54460966D01*
X147632262Y-54460966D01*
X147632263Y-54460967D01*
X147632264Y-54460967D01*
X147638081Y-54462731D01*
X147638094Y-54462735D01*
X147638134Y-54462747D01*
X147644231Y-54463347D01*
X147697695Y-54473982D01*
X147700419Y-54474704D01*
X147705322Y-54475500D01*
X148354675Y-54475500D01*
X148358795Y-54475500D01*
X148366647Y-54473117D01*
X148427739Y-54460966D01*
X148510600Y-54405601D01*
X148565965Y-54322740D01*
X148580499Y-54249674D01*
X148580499Y-52694083D01*
X148585520Y-52659156D01*
X148588114Y-52650321D01*
X148588706Y-52648301D01*
X148626476Y-52589522D01*
X148690030Y-52560493D01*
X148759185Y-52570431D01*
X148766171Y-52573621D01*
X148802341Y-52598734D01*
X153721398Y-57517791D01*
X153742550Y-57546047D01*
X153750731Y-57561030D01*
X153765744Y-57626642D01*
X153765079Y-57639937D01*
X153759165Y-57672065D01*
X153726603Y-57772279D01*
X153726598Y-57772295D01*
X153726598Y-57772297D01*
X153726597Y-57772301D01*
X153726595Y-57772311D01*
X153699500Y-57943383D01*
X153699500Y-58116615D01*
X153699499Y-58116615D01*
X153723717Y-58269518D01*
X153723718Y-58269522D01*
X153726598Y-58287701D01*
X153780127Y-58452445D01*
X153858768Y-58606788D01*
X153960586Y-58746928D01*
X154083072Y-58869414D01*
X154223212Y-58971232D01*
X154377555Y-59049873D01*
X154542299Y-59103402D01*
X154713389Y-59130500D01*
X154713390Y-59130500D01*
X154886610Y-59130500D01*
X154886611Y-59130500D01*
X155057701Y-59103402D01*
X155222445Y-59049873D01*
X155376788Y-58971232D01*
X155516928Y-58869414D01*
X155639414Y-58746928D01*
X155741232Y-58606788D01*
X155819873Y-58452445D01*
X155873402Y-58287701D01*
X155900500Y-58116611D01*
X155900500Y-57943389D01*
X155873402Y-57772299D01*
X155819873Y-57607555D01*
X155741232Y-57453212D01*
X155639414Y-57313072D01*
X155516928Y-57190586D01*
X155376788Y-57088768D01*
X155222449Y-57010128D01*
X155071215Y-56960988D01*
X155071203Y-56960985D01*
X155057701Y-56956598D01*
X155057699Y-56956597D01*
X155057698Y-56956597D01*
X155043312Y-56954318D01*
X155043306Y-56954317D01*
X154953188Y-56940044D01*
X154926271Y-56935781D01*
X154910407Y-56933268D01*
X154886614Y-56929500D01*
X154886611Y-56929500D01*
X154713389Y-56929500D01*
X154713388Y-56929500D01*
X154681190Y-56934599D01*
X154681189Y-56934598D01*
X154542313Y-56956594D01*
X154542302Y-56956596D01*
X154542279Y-56956603D01*
X154443351Y-56988747D01*
X154408576Y-56994765D01*
X154391509Y-56995252D01*
X154326225Y-56978835D01*
X154314680Y-56972206D01*
X154288748Y-56952355D01*
X152739782Y-55403389D01*
X153699500Y-55403389D01*
X153699500Y-55576611D01*
X153726598Y-55747701D01*
X153780127Y-55912445D01*
X153858768Y-56066788D01*
X153960586Y-56206928D01*
X154083072Y-56329414D01*
X154223212Y-56431232D01*
X154377555Y-56509873D01*
X154542299Y-56563402D01*
X154713389Y-56590500D01*
X154713390Y-56590500D01*
X154886610Y-56590500D01*
X154886611Y-56590500D01*
X155057701Y-56563402D01*
X155222445Y-56509873D01*
X155376788Y-56431232D01*
X155516928Y-56329414D01*
X155639414Y-56206928D01*
X155741232Y-56066788D01*
X155819873Y-55912445D01*
X155873402Y-55747701D01*
X155900500Y-55576611D01*
X155900500Y-55403389D01*
X155873402Y-55232299D01*
X155819873Y-55067555D01*
X155741232Y-54913212D01*
X155639414Y-54773072D01*
X155516928Y-54650586D01*
X155439921Y-54594637D01*
X155376786Y-54548766D01*
X155244289Y-54481256D01*
X155244278Y-54481251D01*
X155222447Y-54470128D01*
X155222446Y-54470127D01*
X155222445Y-54470127D01*
X155199135Y-54462553D01*
X155066532Y-54419467D01*
X155062010Y-54417614D01*
X155052820Y-54415444D01*
X155048057Y-54415070D01*
X154988272Y-54405601D01*
X154926271Y-54395781D01*
X154910407Y-54393268D01*
X154886614Y-54389500D01*
X154886611Y-54389500D01*
X154713389Y-54389500D01*
X154713388Y-54389500D01*
X154673726Y-54395781D01*
X154673725Y-54395780D01*
X154542304Y-54416596D01*
X154377549Y-54470129D01*
X154223210Y-54548768D01*
X154143256Y-54606859D01*
X154143255Y-54606859D01*
X154094941Y-54641961D01*
X154087564Y-54646092D01*
X153956093Y-54777563D01*
X153951962Y-54784940D01*
X153927983Y-54817945D01*
X153927982Y-54817947D01*
X153858768Y-54913210D01*
X153780129Y-55067549D01*
X153726596Y-55232305D01*
X153726595Y-55232306D01*
X153715880Y-55299962D01*
X153715879Y-55299970D01*
X153714912Y-55306079D01*
X153699500Y-55403389D01*
X152739782Y-55403389D01*
X148628871Y-51292478D01*
X151189499Y-51292478D01*
X151189499Y-51292486D01*
X151189499Y-51587513D01*
X151221570Y-51831113D01*
X151228006Y-51879993D01*
X151247565Y-51952989D01*
X151301675Y-52154931D01*
X151301681Y-52154952D01*
X151304359Y-52164950D01*
X151304366Y-52164970D01*
X151390137Y-52372036D01*
X151416217Y-52435000D01*
X151416971Y-52436819D01*
X151417231Y-52437457D01*
X151417255Y-52437507D01*
X151558987Y-52682994D01*
X151564760Y-52692993D01*
X151744351Y-52927040D01*
X151744357Y-52927047D01*
X151952951Y-53135641D01*
X151952958Y-53135647D01*
X152187005Y-53315238D01*
X152288241Y-53373686D01*
X152439028Y-53460744D01*
X152444243Y-53463754D01*
X152444262Y-53463765D01*
X152444848Y-53464103D01*
X152449987Y-53465847D01*
X152715047Y-53575639D01*
X153000006Y-53651993D01*
X153292493Y-53690500D01*
X153292500Y-53690500D01*
X153587498Y-53690500D01*
X153587505Y-53690500D01*
X153879992Y-53651993D01*
X154164951Y-53575639D01*
X154437506Y-53462743D01*
X154692993Y-53315238D01*
X154927041Y-53135646D01*
X155135645Y-52927042D01*
X155315237Y-52692994D01*
X155462742Y-52437507D01*
X155575638Y-52164952D01*
X155651992Y-51879993D01*
X155690499Y-51587506D01*
X155690499Y-51292494D01*
X155651992Y-51000007D01*
X155575638Y-50715048D01*
X155574530Y-50712374D01*
X155555156Y-50665600D01*
X155462742Y-50442493D01*
X155462735Y-50442482D01*
X155462733Y-50442476D01*
X155456966Y-50432488D01*
X155456965Y-50432487D01*
X155315240Y-50187010D01*
X155307563Y-50177005D01*
X155135646Y-49952959D01*
X155135640Y-49952952D01*
X154927046Y-49744358D01*
X154927039Y-49744352D01*
X154692992Y-49564761D01*
X154437506Y-49417256D01*
X154437456Y-49417232D01*
X154436818Y-49416972D01*
X154169002Y-49306037D01*
X154169001Y-49306037D01*
X154164961Y-49304363D01*
X153943832Y-49245112D01*
X153879992Y-49228007D01*
X153879986Y-49228006D01*
X153879985Y-49228006D01*
X153861757Y-49225606D01*
X153831112Y-49221571D01*
X153831111Y-49221570D01*
X153587519Y-49189500D01*
X153587512Y-49189500D01*
X153587505Y-49189500D01*
X153292493Y-49189500D01*
X153292485Y-49189500D01*
X153292477Y-49189500D01*
X153014084Y-49226152D01*
X153014084Y-49226153D01*
X153012446Y-49226368D01*
X153000006Y-49228006D01*
X152893571Y-49256526D01*
X152715050Y-49304359D01*
X152715027Y-49304368D01*
X152443178Y-49416972D01*
X152442548Y-49417228D01*
X152442490Y-49417256D01*
X152187004Y-49564761D01*
X152007413Y-49702567D01*
X151958801Y-49739869D01*
X151952957Y-49744353D01*
X151952950Y-49744359D01*
X151952942Y-49744366D01*
X151744365Y-49952943D01*
X151744358Y-49952951D01*
X151744357Y-49952952D01*
X151744351Y-49952959D01*
X151704303Y-50005151D01*
X151564760Y-50187005D01*
X151417255Y-50442491D01*
X151417227Y-50442549D01*
X151416971Y-50443179D01*
X151304367Y-50715028D01*
X151304358Y-50715051D01*
X151261581Y-50874703D01*
X151230687Y-50990007D01*
X151230686Y-50990009D01*
X151230685Y-50990013D01*
X151228006Y-51000007D01*
X151228002Y-51000035D01*
X151189499Y-51292478D01*
X148628871Y-51292478D01*
X148495915Y-51159522D01*
X148495913Y-51159520D01*
X148445540Y-51130437D01*
X148436882Y-51125438D01*
X148404590Y-51106793D01*
X148379123Y-51099969D01*
X148353657Y-51093146D01*
X148353656Y-51093145D01*
X148302730Y-51079500D01*
X148302727Y-51079500D01*
X146082726Y-51079500D01*
X138837272Y-51079500D01*
X138837270Y-51079500D01*
X138742173Y-51104979D01*
X138742146Y-51104988D01*
X138735412Y-51106793D01*
X138735411Y-51106793D01*
X138735409Y-51106794D01*
X138735406Y-51106795D01*
X138732611Y-51108408D01*
X138732602Y-51108412D01*
X138694464Y-51130434D01*
X138694455Y-51130440D01*
X138679494Y-51139075D01*
X138679495Y-51139076D01*
X138644085Y-51159519D01*
X138644083Y-51159521D01*
X137869525Y-51934078D01*
X137869520Y-51934084D01*
X137869510Y-51934100D01*
X137811352Y-52034831D01*
X137810408Y-52049237D01*
X137789499Y-52127271D01*
X137789499Y-52334027D01*
X137784475Y-52368967D01*
X137780637Y-52382036D01*
X137742860Y-52440812D01*
X137679303Y-52469835D01*
X137617293Y-52462886D01*
X137609582Y-52459931D01*
X137595266Y-52452524D01*
X137595189Y-52452682D01*
X137587744Y-52449035D01*
X137587731Y-52449031D01*
X137587722Y-52449028D01*
X137514680Y-52434500D01*
X137514676Y-52434500D01*
X137514673Y-52434500D01*
X136865325Y-52434500D01*
X136865322Y-52434500D01*
X136865318Y-52434500D01*
X136792284Y-52449027D01*
X136792261Y-52449032D01*
X136792257Y-52449033D01*
X136709398Y-52504399D01*
X136654032Y-52587258D01*
X136654031Y-52587266D01*
X136654027Y-52587281D01*
X136639499Y-52660318D01*
X136639499Y-52660321D01*
X136639499Y-54259678D01*
X136639499Y-54259680D01*
X136639498Y-54259680D01*
X136654027Y-54332717D01*
X136654031Y-54332735D01*
X136654032Y-54332739D01*
X136657478Y-54338825D01*
X136660816Y-54342892D01*
X136715683Y-54425007D01*
X136736560Y-54491684D01*
X136718075Y-54559064D01*
X136666096Y-54605754D01*
X136657768Y-54609370D01*
X136602114Y-54631148D01*
X136602112Y-54631149D01*
X136555228Y-54657401D01*
X136555218Y-54657408D01*
X136514122Y-54686047D01*
X136514119Y-54686050D01*
X136454490Y-54761685D01*
X136397526Y-54802144D01*
X136327732Y-54805383D01*
X136309669Y-54799478D01*
X136281838Y-54787950D01*
X136281839Y-54787950D01*
X136281836Y-54787949D01*
X136281821Y-54787945D01*
X136088545Y-54749500D01*
X136088542Y-54749500D01*
X136088540Y-54749500D01*
X135891458Y-54749500D01*
X135891456Y-54749500D01*
X135891452Y-54749500D01*
X135698169Y-54787946D01*
X135698164Y-54787947D01*
X135698157Y-54787949D01*
X135673706Y-54798077D01*
X135604236Y-54805543D01*
X135541758Y-54774265D01*
X135535204Y-54767687D01*
X135461059Y-54687481D01*
X135461058Y-54687480D01*
X135461055Y-54687477D01*
X135411555Y-54651515D01*
X135411554Y-54651514D01*
X135411552Y-54651513D01*
X135340338Y-54615229D01*
X135340332Y-54615227D01*
X135329929Y-54611847D01*
X135329921Y-54611845D01*
X135329910Y-54611841D01*
X135290938Y-54602487D01*
X135260343Y-54597643D01*
X135220399Y-54594500D01*
X135220390Y-54594500D01*
X133867965Y-54594500D01*
X133848415Y-54595523D01*
X133841302Y-54595895D01*
X133820759Y-54598050D01*
X133820716Y-54598056D01*
X133794306Y-54602236D01*
X133794282Y-54602241D01*
X133790128Y-54603124D01*
X133790125Y-54603125D01*
X133727289Y-54625373D01*
X133727287Y-54625374D01*
X133681608Y-54648643D01*
X133681604Y-54648646D01*
X133626609Y-54686438D01*
X133612506Y-54699138D01*
X133584911Y-54728217D01*
X133565431Y-54752272D01*
X133565420Y-54752286D01*
X133542721Y-54785313D01*
X133542717Y-54785318D01*
X133504219Y-54851998D01*
X133484513Y-54877679D01*
X133452674Y-54909517D01*
X133426995Y-54929220D01*
X133387999Y-54951735D01*
X133358093Y-54964123D01*
X133314605Y-54975776D01*
X133282512Y-54980002D01*
X133237488Y-54980002D01*
X133205392Y-54975776D01*
X133161895Y-54964120D01*
X133131991Y-54951733D01*
X133093004Y-54929224D01*
X133067323Y-54909518D01*
X133035481Y-54877676D01*
X133015775Y-54851995D01*
X132974651Y-54780766D01*
X132974650Y-54780765D01*
X132974646Y-54780758D01*
X132960070Y-54758315D01*
X132955683Y-54752278D01*
X132947901Y-54741568D01*
X132947886Y-54741549D01*
X132931084Y-54720804D01*
X132931070Y-54720787D01*
X132931059Y-54720774D01*
X132929803Y-54719379D01*
X132928218Y-54717619D01*
X132884603Y-54680377D01*
X132877513Y-54674323D01*
X132877507Y-54674319D01*
X132877503Y-54674316D01*
X132834545Y-54646422D01*
X132774351Y-54617713D01*
X132756331Y-54611858D01*
X132756292Y-54611847D01*
X132717330Y-54602492D01*
X132686731Y-54597645D01*
X132646765Y-54594500D01*
X132646760Y-54594500D01*
X131875052Y-54594500D01*
X131830163Y-54598474D01*
X131795916Y-54604586D01*
X131795913Y-54604586D01*
X131756699Y-54615229D01*
X131752377Y-54616402D01*
X131752375Y-54616402D01*
X131752374Y-54616403D01*
X131746289Y-54618648D01*
X131676553Y-54657699D01*
X131676550Y-54657702D01*
X131628509Y-54695571D01*
X131628505Y-54695575D01*
X131586034Y-54738042D01*
X131540772Y-54826863D01*
X131540768Y-54826872D01*
X131524161Y-54885744D01*
X131523871Y-54887069D01*
X131523699Y-54887381D01*
X131523167Y-54889270D01*
X131522731Y-54889147D01*
X131490279Y-54948334D01*
X131428898Y-54981712D01*
X131402751Y-54984500D01*
X129082329Y-54984500D01*
X129047388Y-54979475D01*
X129032389Y-54975070D01*
X128973643Y-54937327D01*
X128972456Y-54935958D01*
X128944976Y-54881083D01*
X128943331Y-54873521D01*
X128940499Y-54847168D01*
X128940499Y-51282478D01*
X129569499Y-51282478D01*
X129569499Y-51282486D01*
X129569499Y-51577513D01*
X129570816Y-51587513D01*
X129608006Y-51869993D01*
X129611581Y-51883334D01*
X129684358Y-52154947D01*
X129684366Y-52154970D01*
X129770974Y-52364058D01*
X129796217Y-52425000D01*
X129796971Y-52426819D01*
X129797231Y-52427457D01*
X129797255Y-52427507D01*
X129892360Y-52592234D01*
X129944760Y-52682993D01*
X130124351Y-52917040D01*
X130124357Y-52917047D01*
X130332951Y-53125641D01*
X130332958Y-53125647D01*
X130567005Y-53305238D01*
X130584324Y-53315237D01*
X130819028Y-53450744D01*
X130824243Y-53453754D01*
X130824262Y-53453765D01*
X130824848Y-53454103D01*
X130829987Y-53455847D01*
X131095047Y-53565639D01*
X131380006Y-53641993D01*
X131672493Y-53680500D01*
X131672500Y-53680500D01*
X131967498Y-53680500D01*
X131967505Y-53680500D01*
X132259992Y-53641993D01*
X132544951Y-53565639D01*
X132817506Y-53452743D01*
X133072993Y-53305238D01*
X133307041Y-53125646D01*
X133515645Y-52917042D01*
X133695237Y-52682994D01*
X133699128Y-52676254D01*
X133747637Y-52592235D01*
X133747637Y-52592234D01*
X133749751Y-52588573D01*
X133842742Y-52427507D01*
X133955638Y-52154952D01*
X134031992Y-51869993D01*
X134070499Y-51577506D01*
X134070499Y-51282494D01*
X134031992Y-50990007D01*
X133955638Y-50705048D01*
X133955636Y-50705043D01*
X133955635Y-50705039D01*
X133955634Y-50705038D01*
X133842740Y-50432488D01*
X133842738Y-50432485D01*
X133774674Y-50314596D01*
X133774674Y-50314595D01*
X133695242Y-50177013D01*
X133695236Y-50177005D01*
X133515646Y-49942959D01*
X133515640Y-49942952D01*
X133307046Y-49734358D01*
X133307039Y-49734352D01*
X133072992Y-49554761D01*
X132951149Y-49484415D01*
X132817506Y-49407256D01*
X132817456Y-49407232D01*
X132816818Y-49406972D01*
X132549002Y-49296037D01*
X132549001Y-49296037D01*
X132544961Y-49294363D01*
X132323832Y-49235112D01*
X132259992Y-49218007D01*
X132259986Y-49218006D01*
X132259985Y-49218006D01*
X132241757Y-49215606D01*
X132211112Y-49211571D01*
X132211111Y-49211570D01*
X131967519Y-49179500D01*
X131967512Y-49179500D01*
X131967505Y-49179500D01*
X131672493Y-49179500D01*
X131672485Y-49179500D01*
X131672477Y-49179500D01*
X131394084Y-49216152D01*
X131394084Y-49216153D01*
X131392446Y-49216368D01*
X131380006Y-49218006D01*
X131095050Y-49294359D01*
X131095027Y-49294368D01*
X130823178Y-49406972D01*
X130822548Y-49407228D01*
X130822490Y-49407256D01*
X130567004Y-49554761D01*
X130387413Y-49692567D01*
X130341105Y-49728101D01*
X130332957Y-49734353D01*
X130332950Y-49734359D01*
X130332942Y-49734366D01*
X130124365Y-49942943D01*
X130124358Y-49942951D01*
X130124357Y-49942952D01*
X130124351Y-49942959D01*
X130116678Y-49952959D01*
X129944760Y-50177005D01*
X129797257Y-50432488D01*
X129797227Y-50432549D01*
X129796971Y-50433179D01*
X129704840Y-50655602D01*
X129684363Y-50705038D01*
X129684360Y-50705048D01*
X129676201Y-50735499D01*
X129638902Y-50874702D01*
X129608007Y-50990001D01*
X129608005Y-50990013D01*
X129608002Y-50990035D01*
X129569499Y-51282478D01*
X128940499Y-51282478D01*
X128940499Y-51175208D01*
X128940546Y-51171792D01*
X128940647Y-51168200D01*
X128940792Y-51164773D01*
X128941088Y-51159511D01*
X128950606Y-50990015D01*
X128956889Y-50878138D01*
X128957469Y-50871263D01*
X128958251Y-50864322D01*
X128959219Y-50857472D01*
X128959221Y-50857460D01*
X129006432Y-50579589D01*
X129007786Y-50572784D01*
X129009342Y-50565969D01*
X129011065Y-50559292D01*
X129025359Y-50509680D01*
X129028242Y-50499674D01*
X129081561Y-50314596D01*
X129089104Y-50288410D01*
X129091201Y-50281835D01*
X129093513Y-50275228D01*
X129095980Y-50268768D01*
X129095985Y-50268757D01*
X129203851Y-50008343D01*
X129206669Y-50002046D01*
X129209699Y-49995754D01*
X129212856Y-49989643D01*
X129349233Y-49742885D01*
X129352732Y-49736954D01*
X129356466Y-49731012D01*
X129360281Y-49725302D01*
X129523427Y-49495369D01*
X129527586Y-49489843D01*
X129531930Y-49484396D01*
X129536364Y-49479145D01*
X129724216Y-49268940D01*
X129728974Y-49263909D01*
X129733905Y-49258978D01*
X129738927Y-49254228D01*
X129949144Y-49066365D01*
X129954395Y-49061931D01*
X129959842Y-49057587D01*
X129965368Y-49053427D01*
X130195275Y-48890300D01*
X130201042Y-48886448D01*
X130206922Y-48882753D01*
X130212893Y-48879229D01*
X130459642Y-48742857D01*
X130465753Y-48739700D01*
X130472045Y-48736670D01*
X130478342Y-48733852D01*
X130738791Y-48625970D01*
X130745243Y-48623508D01*
X130751822Y-48621206D01*
X130758401Y-48619108D01*
X131029296Y-48541064D01*
X131036006Y-48539334D01*
X131042789Y-48537785D01*
X131049574Y-48536435D01*
X131327474Y-48489219D01*
X131334321Y-48488252D01*
X131341262Y-48487470D01*
X131348137Y-48486890D01*
X131634863Y-48470788D01*
X131638238Y-48470647D01*
X131641772Y-48470547D01*
X131645209Y-48470500D01*
X134908333Y-48470500D01*
X134943265Y-48475521D01*
G37*
%TD.AperFunction*%
%TD*%
%TA.AperFunction,Conductor*%
%TO.N,+3V3B*%
G36*
X132677354Y-54854846D02*
G01*
X132695401Y-54860710D01*
X132738370Y-54888611D01*
X132741207Y-54891761D01*
X132753377Y-54908509D01*
X132819486Y-55023012D01*
X132819488Y-55023014D01*
X132819490Y-55023017D01*
X132921984Y-55125511D01*
X132921986Y-55125512D01*
X132921988Y-55125514D01*
X132922535Y-55125909D01*
X132924537Y-55126986D01*
X133047510Y-55197984D01*
X133047511Y-55197984D01*
X133047514Y-55197986D01*
X133187524Y-55235502D01*
X133187525Y-55235502D01*
X133332473Y-55235502D01*
X133332474Y-55235502D01*
X133472484Y-55197986D01*
X133472485Y-55197985D01*
X133472487Y-55197984D01*
X133472488Y-55197984D01*
X133591879Y-55129053D01*
X133594767Y-55127650D01*
X133595553Y-55127133D01*
X133600562Y-55124039D01*
X133601861Y-55123288D01*
X133607219Y-55116305D01*
X133700508Y-55023017D01*
X133722746Y-54984500D01*
X133763986Y-54913071D01*
X133783469Y-54889012D01*
X133797579Y-54876307D01*
X133843256Y-54853039D01*
X133847405Y-54852157D01*
X133867965Y-54850000D01*
X135220390Y-54850000D01*
X135250978Y-54854843D01*
X135261381Y-54858223D01*
X135310881Y-54894185D01*
X135329791Y-54952375D01*
X135315208Y-55004096D01*
X135312203Y-55009001D01*
X135297790Y-55027288D01*
X135212859Y-55112218D01*
X135212857Y-55112220D01*
X135103364Y-55276087D01*
X135103364Y-55276088D01*
X135027949Y-55458158D01*
X135027949Y-55458159D01*
X135027948Y-55458161D01*
X135027948Y-55458163D01*
X135027948Y-55458165D01*
X135021980Y-55488166D01*
X134989499Y-55651455D01*
X134989499Y-55848543D01*
X135026046Y-56032271D01*
X135026046Y-56032275D01*
X135027947Y-56041837D01*
X135103363Y-56223909D01*
X135103365Y-56223911D01*
X135103366Y-56223913D01*
X135103367Y-56223914D01*
X135212860Y-56387782D01*
X135352217Y-56527139D01*
X135516085Y-56636632D01*
X135698164Y-56712051D01*
X135891458Y-56750500D01*
X135891459Y-56750500D01*
X136088539Y-56750500D01*
X136088540Y-56750500D01*
X136281834Y-56712051D01*
X136463913Y-56636632D01*
X136627781Y-56527139D01*
X136767138Y-56387782D01*
X136876631Y-56223914D01*
X136876632Y-56223911D01*
X136876633Y-56223911D01*
X136919157Y-56121244D01*
X136952050Y-56041835D01*
X136990499Y-55848541D01*
X136990499Y-55651459D01*
X136952050Y-55458165D01*
X136876631Y-55276086D01*
X136767138Y-55112218D01*
X136685010Y-55030090D01*
X136666804Y-55005031D01*
X136661838Y-54995284D01*
X136652269Y-54934854D01*
X136680048Y-54880338D01*
X136726947Y-54854077D01*
X136732543Y-54852734D01*
X136755646Y-54850000D01*
X140830390Y-54850000D01*
X140860978Y-54854843D01*
X140871381Y-54858223D01*
X140920881Y-54894185D01*
X140939791Y-54952375D01*
X140925208Y-55004096D01*
X140922203Y-55009001D01*
X140907790Y-55027287D01*
X140845417Y-55089660D01*
X140792859Y-55142218D01*
X140792857Y-55142220D01*
X140683364Y-55306087D01*
X140683364Y-55306088D01*
X140607949Y-55488158D01*
X140607949Y-55488159D01*
X140607948Y-55488166D01*
X140575467Y-55651456D01*
X140569499Y-55681456D01*
X140569499Y-55878543D01*
X140601980Y-56041834D01*
X140606046Y-56062271D01*
X140606046Y-56062275D01*
X140607947Y-56071837D01*
X140683365Y-56253913D01*
X140687214Y-56259672D01*
X140687222Y-56259684D01*
X140792860Y-56417782D01*
X140932217Y-56557139D01*
X141096085Y-56666632D01*
X141278164Y-56742051D01*
X141471458Y-56780500D01*
X141471459Y-56780500D01*
X141668539Y-56780500D01*
X141668540Y-56780500D01*
X141861834Y-56742051D01*
X142043913Y-56666632D01*
X142207781Y-56557139D01*
X142347138Y-56417782D01*
X142456631Y-56253914D01*
X142532050Y-56071835D01*
X142570499Y-55878541D01*
X142570499Y-55681459D01*
X142532050Y-55488165D01*
X142456631Y-55306086D01*
X142347138Y-55142218D01*
X142235010Y-55030090D01*
X142216804Y-55005031D01*
X142211838Y-54995284D01*
X142202269Y-54934854D01*
X142230048Y-54880338D01*
X142276947Y-54854077D01*
X142282543Y-54852734D01*
X142305646Y-54850000D01*
X143050269Y-54850000D01*
X143056743Y-54850212D01*
X143063198Y-54850635D01*
X143069639Y-54851269D01*
X143081738Y-54852862D01*
X143170059Y-54864489D01*
X143182750Y-54867014D01*
X143186726Y-54868079D01*
X143195176Y-54870343D01*
X143207429Y-54874501D01*
X143291973Y-54909520D01*
X143303578Y-54915244D01*
X143314715Y-54921674D01*
X143325480Y-54928866D01*
X143398065Y-54984563D01*
X143407801Y-54993101D01*
X143416900Y-55002200D01*
X143425430Y-55011927D01*
X143481129Y-55084514D01*
X143488320Y-55095277D01*
X143494754Y-55106421D01*
X143500482Y-55118036D01*
X143535489Y-55202551D01*
X143539651Y-55214811D01*
X143542983Y-55227245D01*
X143545510Y-55239948D01*
X143558728Y-55340352D01*
X143559362Y-55346784D01*
X143559786Y-55353238D01*
X143559999Y-55359728D01*
X143559999Y-59706858D01*
X143559151Y-59719789D01*
X143557471Y-59732541D01*
X143554946Y-59745232D01*
X143519500Y-59877525D01*
X143519500Y-60022475D01*
X143551029Y-60140142D01*
X143551030Y-60140144D01*
X143554947Y-60154763D01*
X143557473Y-60167462D01*
X143559152Y-60180214D01*
X143559999Y-60193137D01*
X143559999Y-60816858D01*
X143559151Y-60829789D01*
X143557471Y-60842541D01*
X143554946Y-60855232D01*
X143525970Y-60963377D01*
X143519500Y-60987525D01*
X143519500Y-61132475D01*
X143552294Y-61254863D01*
X143552295Y-61254865D01*
X143552294Y-61254865D01*
X143554946Y-61264761D01*
X143557473Y-61277462D01*
X143559152Y-61290214D01*
X143559999Y-61303137D01*
X143559999Y-66020270D01*
X143559786Y-66026760D01*
X143559362Y-66033214D01*
X143558728Y-66039646D01*
X143545510Y-66140050D01*
X143542983Y-66152753D01*
X143539651Y-66165187D01*
X143535489Y-66177447D01*
X143500482Y-66261962D01*
X143494755Y-66273576D01*
X143488324Y-66284715D01*
X143481129Y-66295484D01*
X143425437Y-66368063D01*
X143416899Y-66377799D01*
X143407798Y-66386900D01*
X143398062Y-66395438D01*
X143325483Y-66451130D01*
X143314714Y-66458325D01*
X143303575Y-66464756D01*
X143291961Y-66470483D01*
X143207446Y-66505490D01*
X143195186Y-66509652D01*
X143182752Y-66512984D01*
X143170049Y-66515511D01*
X143069646Y-66528729D01*
X143063214Y-66529363D01*
X143056760Y-66529787D01*
X143050270Y-66530000D01*
X142389608Y-66530000D01*
X142359014Y-66525154D01*
X142348612Y-66521774D01*
X142299112Y-66485809D01*
X142280206Y-66427618D01*
X142294789Y-66375902D01*
X142297800Y-66370989D01*
X142312207Y-66352713D01*
X142367130Y-66297790D01*
X142367138Y-66297782D01*
X142476631Y-66133914D01*
X142476632Y-66133911D01*
X142476633Y-66133911D01*
X142522361Y-66023511D01*
X142552050Y-65951835D01*
X142590499Y-65758541D01*
X142590499Y-65561459D01*
X142552050Y-65368165D01*
X142476631Y-65186086D01*
X142367138Y-65022218D01*
X142227781Y-64882861D01*
X142121052Y-64811547D01*
X142108546Y-64795683D01*
X142063914Y-64773367D01*
X141881835Y-64697949D01*
X141881834Y-64697949D01*
X141817403Y-64685132D01*
X141688544Y-64659500D01*
X141688542Y-64659500D01*
X141688540Y-64659500D01*
X141491458Y-64659500D01*
X141491455Y-64659500D01*
X141491454Y-64659500D01*
X141441183Y-64669500D01*
X141307726Y-64696047D01*
X141307719Y-64696047D01*
X141298160Y-64697948D01*
X141116087Y-64773365D01*
X141116086Y-64773365D01*
X140952219Y-64882858D01*
X140952217Y-64882860D01*
X140952213Y-64882863D01*
X140952213Y-64882864D01*
X140812863Y-65022214D01*
X140812860Y-65022218D01*
X140703364Y-65186087D01*
X140703364Y-65186088D01*
X140627947Y-65368161D01*
X140626046Y-65377724D01*
X140626046Y-65377726D01*
X140589499Y-65561453D01*
X140589499Y-65758543D01*
X140626046Y-65942271D01*
X140626046Y-65942275D01*
X140627947Y-65951837D01*
X140703363Y-66133909D01*
X140703365Y-66133911D01*
X140703366Y-66133913D01*
X140703367Y-66133914D01*
X140812860Y-66297782D01*
X140812863Y-66297785D01*
X140864987Y-66349909D01*
X140883194Y-66374970D01*
X140888158Y-66384713D01*
X140897728Y-66445145D01*
X140869949Y-66499661D01*
X140823070Y-66525918D01*
X140817475Y-66527262D01*
X140794352Y-66530000D01*
X136799608Y-66530000D01*
X136769014Y-66525154D01*
X136758612Y-66521774D01*
X136709112Y-66485809D01*
X136690206Y-66427618D01*
X136704789Y-66375902D01*
X136707800Y-66370989D01*
X136722207Y-66352713D01*
X136767130Y-66307790D01*
X136767138Y-66307782D01*
X136876631Y-66143914D01*
X136952050Y-65961835D01*
X136990499Y-65768541D01*
X136990499Y-65571459D01*
X136952050Y-65378165D01*
X136876631Y-65196086D01*
X136767138Y-65032218D01*
X136627781Y-64892861D01*
X136521052Y-64821547D01*
X136508546Y-64805683D01*
X136463914Y-64783367D01*
X136281835Y-64707949D01*
X136281834Y-64707949D01*
X136217403Y-64695132D01*
X136088544Y-64669500D01*
X136088542Y-64669500D01*
X136088540Y-64669500D01*
X135891458Y-64669500D01*
X135891455Y-64669500D01*
X135891454Y-64669500D01*
X135810026Y-64685697D01*
X135707726Y-64706047D01*
X135707719Y-64706047D01*
X135698160Y-64707948D01*
X135516087Y-64783365D01*
X135516086Y-64783365D01*
X135352219Y-64892858D01*
X135212857Y-65032220D01*
X135103364Y-65196087D01*
X135103364Y-65196088D01*
X135027949Y-65378158D01*
X135027949Y-65378159D01*
X135027948Y-65378166D01*
X134991488Y-65561459D01*
X134989499Y-65571456D01*
X134989499Y-65768543D01*
X135025959Y-65951837D01*
X135026046Y-65952271D01*
X135026046Y-65952275D01*
X135027947Y-65961837D01*
X135099222Y-66133909D01*
X135103366Y-66143913D01*
X135139698Y-66198288D01*
X135196129Y-66282742D01*
X135212860Y-66307782D01*
X135254987Y-66349909D01*
X135273194Y-66374970D01*
X135278158Y-66384713D01*
X135287728Y-66445145D01*
X135259949Y-66499661D01*
X135213070Y-66525918D01*
X135207475Y-66527262D01*
X135184352Y-66530000D01*
X131930889Y-66530000D01*
X131900295Y-66525154D01*
X131889893Y-66521774D01*
X131840393Y-66485809D01*
X131821487Y-66427618D01*
X131836074Y-66375895D01*
X131857603Y-66340761D01*
X131857628Y-66340776D01*
X131859622Y-66337129D01*
X131861281Y-66334648D01*
X131895965Y-66282740D01*
X131910499Y-66209674D01*
X131910499Y-65160326D01*
X131895965Y-65087260D01*
X131852506Y-65022218D01*
X131840601Y-65004400D01*
X131840598Y-65004397D01*
X131757741Y-64949035D01*
X131757739Y-64949034D01*
X131757736Y-64949033D01*
X131757735Y-64949033D01*
X131734747Y-64944460D01*
X131734746Y-64944459D01*
X131684693Y-64934503D01*
X131684683Y-64934501D01*
X131684678Y-64934500D01*
X131684675Y-64934500D01*
X131684673Y-64934500D01*
X131684672Y-64934500D01*
X129055179Y-64934500D01*
X129024586Y-64929654D01*
X129011900Y-64925532D01*
X128962400Y-64889568D01*
X128962393Y-64889558D01*
X128959399Y-64885436D01*
X128940499Y-64827256D01*
X128940499Y-58510320D01*
X132409499Y-58510320D01*
X132409499Y-59159678D01*
X132424032Y-59232737D01*
X132424034Y-59232742D01*
X132440666Y-59257635D01*
X132479396Y-59315599D01*
X132479399Y-59315602D01*
X132479402Y-59315604D01*
X132543528Y-59358451D01*
X132552822Y-59365487D01*
X132576630Y-59385821D01*
X132608600Y-59437990D01*
X132603799Y-59498987D01*
X132570525Y-59541194D01*
X132537066Y-59565503D01*
X132537033Y-59565458D01*
X132533821Y-59568034D01*
X132479400Y-59604396D01*
X132479393Y-59604403D01*
X132424034Y-59687256D01*
X132424032Y-59687261D01*
X132420134Y-59706858D01*
X132409500Y-59760315D01*
X132409499Y-59760320D01*
X132409499Y-59760322D01*
X132409499Y-60409678D01*
X132424032Y-60482737D01*
X132424034Y-60482742D01*
X132467071Y-60547154D01*
X132479396Y-60565599D01*
X132479399Y-60565602D01*
X132479402Y-60565604D01*
X132543528Y-60608451D01*
X132552822Y-60615487D01*
X132576630Y-60635821D01*
X132608600Y-60687990D01*
X132603799Y-60748987D01*
X132570525Y-60791194D01*
X132537066Y-60815503D01*
X132537033Y-60815458D01*
X132533821Y-60818034D01*
X132479400Y-60854396D01*
X132479393Y-60854403D01*
X132424034Y-60937256D01*
X132424032Y-60937261D01*
X132409499Y-61010320D01*
X132409499Y-61659678D01*
X132424032Y-61732737D01*
X132424034Y-61732742D01*
X132475452Y-61809697D01*
X132479396Y-61815599D01*
X132479399Y-61815602D01*
X132479402Y-61815604D01*
X132543528Y-61858451D01*
X132552822Y-61865487D01*
X132576630Y-61885821D01*
X132608600Y-61937990D01*
X132603799Y-61998987D01*
X132570525Y-62041194D01*
X132537066Y-62065503D01*
X132537033Y-62065458D01*
X132533821Y-62068034D01*
X132479400Y-62104396D01*
X132479393Y-62104403D01*
X132424034Y-62187256D01*
X132424032Y-62187261D01*
X132409499Y-62260320D01*
X132409499Y-62909678D01*
X132409499Y-62909682D01*
X132409500Y-62909684D01*
X132424032Y-62982736D01*
X132424034Y-62982742D01*
X132479396Y-63065599D01*
X132479399Y-63065602D01*
X132479402Y-63065604D01*
X132543528Y-63108451D01*
X132552822Y-63115487D01*
X132576630Y-63135821D01*
X132608600Y-63187990D01*
X132603799Y-63248987D01*
X132570525Y-63291194D01*
X132537066Y-63315503D01*
X132537033Y-63315458D01*
X132533821Y-63318034D01*
X132479400Y-63354396D01*
X132479393Y-63354403D01*
X132424034Y-63437256D01*
X132424032Y-63437261D01*
X132409499Y-63510320D01*
X132409499Y-64159678D01*
X132409499Y-64159682D01*
X132409500Y-64159684D01*
X132424032Y-64232736D01*
X132424034Y-64232742D01*
X132479396Y-64315599D01*
X132479398Y-64315601D01*
X132479401Y-64315603D01*
X132479403Y-64315605D01*
X132562259Y-64370966D01*
X132617806Y-64382015D01*
X132617807Y-64382015D01*
X132629239Y-64384289D01*
X132631404Y-64384863D01*
X132633578Y-64385216D01*
X132635151Y-64385500D01*
X132635325Y-64385500D01*
X132635326Y-64385500D01*
X134384672Y-64385500D01*
X134384673Y-64385500D01*
X134457739Y-64370966D01*
X134540600Y-64315601D01*
X134595965Y-64232740D01*
X134610499Y-64159674D01*
X134610499Y-63510326D01*
X134607808Y-63496800D01*
X134598381Y-63449407D01*
X134595965Y-63437260D01*
X134564189Y-63389703D01*
X134552716Y-63372531D01*
X134539753Y-63344411D01*
X134536660Y-63333445D01*
X134539060Y-63272307D01*
X134576936Y-63224258D01*
X134580069Y-63222165D01*
X134635045Y-63205498D01*
X134810498Y-63205498D01*
X134820189Y-63205973D01*
X134829838Y-63206924D01*
X134834845Y-63207668D01*
X134837174Y-63207898D01*
X134837175Y-63207898D01*
X134837180Y-63207898D01*
X135440999Y-63207898D01*
X135499190Y-63226805D01*
X135535154Y-63276305D01*
X135539999Y-63306898D01*
X135539999Y-63489300D01*
X137289998Y-63489300D01*
X137289999Y-63489300D01*
X137289999Y-63306898D01*
X137308906Y-63248707D01*
X137358406Y-63212743D01*
X137388999Y-63207898D01*
X137985322Y-63207898D01*
X137985323Y-63207898D01*
X137985323Y-63207897D01*
X137987714Y-63207661D01*
X137992669Y-63206923D01*
X138002312Y-63205973D01*
X138012000Y-63205498D01*
X138226751Y-63205498D01*
X138257339Y-63210341D01*
X138270026Y-63214464D01*
X138319526Y-63250425D01*
X138319528Y-63250427D01*
X138323410Y-63255770D01*
X138341885Y-63304717D01*
X138342351Y-63309695D01*
X138343261Y-63312874D01*
X138344433Y-63315646D01*
X138387206Y-63437884D01*
X138466987Y-63545984D01*
X138466991Y-63545988D01*
X138467844Y-63547144D01*
X138467846Y-63547146D01*
X138467849Y-63547150D01*
X138467852Y-63547152D01*
X138467854Y-63547154D01*
X138468490Y-63547623D01*
X138468607Y-63547751D01*
X138469737Y-63548544D01*
X138577115Y-63627792D01*
X138577116Y-63627792D01*
X138577136Y-63627807D01*
X138577904Y-63628068D01*
X138705300Y-63672646D01*
X138728901Y-63674859D01*
X138732804Y-63675500D01*
X139394272Y-63675500D01*
X139418551Y-63675500D01*
X139419095Y-63675222D01*
X139418813Y-63673931D01*
X139424686Y-63672647D01*
X139424698Y-63672646D01*
X139552881Y-63627793D01*
X139553753Y-63627150D01*
X139660260Y-63548544D01*
X139662149Y-63547150D01*
X139699307Y-63496803D01*
X139709251Y-63483328D01*
X139731311Y-63461594D01*
X139748959Y-63448972D01*
X139806547Y-63430500D01*
X140005706Y-63430500D01*
X140036297Y-63435344D01*
X140042192Y-63437260D01*
X140049566Y-63439656D01*
X140098410Y-63474727D01*
X140105810Y-63484676D01*
X140119817Y-63511058D01*
X140121765Y-63516623D01*
X140121771Y-63516640D01*
X140122207Y-63517885D01*
X140202844Y-63627144D01*
X140202846Y-63627146D01*
X140202849Y-63627150D01*
X140202852Y-63627152D01*
X140202854Y-63627154D01*
X140203493Y-63627625D01*
X140203609Y-63627752D01*
X140204737Y-63628544D01*
X140312115Y-63707792D01*
X140312116Y-63707792D01*
X140312136Y-63707807D01*
X140312904Y-63708068D01*
X140440300Y-63752646D01*
X140463901Y-63754859D01*
X140467804Y-63755500D01*
X140979272Y-63755500D01*
X141003551Y-63755500D01*
X141004095Y-63755222D01*
X141003813Y-63753931D01*
X141009686Y-63752647D01*
X141009698Y-63752646D01*
X141137881Y-63707793D01*
X141247149Y-63627150D01*
X141327792Y-63517882D01*
X141372645Y-63389699D01*
X141372646Y-63389687D01*
X141373930Y-63383814D01*
X141375499Y-63384156D01*
X141375499Y-62702265D01*
X141375499Y-62700727D01*
X141375498Y-62700725D01*
X141375497Y-62700717D01*
X141724499Y-62700717D01*
X141724499Y-63359281D01*
X141727351Y-63389692D01*
X141727355Y-63389708D01*
X141772206Y-63517884D01*
X141851987Y-63625984D01*
X141851991Y-63625988D01*
X141852844Y-63627144D01*
X141852846Y-63627146D01*
X141852849Y-63627150D01*
X141852852Y-63627152D01*
X141852854Y-63627154D01*
X141853490Y-63627623D01*
X141853607Y-63627751D01*
X141854737Y-63628544D01*
X141962115Y-63707792D01*
X141962116Y-63707792D01*
X141962136Y-63707807D01*
X141962904Y-63708068D01*
X142090300Y-63752646D01*
X142113901Y-63754859D01*
X142117804Y-63755500D01*
X142629272Y-63755500D01*
X142653551Y-63755500D01*
X142654095Y-63755222D01*
X142653813Y-63753931D01*
X142659686Y-63752647D01*
X142659698Y-63752646D01*
X142787881Y-63707793D01*
X142897149Y-63627150D01*
X142977792Y-63517882D01*
X143022645Y-63389699D01*
X143022646Y-63389687D01*
X143023930Y-63383814D01*
X143025499Y-63384156D01*
X143025499Y-62697802D01*
X143024857Y-62693890D01*
X143023078Y-62674921D01*
X143022944Y-62672064D01*
X143022645Y-62670305D01*
X143022645Y-62670301D01*
X142977792Y-62542118D01*
X142977789Y-62542114D01*
X142977788Y-62542113D01*
X142977784Y-62542105D01*
X142977544Y-62541782D01*
X142898550Y-62434748D01*
X142897331Y-62433011D01*
X142897235Y-62432913D01*
X142897133Y-62432838D01*
X142882729Y-62422207D01*
X142787885Y-62352208D01*
X142784449Y-62351006D01*
X142783798Y-62350778D01*
X142783797Y-62350777D01*
X142748301Y-62338357D01*
X142721024Y-62323678D01*
X142713793Y-62318172D01*
X142678950Y-62267877D01*
X142680324Y-62206707D01*
X142715568Y-62159321D01*
X142717908Y-62157620D01*
X142721733Y-62154841D01*
X142747227Y-62141487D01*
X142787646Y-62127344D01*
X142896789Y-62046792D01*
X142896791Y-62046790D01*
X142977344Y-61937647D01*
X143022148Y-61809601D01*
X143023605Y-61794063D01*
X143024999Y-61788444D01*
X143024999Y-61700002D01*
X143024999Y-61700001D01*
X143024998Y-61700000D01*
X143024997Y-61700000D01*
X141725002Y-61700000D01*
X141725001Y-61700000D01*
X141725000Y-61700001D01*
X141725000Y-61700002D01*
X141725000Y-61779203D01*
X141727417Y-61804990D01*
X141727217Y-61805881D01*
X141727849Y-61809600D01*
X141727849Y-61809602D01*
X141772653Y-61937647D01*
X141853206Y-62046790D01*
X141853208Y-62046792D01*
X141962351Y-62127345D01*
X141962354Y-62127346D01*
X141962353Y-62127346D01*
X142001694Y-62141112D01*
X142028966Y-62155787D01*
X142036198Y-62161293D01*
X142071044Y-62211586D01*
X142069674Y-62272756D01*
X142034421Y-62320153D01*
X142028262Y-62324628D01*
X142002769Y-62337981D01*
X141962112Y-62352208D01*
X141852861Y-62432838D01*
X141852837Y-62432862D01*
X141772206Y-62542114D01*
X141727355Y-62670290D01*
X141727355Y-62670291D01*
X141727351Y-62670306D01*
X141724499Y-62700717D01*
X141375497Y-62700717D01*
X141373078Y-62674921D01*
X141372944Y-62672064D01*
X141372645Y-62670305D01*
X141372645Y-62670301D01*
X141327792Y-62542118D01*
X141327789Y-62542114D01*
X141327788Y-62542113D01*
X141327784Y-62542105D01*
X141327544Y-62541782D01*
X141248550Y-62434748D01*
X141247331Y-62433011D01*
X141247235Y-62432913D01*
X141247143Y-62432845D01*
X141137884Y-62352208D01*
X141137885Y-62352208D01*
X141136280Y-62351646D01*
X141134452Y-62351007D01*
X141134448Y-62351005D01*
X141099057Y-62338621D01*
X141071786Y-62323946D01*
X141064554Y-62318440D01*
X141029708Y-62268147D01*
X141031078Y-62206977D01*
X141066325Y-62159584D01*
X141072491Y-62155105D01*
X141097980Y-62141754D01*
X141137881Y-62127793D01*
X141138490Y-62127344D01*
X141174303Y-62100912D01*
X141174303Y-62100911D01*
X141174305Y-62100911D01*
X141197798Y-62083572D01*
X141247149Y-62047150D01*
X141247150Y-62047148D01*
X141247151Y-62047148D01*
X141327790Y-61937885D01*
X141327790Y-61937884D01*
X141327792Y-61937882D01*
X141372645Y-61809699D01*
X141372646Y-61809687D01*
X141373930Y-61803814D01*
X141375158Y-61804082D01*
X141374864Y-61799345D01*
X141375499Y-61798346D01*
X141375499Y-61169512D01*
X141707374Y-61169512D01*
X141717463Y-61181805D01*
X141724998Y-61199997D01*
X141724999Y-61199998D01*
X141724999Y-61199999D01*
X141725000Y-61200000D01*
X142124997Y-61200000D01*
X142124998Y-61200000D01*
X142124999Y-61199999D01*
X142124999Y-60190001D01*
X142624999Y-60190001D01*
X142624999Y-61199999D01*
X142625000Y-61200000D01*
X143024996Y-61200000D01*
X143024997Y-61200000D01*
X143024998Y-61199999D01*
X143024998Y-61120796D01*
X143023470Y-61104500D01*
X143022580Y-61095005D01*
X143022446Y-61092156D01*
X143022148Y-61090399D01*
X143022148Y-61090397D01*
X142977344Y-60962352D01*
X142896791Y-60853209D01*
X142896789Y-60853207D01*
X142802968Y-60783963D01*
X142781234Y-60761900D01*
X142774450Y-60752414D01*
X142755981Y-60694085D01*
X142774888Y-60636634D01*
X142781367Y-60627716D01*
X142802663Y-60606261D01*
X142896789Y-60536792D01*
X142896791Y-60536790D01*
X142977344Y-60427647D01*
X143022148Y-60299601D01*
X143023605Y-60284063D01*
X143024999Y-60278444D01*
X143024999Y-60190002D01*
X143024999Y-60190001D01*
X143024998Y-60190000D01*
X143024997Y-60190000D01*
X142625001Y-60190000D01*
X142625000Y-60190000D01*
X142624999Y-60190001D01*
X142124999Y-60190001D01*
X142124998Y-60190000D01*
X142124997Y-60190000D01*
X141725002Y-60190000D01*
X141725001Y-60190000D01*
X141725000Y-60190001D01*
X141725000Y-60269203D01*
X141727199Y-60292670D01*
X141727417Y-60294990D01*
X141727217Y-60295881D01*
X141727849Y-60299600D01*
X141727849Y-60299602D01*
X141772653Y-60427647D01*
X141853206Y-60536790D01*
X141853208Y-60536792D01*
X141853211Y-60536794D01*
X141853215Y-60536798D01*
X141947026Y-60606035D01*
X141968761Y-60628098D01*
X141975545Y-60637583D01*
X141994015Y-60695914D01*
X141975111Y-60753361D01*
X141968634Y-60762276D01*
X141947330Y-60783741D01*
X141853209Y-60853206D01*
X141853205Y-60853210D01*
X141852325Y-60854403D01*
X141772653Y-60962352D01*
X141730370Y-61083193D01*
X141727848Y-61090401D01*
X141724999Y-61120779D01*
X141724891Y-61123093D01*
X141720154Y-61135645D01*
X141720154Y-61149066D01*
X141709617Y-61163568D01*
X141707374Y-61169512D01*
X141375499Y-61169512D01*
X141375499Y-61117805D01*
X141374858Y-61113902D01*
X141372645Y-61090301D01*
X141327792Y-60962118D01*
X141327789Y-60962114D01*
X141327788Y-60962113D01*
X141327784Y-60962105D01*
X141327544Y-60961782D01*
X141248550Y-60854748D01*
X141247367Y-60853062D01*
X141247153Y-60852845D01*
X141246482Y-60852358D01*
X141233180Y-60842541D01*
X141153813Y-60783965D01*
X141132076Y-60761901D01*
X141131959Y-60761738D01*
X141125293Y-60752416D01*
X141106823Y-60694087D01*
X141125727Y-60636638D01*
X141132209Y-60627716D01*
X141153505Y-60606261D01*
X141247149Y-60537150D01*
X141300911Y-60464304D01*
X141327790Y-60427885D01*
X141327790Y-60427884D01*
X141327792Y-60427882D01*
X141372645Y-60299699D01*
X141372646Y-60299687D01*
X141373930Y-60293814D01*
X141375158Y-60294082D01*
X141374864Y-60289345D01*
X141375499Y-60288346D01*
X141375499Y-59659512D01*
X141707374Y-59659512D01*
X141717463Y-59671805D01*
X141724998Y-59689997D01*
X141724999Y-59689998D01*
X141724999Y-59689999D01*
X141725000Y-59690000D01*
X143024996Y-59690000D01*
X143024997Y-59690000D01*
X143024998Y-59689999D01*
X143024998Y-59610796D01*
X143024398Y-59604396D01*
X143022580Y-59585005D01*
X143022446Y-59582156D01*
X143022148Y-59580399D01*
X143022148Y-59580397D01*
X142977344Y-59452352D01*
X142896791Y-59343209D01*
X142896789Y-59343207D01*
X142896785Y-59343204D01*
X142896783Y-59343202D01*
X142837231Y-59299250D01*
X142787645Y-59262654D01*
X142787643Y-59262653D01*
X142787644Y-59262653D01*
X142779378Y-59259761D01*
X142752106Y-59245085D01*
X142744873Y-59239578D01*
X142710028Y-59189284D01*
X142711400Y-59128114D01*
X142746652Y-59080720D01*
X142752819Y-59076239D01*
X142778303Y-59062893D01*
X142792881Y-59057793D01*
X142902149Y-58977150D01*
X142982792Y-58867882D01*
X143027645Y-58739699D01*
X143027646Y-58739687D01*
X143028930Y-58733814D01*
X143030499Y-58734156D01*
X143030499Y-58047802D01*
X143029857Y-58043890D01*
X143028078Y-58024921D01*
X143027944Y-58022064D01*
X143027645Y-58020305D01*
X143027645Y-58020301D01*
X142982792Y-57892118D01*
X142982790Y-57892115D01*
X142982790Y-57892114D01*
X142953808Y-57852846D01*
X142953807Y-57852845D01*
X142903528Y-57784718D01*
X142902329Y-57783009D01*
X142902232Y-57782910D01*
X142792883Y-57702207D01*
X142664706Y-57657356D01*
X142664691Y-57657352D01*
X142634280Y-57654500D01*
X142634273Y-57654500D01*
X142634265Y-57654500D01*
X142125733Y-57654500D01*
X142125724Y-57654500D01*
X142125717Y-57654500D01*
X142095305Y-57657352D01*
X142095290Y-57657356D01*
X142095289Y-57657356D01*
X141967113Y-57702207D01*
X141857861Y-57782838D01*
X141857837Y-57782862D01*
X141777206Y-57892114D01*
X141732355Y-58020290D01*
X141732355Y-58020291D01*
X141732351Y-58020306D01*
X141729499Y-58050717D01*
X141729499Y-58709281D01*
X141732351Y-58739692D01*
X141732355Y-58739707D01*
X141732355Y-58739708D01*
X141777206Y-58867884D01*
X141856987Y-58975984D01*
X141856991Y-58975988D01*
X141857844Y-58977144D01*
X141857846Y-58977146D01*
X141857849Y-58977150D01*
X141857852Y-58977152D01*
X141857854Y-58977154D01*
X141858490Y-58977623D01*
X141858607Y-58977751D01*
X141859737Y-58978544D01*
X141919492Y-59022645D01*
X141967115Y-59057792D01*
X141967138Y-59057809D01*
X141967955Y-59058086D01*
X141975615Y-59060766D01*
X142002889Y-59075443D01*
X142010122Y-59080950D01*
X142044967Y-59131244D01*
X142043595Y-59192414D01*
X142008338Y-59239813D01*
X142002181Y-59244286D01*
X141976691Y-59257635D01*
X141962357Y-59262650D01*
X141962353Y-59262652D01*
X141853209Y-59343206D01*
X141853208Y-59343207D01*
X141853206Y-59343209D01*
X141772653Y-59452352D01*
X141741567Y-59541194D01*
X141727848Y-59580401D01*
X141724999Y-59610779D01*
X141724891Y-59613093D01*
X141720154Y-59625645D01*
X141720154Y-59639066D01*
X141709617Y-59653568D01*
X141707374Y-59659512D01*
X141375499Y-59659512D01*
X141375499Y-59607802D01*
X141374857Y-59603890D01*
X141373078Y-59584921D01*
X141372944Y-59582064D01*
X141372645Y-59580305D01*
X141372645Y-59580301D01*
X141327792Y-59452118D01*
X141327789Y-59452114D01*
X141327788Y-59452113D01*
X141327784Y-59452105D01*
X141327544Y-59451782D01*
X141272613Y-59377352D01*
X141248548Y-59344745D01*
X141247331Y-59343011D01*
X141247235Y-59342912D01*
X141137888Y-59262211D01*
X141137881Y-59262207D01*
X141130139Y-59259498D01*
X141102857Y-59244815D01*
X141095623Y-59239306D01*
X141060783Y-59189009D01*
X141062161Y-59127839D01*
X141097412Y-59080453D01*
X141103573Y-59075976D01*
X141129063Y-59062627D01*
X141142881Y-59057793D01*
X141252149Y-58977150D01*
X141332792Y-58867882D01*
X141377645Y-58739699D01*
X141377646Y-58739687D01*
X141378930Y-58733814D01*
X141380499Y-58734156D01*
X141380499Y-58047802D01*
X141379857Y-58043890D01*
X141378078Y-58024921D01*
X141377944Y-58022064D01*
X141377645Y-58020305D01*
X141377645Y-58020301D01*
X141332792Y-57892118D01*
X141332790Y-57892115D01*
X141332790Y-57892114D01*
X141303808Y-57852846D01*
X141303807Y-57852845D01*
X141253528Y-57784718D01*
X141252329Y-57783009D01*
X141252232Y-57782910D01*
X141142883Y-57702207D01*
X141014706Y-57657356D01*
X141014691Y-57657352D01*
X140984280Y-57654500D01*
X140984273Y-57654500D01*
X140984265Y-57654500D01*
X140475733Y-57654500D01*
X140475724Y-57654500D01*
X140475717Y-57654500D01*
X140445305Y-57657352D01*
X140445290Y-57657356D01*
X140445289Y-57657356D01*
X140317113Y-57702207D01*
X140207861Y-57782838D01*
X140207839Y-57782860D01*
X140127205Y-57892116D01*
X140126756Y-57893400D01*
X140112076Y-57920678D01*
X140103627Y-57931774D01*
X140054403Y-57966289D01*
X140043849Y-57969588D01*
X140043637Y-57969655D01*
X140042565Y-57969990D01*
X140013024Y-57974500D01*
X139817588Y-57974500D01*
X139786996Y-57969655D01*
X139776636Y-57966289D01*
X139766368Y-57962952D01*
X139717308Y-57927588D01*
X139662152Y-57852854D01*
X139662151Y-57852853D01*
X139662149Y-57852850D01*
X139662145Y-57852847D01*
X139662143Y-57852845D01*
X139661656Y-57852486D01*
X139661655Y-57852484D01*
X139552883Y-57772207D01*
X139424706Y-57727356D01*
X139424691Y-57727352D01*
X139394280Y-57724500D01*
X139394273Y-57724500D01*
X139394265Y-57724500D01*
X138735733Y-57724500D01*
X138735724Y-57724500D01*
X138735717Y-57724500D01*
X138705305Y-57727352D01*
X138705290Y-57727356D01*
X138705289Y-57727356D01*
X138577113Y-57772207D01*
X138467861Y-57852838D01*
X138467837Y-57852862D01*
X138387206Y-57962114D01*
X138344153Y-58085151D01*
X138344146Y-58085173D01*
X138342354Y-58090296D01*
X138342353Y-58090297D01*
X138342353Y-58090301D01*
X138342209Y-58091832D01*
X138338412Y-58104886D01*
X138335861Y-58108636D01*
X138334240Y-58116480D01*
X138329962Y-58126386D01*
X138289540Y-58172308D01*
X138283859Y-58175674D01*
X138233394Y-58189502D01*
X138017000Y-58189502D01*
X138007298Y-58189025D01*
X137997314Y-58188041D01*
X137990761Y-58187174D01*
X137990330Y-58187102D01*
X137990325Y-58187102D01*
X137990323Y-58187102D01*
X137388999Y-58187102D01*
X137330808Y-58168195D01*
X137294844Y-58118695D01*
X137289999Y-58088102D01*
X137289999Y-57904352D01*
X137289999Y-57904351D01*
X137289998Y-57904351D01*
X135540000Y-57904351D01*
X135539999Y-57904351D01*
X135539999Y-57904352D01*
X135539999Y-58088102D01*
X135521092Y-58146293D01*
X135471592Y-58182257D01*
X135440999Y-58187102D01*
X134842171Y-58187102D01*
X134841745Y-58187173D01*
X134835183Y-58188041D01*
X134825200Y-58189025D01*
X134815498Y-58189502D01*
X134658106Y-58189502D01*
X134627509Y-58184655D01*
X134616674Y-58181134D01*
X134567176Y-58145168D01*
X134548271Y-58086981D01*
X134548271Y-58083251D01*
X134564954Y-58028252D01*
X134595490Y-57982551D01*
X134595492Y-57982546D01*
X134609662Y-57911310D01*
X134609999Y-57909764D01*
X134609999Y-57835002D01*
X134609999Y-57835001D01*
X134609998Y-57835000D01*
X134609997Y-57835000D01*
X132410001Y-57835000D01*
X132410000Y-57835000D01*
X132409999Y-57835001D01*
X132409999Y-57909624D01*
X132421271Y-57966289D01*
X132424505Y-57982547D01*
X132424507Y-57982550D01*
X132479757Y-58065237D01*
X132479761Y-58065241D01*
X132544705Y-58108636D01*
X132544818Y-58108711D01*
X132554108Y-58115743D01*
X132577292Y-58135542D01*
X132609263Y-58187709D01*
X132604466Y-58248706D01*
X132571193Y-58290916D01*
X132537168Y-58315638D01*
X132537042Y-58315464D01*
X132533961Y-58317941D01*
X132479404Y-58354393D01*
X132479399Y-58354397D01*
X132479393Y-58354403D01*
X132424034Y-58437256D01*
X132424032Y-58437261D01*
X132409499Y-58510320D01*
X128940499Y-58510320D01*
X128940499Y-57260375D01*
X132409999Y-57260375D01*
X132409999Y-57334999D01*
X132410000Y-57335000D01*
X133259997Y-57335000D01*
X133259998Y-57335000D01*
X133259999Y-57334999D01*
X133259999Y-57035001D01*
X133759999Y-57035001D01*
X133759999Y-57334999D01*
X133760000Y-57335000D01*
X134609997Y-57335000D01*
X134609998Y-57335000D01*
X134609999Y-57334999D01*
X134609999Y-57260377D01*
X134609999Y-57260235D01*
X134609662Y-57258688D01*
X134595492Y-57187453D01*
X134595491Y-57187451D01*
X134540240Y-57104762D01*
X134540236Y-57104758D01*
X134457547Y-57049507D01*
X134457548Y-57049507D01*
X134457546Y-57049506D01*
X134442960Y-57046604D01*
X134384623Y-57035000D01*
X134384619Y-57035000D01*
X133760001Y-57035000D01*
X133760000Y-57035000D01*
X133759999Y-57035001D01*
X133259999Y-57035001D01*
X133259998Y-57035000D01*
X133259997Y-57035000D01*
X132635378Y-57035000D01*
X132635374Y-57035000D01*
X132586759Y-57044670D01*
X132562450Y-57049506D01*
X132479761Y-57104758D01*
X132479757Y-57104762D01*
X132424505Y-57187451D01*
X132424505Y-57187452D01*
X132424505Y-57187453D01*
X132409999Y-57260375D01*
X128940499Y-57260375D01*
X128940499Y-56600180D01*
X128945342Y-56569594D01*
X128949464Y-56556905D01*
X128985422Y-56507406D01*
X128986021Y-56506971D01*
X128989562Y-56504400D01*
X129047742Y-56485500D01*
X131684672Y-56485500D01*
X131684673Y-56485500D01*
X131757739Y-56470966D01*
X131840600Y-56415601D01*
X131895965Y-56332740D01*
X131903256Y-56296084D01*
X131910498Y-56259683D01*
X131910499Y-56259672D01*
X131910499Y-55210327D01*
X131910497Y-55210315D01*
X131907014Y-55192808D01*
X131895965Y-55137260D01*
X131840600Y-55054399D01*
X131840598Y-55054397D01*
X131840594Y-55054394D01*
X131840592Y-55054392D01*
X131819092Y-55040027D01*
X131796343Y-55018998D01*
X131791239Y-55012523D01*
X131770064Y-54955118D01*
X131786675Y-54896231D01*
X131834722Y-54858356D01*
X131840805Y-54856112D01*
X131875052Y-54850000D01*
X132646760Y-54850000D01*
X132677354Y-54854846D01*
G37*
%TD.AperFunction*%
%TD*%
M02*
