M48
; DRILL file KiCad 10.0.0 date 2026-08-15T17:39:24
; FORMAT={-:-/ absolute / metric / decimal}
; #@! TF.CreationDate,2026-08-15T17:39:24-07:00
; #@! TF.GenerationSoftware,Kicad,Pcbnew,10.0.0
; #@! TF.FileFunction,Plated,1,2,PTH
FMAT,2
METRIC
; #@! TA.AperFunction,Plated,PTH,ViaDrill
T1C0.300
; #@! TA.AperFunction,Plated,PTH,ComponentDrill
T2C1.000
; #@! TA.AperFunction,Plated,PTH,ComponentDrill
T3C3.000
%
G90
G05
T1
X133.26Y-54.685
X133.26Y-55.985
X133.51Y-58.835
X133.51Y-60.085
X133.51Y-61.335
X133.51Y-62.585
X133.51Y-63.835
X135.99Y-55.75
X135.99Y-65.67
X136.405Y-62.155
X136.42Y-59.24
X136.64Y-71.265
X137.19Y-53.46
X139.18Y-71.265
X140.19Y-53.46
X140.725Y-59.94
X140.725Y-61.45
X140.725Y-63.03
X140.73Y-58.38
X141.57Y-55.78
X141.59Y-65.66
X142.375Y-63.03
X142.38Y-58.38
X144.07Y-59.95
X144.07Y-61.06
X144.9Y-59.19
X144.905Y-61.735
X145.03Y-53.45
X145.18Y-68.175
X146.43Y-68.175
X147.625Y-63.41
X147.68Y-68.175
X148.03Y-53.45
X149.185Y-56.5
X149.195Y-58.04
X149.22Y-64.98
X149.32Y-60.81
X149.33Y-59.75
X152.07Y-59.32
T2
X154.8Y-55.49
X154.8Y-58.03
X154.8Y-60.57
X154.8Y-63.11
X154.8Y-65.65
T3
X131.82Y-51.43
X131.83Y-70.01
X153.44Y-51.44
X153.45Y-70.02
M30
