%TF.GenerationSoftware,KiCad,Pcbnew,10.0.0*%
%TF.CreationDate,2026-08-15T17:39:26-07:00*%
%TF.ProjectId,DI2C_Endpoint,44493243-5f45-46e6-9470-6f696e742e6b,1*%
%TF.SameCoordinates,Original*%
%TF.FileFunction,Legend,Bot*%
%TF.FilePolarity,Positive*%
%FSLAX46Y46*%
G04 Gerber Fmt 4.6, Leading zero omitted, Abs format (unit mm)*
G04 Created by KiCad (PCBNEW 10.0.0) date 2026-08-15 17:39:26*
%MOMM*%
%LPD*%
G01*
G04 APERTURE LIST*
%ADD10C,0.120000*%
%ADD11C,0.150000*%
%ADD12C,0.100000*%
G04 APERTURE END LIST*
D10*
G36*
X150474267Y-65315782D02*
G01*
X150080572Y-65315782D01*
X150080572Y-65411916D01*
X150368497Y-65411916D01*
X150368497Y-65557290D01*
X150095702Y-65557290D01*
X150095702Y-65653424D01*
X150368497Y-65653424D01*
X150368497Y-65812866D01*
X150065477Y-65812866D01*
X150065477Y-65909000D01*
X150474267Y-65909000D01*
X150474267Y-65315782D01*
G37*
G36*
X149961357Y-65315782D02*
G01*
X149821186Y-65315782D01*
X149533260Y-65756519D01*
X149531575Y-65756519D01*
X149531575Y-65315782D01*
X149425805Y-65315782D01*
X149425805Y-65909000D01*
X149560114Y-65909000D01*
X149853902Y-65454048D01*
X149855587Y-65454048D01*
X149855587Y-65909000D01*
X149961357Y-65909000D01*
X149961357Y-65315782D01*
G37*
G36*
X153414923Y-63062600D02*
G01*
X153388874Y-63062600D01*
X153346522Y-63060109D01*
X153326709Y-63056080D01*
X153309556Y-63049301D01*
X153294787Y-63039146D01*
X153283105Y-63025195D01*
X153275784Y-63007665D01*
X153273030Y-62982806D01*
X153275736Y-62961125D01*
X153283533Y-62942832D01*
X153296550Y-62927119D01*
X153313349Y-62915341D01*
X153333476Y-62908072D01*
X153357843Y-62905503D01*
X153386546Y-62909834D01*
X153411955Y-62922722D01*
X153432383Y-62943039D01*
X153446796Y-62970973D01*
X153553408Y-62942433D01*
X153541042Y-62911353D01*
X153524869Y-62885170D01*
X153504633Y-62862762D01*
X153481235Y-62844980D01*
X153454943Y-62831382D01*
X153425840Y-62821679D01*
X153395171Y-62815987D01*
X153362862Y-62814059D01*
X153324971Y-62816623D01*
X153289846Y-62824134D01*
X153257165Y-62836763D01*
X153229396Y-62853883D01*
X153206074Y-62876018D01*
X153187850Y-62903342D01*
X153176357Y-62934814D01*
X153172316Y-62972511D01*
X153175359Y-63003492D01*
X153184285Y-63031645D01*
X153199171Y-63057618D01*
X153219245Y-63079503D01*
X153243862Y-63095759D01*
X153273872Y-63106637D01*
X153273872Y-63108323D01*
X153237911Y-63117862D01*
X153209586Y-63134087D01*
X153187410Y-63157049D01*
X153171272Y-63185174D01*
X153161434Y-63216803D01*
X153158028Y-63252817D01*
X153162283Y-63293868D01*
X153174404Y-63328434D01*
X153193691Y-63358668D01*
X153218478Y-63383462D01*
X153248093Y-63402828D01*
X153282702Y-63417058D01*
X153319813Y-63425528D01*
X153358649Y-63428378D01*
X153394954Y-63426318D01*
X153428368Y-63420318D01*
X153459770Y-63409963D01*
X153487536Y-63395369D01*
X153512047Y-63376119D01*
X153533258Y-63351808D01*
X153549978Y-63323230D01*
X153562641Y-63288281D01*
X153455186Y-63259741D01*
X153447085Y-63283302D01*
X153436147Y-63302062D01*
X153422470Y-63316821D01*
X153405713Y-63327626D01*
X153384812Y-63334468D01*
X153358649Y-63336934D01*
X153338948Y-63335249D01*
X153320474Y-63330266D01*
X153303375Y-63322162D01*
X153288564Y-63311472D01*
X153276222Y-63298143D01*
X153266765Y-63282236D01*
X153260825Y-63264418D01*
X153258778Y-63244244D01*
X153262033Y-63217661D01*
X153270941Y-63197899D01*
X153284833Y-63181997D01*
X153302009Y-63170348D01*
X153321742Y-63162380D01*
X153344398Y-63157379D01*
X153390559Y-63154045D01*
X153414923Y-63154045D01*
X153414923Y-63062600D01*
G37*
G36*
X153047093Y-63360051D02*
G01*
X153044897Y-63342993D01*
X153038424Y-63327817D01*
X153027383Y-63314000D01*
X153013261Y-63303252D01*
X152997623Y-63296897D01*
X152979938Y-63294729D01*
X152962743Y-63296786D01*
X152947230Y-63302854D01*
X152932934Y-63313157D01*
X152921652Y-63326509D01*
X152915037Y-63341391D01*
X152912784Y-63358366D01*
X152914982Y-63375423D01*
X152921465Y-63390612D01*
X152932531Y-63404455D01*
X152946627Y-63415180D01*
X152962252Y-63421524D01*
X152979938Y-63423689D01*
X152993097Y-63422428D01*
X153005547Y-63418670D01*
X153026943Y-63405297D01*
X153035200Y-63396118D01*
X153041634Y-63385184D01*
X153045716Y-63373095D01*
X153047093Y-63360051D01*
G37*
G36*
X152669298Y-63062600D02*
G01*
X152643250Y-63062600D01*
X152600898Y-63060109D01*
X152581085Y-63056080D01*
X152563932Y-63049301D01*
X152549163Y-63039146D01*
X152537480Y-63025195D01*
X152530159Y-63007665D01*
X152527405Y-62982806D01*
X152530111Y-62961125D01*
X152537908Y-62942832D01*
X152550926Y-62927119D01*
X152567725Y-62915341D01*
X152587852Y-62908072D01*
X152612219Y-62905503D01*
X152640922Y-62909834D01*
X152666331Y-62922722D01*
X152686758Y-62943039D01*
X152701172Y-62970973D01*
X152807784Y-62942433D01*
X152795417Y-62911353D01*
X152779244Y-62885170D01*
X152759008Y-62862762D01*
X152735610Y-62844980D01*
X152709318Y-62831382D01*
X152680216Y-62821679D01*
X152649547Y-62815987D01*
X152617238Y-62814059D01*
X152579346Y-62816623D01*
X152544221Y-62824134D01*
X152511540Y-62836763D01*
X152483771Y-62853883D01*
X152460450Y-62876018D01*
X152442225Y-62903342D01*
X152430733Y-62934814D01*
X152426692Y-62972511D01*
X152429735Y-63003492D01*
X152438660Y-63031645D01*
X152453546Y-63057618D01*
X152473621Y-63079503D01*
X152498238Y-63095759D01*
X152528248Y-63106637D01*
X152528248Y-63108323D01*
X152492286Y-63117862D01*
X152463961Y-63134087D01*
X152441786Y-63157049D01*
X152425648Y-63185174D01*
X152415810Y-63216803D01*
X152412403Y-63252817D01*
X152416658Y-63293868D01*
X152428780Y-63328434D01*
X152448067Y-63358668D01*
X152472854Y-63383462D01*
X152502468Y-63402828D01*
X152537077Y-63417058D01*
X152574188Y-63425528D01*
X152613025Y-63428378D01*
X152649329Y-63426318D01*
X152682744Y-63420318D01*
X152714146Y-63409963D01*
X152741911Y-63395369D01*
X152766422Y-63376119D01*
X152787634Y-63351808D01*
X152804353Y-63323230D01*
X152817016Y-63288281D01*
X152709562Y-63259741D01*
X152701460Y-63283302D01*
X152690522Y-63302062D01*
X152676845Y-63316821D01*
X152660089Y-63327626D01*
X152639187Y-63334468D01*
X152613025Y-63336934D01*
X152593323Y-63335249D01*
X152574849Y-63330266D01*
X152557750Y-63322162D01*
X152542939Y-63311472D01*
X152530598Y-63298143D01*
X152521140Y-63282236D01*
X152515200Y-63264418D01*
X152513154Y-63244244D01*
X152516409Y-63217661D01*
X152525317Y-63197899D01*
X152539208Y-63181997D01*
X152556385Y-63170348D01*
X152576117Y-63162380D01*
X152598773Y-63157379D01*
X152644935Y-63154045D01*
X152669298Y-63154045D01*
X152669298Y-63062600D01*
G37*
G36*
X152361076Y-62825782D02*
G01*
X152239333Y-62825782D01*
X152077327Y-63274029D01*
X151910301Y-62825782D01*
X151796142Y-62825782D01*
X152036221Y-63419000D01*
X152127702Y-63419000D01*
X152361076Y-62825782D01*
G37*
G36*
X153084902Y-65924560D02*
G01*
X153140791Y-65949882D01*
X153200059Y-65968123D01*
X153263224Y-65979265D01*
X153330879Y-65983068D01*
X153376327Y-65980505D01*
X153418284Y-65973035D01*
X153457202Y-65960866D01*
X153494138Y-65943790D01*
X153527029Y-65922857D01*
X153556267Y-65897998D01*
X153581769Y-65869320D01*
X153603432Y-65836893D01*
X153621333Y-65800325D01*
X153634186Y-65761677D01*
X153642095Y-65719658D01*
X153644817Y-65673747D01*
X153642091Y-65626700D01*
X153634176Y-65583707D01*
X153621333Y-65544237D01*
X153603385Y-65506822D01*
X153581714Y-65473847D01*
X153556267Y-65444879D01*
X153526999Y-65419760D01*
X153494108Y-65398697D01*
X153457202Y-65381608D01*
X153418283Y-65369419D01*
X153376326Y-65361936D01*
X153330879Y-65359369D01*
X153264237Y-65363578D01*
X153203275Y-65375819D01*
X153164992Y-65389618D01*
X153129581Y-65409063D01*
X153096663Y-65434437D01*
X153174735Y-65513426D01*
X153205944Y-65489109D01*
X153243978Y-65470634D01*
X153285617Y-65459326D01*
X153330037Y-65455503D01*
X153374640Y-65459705D01*
X153413568Y-65471807D01*
X153448408Y-65491341D01*
X153477755Y-65516979D01*
X153501457Y-65548041D01*
X153519300Y-65584280D01*
X153530252Y-65623811D01*
X153533992Y-65667042D01*
X153530220Y-65713414D01*
X153519300Y-65754860D01*
X153501384Y-65792573D01*
X153477755Y-65824249D01*
X153448398Y-65850277D01*
X153413568Y-65870228D01*
X153374615Y-65882632D01*
X153330000Y-65886934D01*
X153290412Y-65885028D01*
X153254053Y-65879497D01*
X153219833Y-65869767D01*
X153190672Y-65856306D01*
X153190672Y-65718113D01*
X153312378Y-65718113D01*
X153312378Y-65621979D01*
X153084902Y-65621979D01*
X153084902Y-65924560D01*
G37*
G36*
X152959899Y-65375782D02*
G01*
X152819728Y-65375782D01*
X152531802Y-65816519D01*
X152530117Y-65816519D01*
X152530117Y-65375782D01*
X152424348Y-65375782D01*
X152424348Y-65969000D01*
X152558657Y-65969000D01*
X152852444Y-65514048D01*
X152854130Y-65514048D01*
X152854130Y-65969000D01*
X152959899Y-65969000D01*
X152959899Y-65375782D01*
G37*
G36*
X152291650Y-65969000D02*
G01*
X152070037Y-65969000D01*
X152016386Y-65964599D01*
X151960494Y-65951011D01*
X151924335Y-65936919D01*
X151890563Y-65918800D01*
X151858938Y-65896533D01*
X151830566Y-65870373D01*
X151805702Y-65839794D01*
X151784236Y-65804355D01*
X151768530Y-65766189D01*
X151758704Y-65722539D01*
X151755257Y-65672391D01*
X151866082Y-65672391D01*
X151868370Y-65708204D01*
X151874820Y-65738701D01*
X151884986Y-65764715D01*
X151899259Y-65788682D01*
X151916417Y-65809174D01*
X151936607Y-65826520D01*
X151971606Y-65846919D01*
X152013397Y-65861581D01*
X152058344Y-65869986D01*
X152106966Y-65872866D01*
X152185881Y-65872866D01*
X152185881Y-65471916D01*
X152089344Y-65471916D01*
X152041855Y-65474839D01*
X151999951Y-65483200D01*
X151961536Y-65497838D01*
X151929463Y-65518298D01*
X151911259Y-65535521D01*
X151895747Y-65556118D01*
X151882861Y-65580507D01*
X151873838Y-65606652D01*
X151868110Y-65637041D01*
X151866082Y-65672391D01*
X151755257Y-65672391D01*
X151758268Y-65622617D01*
X151766838Y-65579215D01*
X151780462Y-65541269D01*
X151799447Y-65505676D01*
X151821813Y-65474980D01*
X151847617Y-65448689D01*
X151876890Y-65426258D01*
X151908963Y-65407998D01*
X151944154Y-65393808D01*
X151999600Y-65380313D01*
X152057434Y-65375782D01*
X152291650Y-65375782D01*
X152291650Y-65969000D01*
G37*
G36*
X153384996Y-57832508D02*
G01*
X153404545Y-57811461D01*
X153429912Y-57796824D01*
X153458659Y-57788350D01*
X153489043Y-57785503D01*
X153524727Y-57789717D01*
X153541224Y-57795200D01*
X153555795Y-57803089D01*
X153568258Y-57813626D01*
X153578033Y-57826939D01*
X153584232Y-57842577D01*
X153586423Y-57861707D01*
X153583938Y-57880767D01*
X153576944Y-57895793D01*
X153565430Y-57907759D01*
X153542703Y-57922201D01*
X153513407Y-57935383D01*
X153445409Y-57958024D01*
X153409739Y-57971098D01*
X153377449Y-57988176D01*
X153349036Y-58010428D01*
X153325389Y-58039247D01*
X153314226Y-58061416D01*
X153307014Y-58089154D01*
X153304396Y-58123804D01*
X153306484Y-58155232D01*
X153312454Y-58182822D01*
X153322018Y-58207152D01*
X153342822Y-58239858D01*
X153369462Y-58266173D01*
X153401318Y-58286512D01*
X153438705Y-58301344D01*
X153478914Y-58310095D01*
X153521796Y-58313068D01*
X153558398Y-58310993D01*
X153593856Y-58304815D01*
X153628408Y-58294530D01*
X153660783Y-58279444D01*
X153690047Y-58258784D01*
X153716556Y-58232101D01*
X153636798Y-58154835D01*
X153614478Y-58180941D01*
X153586020Y-58200594D01*
X153553576Y-58212854D01*
X153519268Y-58216934D01*
X153500883Y-58215690D01*
X153482339Y-58211915D01*
X153464607Y-58205591D01*
X153448780Y-58196857D01*
X153435112Y-58185415D01*
X153424417Y-58171285D01*
X153417554Y-58154879D01*
X153415184Y-58135711D01*
X153417699Y-58114897D01*
X153424738Y-58098489D01*
X153436177Y-58085446D01*
X153459038Y-58069598D01*
X153488237Y-58055734D01*
X153556235Y-58032726D01*
X153591938Y-58019725D01*
X153624232Y-58002977D01*
X153652627Y-57981126D01*
X153676256Y-57952749D01*
X153687405Y-57930811D01*
X153694622Y-57903209D01*
X153697248Y-57868558D01*
X153695012Y-57838341D01*
X153688628Y-57812044D01*
X153678380Y-57789020D01*
X153656496Y-57758300D01*
X153628848Y-57733333D01*
X153596324Y-57714117D01*
X153558763Y-57700250D01*
X153518909Y-57692093D01*
X153478162Y-57689369D01*
X153431814Y-57692972D01*
X153387084Y-57703731D01*
X153358810Y-57715277D01*
X153332449Y-57730927D01*
X153307766Y-57750919D01*
X153384996Y-57832508D01*
G37*
G36*
X153194413Y-58299000D02*
G01*
X152972800Y-58299000D01*
X152919149Y-58294599D01*
X152863257Y-58281011D01*
X152827098Y-58266919D01*
X152793326Y-58248800D01*
X152761700Y-58226533D01*
X152733329Y-58200373D01*
X152708464Y-58169794D01*
X152686999Y-58134355D01*
X152671292Y-58096189D01*
X152661466Y-58052539D01*
X152658019Y-58002391D01*
X152768845Y-58002391D01*
X152771133Y-58038204D01*
X152777583Y-58068701D01*
X152787749Y-58094715D01*
X152802022Y-58118682D01*
X152819180Y-58139174D01*
X152839370Y-58156520D01*
X152874369Y-58176919D01*
X152916160Y-58191581D01*
X152961107Y-58199986D01*
X153009729Y-58202866D01*
X153088644Y-58202866D01*
X153088644Y-57801916D01*
X152992107Y-57801916D01*
X152944618Y-57804839D01*
X152902714Y-57813200D01*
X152864298Y-57827838D01*
X152832226Y-57848298D01*
X152814022Y-57865521D01*
X152798510Y-57886118D01*
X152785624Y-57910507D01*
X152776601Y-57936652D01*
X152770873Y-57967041D01*
X152768845Y-58002391D01*
X152658019Y-58002391D01*
X152661031Y-57952617D01*
X152669601Y-57909215D01*
X152683225Y-57871269D01*
X152702210Y-57835676D01*
X152724576Y-57804980D01*
X152750380Y-57778689D01*
X152779653Y-57756258D01*
X152811726Y-57737998D01*
X152846917Y-57723808D01*
X152902363Y-57710313D01*
X152960197Y-57705782D01*
X153194413Y-57705782D01*
X153194413Y-58299000D01*
G37*
G36*
X152623544Y-58299000D02*
G01*
X152505172Y-58299000D01*
X152451463Y-58163005D01*
X152193763Y-58163005D01*
X152138368Y-58299000D01*
X152017505Y-58299000D01*
X152115661Y-58071561D01*
X152230692Y-58071561D01*
X152415376Y-58071561D01*
X152322210Y-57829797D01*
X152230692Y-58071561D01*
X152115661Y-58071561D01*
X152273520Y-57705782D01*
X152365001Y-57705782D01*
X152623544Y-58299000D01*
G37*
G36*
X153388639Y-55262508D02*
G01*
X153408188Y-55241461D01*
X153433555Y-55226824D01*
X153462302Y-55218350D01*
X153492686Y-55215503D01*
X153528370Y-55219717D01*
X153544867Y-55225200D01*
X153559438Y-55233089D01*
X153571901Y-55243626D01*
X153581676Y-55256939D01*
X153587875Y-55272577D01*
X153590066Y-55291707D01*
X153587581Y-55310767D01*
X153580587Y-55325793D01*
X153569073Y-55337759D01*
X153546346Y-55352201D01*
X153517050Y-55365383D01*
X153449052Y-55388024D01*
X153413382Y-55401098D01*
X153381092Y-55418176D01*
X153352679Y-55440428D01*
X153329032Y-55469247D01*
X153317869Y-55491416D01*
X153310657Y-55519154D01*
X153308039Y-55553804D01*
X153310127Y-55585232D01*
X153316097Y-55612822D01*
X153325661Y-55637152D01*
X153346465Y-55669858D01*
X153373105Y-55696173D01*
X153404961Y-55716512D01*
X153442348Y-55731344D01*
X153482557Y-55740095D01*
X153525439Y-55743068D01*
X153562041Y-55740993D01*
X153597499Y-55734815D01*
X153632051Y-55724530D01*
X153664426Y-55709444D01*
X153693690Y-55688784D01*
X153720199Y-55662101D01*
X153640441Y-55584835D01*
X153618121Y-55610941D01*
X153589663Y-55630594D01*
X153557219Y-55642854D01*
X153522911Y-55646934D01*
X153504526Y-55645690D01*
X153485982Y-55641915D01*
X153468250Y-55635591D01*
X153452423Y-55626857D01*
X153438755Y-55615415D01*
X153428060Y-55601285D01*
X153421197Y-55584879D01*
X153418827Y-55565711D01*
X153421342Y-55544897D01*
X153428381Y-55528489D01*
X153439820Y-55515446D01*
X153462681Y-55499598D01*
X153491880Y-55485734D01*
X153559878Y-55462726D01*
X153595581Y-55449725D01*
X153627875Y-55432977D01*
X153656270Y-55411126D01*
X153679899Y-55382749D01*
X153691048Y-55360811D01*
X153698265Y-55333209D01*
X153700891Y-55298558D01*
X153698655Y-55268341D01*
X153692271Y-55242044D01*
X153682023Y-55219020D01*
X153660139Y-55188300D01*
X153632491Y-55163333D01*
X153599967Y-55144117D01*
X153562406Y-55130250D01*
X153522552Y-55122093D01*
X153481805Y-55119369D01*
X153435457Y-55122972D01*
X153390727Y-55133731D01*
X153362453Y-55145277D01*
X153336092Y-55160927D01*
X153311409Y-55180919D01*
X153388639Y-55262508D01*
G37*
G36*
X152790110Y-55274268D02*
G01*
X152813164Y-55252116D01*
X152834171Y-55236863D01*
X152853491Y-55227264D01*
X152884433Y-55218405D01*
X152915186Y-55215503D01*
X152959790Y-55219705D01*
X152998717Y-55231807D01*
X153033558Y-55251341D01*
X153062904Y-55276979D01*
X153086607Y-55308041D01*
X153104450Y-55344280D01*
X153115402Y-55383811D01*
X153119141Y-55427042D01*
X153115370Y-55473414D01*
X153104450Y-55514860D01*
X153086534Y-55552573D01*
X153062904Y-55584249D01*
X153033548Y-55610277D01*
X152998717Y-55630228D01*
X152959769Y-55642633D01*
X152915186Y-55646934D01*
X152879828Y-55642693D01*
X152845101Y-55629751D01*
X152823742Y-55616573D01*
X152802655Y-55598487D01*
X152781720Y-55574760D01*
X152694415Y-55636896D01*
X152723739Y-55671074D01*
X152756364Y-55697809D01*
X152792638Y-55717789D01*
X152831898Y-55731783D01*
X152872894Y-55740217D01*
X152916029Y-55743068D01*
X152961477Y-55740505D01*
X153003434Y-55733035D01*
X153042351Y-55720866D01*
X153079287Y-55703790D01*
X153112178Y-55682857D01*
X153141416Y-55657998D01*
X153166919Y-55629320D01*
X153188582Y-55596893D01*
X153206483Y-55560325D01*
X153219336Y-55521677D01*
X153227245Y-55479658D01*
X153229967Y-55433747D01*
X153227240Y-55386700D01*
X153219326Y-55343707D01*
X153206483Y-55304237D01*
X153188535Y-55266822D01*
X153166864Y-55233847D01*
X153141416Y-55204879D01*
X153112149Y-55179760D01*
X153079258Y-55158697D01*
X153042351Y-55141608D01*
X153003432Y-55129419D01*
X152961475Y-55121936D01*
X152916029Y-55119369D01*
X152876171Y-55121827D01*
X152838944Y-55129035D01*
X152803958Y-55140875D01*
X152771347Y-55157894D01*
X152739381Y-55181892D01*
X152707824Y-55213818D01*
X152790110Y-55274268D01*
G37*
G36*
X152623011Y-55135782D02*
G01*
X152517242Y-55135782D01*
X152517242Y-55632866D01*
X152264597Y-55632866D01*
X152264597Y-55729000D01*
X152623011Y-55729000D01*
X152623011Y-55135782D01*
G37*
G36*
X153684267Y-60265782D02*
G01*
X153290572Y-60265782D01*
X153290572Y-60361916D01*
X153578497Y-60361916D01*
X153578497Y-60507290D01*
X153305702Y-60507290D01*
X153305702Y-60603424D01*
X153578497Y-60603424D01*
X153578497Y-60762866D01*
X153275477Y-60762866D01*
X153275477Y-60859000D01*
X153684267Y-60859000D01*
X153684267Y-60265782D01*
G37*
G36*
X153171357Y-60265782D02*
G01*
X153031186Y-60265782D01*
X152743260Y-60706519D01*
X152741575Y-60706519D01*
X152741575Y-60265782D01*
X152635805Y-60265782D01*
X152635805Y-60859000D01*
X152770114Y-60859000D01*
X153063902Y-60404048D01*
X153065587Y-60404048D01*
X153065587Y-60859000D01*
X153171357Y-60859000D01*
X153171357Y-60265782D01*
G37*
G36*
X134892508Y-70241361D02*
G01*
X134871461Y-70221812D01*
X134856824Y-70196445D01*
X134848350Y-70167698D01*
X134845503Y-70137314D01*
X134849717Y-70101630D01*
X134855200Y-70085133D01*
X134863089Y-70070562D01*
X134873626Y-70058099D01*
X134886939Y-70048324D01*
X134902577Y-70042125D01*
X134921707Y-70039934D01*
X134940767Y-70042419D01*
X134955793Y-70049413D01*
X134967759Y-70060927D01*
X134982201Y-70083654D01*
X134995383Y-70112950D01*
X135018024Y-70180948D01*
X135031098Y-70216618D01*
X135048176Y-70248908D01*
X135070428Y-70277321D01*
X135099247Y-70300968D01*
X135121416Y-70312131D01*
X135149154Y-70319343D01*
X135183804Y-70321961D01*
X135215232Y-70319873D01*
X135242822Y-70313903D01*
X135267152Y-70304339D01*
X135299858Y-70283535D01*
X135326173Y-70256895D01*
X135346512Y-70225039D01*
X135361344Y-70187652D01*
X135370095Y-70147443D01*
X135373068Y-70104561D01*
X135370993Y-70067959D01*
X135364815Y-70032501D01*
X135354530Y-69997949D01*
X135339444Y-69965574D01*
X135318784Y-69936310D01*
X135292101Y-69909801D01*
X135214835Y-69989559D01*
X135240941Y-70011879D01*
X135260594Y-70040337D01*
X135272854Y-70072781D01*
X135276934Y-70107089D01*
X135275690Y-70125474D01*
X135271915Y-70144018D01*
X135265591Y-70161750D01*
X135256857Y-70177577D01*
X135245415Y-70191245D01*
X135231285Y-70201940D01*
X135214879Y-70208803D01*
X135195711Y-70211173D01*
X135174897Y-70208658D01*
X135158489Y-70201619D01*
X135145446Y-70190180D01*
X135129598Y-70167319D01*
X135115734Y-70138120D01*
X135092726Y-70070122D01*
X135079725Y-70034419D01*
X135062977Y-70002125D01*
X135041126Y-69973730D01*
X135012749Y-69950101D01*
X134990811Y-69938952D01*
X134963209Y-69931735D01*
X134928558Y-69929109D01*
X134898341Y-69931345D01*
X134872044Y-69937729D01*
X134849020Y-69947977D01*
X134818300Y-69969861D01*
X134793333Y-69997509D01*
X134774117Y-70030033D01*
X134760250Y-70067594D01*
X134752093Y-70107448D01*
X134749369Y-70148195D01*
X134752972Y-70194543D01*
X134763731Y-70239273D01*
X134775277Y-70267547D01*
X134790927Y-70293908D01*
X134810919Y-70318591D01*
X134892508Y-70241361D01*
G37*
G36*
X134904268Y-70839890D02*
G01*
X134882116Y-70816836D01*
X134866863Y-70795829D01*
X134857264Y-70776509D01*
X134848405Y-70745567D01*
X134845503Y-70714814D01*
X134849705Y-70670210D01*
X134861807Y-70631283D01*
X134881341Y-70596442D01*
X134906979Y-70567096D01*
X134938041Y-70543393D01*
X134974280Y-70525550D01*
X135013811Y-70514598D01*
X135057042Y-70510859D01*
X135103414Y-70514630D01*
X135144860Y-70525550D01*
X135182573Y-70543466D01*
X135214249Y-70567096D01*
X135240277Y-70596452D01*
X135260228Y-70631283D01*
X135272633Y-70670231D01*
X135276934Y-70714814D01*
X135272693Y-70750172D01*
X135259751Y-70784899D01*
X135246573Y-70806258D01*
X135228487Y-70827345D01*
X135204760Y-70848280D01*
X135266896Y-70935585D01*
X135301074Y-70906261D01*
X135327809Y-70873636D01*
X135347789Y-70837362D01*
X135361783Y-70798102D01*
X135370217Y-70757106D01*
X135373068Y-70713971D01*
X135370505Y-70668523D01*
X135363035Y-70626566D01*
X135350866Y-70587649D01*
X135333790Y-70550713D01*
X135312857Y-70517822D01*
X135287998Y-70488584D01*
X135259320Y-70463081D01*
X135226893Y-70441418D01*
X135190325Y-70423517D01*
X135151677Y-70410664D01*
X135109658Y-70402755D01*
X135063747Y-70400033D01*
X135016700Y-70402760D01*
X134973707Y-70410674D01*
X134934237Y-70423517D01*
X134896822Y-70441465D01*
X134863847Y-70463136D01*
X134834879Y-70488584D01*
X134809760Y-70517851D01*
X134788697Y-70550742D01*
X134771608Y-70587649D01*
X134759419Y-70626568D01*
X134751936Y-70668525D01*
X134749369Y-70713971D01*
X134751827Y-70753829D01*
X134759035Y-70791056D01*
X134770875Y-70826042D01*
X134787894Y-70858653D01*
X134811892Y-70890619D01*
X134843818Y-70922176D01*
X134904268Y-70839890D01*
G37*
G36*
X134765782Y-71006989D02*
G01*
X134765782Y-71112758D01*
X135262866Y-71112758D01*
X135262866Y-71365403D01*
X135359000Y-71365403D01*
X135359000Y-71006989D01*
X134765782Y-71006989D01*
G37*
G36*
X131602600Y-54718821D02*
G01*
X131602600Y-54744870D01*
X131600109Y-54787222D01*
X131596080Y-54807035D01*
X131589301Y-54824188D01*
X131579146Y-54838957D01*
X131565195Y-54850639D01*
X131547665Y-54857960D01*
X131522806Y-54860714D01*
X131501125Y-54858008D01*
X131482832Y-54850211D01*
X131467119Y-54837194D01*
X131455341Y-54820395D01*
X131448072Y-54800268D01*
X131445503Y-54775901D01*
X131449834Y-54747198D01*
X131462722Y-54721789D01*
X131483039Y-54701361D01*
X131510973Y-54686948D01*
X131482433Y-54580336D01*
X131451353Y-54592702D01*
X131425170Y-54608875D01*
X131402762Y-54629111D01*
X131384980Y-54652509D01*
X131371382Y-54678801D01*
X131361679Y-54707904D01*
X131355987Y-54738573D01*
X131354059Y-54770882D01*
X131356623Y-54808773D01*
X131364134Y-54843898D01*
X131376763Y-54876579D01*
X131393883Y-54904348D01*
X131416018Y-54927670D01*
X131443342Y-54945894D01*
X131474814Y-54957387D01*
X131512511Y-54961428D01*
X131543492Y-54958385D01*
X131571645Y-54949459D01*
X131597618Y-54934573D01*
X131619503Y-54914499D01*
X131635759Y-54889882D01*
X131646637Y-54859872D01*
X131648323Y-54859872D01*
X131657862Y-54895833D01*
X131674087Y-54924158D01*
X131697049Y-54946334D01*
X131725174Y-54962472D01*
X131756803Y-54972310D01*
X131792817Y-54975716D01*
X131833868Y-54971461D01*
X131868434Y-54959340D01*
X131898668Y-54940053D01*
X131923462Y-54915266D01*
X131942828Y-54885651D01*
X131957058Y-54851042D01*
X131965528Y-54813931D01*
X131968378Y-54775095D01*
X131966318Y-54738790D01*
X131960318Y-54705376D01*
X131949963Y-54673974D01*
X131935369Y-54646208D01*
X131916119Y-54621697D01*
X131891808Y-54600486D01*
X131863230Y-54583766D01*
X131828281Y-54571103D01*
X131799741Y-54678558D01*
X131823302Y-54686659D01*
X131842062Y-54697597D01*
X131856821Y-54711274D01*
X131867626Y-54728031D01*
X131874468Y-54748932D01*
X131876934Y-54775095D01*
X131875249Y-54794796D01*
X131870266Y-54813270D01*
X131862162Y-54830369D01*
X131851472Y-54845180D01*
X131838143Y-54857522D01*
X131822236Y-54866979D01*
X131804418Y-54872919D01*
X131784244Y-54874966D01*
X131757661Y-54871711D01*
X131737899Y-54862803D01*
X131721997Y-54848911D01*
X131710348Y-54831735D01*
X131702380Y-54812002D01*
X131697379Y-54789346D01*
X131694045Y-54743185D01*
X131694045Y-54718821D01*
X131602600Y-54718821D01*
G37*
G36*
X131900051Y-55086651D02*
G01*
X131882993Y-55088847D01*
X131867817Y-55095320D01*
X131854000Y-55106361D01*
X131843252Y-55120483D01*
X131836897Y-55136121D01*
X131834729Y-55153806D01*
X131836786Y-55171001D01*
X131842854Y-55186514D01*
X131853157Y-55200810D01*
X131866509Y-55212092D01*
X131881391Y-55218707D01*
X131898366Y-55220960D01*
X131915423Y-55218762D01*
X131930612Y-55212279D01*
X131944455Y-55201213D01*
X131955180Y-55187117D01*
X131961524Y-55171492D01*
X131963689Y-55153806D01*
X131962428Y-55140647D01*
X131958670Y-55128197D01*
X131945297Y-55106801D01*
X131936118Y-55098544D01*
X131925184Y-55092110D01*
X131913095Y-55088028D01*
X131900051Y-55086651D01*
G37*
G36*
X131602600Y-55464446D02*
G01*
X131602600Y-55490494D01*
X131600109Y-55532846D01*
X131596080Y-55552659D01*
X131589301Y-55569812D01*
X131579146Y-55584581D01*
X131565195Y-55596264D01*
X131547665Y-55603585D01*
X131522806Y-55606339D01*
X131501125Y-55603633D01*
X131482832Y-55595836D01*
X131467119Y-55582818D01*
X131455341Y-55566019D01*
X131448072Y-55545892D01*
X131445503Y-55521525D01*
X131449834Y-55492822D01*
X131462722Y-55467413D01*
X131483039Y-55446986D01*
X131510973Y-55432572D01*
X131482433Y-55325960D01*
X131451353Y-55338327D01*
X131425170Y-55354500D01*
X131402762Y-55374736D01*
X131384980Y-55398134D01*
X131371382Y-55424426D01*
X131361679Y-55453528D01*
X131355987Y-55484197D01*
X131354059Y-55516506D01*
X131356623Y-55554398D01*
X131364134Y-55589523D01*
X131376763Y-55622204D01*
X131393883Y-55649973D01*
X131416018Y-55673294D01*
X131443342Y-55691519D01*
X131474814Y-55703011D01*
X131512511Y-55707052D01*
X131543492Y-55704009D01*
X131571645Y-55695084D01*
X131597618Y-55680198D01*
X131619503Y-55660123D01*
X131635759Y-55635506D01*
X131646637Y-55605496D01*
X131648323Y-55605496D01*
X131657862Y-55641458D01*
X131674087Y-55669783D01*
X131697049Y-55691958D01*
X131725174Y-55708096D01*
X131756803Y-55717934D01*
X131792817Y-55721341D01*
X131833868Y-55717086D01*
X131868434Y-55704964D01*
X131898668Y-55685677D01*
X131923462Y-55660890D01*
X131942828Y-55631276D01*
X131957058Y-55596667D01*
X131965528Y-55559556D01*
X131968378Y-55520719D01*
X131966318Y-55484415D01*
X131960318Y-55451000D01*
X131949963Y-55419598D01*
X131935369Y-55391833D01*
X131916119Y-55367322D01*
X131891808Y-55346110D01*
X131863230Y-55329391D01*
X131828281Y-55316728D01*
X131799741Y-55424182D01*
X131823302Y-55432284D01*
X131842062Y-55443222D01*
X131856821Y-55456899D01*
X131867626Y-55473655D01*
X131874468Y-55494557D01*
X131876934Y-55520719D01*
X131875249Y-55540421D01*
X131870266Y-55558895D01*
X131862162Y-55575994D01*
X131851472Y-55590805D01*
X131838143Y-55603146D01*
X131822236Y-55612604D01*
X131804418Y-55618544D01*
X131784244Y-55620590D01*
X131757661Y-55617335D01*
X131737899Y-55608427D01*
X131721997Y-55594536D01*
X131710348Y-55577359D01*
X131702380Y-55557627D01*
X131697379Y-55534971D01*
X131694045Y-55488809D01*
X131694045Y-55464446D01*
X131602600Y-55464446D01*
G37*
G36*
X131365782Y-55772668D02*
G01*
X131365782Y-55894411D01*
X131814029Y-56056417D01*
X131365782Y-56223443D01*
X131365782Y-56337602D01*
X131959000Y-56097523D01*
X131959000Y-56006042D01*
X131365782Y-55772668D01*
G37*
G36*
X134605438Y-66450682D02*
G01*
X134580116Y-66506571D01*
X134561875Y-66565839D01*
X134550733Y-66629004D01*
X134546930Y-66696659D01*
X134549493Y-66742107D01*
X134556963Y-66784064D01*
X134569132Y-66822982D01*
X134586208Y-66859918D01*
X134607141Y-66892809D01*
X134632000Y-66922047D01*
X134660678Y-66947549D01*
X134693105Y-66969212D01*
X134729673Y-66987113D01*
X134768321Y-66999966D01*
X134810340Y-67007875D01*
X134856251Y-67010597D01*
X134903298Y-67007871D01*
X134946291Y-66999956D01*
X134985761Y-66987113D01*
X135023176Y-66969165D01*
X135056151Y-66947494D01*
X135085119Y-66922047D01*
X135110238Y-66892779D01*
X135131301Y-66859888D01*
X135148390Y-66822982D01*
X135160579Y-66784063D01*
X135168062Y-66742106D01*
X135170629Y-66696659D01*
X135166420Y-66630017D01*
X135154179Y-66569055D01*
X135140380Y-66530772D01*
X135120935Y-66495361D01*
X135095561Y-66462443D01*
X135016572Y-66540515D01*
X135040889Y-66571724D01*
X135059364Y-66609758D01*
X135070672Y-66651397D01*
X135074495Y-66695817D01*
X135070293Y-66740420D01*
X135058191Y-66779348D01*
X135038657Y-66814188D01*
X135013019Y-66843535D01*
X134981957Y-66867237D01*
X134945718Y-66885080D01*
X134906187Y-66896032D01*
X134862956Y-66899772D01*
X134816584Y-66896000D01*
X134775138Y-66885080D01*
X134737425Y-66867164D01*
X134705749Y-66843535D01*
X134679721Y-66814178D01*
X134659770Y-66779348D01*
X134647366Y-66740395D01*
X134643064Y-66695780D01*
X134644970Y-66656192D01*
X134650501Y-66619833D01*
X134660231Y-66585613D01*
X134673692Y-66556452D01*
X134811885Y-66556452D01*
X134811885Y-66678158D01*
X134908019Y-66678158D01*
X134908019Y-66450682D01*
X134605438Y-66450682D01*
G37*
G36*
X135154216Y-66325679D02*
G01*
X135154216Y-66185508D01*
X134713479Y-65897582D01*
X134713479Y-65895897D01*
X135154216Y-65895897D01*
X135154216Y-65790128D01*
X134560999Y-65790128D01*
X134560999Y-65924437D01*
X135015950Y-66218224D01*
X135015950Y-66219910D01*
X134560999Y-66219910D01*
X134560999Y-66325679D01*
X135154216Y-66325679D01*
G37*
G36*
X134907381Y-65124048D02*
G01*
X134950783Y-65132618D01*
X134988729Y-65146242D01*
X135024322Y-65165227D01*
X135055018Y-65187593D01*
X135081309Y-65213397D01*
X135103740Y-65242670D01*
X135122000Y-65274743D01*
X135136190Y-65309934D01*
X135149685Y-65365380D01*
X135154216Y-65423214D01*
X135154216Y-65657430D01*
X134560999Y-65657430D01*
X134560999Y-65472746D01*
X134657132Y-65472746D01*
X134657132Y-65551661D01*
X135058082Y-65551661D01*
X135058082Y-65455124D01*
X135055159Y-65407635D01*
X135046798Y-65365731D01*
X135032160Y-65327316D01*
X135011700Y-65295243D01*
X134994477Y-65277039D01*
X134973880Y-65261527D01*
X134949491Y-65248641D01*
X134923346Y-65239618D01*
X134892957Y-65233890D01*
X134857607Y-65231862D01*
X134821794Y-65234150D01*
X134791297Y-65240600D01*
X134765283Y-65250766D01*
X134741316Y-65265039D01*
X134720824Y-65282197D01*
X134703478Y-65302387D01*
X134683079Y-65337386D01*
X134668417Y-65379177D01*
X134660012Y-65424124D01*
X134657132Y-65472746D01*
X134560999Y-65472746D01*
X134560999Y-65435817D01*
X134565399Y-65382166D01*
X134578987Y-65326274D01*
X134593079Y-65290115D01*
X134611198Y-65256343D01*
X134633465Y-65224718D01*
X134659625Y-65196346D01*
X134690204Y-65171482D01*
X134725643Y-65150016D01*
X134763809Y-65134310D01*
X134807459Y-65124484D01*
X134857607Y-65121037D01*
X134907381Y-65124048D01*
G37*
G36*
X140947491Y-71124996D02*
G01*
X140968538Y-71144545D01*
X140983175Y-71169912D01*
X140991649Y-71198659D01*
X140994496Y-71229043D01*
X140990282Y-71264727D01*
X140984799Y-71281224D01*
X140976910Y-71295795D01*
X140966373Y-71308258D01*
X140953060Y-71318033D01*
X140937422Y-71324232D01*
X140918292Y-71326423D01*
X140899232Y-71323938D01*
X140884206Y-71316944D01*
X140872240Y-71305430D01*
X140857798Y-71282703D01*
X140844616Y-71253407D01*
X140821975Y-71185409D01*
X140808901Y-71149739D01*
X140791823Y-71117449D01*
X140769571Y-71089036D01*
X140740752Y-71065389D01*
X140718583Y-71054226D01*
X140690845Y-71047014D01*
X140656195Y-71044396D01*
X140624767Y-71046484D01*
X140597177Y-71052454D01*
X140572847Y-71062018D01*
X140540141Y-71082822D01*
X140513826Y-71109462D01*
X140493487Y-71141318D01*
X140478655Y-71178705D01*
X140469904Y-71218914D01*
X140466931Y-71261796D01*
X140469006Y-71298398D01*
X140475184Y-71333856D01*
X140485469Y-71368408D01*
X140500555Y-71400783D01*
X140521215Y-71430047D01*
X140547898Y-71456556D01*
X140625164Y-71376798D01*
X140599058Y-71354478D01*
X140579405Y-71326020D01*
X140567145Y-71293576D01*
X140563065Y-71259268D01*
X140564309Y-71240883D01*
X140568084Y-71222339D01*
X140574408Y-71204607D01*
X140583142Y-71188780D01*
X140594584Y-71175112D01*
X140608714Y-71164417D01*
X140625120Y-71157554D01*
X140644288Y-71155184D01*
X140665102Y-71157699D01*
X140681510Y-71164738D01*
X140694553Y-71176177D01*
X140710401Y-71199038D01*
X140724265Y-71228237D01*
X140747273Y-71296235D01*
X140760274Y-71331938D01*
X140777022Y-71364232D01*
X140798873Y-71392627D01*
X140827250Y-71416256D01*
X140849188Y-71427405D01*
X140876790Y-71434622D01*
X140911441Y-71437248D01*
X140941658Y-71435012D01*
X140967955Y-71428628D01*
X140990979Y-71418380D01*
X141021699Y-71396496D01*
X141046666Y-71368848D01*
X141065882Y-71336324D01*
X141079749Y-71298763D01*
X141087906Y-71258909D01*
X141090630Y-71218162D01*
X141087027Y-71171814D01*
X141076268Y-71127084D01*
X141064722Y-71098810D01*
X141049072Y-71072449D01*
X141029080Y-71047766D01*
X140947491Y-71124996D01*
G37*
G36*
X140827382Y-70401031D02*
G01*
X140870784Y-70409601D01*
X140908730Y-70423225D01*
X140944323Y-70442210D01*
X140975019Y-70464576D01*
X141001310Y-70490380D01*
X141023741Y-70519653D01*
X141042001Y-70551726D01*
X141056191Y-70586917D01*
X141069686Y-70642363D01*
X141074217Y-70700197D01*
X141074217Y-70934413D01*
X140481000Y-70934413D01*
X140481000Y-70749729D01*
X140577133Y-70749729D01*
X140577133Y-70828644D01*
X140978083Y-70828644D01*
X140978083Y-70732107D01*
X140975160Y-70684618D01*
X140966799Y-70642714D01*
X140952161Y-70604298D01*
X140931701Y-70572226D01*
X140914478Y-70554022D01*
X140893881Y-70538510D01*
X140869492Y-70525624D01*
X140843347Y-70516601D01*
X140812958Y-70510873D01*
X140777608Y-70508845D01*
X140741795Y-70511133D01*
X140711298Y-70517583D01*
X140685284Y-70527749D01*
X140661317Y-70542022D01*
X140640825Y-70559180D01*
X140623479Y-70579370D01*
X140603080Y-70614369D01*
X140588418Y-70656160D01*
X140580013Y-70701107D01*
X140577133Y-70749729D01*
X140481000Y-70749729D01*
X140481000Y-70712800D01*
X140485400Y-70659149D01*
X140498988Y-70603257D01*
X140513080Y-70567098D01*
X140531199Y-70533326D01*
X140553466Y-70501700D01*
X140579626Y-70473329D01*
X140610205Y-70448464D01*
X140645644Y-70426999D01*
X140683810Y-70411292D01*
X140727460Y-70401466D01*
X140777608Y-70398019D01*
X140827382Y-70401031D01*
G37*
G36*
X141074217Y-70013520D02*
G01*
X141074217Y-70105001D01*
X140481000Y-70363544D01*
X140481000Y-70245172D01*
X140616994Y-70191463D01*
X140616994Y-70155376D01*
X140708438Y-70155376D01*
X140950202Y-70062210D01*
X140708438Y-69970692D01*
X140708438Y-70155376D01*
X140616994Y-70155376D01*
X140616994Y-69933763D01*
X140481000Y-69878368D01*
X140481000Y-69757505D01*
X141074217Y-70013520D01*
G37*
D11*
G36*
X149598006Y-68935000D02*
G01*
X149643279Y-68945480D01*
X149685126Y-68962830D01*
X149720509Y-68985927D01*
X149749967Y-69015319D01*
X149772581Y-69051091D01*
X149786642Y-69091908D01*
X149791584Y-69140435D01*
X149788135Y-69182284D01*
X149778174Y-69219455D01*
X149761933Y-69252787D01*
X149739066Y-69281290D01*
X149709444Y-69303287D01*
X149671807Y-69319074D01*
X149671807Y-69321321D01*
X149699053Y-69329683D01*
X149726127Y-69344182D01*
X149750812Y-69363330D01*
X149772581Y-69386534D01*
X149790486Y-69413175D01*
X149804480Y-69443931D01*
X149813224Y-69477099D01*
X149816203Y-69513052D01*
X149810634Y-69569615D01*
X149794954Y-69616171D01*
X149769877Y-69656913D01*
X149737850Y-69690323D01*
X149699272Y-69716417D01*
X149653391Y-69735459D01*
X149603469Y-69746657D01*
X149548709Y-69750505D01*
X149494856Y-69746685D01*
X149444612Y-69735459D01*
X149398231Y-69716386D01*
X149359567Y-69690323D01*
X149327551Y-69656911D01*
X149302512Y-69616171D01*
X149286793Y-69569576D01*
X149281214Y-69513052D01*
X149282664Y-69495613D01*
X149415547Y-69495613D01*
X149419913Y-69531756D01*
X149432402Y-69561852D01*
X149453063Y-69587302D01*
X149479862Y-69606503D01*
X149511324Y-69618222D01*
X149548757Y-69622326D01*
X149586159Y-69618224D01*
X149617624Y-69606507D01*
X149644452Y-69587302D01*
X149665084Y-69561856D01*
X149677557Y-69531760D01*
X149681919Y-69495613D01*
X149679229Y-69469736D01*
X149671318Y-69446178D01*
X149658810Y-69424833D01*
X149642791Y-69406709D01*
X149623361Y-69392059D01*
X149600244Y-69381112D01*
X149575108Y-69374456D01*
X149548757Y-69372221D01*
X149522371Y-69374458D01*
X149497271Y-69381112D01*
X149474153Y-69392059D01*
X149454724Y-69406709D01*
X149438676Y-69424839D01*
X149426196Y-69446178D01*
X149418248Y-69469739D01*
X149415547Y-69495613D01*
X149282664Y-69495613D01*
X149284207Y-69477065D01*
X149292986Y-69443931D01*
X149306952Y-69413180D01*
X149324884Y-69386534D01*
X149346620Y-69363325D01*
X149371339Y-69344133D01*
X149398371Y-69329636D01*
X149425610Y-69321272D01*
X149425610Y-69319025D01*
X149387976Y-69303237D01*
X149358371Y-69281240D01*
X149335533Y-69252738D01*
X149319264Y-69219403D01*
X149309287Y-69182232D01*
X149307026Y-69154845D01*
X149440167Y-69154845D01*
X149442305Y-69177753D01*
X149448569Y-69198614D01*
X149458675Y-69217577D01*
X149472065Y-69233931D01*
X149488287Y-69247404D01*
X149506748Y-69257525D01*
X149526915Y-69263800D01*
X149548757Y-69265927D01*
X149580922Y-69262133D01*
X149606943Y-69251422D01*
X149628234Y-69233931D01*
X149644258Y-69211158D01*
X149653941Y-69185111D01*
X149657299Y-69154845D01*
X149654036Y-69126022D01*
X149644562Y-69100873D01*
X149628771Y-69078544D01*
X149607823Y-69061443D01*
X149581671Y-69050865D01*
X149548757Y-69047085D01*
X149518722Y-69050703D01*
X149493132Y-69061144D01*
X149470942Y-69078544D01*
X149453817Y-69101031D01*
X149443649Y-69126170D01*
X149440167Y-69154845D01*
X149307026Y-69154845D01*
X149305833Y-69140386D01*
X149310786Y-69091904D01*
X149324884Y-69051091D01*
X149347460Y-69015321D01*
X149376908Y-68985927D01*
X149412291Y-68962830D01*
X149454138Y-68945480D01*
X149499411Y-68935000D01*
X149548709Y-68931412D01*
X149598006Y-68935000D01*
G37*
G36*
X149134424Y-69791440D02*
G01*
X149227285Y-69757832D01*
X148878115Y-68889353D01*
X148785205Y-68925159D01*
X149134424Y-69791440D01*
G37*
G36*
X148216657Y-69068969D02*
G01*
X148535638Y-69068969D01*
X148539009Y-69222940D01*
X148499295Y-69215027D01*
X148453963Y-69212780D01*
X148397393Y-69217536D01*
X148347083Y-69231293D01*
X148301584Y-69254018D01*
X148263698Y-69284489D01*
X148232980Y-69322288D01*
X148209427Y-69367385D01*
X148194922Y-69417608D01*
X148189839Y-69476025D01*
X148195492Y-69537694D01*
X148211674Y-69590868D01*
X148237884Y-69638208D01*
X148272100Y-69677134D01*
X148313818Y-69708123D01*
X148363300Y-69731454D01*
X148417335Y-69745652D01*
X148476336Y-69750505D01*
X148538409Y-69745189D01*
X148591787Y-69730025D01*
X148638073Y-69705564D01*
X148668184Y-69680893D01*
X148693917Y-69650391D01*
X148715451Y-69613309D01*
X148732644Y-69568593D01*
X148591618Y-69530540D01*
X148580304Y-69557368D01*
X148565057Y-69579541D01*
X148545750Y-69597706D01*
X148522908Y-69610988D01*
X148495308Y-69619345D01*
X148461779Y-69622326D01*
X148432479Y-69619755D01*
X148406434Y-69612312D01*
X148382804Y-69600102D01*
X148362763Y-69583882D01*
X148346388Y-69563979D01*
X148334187Y-69540944D01*
X148326694Y-69515601D01*
X148324124Y-69487455D01*
X148328137Y-69448217D01*
X148339267Y-69417211D01*
X148357107Y-69390760D01*
X148380104Y-69369828D01*
X148407446Y-69354077D01*
X148439406Y-69343059D01*
X148473527Y-69336827D01*
X148509895Y-69334706D01*
X148553351Y-69337214D01*
X148596650Y-69344769D01*
X148638400Y-69356970D01*
X148675540Y-69372759D01*
X148667725Y-68947043D01*
X148216657Y-68947043D01*
X148216657Y-69068969D01*
G37*
G36*
X148036308Y-69791440D02*
G01*
X148129169Y-69757832D01*
X147780000Y-68889353D01*
X147687090Y-68925159D01*
X148036308Y-69791440D01*
G37*
G36*
X147617725Y-69595801D02*
G01*
X147309930Y-69298020D01*
X147281988Y-69269493D01*
X147255708Y-69237595D01*
X147236120Y-69202326D01*
X147230224Y-69183446D01*
X147228255Y-69163687D01*
X147230724Y-69140073D01*
X147237780Y-69120065D01*
X147248854Y-69102359D01*
X147262937Y-69087581D01*
X147279740Y-69075763D01*
X147299330Y-69066869D01*
X147320555Y-69061440D01*
X147343538Y-69059591D01*
X147375999Y-69063019D01*
X147403242Y-69072784D01*
X147426385Y-69088704D01*
X147444866Y-69109929D01*
X147457915Y-69135707D01*
X147465512Y-69167057D01*
X147606538Y-69155871D01*
X147597474Y-69103310D01*
X147580258Y-69058956D01*
X147555001Y-69020093D01*
X147523740Y-68988760D01*
X147486588Y-68964199D01*
X147443140Y-68946018D01*
X147395978Y-68935163D01*
X147343538Y-68931412D01*
X147290997Y-68935005D01*
X147243349Y-68945431D01*
X147199376Y-68962996D01*
X147162212Y-68986806D01*
X147131376Y-69017719D01*
X147107404Y-69056709D01*
X147092521Y-69101640D01*
X147087229Y-69156262D01*
X147091247Y-69205268D01*
X147102759Y-69247980D01*
X147121374Y-69285515D01*
X147159704Y-69337664D01*
X147209204Y-69388976D01*
X147454326Y-69616073D01*
X147087229Y-69616073D01*
X147087229Y-69738000D01*
X147617725Y-69738000D01*
X147617725Y-69595801D01*
G37*
G36*
X146897892Y-69265096D02*
G01*
X146927790Y-69317874D01*
X146951039Y-69368314D01*
X146966404Y-69421083D01*
X146971751Y-69481545D01*
X146966391Y-69541976D01*
X146951039Y-69594287D01*
X146925914Y-69640923D01*
X146892861Y-69679088D01*
X146852228Y-69709407D01*
X146803859Y-69732089D01*
X146750540Y-69745744D01*
X146689699Y-69750505D01*
X146630774Y-69745665D01*
X146577250Y-69731551D01*
X146528413Y-69708304D01*
X146487711Y-69677476D01*
X146454472Y-69638849D01*
X146428946Y-69592089D01*
X146413128Y-69539896D01*
X146407648Y-69480519D01*
X146407823Y-69478516D01*
X146541981Y-69478516D01*
X146544815Y-69507826D01*
X146553168Y-69534838D01*
X146566508Y-69559440D01*
X146583942Y-69580561D01*
X146605121Y-69597900D01*
X146629860Y-69611189D01*
X146656925Y-69619504D01*
X146686329Y-69622326D01*
X146715782Y-69619504D01*
X146742896Y-69611189D01*
X146767593Y-69597903D01*
X146788764Y-69580561D01*
X146806199Y-69559440D01*
X146819539Y-69534838D01*
X146827892Y-69507826D01*
X146830725Y-69478516D01*
X146827891Y-69449213D01*
X146819539Y-69422242D01*
X146806193Y-69397609D01*
X146788764Y-69376520D01*
X146767590Y-69359139D01*
X146742896Y-69345843D01*
X146715782Y-69337528D01*
X146686329Y-69334706D01*
X146656925Y-69337528D01*
X146629860Y-69345843D01*
X146605125Y-69359142D01*
X146583942Y-69376520D01*
X146566513Y-69397609D01*
X146553168Y-69422242D01*
X146544816Y-69449213D01*
X146541981Y-69478516D01*
X146407823Y-69478516D01*
X146412033Y-69430339D01*
X146424989Y-69383505D01*
X146446088Y-69340338D01*
X146474228Y-69303150D01*
X146508972Y-69272263D01*
X146549797Y-69248488D01*
X146595169Y-69233542D01*
X146646078Y-69228411D01*
X146686915Y-69231733D01*
X146719937Y-69241698D01*
X146722135Y-69239451D01*
X146531870Y-68947043D01*
X146695268Y-68947043D01*
X146897892Y-69265096D01*
G37*
G36*
X149791584Y-71082000D02*
G01*
X149496099Y-71082000D01*
X149424564Y-71076132D01*
X149350041Y-71058015D01*
X149301830Y-71039226D01*
X149256800Y-71015066D01*
X149214633Y-70985377D01*
X149176804Y-70950497D01*
X149143652Y-70909725D01*
X149115031Y-70862474D01*
X149094089Y-70811585D01*
X149080988Y-70753386D01*
X149076392Y-70686521D01*
X149224159Y-70686521D01*
X149227210Y-70734272D01*
X149235810Y-70774935D01*
X149249364Y-70809620D01*
X149268395Y-70841576D01*
X149291273Y-70868899D01*
X149318192Y-70892027D01*
X149364858Y-70919226D01*
X149420579Y-70938775D01*
X149480508Y-70949982D01*
X149545338Y-70953821D01*
X149650558Y-70953821D01*
X149650558Y-70419222D01*
X149521842Y-70419222D01*
X149458523Y-70423119D01*
X149402651Y-70434267D01*
X149351431Y-70453784D01*
X149308667Y-70481064D01*
X149284395Y-70504029D01*
X149263712Y-70531491D01*
X149246531Y-70564009D01*
X149234500Y-70598869D01*
X149226863Y-70639388D01*
X149224159Y-70686521D01*
X149076392Y-70686521D01*
X149080407Y-70620157D01*
X149091833Y-70562287D01*
X149110000Y-70511692D01*
X149135313Y-70464235D01*
X149165134Y-70423307D01*
X149199539Y-70388252D01*
X149238570Y-70358345D01*
X149281334Y-70333998D01*
X149328255Y-70315077D01*
X149402183Y-70297084D01*
X149479295Y-70291043D01*
X149791584Y-70291043D01*
X149791584Y-71082000D01*
G37*
G36*
X148748182Y-70536864D02*
G01*
X148803230Y-70551895D01*
X148853690Y-70576385D01*
X148896140Y-70608803D01*
X148931057Y-70649115D01*
X148958276Y-70697561D01*
X148975295Y-70751602D01*
X148981186Y-70813137D01*
X148978530Y-70855078D01*
X148970806Y-70893431D01*
X148958227Y-70928713D01*
X148931008Y-70977158D01*
X148896092Y-71017471D01*
X148853651Y-71049903D01*
X148803230Y-71074428D01*
X148748184Y-71089422D01*
X148689071Y-71094505D01*
X148626594Y-71088406D01*
X148567096Y-71070178D01*
X148530435Y-71050825D01*
X148495451Y-71023825D01*
X148461877Y-70988210D01*
X148558108Y-70915475D01*
X148586009Y-70944223D01*
X148617997Y-70967547D01*
X148654949Y-70982734D01*
X148702505Y-70988210D01*
X148739311Y-70984326D01*
X148771421Y-70973088D01*
X148799860Y-70954505D01*
X148822597Y-70929584D01*
X148838280Y-70898590D01*
X148846852Y-70860032D01*
X148437257Y-70860032D01*
X148437257Y-70823200D01*
X148441782Y-70759990D01*
X148571542Y-70759990D01*
X148846852Y-70759990D01*
X148838208Y-70722507D01*
X148823785Y-70691813D01*
X148803768Y-70666689D01*
X148778284Y-70647756D01*
X148746942Y-70636002D01*
X148708073Y-70631811D01*
X148666869Y-70636007D01*
X148634307Y-70647640D01*
X148608471Y-70666103D01*
X148588877Y-70691036D01*
X148576469Y-70721787D01*
X148571542Y-70759990D01*
X148441782Y-70759990D01*
X148442120Y-70755273D01*
X148455722Y-70698734D01*
X148478293Y-70648073D01*
X148507208Y-70607729D01*
X148543502Y-70575245D01*
X148586685Y-70551309D01*
X148634854Y-70536780D01*
X148689071Y-70531769D01*
X148748182Y-70536864D01*
G37*
G36*
X148025366Y-70692921D02*
G01*
X148047038Y-70668540D01*
X148071364Y-70651704D01*
X148098884Y-70641565D01*
X148130537Y-70638064D01*
X148156871Y-70641358D01*
X148183147Y-70651497D01*
X148197500Y-70662372D01*
X148205921Y-70676546D01*
X148208890Y-70695119D01*
X148203541Y-70716442D01*
X148187641Y-70730925D01*
X148164718Y-70740866D01*
X148133907Y-70749976D01*
X148063956Y-70766193D01*
X148027525Y-70776862D01*
X147994005Y-70791888D01*
X147964382Y-70812439D01*
X147940321Y-70839466D01*
X147929041Y-70860643D01*
X147921706Y-70887719D01*
X147919023Y-70922216D01*
X147924481Y-70967639D01*
X147939734Y-71003353D01*
X147963544Y-71033147D01*
X147993468Y-71056501D01*
X148028132Y-71073665D01*
X148067864Y-71085565D01*
X148109400Y-71092282D01*
X148150711Y-71094505D01*
X148211728Y-71089926D01*
X148265994Y-71076724D01*
X148299243Y-71061967D01*
X148330464Y-71040704D01*
X148359979Y-71012244D01*
X148270439Y-70928420D01*
X148243355Y-70955183D01*
X148215045Y-70975998D01*
X148183068Y-70989614D01*
X148142847Y-70994463D01*
X148112658Y-70991141D01*
X148083545Y-70979955D01*
X148061709Y-70960367D01*
X148055450Y-70947804D01*
X148053307Y-70933011D01*
X148058785Y-70908414D01*
X148074605Y-70891685D01*
X148097652Y-70879924D01*
X148128339Y-70869850D01*
X148198290Y-70854219D01*
X148234722Y-70844634D01*
X148268241Y-70830722D01*
X148297917Y-70811284D01*
X148321974Y-70785489D01*
X148333223Y-70765033D01*
X148340541Y-70738715D01*
X148343224Y-70704986D01*
X148338411Y-70662405D01*
X148324759Y-70627317D01*
X148303282Y-70597211D01*
X148276057Y-70573144D01*
X148243967Y-70554864D01*
X148206643Y-70541832D01*
X148167174Y-70534282D01*
X148127215Y-70531769D01*
X148073992Y-70536297D01*
X148020872Y-70550039D01*
X147987867Y-70565213D01*
X147959717Y-70585946D01*
X147935826Y-70612614D01*
X148025366Y-70692921D01*
G37*
G36*
X147812533Y-70544274D02*
G01*
X147678248Y-70544274D01*
X147678248Y-71082000D01*
X147812533Y-71082000D01*
X147812533Y-70544274D01*
G37*
G36*
X147831584Y-70362949D02*
G01*
X147828922Y-70342102D01*
X147821041Y-70323302D01*
X147807550Y-70305942D01*
X147790206Y-70292537D01*
X147770128Y-70284467D01*
X147746489Y-70281665D01*
X147722776Y-70284332D01*
X147702327Y-70292038D01*
X147684403Y-70304819D01*
X147670370Y-70321617D01*
X147662055Y-70340735D01*
X147659197Y-70362949D01*
X147662055Y-70385162D01*
X147670370Y-70404280D01*
X147684403Y-70421078D01*
X147702327Y-70433859D01*
X147722776Y-70441565D01*
X147746489Y-70444233D01*
X147770128Y-70441430D01*
X147790206Y-70433360D01*
X147807550Y-70419955D01*
X147821041Y-70402595D01*
X147828922Y-70383795D01*
X147831584Y-70362949D01*
G37*
G36*
X147345949Y-70537437D02*
G01*
X147397027Y-70553556D01*
X147442376Y-70579523D01*
X147480411Y-70613346D01*
X147510725Y-70654391D01*
X147533021Y-70702739D01*
X147546337Y-70755519D01*
X147550900Y-70813381D01*
X147546083Y-70869051D01*
X147531898Y-70920653D01*
X147508630Y-70967851D01*
X147477627Y-71007799D01*
X147439141Y-71040714D01*
X147393119Y-71066466D01*
X147341820Y-71082651D01*
X147283405Y-71088252D01*
X147233795Y-71083357D01*
X147184926Y-71068517D01*
X147154618Y-71052919D01*
X147129055Y-71033217D01*
X147107697Y-71009215D01*
X147105450Y-71009215D01*
X147105450Y-71048441D01*
X147107641Y-71087754D01*
X147113852Y-71121860D01*
X147125237Y-71152925D01*
X147141842Y-71178475D01*
X147164252Y-71199139D01*
X147194403Y-71215454D01*
X147229631Y-71225297D01*
X147275589Y-71228936D01*
X147330374Y-71223687D01*
X147376315Y-71208810D01*
X147418431Y-71184930D01*
X147460237Y-71151706D01*
X147540837Y-71261665D01*
X147500983Y-71292468D01*
X147459694Y-71315612D01*
X147416615Y-71331665D01*
X147348105Y-71345980D01*
X147274466Y-71350862D01*
X147222543Y-71348150D01*
X147177730Y-71340489D01*
X147139057Y-71328441D01*
X147102548Y-71311119D01*
X147071199Y-71290045D01*
X147044438Y-71265182D01*
X147021919Y-71236399D01*
X147003448Y-71203354D01*
X146989043Y-71165482D01*
X146975792Y-71104570D01*
X146971116Y-71033835D01*
X146971116Y-70810011D01*
X147098709Y-70810011D01*
X147101555Y-70842442D01*
X147109895Y-70872097D01*
X147123577Y-70899018D01*
X147141793Y-70921434D01*
X147164446Y-70939683D01*
X147192156Y-70954163D01*
X147223042Y-70963177D01*
X147258736Y-70966326D01*
X147291462Y-70963238D01*
X147321458Y-70954163D01*
X147348738Y-70939636D01*
X147371821Y-70920897D01*
X147390691Y-70898160D01*
X147404842Y-70872097D01*
X147413586Y-70843525D01*
X147416566Y-70812209D01*
X147413552Y-70777813D01*
X147404842Y-70747387D01*
X147390668Y-70719958D01*
X147372358Y-70697512D01*
X147349774Y-70679358D01*
X147322581Y-70665370D01*
X147292320Y-70656711D01*
X147257613Y-70653695D01*
X147210163Y-70658893D01*
X147172077Y-70673456D01*
X147141256Y-70696926D01*
X147117972Y-70728059D01*
X147103724Y-70765184D01*
X147098709Y-70810011D01*
X146971116Y-70810011D01*
X146971116Y-70544274D01*
X147098709Y-70544274D01*
X147098709Y-70626584D01*
X147100956Y-70626584D01*
X147122926Y-70596110D01*
X147148911Y-70572252D01*
X147179309Y-70554337D01*
X147230171Y-70537484D01*
X147285652Y-70531769D01*
X147345949Y-70537437D01*
G37*
G36*
X146819050Y-70544274D02*
G01*
X146691458Y-70544274D01*
X146691458Y-70629515D01*
X146689211Y-70629515D01*
X146665550Y-70593053D01*
X146631032Y-70560883D01*
X146603453Y-70545380D01*
X146568627Y-70535398D01*
X146524689Y-70531769D01*
X146473567Y-70536550D01*
X146433538Y-70549697D01*
X146399128Y-70570679D01*
X146372526Y-70596640D01*
X146352456Y-70627744D01*
X146338918Y-70663758D01*
X146331402Y-70702360D01*
X146328855Y-70743137D01*
X146328855Y-71082000D01*
X146463140Y-71082000D01*
X146463140Y-70808985D01*
X146465387Y-70759013D01*
X146469499Y-70732118D01*
X146477159Y-70707331D01*
X146489314Y-70685124D01*
X146506810Y-70666884D01*
X146529542Y-70654963D01*
X146561618Y-70650569D01*
X146593555Y-70653579D01*
X146618185Y-70661804D01*
X146639260Y-70675090D01*
X146656238Y-70692139D01*
X146669176Y-70712507D01*
X146678073Y-70735956D01*
X146683072Y-70761074D01*
X146684766Y-70787638D01*
X146684766Y-71082000D01*
X146819050Y-71082000D01*
X146819050Y-70544274D01*
G37*
G36*
X145970457Y-70536864D02*
G01*
X146025505Y-70551895D01*
X146075965Y-70576385D01*
X146118415Y-70608803D01*
X146153332Y-70649115D01*
X146180551Y-70697561D01*
X146197570Y-70751602D01*
X146203461Y-70813137D01*
X146200805Y-70855078D01*
X146193081Y-70893431D01*
X146180502Y-70928713D01*
X146153283Y-70977158D01*
X146118367Y-71017471D01*
X146075925Y-71049903D01*
X146025505Y-71074428D01*
X145970459Y-71089422D01*
X145911346Y-71094505D01*
X145848869Y-71088406D01*
X145789371Y-71070178D01*
X145752710Y-71050825D01*
X145717726Y-71023825D01*
X145684152Y-70988210D01*
X145780383Y-70915475D01*
X145808284Y-70944223D01*
X145840272Y-70967547D01*
X145877224Y-70982734D01*
X145924780Y-70988210D01*
X145961586Y-70984326D01*
X145993696Y-70973088D01*
X146022135Y-70954505D01*
X146044872Y-70929584D01*
X146060555Y-70898590D01*
X146069127Y-70860032D01*
X145659532Y-70860032D01*
X145659532Y-70823200D01*
X145664057Y-70759990D01*
X145793817Y-70759990D01*
X146069127Y-70759990D01*
X146060483Y-70722507D01*
X146046060Y-70691813D01*
X146026043Y-70666689D01*
X146000559Y-70647756D01*
X145969217Y-70636002D01*
X145930348Y-70631811D01*
X145889144Y-70636007D01*
X145856582Y-70647640D01*
X145830746Y-70666103D01*
X145811152Y-70691036D01*
X145798744Y-70721787D01*
X145793817Y-70759990D01*
X145664057Y-70759990D01*
X145664395Y-70755273D01*
X145677997Y-70698734D01*
X145700568Y-70648073D01*
X145729483Y-70607729D01*
X145765777Y-70575245D01*
X145808960Y-70551309D01*
X145857129Y-70536780D01*
X145911346Y-70531769D01*
X145970457Y-70536864D01*
G37*
G36*
X145115554Y-70614177D02*
G01*
X145118925Y-70614177D01*
X145144668Y-70586528D01*
X145182721Y-70560004D01*
X145206238Y-70548934D01*
X145234207Y-70539683D01*
X145264544Y-70533869D01*
X145301374Y-70531769D01*
X145356691Y-70537319D01*
X145406545Y-70553556D01*
X145451333Y-70579479D01*
X145488806Y-70613297D01*
X145518948Y-70654226D01*
X145542002Y-70702642D01*
X145556164Y-70755414D01*
X145561004Y-70813137D01*
X145556443Y-70870914D01*
X145543126Y-70923681D01*
X145520832Y-70971988D01*
X145490516Y-71013025D01*
X145452484Y-71046809D01*
X145407131Y-71072767D01*
X145356056Y-71088849D01*
X145295757Y-71094505D01*
X145240276Y-71088790D01*
X145189413Y-71071937D01*
X145159015Y-71054022D01*
X145133030Y-71030164D01*
X145111060Y-70999690D01*
X145108813Y-70999690D01*
X145108813Y-71082000D01*
X144981221Y-71082000D01*
X144981221Y-70813137D01*
X145111060Y-70813137D01*
X145113730Y-70843634D01*
X145121709Y-70872928D01*
X145134857Y-70900083D01*
X145153021Y-70923877D01*
X145175669Y-70943678D01*
X145202847Y-70959292D01*
X145233292Y-70969135D01*
X145268890Y-70972579D01*
X145304452Y-70969138D01*
X145334933Y-70959292D01*
X145362070Y-70943681D01*
X145384710Y-70923877D01*
X145402885Y-70900085D01*
X145416071Y-70872928D01*
X145424013Y-70843636D01*
X145426671Y-70813137D01*
X145424013Y-70782638D01*
X145416071Y-70753346D01*
X145402883Y-70726198D01*
X145384710Y-70702446D01*
X145362066Y-70682603D01*
X145334933Y-70666982D01*
X145304452Y-70657136D01*
X145268890Y-70653695D01*
X145233292Y-70657138D01*
X145202847Y-70666982D01*
X145175672Y-70682606D01*
X145153021Y-70702446D01*
X145134859Y-70726200D01*
X145121709Y-70753346D01*
X145113730Y-70782640D01*
X145111060Y-70813137D01*
X144981221Y-70813137D01*
X144981221Y-70237017D01*
X145115554Y-70237017D01*
X145115554Y-70614177D01*
G37*
G36*
X144485457Y-71082000D02*
G01*
X144200034Y-71082000D01*
X144144458Y-71079185D01*
X144089832Y-71070764D01*
X144037936Y-71055482D01*
X143993551Y-71033151D01*
X143955705Y-71002585D01*
X143925847Y-70963493D01*
X143912019Y-70933591D01*
X143903237Y-70897871D01*
X143900104Y-70855098D01*
X143901107Y-70843716D01*
X144041130Y-70843716D01*
X144045687Y-70880123D01*
X144057934Y-70905852D01*
X144076922Y-70926100D01*
X144100432Y-70941071D01*
X144127153Y-70951068D01*
X144156950Y-70956752D01*
X144214591Y-70960073D01*
X144344431Y-70960073D01*
X144344431Y-70731853D01*
X144209023Y-70731853D01*
X144151551Y-70735212D01*
X144110518Y-70743942D01*
X144082016Y-70756473D01*
X144060023Y-70776138D01*
X144046235Y-70804204D01*
X144041130Y-70843716D01*
X143901107Y-70843716D01*
X143903385Y-70817855D01*
X143913000Y-70783779D01*
X143928352Y-70752406D01*
X143948269Y-70725356D01*
X143972831Y-70702459D01*
X144002540Y-70683786D01*
X144035539Y-70670473D01*
X144071367Y-70662976D01*
X144071367Y-70660778D01*
X144032156Y-70645082D01*
X143999221Y-70624370D01*
X143971716Y-70598594D01*
X143950910Y-70567793D01*
X143938143Y-70531637D01*
X143936149Y-70512523D01*
X144074689Y-70512523D01*
X144078654Y-70539968D01*
X144090204Y-70563126D01*
X144109958Y-70583109D01*
X144134970Y-70597063D01*
X144169290Y-70606411D01*
X144215715Y-70609927D01*
X144344431Y-70609927D01*
X144344431Y-70412969D01*
X144228025Y-70412969D01*
X144174364Y-70416351D01*
X144136716Y-70425087D01*
X144111081Y-70437589D01*
X144091109Y-70456523D01*
X144079008Y-70480905D01*
X144074689Y-70512523D01*
X143936149Y-70512523D01*
X143933663Y-70488685D01*
X143939269Y-70438089D01*
X143954961Y-70397631D01*
X143979568Y-70363202D01*
X144010355Y-70336033D01*
X144046484Y-70315640D01*
X144088122Y-70301595D01*
X144132083Y-70293679D01*
X144176538Y-70291043D01*
X144485457Y-70291043D01*
X144485457Y-71082000D01*
G37*
G36*
X143845198Y-70544274D02*
G01*
X143697480Y-70544274D01*
X143547515Y-70917331D01*
X143545268Y-70917331D01*
X143410935Y-70544274D01*
X143271032Y-70544274D01*
X143525094Y-71197380D01*
X143540779Y-71233961D01*
X143557041Y-71264009D01*
X143576142Y-71290599D01*
X143597878Y-71312174D01*
X143623192Y-71329134D01*
X143653272Y-71341337D01*
X143686897Y-71348292D01*
X143729916Y-71350862D01*
X143782048Y-71347725D01*
X143832889Y-71338357D01*
X143816133Y-71215503D01*
X143783112Y-71225028D01*
X143747843Y-71228936D01*
X143706420Y-71224442D01*
X143690638Y-71218605D01*
X143677892Y-71210471D01*
X143667248Y-71199729D01*
X143658304Y-71185852D01*
X143641500Y-71149508D01*
X143615757Y-71085761D01*
X143845198Y-70544274D01*
G37*
G36*
X143191751Y-71003402D02*
G01*
X143188823Y-70980658D01*
X143180193Y-70960423D01*
X143165471Y-70942000D01*
X143146642Y-70927669D01*
X143125792Y-70919196D01*
X143102212Y-70916305D01*
X143079285Y-70919048D01*
X143058601Y-70927139D01*
X143039539Y-70940876D01*
X143024496Y-70958679D01*
X143015676Y-70978521D01*
X143012672Y-71001155D01*
X143015604Y-71023898D01*
X143024248Y-71044149D01*
X143039002Y-71062607D01*
X143057796Y-71076906D01*
X143078630Y-71085365D01*
X143102212Y-71088252D01*
X143119756Y-71086570D01*
X143136357Y-71081560D01*
X143164884Y-71063730D01*
X143175894Y-71051491D01*
X143184473Y-71036912D01*
X143189915Y-71020793D01*
X143191751Y-71003402D01*
G37*
G36*
X143191751Y-70625119D02*
G01*
X143188823Y-70602375D01*
X143180193Y-70582140D01*
X143165471Y-70563716D01*
X143146642Y-70549386D01*
X143125792Y-70540912D01*
X143102212Y-70538022D01*
X143079285Y-70540764D01*
X143058601Y-70548856D01*
X143039539Y-70562593D01*
X143024496Y-70580396D01*
X143015676Y-70600238D01*
X143012672Y-70622872D01*
X143015604Y-70645614D01*
X143024248Y-70665866D01*
X143039002Y-70684323D01*
X143057796Y-70698623D01*
X143078630Y-70707082D01*
X143102212Y-70709969D01*
X143119756Y-70708287D01*
X143136357Y-70703277D01*
X143164884Y-70685447D01*
X143175894Y-70673208D01*
X143184473Y-70658629D01*
X143189915Y-70642510D01*
X143191751Y-70625119D01*
G37*
G36*
X149476175Y-71616582D02*
G01*
X149532134Y-71626559D01*
X149584026Y-71642810D01*
X149633232Y-71665598D01*
X149677070Y-71693682D01*
X149716064Y-71727172D01*
X149749994Y-71765796D01*
X149778889Y-71809762D01*
X149802819Y-71859649D01*
X149819943Y-71912276D01*
X149830496Y-71969600D01*
X149834131Y-72032329D01*
X149830502Y-72093545D01*
X149819956Y-72149569D01*
X149802819Y-72201101D01*
X149778951Y-72249858D01*
X149750067Y-72293094D01*
X149716064Y-72331331D01*
X149677109Y-72364474D01*
X149633272Y-72392385D01*
X149584026Y-72415155D01*
X149532136Y-72431379D01*
X149476177Y-72441340D01*
X149415547Y-72444757D01*
X149354210Y-72440575D01*
X149297701Y-72429865D01*
X149245408Y-72412908D01*
X149195767Y-72389466D01*
X149151551Y-72360999D01*
X149112247Y-72327423D01*
X149077869Y-72288790D01*
X149048814Y-72245349D01*
X149024954Y-72196607D01*
X149007789Y-72145073D01*
X148997227Y-72089048D01*
X148993593Y-72027835D01*
X148993852Y-72023390D01*
X149141311Y-72023390D01*
X149146340Y-72085219D01*
X149160900Y-72140480D01*
X149184788Y-72190764D01*
X149216294Y-72232999D01*
X149255530Y-72267667D01*
X149302463Y-72294304D01*
X149354856Y-72310856D01*
X149414375Y-72316579D01*
X149473861Y-72310842D01*
X149525799Y-72294304D01*
X149572239Y-72267703D01*
X149611381Y-72232999D01*
X149642887Y-72190764D01*
X149666775Y-72140480D01*
X149681335Y-72085219D01*
X149686364Y-72023390D01*
X149681377Y-71965748D01*
X149666775Y-71913041D01*
X149642984Y-71864722D01*
X149611381Y-71823306D01*
X149572252Y-71789121D01*
X149525799Y-71763076D01*
X149473889Y-71746941D01*
X149414375Y-71741338D01*
X149354829Y-71746928D01*
X149302463Y-71763076D01*
X149255517Y-71789158D01*
X149216294Y-71823306D01*
X149184691Y-71864722D01*
X149160900Y-71913041D01*
X149146298Y-71965748D01*
X149141311Y-72023390D01*
X148993852Y-72023390D01*
X148997241Y-71965108D01*
X149007817Y-71907973D01*
X149024954Y-71855692D01*
X149048872Y-71806226D01*
X149077935Y-71762445D01*
X149112247Y-71723801D01*
X149151625Y-71690417D01*
X149195832Y-71662712D01*
X149245408Y-71640563D01*
X149297613Y-71625072D01*
X149354116Y-71615830D01*
X149415547Y-71613159D01*
X149476175Y-71616582D01*
G37*
G36*
X148584975Y-72036921D02*
G01*
X148606647Y-72012540D01*
X148630973Y-71995704D01*
X148658493Y-71985565D01*
X148690146Y-71982064D01*
X148716480Y-71985358D01*
X148742756Y-71995497D01*
X148757109Y-72006372D01*
X148765530Y-72020546D01*
X148768499Y-72039119D01*
X148763150Y-72060442D01*
X148747250Y-72074925D01*
X148724328Y-72084866D01*
X148693517Y-72093976D01*
X148623565Y-72110193D01*
X148587135Y-72120862D01*
X148553614Y-72135888D01*
X148523991Y-72156439D01*
X148499930Y-72183466D01*
X148488650Y-72204643D01*
X148481315Y-72231719D01*
X148478632Y-72266216D01*
X148484090Y-72311639D01*
X148499344Y-72347353D01*
X148523153Y-72377147D01*
X148553077Y-72400501D01*
X148587742Y-72417665D01*
X148627473Y-72429565D01*
X148669010Y-72436282D01*
X148710321Y-72438505D01*
X148771338Y-72433926D01*
X148825603Y-72420724D01*
X148858852Y-72405967D01*
X148890073Y-72384704D01*
X148919588Y-72356244D01*
X148830048Y-72272420D01*
X148802964Y-72299183D01*
X148774654Y-72319998D01*
X148742677Y-72333614D01*
X148702456Y-72338463D01*
X148672267Y-72335141D01*
X148643154Y-72323955D01*
X148621318Y-72304367D01*
X148615060Y-72291804D01*
X148612916Y-72277011D01*
X148618395Y-72252414D01*
X148634214Y-72235685D01*
X148657261Y-72223924D01*
X148687948Y-72213850D01*
X148757899Y-72198219D01*
X148794331Y-72188634D01*
X148827850Y-72174722D01*
X148857526Y-72155284D01*
X148881584Y-72129489D01*
X148892832Y-72109033D01*
X148900150Y-72082715D01*
X148902833Y-72048986D01*
X148898020Y-72006405D01*
X148884368Y-71971317D01*
X148862892Y-71941211D01*
X148835666Y-71917144D01*
X148803577Y-71898864D01*
X148766252Y-71885832D01*
X148726784Y-71878282D01*
X148686824Y-71875769D01*
X148633602Y-71880297D01*
X148580481Y-71894039D01*
X148547476Y-71909213D01*
X148519326Y-71929946D01*
X148495436Y-71956614D01*
X148584975Y-72036921D01*
G37*
G36*
X148007292Y-72051429D02*
G01*
X148031781Y-72028982D01*
X148056531Y-72012252D01*
X148082868Y-72001248D01*
X148109141Y-71997695D01*
X148144703Y-72001136D01*
X148175184Y-72010982D01*
X148202318Y-72026603D01*
X148224961Y-72046446D01*
X148243134Y-72070198D01*
X148256322Y-72097346D01*
X148264265Y-72126638D01*
X148266922Y-72157137D01*
X148264265Y-72187636D01*
X148256322Y-72216928D01*
X148243136Y-72244085D01*
X148224961Y-72267877D01*
X148202321Y-72287681D01*
X148175184Y-72303292D01*
X148144703Y-72313138D01*
X148109141Y-72316579D01*
X148078727Y-72313325D01*
X148050963Y-72303732D01*
X148026172Y-72288005D01*
X148005045Y-72266216D01*
X147915505Y-72362887D01*
X147937036Y-72381681D01*
X147961960Y-72397863D01*
X148015108Y-72421554D01*
X148066594Y-72434548D01*
X148109141Y-72438505D01*
X148168254Y-72433422D01*
X148223300Y-72418428D01*
X148273720Y-72393903D01*
X148316161Y-72361471D01*
X148351078Y-72321158D01*
X148378297Y-72272713D01*
X148390876Y-72237431D01*
X148398600Y-72199078D01*
X148401256Y-72157137D01*
X148398600Y-72115196D01*
X148390876Y-72076842D01*
X148378297Y-72041561D01*
X148351078Y-71993115D01*
X148316161Y-71952803D01*
X148273719Y-71920382D01*
X148223300Y-71895895D01*
X148168252Y-71880864D01*
X148109141Y-71875769D01*
X148058012Y-71880622D01*
X148005631Y-71895553D01*
X147972505Y-71911192D01*
X147942189Y-71931949D01*
X147914382Y-71958177D01*
X148007292Y-72051429D01*
G37*
G36*
X147670801Y-71880788D02*
G01*
X147731591Y-71895797D01*
X147769808Y-71911959D01*
X147804554Y-71933711D01*
X147836224Y-71961352D01*
X147765687Y-72031792D01*
X147736615Y-72008886D01*
X147701939Y-71990954D01*
X147663879Y-71979654D01*
X147622463Y-71975811D01*
X147587436Y-71978863D01*
X147558346Y-71987448D01*
X147534047Y-72001115D01*
X147515068Y-72020300D01*
X147503469Y-72044964D01*
X147499316Y-72076879D01*
X147499316Y-72091484D01*
X147532875Y-72091484D01*
X147604535Y-72093194D01*
X147680104Y-72101010D01*
X147717018Y-72108688D01*
X147752302Y-72119377D01*
X147785241Y-72133931D01*
X147813265Y-72152301D01*
X147836813Y-72175342D01*
X147855226Y-72203641D01*
X147866750Y-72236430D01*
X147870907Y-72277842D01*
X147866557Y-72316159D01*
X147854152Y-72348135D01*
X147834656Y-72375807D01*
X147809944Y-72398351D01*
X147780830Y-72415777D01*
X147747271Y-72428442D01*
X147711610Y-72435984D01*
X147675024Y-72438505D01*
X147623054Y-72433254D01*
X147576594Y-72417939D01*
X147548801Y-72401689D01*
X147524259Y-72379859D01*
X147502686Y-72351799D01*
X147499316Y-72351799D01*
X147499316Y-72426000D01*
X147378464Y-72426000D01*
X147378464Y-72215462D01*
X147507180Y-72215462D01*
X147511152Y-72252117D01*
X147522281Y-72281593D01*
X147540202Y-72305490D01*
X147564341Y-72322853D01*
X147597500Y-72334220D01*
X147642588Y-72338463D01*
X147676196Y-72334555D01*
X147706385Y-72321708D01*
X147718626Y-72311725D01*
X147728220Y-72299921D01*
X147734408Y-72285924D01*
X147736622Y-72268023D01*
X147731191Y-72241918D01*
X147715373Y-72222741D01*
X147692276Y-72208759D01*
X147663300Y-72198170D01*
X147631894Y-72191363D01*
X147597843Y-72187521D01*
X147535170Y-72185274D01*
X147507180Y-72185274D01*
X147507180Y-72215462D01*
X147378464Y-72215462D01*
X147378464Y-72117325D01*
X147379588Y-72073166D01*
X147386866Y-72021191D01*
X147394881Y-71994720D01*
X147406992Y-71968044D01*
X147423679Y-71943568D01*
X147446706Y-71921638D01*
X147474843Y-71903825D01*
X147511625Y-71888665D01*
X147553230Y-71879275D01*
X147607906Y-71875769D01*
X147670801Y-71880788D01*
G37*
G36*
X147234068Y-71888274D02*
G01*
X147099783Y-71888274D01*
X147099783Y-71974736D01*
X147097536Y-71974736D01*
X147080205Y-71945237D01*
X147059017Y-71921076D01*
X147033740Y-71901659D01*
X147005149Y-71887425D01*
X146973654Y-71878754D01*
X146938583Y-71875769D01*
X146914549Y-71877577D01*
X146890467Y-71882022D01*
X146890467Y-72013327D01*
X146923489Y-72006586D01*
X146955387Y-72003948D01*
X146999440Y-72008676D01*
X147030956Y-72021289D01*
X147056711Y-72040375D01*
X147074577Y-72060905D01*
X147087372Y-72083684D01*
X147094752Y-72105553D01*
X147099783Y-72139063D01*
X147099783Y-72426000D01*
X147234068Y-72426000D01*
X147234068Y-71888274D01*
G37*
G36*
X146455031Y-72426000D02*
G01*
X146314005Y-72426000D01*
X146314005Y-72097737D01*
X146213279Y-72097737D01*
X146151329Y-72095475D01*
X146092965Y-72088847D01*
X146037898Y-72075563D01*
X145991702Y-72054848D01*
X145964684Y-72035906D01*
X145941639Y-72012450D01*
X145922288Y-71984018D01*
X145908668Y-71952472D01*
X145899783Y-71912938D01*
X145896692Y-71865853D01*
X146044263Y-71865853D01*
X146048998Y-71902414D01*
X146061605Y-71927451D01*
X146081323Y-71946574D01*
X146106399Y-71960424D01*
X146134714Y-71969137D01*
X146166287Y-71973613D01*
X146228960Y-71975811D01*
X146314005Y-71975811D01*
X146314005Y-71756969D01*
X146213279Y-71756969D01*
X146155101Y-71760291D01*
X146125892Y-71765742D01*
X146100244Y-71775141D01*
X146077802Y-71789195D01*
X146059944Y-71808114D01*
X146048507Y-71832108D01*
X146044263Y-71865853D01*
X145896692Y-71865853D01*
X145896545Y-71863606D01*
X145899488Y-71820264D01*
X145907723Y-71784062D01*
X145920628Y-71753794D01*
X145948899Y-71714016D01*
X145984961Y-71683550D01*
X146027773Y-71661373D01*
X146078408Y-71646181D01*
X146132210Y-71637862D01*
X146188660Y-71635043D01*
X146455031Y-71635043D01*
X146455031Y-72426000D01*
G37*
G36*
X145577324Y-71880864D02*
G01*
X145632372Y-71895895D01*
X145682832Y-71920385D01*
X145725282Y-71952803D01*
X145760199Y-71993115D01*
X145787418Y-72041561D01*
X145804437Y-72095602D01*
X145810327Y-72157137D01*
X145807672Y-72199078D01*
X145799948Y-72237431D01*
X145787369Y-72272713D01*
X145760150Y-72321158D01*
X145725233Y-72361471D01*
X145682792Y-72393903D01*
X145632372Y-72418428D01*
X145577326Y-72433422D01*
X145518213Y-72438505D01*
X145455735Y-72432406D01*
X145396238Y-72414178D01*
X145359576Y-72394825D01*
X145324592Y-72367825D01*
X145291018Y-72332210D01*
X145387250Y-72259475D01*
X145415151Y-72288223D01*
X145447138Y-72311547D01*
X145484091Y-72326734D01*
X145531646Y-72332210D01*
X145568453Y-72328326D01*
X145600562Y-72317088D01*
X145629002Y-72298505D01*
X145651738Y-72273584D01*
X145667421Y-72242590D01*
X145675994Y-72204032D01*
X145266399Y-72204032D01*
X145266399Y-72167200D01*
X145270924Y-72103990D01*
X145400683Y-72103990D01*
X145675994Y-72103990D01*
X145667350Y-72066507D01*
X145652927Y-72035813D01*
X145632909Y-72010689D01*
X145607426Y-71991756D01*
X145576084Y-71980002D01*
X145537215Y-71975811D01*
X145496010Y-71980007D01*
X145463449Y-71991640D01*
X145437613Y-72010103D01*
X145418019Y-72035036D01*
X145405611Y-72065787D01*
X145400683Y-72103990D01*
X145270924Y-72103990D01*
X145271262Y-72099273D01*
X145284863Y-72042734D01*
X145307435Y-71992073D01*
X145336350Y-71951729D01*
X145372643Y-71919245D01*
X145415826Y-71895309D01*
X145463996Y-71880780D01*
X145518213Y-71875769D01*
X145577324Y-71880864D01*
G37*
G36*
X145141004Y-71888274D02*
G01*
X145006720Y-71888274D01*
X145006720Y-71974736D01*
X145004473Y-71974736D01*
X144987142Y-71945237D01*
X144965954Y-71921076D01*
X144940676Y-71901659D01*
X144912085Y-71887425D01*
X144880590Y-71878754D01*
X144845519Y-71875769D01*
X144821486Y-71877577D01*
X144797404Y-71882022D01*
X144797404Y-72013327D01*
X144830425Y-72006586D01*
X144862323Y-72003948D01*
X144906376Y-72008676D01*
X144937892Y-72021289D01*
X144963648Y-72040375D01*
X144981514Y-72060905D01*
X144994309Y-72083684D01*
X145001688Y-72105553D01*
X145006720Y-72139063D01*
X145006720Y-72426000D01*
X145141004Y-72426000D01*
X145141004Y-71888274D01*
G37*
G36*
X144509689Y-71880864D02*
G01*
X144564738Y-71895895D01*
X144615198Y-71920385D01*
X144657648Y-71952803D01*
X144692564Y-71993115D01*
X144719783Y-72041561D01*
X144736803Y-72095602D01*
X144742693Y-72157137D01*
X144740037Y-72199078D01*
X144732313Y-72237431D01*
X144719734Y-72272713D01*
X144692515Y-72321158D01*
X144657599Y-72361471D01*
X144615158Y-72393903D01*
X144564738Y-72418428D01*
X144509691Y-72433422D01*
X144450579Y-72438505D01*
X144388101Y-72432406D01*
X144328604Y-72414178D01*
X144291942Y-72394825D01*
X144256958Y-72367825D01*
X144223384Y-72332210D01*
X144319616Y-72259475D01*
X144347517Y-72288223D01*
X144379504Y-72311547D01*
X144416456Y-72326734D01*
X144464012Y-72332210D01*
X144500819Y-72328326D01*
X144532928Y-72317088D01*
X144561367Y-72298505D01*
X144584104Y-72273584D01*
X144599787Y-72242590D01*
X144608360Y-72204032D01*
X144198764Y-72204032D01*
X144198764Y-72167200D01*
X144203289Y-72103990D01*
X144333049Y-72103990D01*
X144608360Y-72103990D01*
X144599716Y-72066507D01*
X144585292Y-72035813D01*
X144565275Y-72010689D01*
X144539792Y-71991756D01*
X144508450Y-71980002D01*
X144469581Y-71975811D01*
X144428376Y-71980007D01*
X144395814Y-71991640D01*
X144369979Y-72010103D01*
X144350384Y-72035036D01*
X144337976Y-72065787D01*
X144333049Y-72103990D01*
X144203289Y-72103990D01*
X144203627Y-72099273D01*
X144217229Y-72042734D01*
X144239801Y-71992073D01*
X144268715Y-71951729D01*
X144305009Y-71919245D01*
X144348192Y-71895309D01*
X144396361Y-71880780D01*
X144450579Y-71875769D01*
X144509689Y-71880864D01*
G37*
G36*
X144081284Y-71888274D02*
G01*
X143946999Y-71888274D01*
X143946999Y-72426000D01*
X144081284Y-72426000D01*
X144081284Y-71888274D01*
G37*
G36*
X144100334Y-71706949D02*
G01*
X144097673Y-71686102D01*
X144089791Y-71667302D01*
X144076301Y-71649942D01*
X144058957Y-71636537D01*
X144038879Y-71628467D01*
X144015240Y-71625665D01*
X143991527Y-71628332D01*
X143971078Y-71636038D01*
X143953154Y-71648819D01*
X143939120Y-71665617D01*
X143930806Y-71684735D01*
X143927948Y-71706949D01*
X143930806Y-71729162D01*
X143939120Y-71748280D01*
X143953154Y-71765078D01*
X143971078Y-71777859D01*
X143991527Y-71785565D01*
X144015240Y-71788233D01*
X144038879Y-71785430D01*
X144058957Y-71777360D01*
X144076301Y-71763955D01*
X144089791Y-71746595D01*
X144097673Y-71727795D01*
X144100334Y-71706949D01*
G37*
G36*
X143792784Y-71888274D02*
G01*
X143658499Y-71888274D01*
X143658499Y-71974736D01*
X143656252Y-71974736D01*
X143638921Y-71945237D01*
X143617733Y-71921076D01*
X143592456Y-71901659D01*
X143563865Y-71887425D01*
X143532370Y-71878754D01*
X143497299Y-71875769D01*
X143473265Y-71877577D01*
X143449183Y-71882022D01*
X143449183Y-72013327D01*
X143482205Y-72006586D01*
X143514103Y-72003948D01*
X143558156Y-72008676D01*
X143589672Y-72021289D01*
X143615427Y-72040375D01*
X143633293Y-72060905D01*
X143646088Y-72083684D01*
X143653468Y-72105553D01*
X143658499Y-72139063D01*
X143658499Y-72426000D01*
X143792784Y-72426000D01*
X143792784Y-71888274D01*
G37*
G36*
X143193146Y-71880788D02*
G01*
X143253935Y-71895797D01*
X143292153Y-71911959D01*
X143326899Y-71933711D01*
X143358569Y-71961352D01*
X143288032Y-72031792D01*
X143258960Y-72008886D01*
X143224284Y-71990954D01*
X143186224Y-71979654D01*
X143144808Y-71975811D01*
X143109781Y-71978863D01*
X143080691Y-71987448D01*
X143056392Y-72001115D01*
X143037413Y-72020300D01*
X143025814Y-72044964D01*
X143021660Y-72076879D01*
X143021660Y-72091484D01*
X143055219Y-72091484D01*
X143126880Y-72093194D01*
X143202449Y-72101010D01*
X143239362Y-72108688D01*
X143274647Y-72119377D01*
X143307586Y-72133931D01*
X143335610Y-72152301D01*
X143359158Y-72175342D01*
X143377571Y-72203641D01*
X143389095Y-72236430D01*
X143393251Y-72277842D01*
X143388902Y-72316159D01*
X143376496Y-72348135D01*
X143357000Y-72375807D01*
X143332288Y-72398351D01*
X143303175Y-72415777D01*
X143269616Y-72428442D01*
X143233955Y-72435984D01*
X143197369Y-72438505D01*
X143145398Y-72433254D01*
X143098939Y-72417939D01*
X143071146Y-72401689D01*
X143046604Y-72379859D01*
X143025031Y-72351799D01*
X143021660Y-72351799D01*
X143021660Y-72426000D01*
X142900809Y-72426000D01*
X142900809Y-72215462D01*
X143029525Y-72215462D01*
X143033496Y-72252117D01*
X143044626Y-72281593D01*
X143062547Y-72305490D01*
X143086686Y-72322853D01*
X143119844Y-72334220D01*
X143164933Y-72338463D01*
X143198541Y-72334555D01*
X143228729Y-72321708D01*
X143240971Y-72311725D01*
X143250565Y-72299921D01*
X143256752Y-72285924D01*
X143258967Y-72268023D01*
X143253535Y-72241918D01*
X143237718Y-72222741D01*
X143214620Y-72208759D01*
X143185645Y-72198170D01*
X143154239Y-72191363D01*
X143120188Y-72187521D01*
X143057515Y-72185274D01*
X143029525Y-72185274D01*
X143029525Y-72215462D01*
X142900809Y-72215462D01*
X142900809Y-72117325D01*
X142901933Y-72073166D01*
X142909211Y-72021191D01*
X142917226Y-71994720D01*
X142929337Y-71968044D01*
X142946023Y-71943568D01*
X142969050Y-71921638D01*
X142997187Y-71903825D01*
X143033970Y-71888665D01*
X143075574Y-71879275D01*
X143130251Y-71875769D01*
X143193146Y-71880788D01*
G37*
D12*
G36*
X149721854Y-52122500D02*
G01*
X149167819Y-52122500D01*
X149033693Y-52111497D01*
X148893962Y-52077528D01*
X148803566Y-52042299D01*
X148719135Y-51997000D01*
X148640072Y-51941332D01*
X148569143Y-51875933D01*
X148506981Y-51799485D01*
X148453317Y-51710889D01*
X148414052Y-51615472D01*
X148389486Y-51506349D01*
X148380869Y-51380978D01*
X148657932Y-51380978D01*
X148663653Y-51470510D01*
X148679778Y-51546753D01*
X148705193Y-51611788D01*
X148740875Y-51671705D01*
X148783771Y-51722935D01*
X148834245Y-51766302D01*
X148921743Y-51817299D01*
X149026220Y-51853954D01*
X149138588Y-51874966D01*
X149260143Y-51882165D01*
X149457430Y-51882165D01*
X149457430Y-50879792D01*
X149216088Y-50879792D01*
X149097366Y-50887098D01*
X148992606Y-50908002D01*
X148896567Y-50944595D01*
X148816384Y-50995746D01*
X148770875Y-51038804D01*
X148732095Y-51090295D01*
X148699881Y-51151268D01*
X148677322Y-51216630D01*
X148663002Y-51292602D01*
X148657932Y-51380978D01*
X148380869Y-51380978D01*
X148388398Y-51256544D01*
X148409822Y-51148039D01*
X148443884Y-51053174D01*
X148491346Y-50964192D01*
X148547260Y-50887450D01*
X148611770Y-50821723D01*
X148684953Y-50765647D01*
X148765135Y-50719997D01*
X148853112Y-50684520D01*
X148991728Y-50650782D01*
X149136312Y-50639457D01*
X149721854Y-50639457D01*
X149721854Y-52122500D01*
G37*
G36*
X148135222Y-50639457D02*
G01*
X147870798Y-50639457D01*
X147870798Y-52122500D01*
X148135222Y-52122500D01*
X148135222Y-50639457D01*
G37*
G36*
X147587599Y-51855878D02*
G01*
X147010483Y-51297539D01*
X146958093Y-51244050D01*
X146908817Y-51184241D01*
X146872089Y-51118112D01*
X146861034Y-51082712D01*
X146857343Y-51045663D01*
X146861973Y-51001388D01*
X146875203Y-50963872D01*
X146895966Y-50930674D01*
X146922373Y-50902964D01*
X146953878Y-50880807D01*
X146990608Y-50864130D01*
X147030406Y-50853951D01*
X147073498Y-50850483D01*
X147134362Y-50856912D01*
X147185444Y-50875221D01*
X147228836Y-50905071D01*
X147263490Y-50944867D01*
X147287955Y-50993201D01*
X147302201Y-51051983D01*
X147566624Y-51031009D01*
X147549629Y-50932456D01*
X147517348Y-50849292D01*
X147469991Y-50776424D01*
X147411377Y-50717676D01*
X147341718Y-50671624D01*
X147260252Y-50637534D01*
X147171825Y-50617181D01*
X147073498Y-50610148D01*
X146974984Y-50616885D01*
X146885645Y-50636434D01*
X146803195Y-50669369D01*
X146733512Y-50714012D01*
X146675696Y-50771974D01*
X146630747Y-50845079D01*
X146602841Y-50929325D01*
X146592920Y-51031741D01*
X146600453Y-51123627D01*
X146622039Y-51203713D01*
X146656942Y-51274091D01*
X146728809Y-51371871D01*
X146821623Y-51468081D01*
X147281226Y-51893888D01*
X146592920Y-51893888D01*
X146592920Y-52122500D01*
X147587599Y-52122500D01*
X147587599Y-51855878D01*
G37*
G36*
X145283076Y-50985671D02*
G01*
X145340712Y-50930292D01*
X145393229Y-50892159D01*
X145441528Y-50868160D01*
X145518883Y-50846012D01*
X145595768Y-50838759D01*
X145707277Y-50849264D01*
X145804595Y-50879517D01*
X145891696Y-50928353D01*
X145965063Y-50992449D01*
X146024319Y-51070103D01*
X146068927Y-51160702D01*
X146096306Y-51259528D01*
X146105655Y-51367606D01*
X146096226Y-51483536D01*
X146068927Y-51587150D01*
X146024136Y-51681433D01*
X145965063Y-51760623D01*
X145891672Y-51825694D01*
X145804595Y-51875570D01*
X145707225Y-51906582D01*
X145595768Y-51917336D01*
X145507371Y-51906733D01*
X145420554Y-51874379D01*
X145367156Y-51841434D01*
X145314438Y-51796218D01*
X145262101Y-51736901D01*
X145043840Y-51892240D01*
X145117148Y-51977687D01*
X145198712Y-52044524D01*
X145289396Y-52094473D01*
X145387548Y-52129459D01*
X145490037Y-52150544D01*
X145597874Y-52157670D01*
X145711493Y-52151264D01*
X145816387Y-52132588D01*
X145913680Y-52102166D01*
X146006020Y-52059475D01*
X146088247Y-52007143D01*
X146161343Y-51944996D01*
X146225099Y-51873302D01*
X146279256Y-51792234D01*
X146324008Y-51700814D01*
X146356141Y-51604193D01*
X146375914Y-51499146D01*
X146382718Y-51384367D01*
X146375903Y-51266750D01*
X146356116Y-51159269D01*
X146324008Y-51060593D01*
X146279139Y-50967055D01*
X146224961Y-50884619D01*
X146161343Y-50812198D01*
X146088174Y-50749400D01*
X146005946Y-50696744D01*
X145913680Y-50654020D01*
X145816383Y-50623547D01*
X145711490Y-50604841D01*
X145597874Y-50598424D01*
X145498228Y-50604567D01*
X145405161Y-50622589D01*
X145317697Y-50652188D01*
X145236169Y-50694736D01*
X145156254Y-50754730D01*
X145077362Y-50834546D01*
X145283076Y-50985671D01*
G37*
G36*
X144243975Y-50639457D02*
G01*
X143259737Y-50639457D01*
X143259737Y-50879792D01*
X143979552Y-50879792D01*
X143979552Y-51243225D01*
X143297565Y-51243225D01*
X143297565Y-51483560D01*
X143979552Y-51483560D01*
X143979552Y-51882165D01*
X143222002Y-51882165D01*
X143222002Y-52122500D01*
X144243975Y-52122500D01*
X144243975Y-50639457D01*
G37*
G36*
X142984781Y-51114265D02*
G01*
X142745545Y-51114265D01*
X142745545Y-51274091D01*
X142741332Y-51274091D01*
X142696967Y-51205725D01*
X142632247Y-51145406D01*
X142580537Y-51116338D01*
X142515238Y-51097622D01*
X142432853Y-51090818D01*
X142336999Y-51099782D01*
X142261944Y-51124432D01*
X142197427Y-51163774D01*
X142147547Y-51212451D01*
X142109916Y-51270770D01*
X142084532Y-51338297D01*
X142070440Y-51410676D01*
X142065665Y-51487132D01*
X142065665Y-52122500D01*
X142317449Y-52122500D01*
X142317449Y-51610597D01*
X142321662Y-51516899D01*
X142329372Y-51466473D01*
X142343735Y-51419996D01*
X142366526Y-51378358D01*
X142399331Y-51344159D01*
X142441953Y-51321806D01*
X142502096Y-51313567D01*
X142561977Y-51319211D01*
X142608159Y-51334633D01*
X142647673Y-51359545D01*
X142679508Y-51391511D01*
X142703767Y-51429701D01*
X142720449Y-51473668D01*
X142729821Y-51520765D01*
X142732997Y-51570572D01*
X142732997Y-52122500D01*
X142984781Y-52122500D01*
X142984781Y-51114265D01*
G37*
G36*
X140995332Y-51245332D02*
G01*
X141001651Y-51245332D01*
X141049920Y-51193491D01*
X141121269Y-51143757D01*
X141165363Y-51123002D01*
X141217806Y-51105655D01*
X141274687Y-51094755D01*
X141343744Y-51090818D01*
X141447463Y-51101224D01*
X141540940Y-51131667D01*
X141624916Y-51180274D01*
X141695179Y-51243683D01*
X141751694Y-51320423D01*
X141794922Y-51411203D01*
X141821474Y-51510151D01*
X141830550Y-51618382D01*
X141821998Y-51726715D01*
X141797028Y-51825653D01*
X141755228Y-51916228D01*
X141698385Y-51993173D01*
X141627075Y-52056518D01*
X141542039Y-52105189D01*
X141446273Y-52135343D01*
X141333211Y-52145947D01*
X141229185Y-52135231D01*
X141133817Y-52103632D01*
X141076821Y-52070041D01*
X141028099Y-52025308D01*
X140986905Y-51968169D01*
X140982692Y-51968169D01*
X140982692Y-52122500D01*
X140743456Y-52122500D01*
X140743456Y-51618382D01*
X140986905Y-51618382D01*
X140991910Y-51675564D01*
X141006872Y-51730490D01*
X141031524Y-51781406D01*
X141065582Y-51826019D01*
X141108046Y-51863146D01*
X141159005Y-51892423D01*
X141216090Y-51910879D01*
X141282836Y-51917336D01*
X141349515Y-51910884D01*
X141406667Y-51892423D01*
X141457548Y-51863152D01*
X141499998Y-51826019D01*
X141534077Y-51781409D01*
X141558800Y-51730490D01*
X141573692Y-51675567D01*
X141578675Y-51618382D01*
X141573692Y-51561197D01*
X141558800Y-51506275D01*
X141534073Y-51455372D01*
X141499998Y-51410837D01*
X141457542Y-51373631D01*
X141406667Y-51344342D01*
X141349515Y-51325881D01*
X141282836Y-51319429D01*
X141216090Y-51325885D01*
X141159005Y-51344342D01*
X141108053Y-51373637D01*
X141065582Y-51410837D01*
X141031528Y-51455375D01*
X141006872Y-51506275D01*
X140991910Y-51561201D01*
X140986905Y-51618382D01*
X140743456Y-51618382D01*
X140743456Y-50538157D01*
X140995332Y-50538157D01*
X140995332Y-51245332D01*
G37*
G36*
X139972670Y-51101264D02*
G01*
X140067972Y-51132034D01*
X140125107Y-51164786D01*
X140173809Y-51208309D01*
X140214884Y-51263742D01*
X140219097Y-51263742D01*
X140219097Y-51114265D01*
X140458333Y-51114265D01*
X140458333Y-52603169D01*
X140206549Y-52603169D01*
X140206549Y-51991433D01*
X140200229Y-51991433D01*
X140152053Y-52043273D01*
X140080703Y-52093007D01*
X140036542Y-52113771D01*
X139984166Y-52131109D01*
X139927286Y-52142010D01*
X139858228Y-52145947D01*
X139754426Y-52135561D01*
X139660941Y-52105189D01*
X139576954Y-52056529D01*
X139506702Y-51993173D01*
X139450198Y-51916368D01*
X139407051Y-51825653D01*
X139380427Y-51726622D01*
X139371330Y-51618382D01*
X139371562Y-51615451D01*
X139623114Y-51615451D01*
X139628120Y-51673186D01*
X139643081Y-51728658D01*
X139667748Y-51780103D01*
X139701791Y-51825103D01*
X139744278Y-51862656D01*
X139795214Y-51892240D01*
X139852309Y-51910834D01*
X139919045Y-51917336D01*
X139985714Y-51910839D01*
X140042876Y-51892240D01*
X140093735Y-51862662D01*
X140136207Y-51825103D01*
X140170271Y-51780106D01*
X140195009Y-51728658D01*
X140209901Y-51673190D01*
X140214884Y-51615451D01*
X140209901Y-51557713D01*
X140195009Y-51502245D01*
X140170271Y-51450796D01*
X140136207Y-51405799D01*
X140093731Y-51368261D01*
X140042876Y-51338755D01*
X139985709Y-51320087D01*
X139919045Y-51313567D01*
X139852314Y-51320091D01*
X139795214Y-51338755D01*
X139744282Y-51368267D01*
X139701791Y-51405799D01*
X139667748Y-51450800D01*
X139643081Y-51502245D01*
X139628120Y-51557716D01*
X139623114Y-51615451D01*
X139371562Y-51615451D01*
X139379907Y-51510066D01*
X139404944Y-51411203D01*
X139446703Y-51320576D01*
X139503588Y-51243683D01*
X139575009Y-51180358D01*
X139660941Y-51131667D01*
X139757317Y-51101371D01*
X139868670Y-51090818D01*
X139972670Y-51101264D01*
G37*
G36*
X138749983Y-51100370D02*
G01*
X138853200Y-51128553D01*
X138947812Y-51174472D01*
X139027406Y-51235257D01*
X139092874Y-51310842D01*
X139143910Y-51401678D01*
X139175821Y-51503005D01*
X139186866Y-51618382D01*
X139175821Y-51733760D01*
X139143910Y-51835087D01*
X139092874Y-51925923D01*
X139027406Y-52001508D01*
X138947815Y-52062313D01*
X138853200Y-52108303D01*
X138749987Y-52136417D01*
X138639151Y-52145947D01*
X138528315Y-52136417D01*
X138425103Y-52108303D01*
X138330488Y-52062313D01*
X138250897Y-52001508D01*
X138185448Y-51925919D01*
X138134485Y-51835087D01*
X138110899Y-51768934D01*
X138096416Y-51697021D01*
X138091437Y-51618382D01*
X138343221Y-51618382D01*
X138348226Y-51675564D01*
X138363187Y-51730490D01*
X138387840Y-51781406D01*
X138421897Y-51826019D01*
X138464362Y-51863146D01*
X138515320Y-51892423D01*
X138572405Y-51910879D01*
X138639151Y-51917336D01*
X138705830Y-51910884D01*
X138762982Y-51892423D01*
X138813864Y-51863152D01*
X138856314Y-51826019D01*
X138890392Y-51781409D01*
X138915115Y-51730490D01*
X138930008Y-51675567D01*
X138934990Y-51618382D01*
X138930008Y-51561197D01*
X138915115Y-51506275D01*
X138890388Y-51455372D01*
X138856314Y-51410837D01*
X138813857Y-51373631D01*
X138762982Y-51344342D01*
X138705830Y-51325881D01*
X138639151Y-51319429D01*
X138572405Y-51325885D01*
X138515320Y-51344342D01*
X138464369Y-51373637D01*
X138421897Y-51410837D01*
X138387844Y-51455375D01*
X138363187Y-51506275D01*
X138348226Y-51561201D01*
X138343221Y-51618382D01*
X138091437Y-51618382D01*
X138096416Y-51539744D01*
X138110899Y-51467830D01*
X138134485Y-51401678D01*
X138185448Y-51310845D01*
X138250897Y-51235257D01*
X138330491Y-51174472D01*
X138425103Y-51128553D01*
X138528319Y-51100370D01*
X138639151Y-51090818D01*
X138749983Y-51100370D01*
G37*
G36*
X137851468Y-51114265D02*
G01*
X137599684Y-51114265D01*
X137599684Y-52122500D01*
X137851468Y-52122500D01*
X137851468Y-51114265D01*
G37*
G36*
X137887189Y-50774279D02*
G01*
X137882198Y-50735191D01*
X137867420Y-50699941D01*
X137842126Y-50667392D01*
X137809606Y-50642257D01*
X137771959Y-50627126D01*
X137727637Y-50621871D01*
X137683175Y-50626873D01*
X137644833Y-50641321D01*
X137611225Y-50665286D01*
X137584912Y-50696782D01*
X137569322Y-50732628D01*
X137563964Y-50774279D01*
X137569322Y-50815930D01*
X137584912Y-50851776D01*
X137611225Y-50883272D01*
X137644833Y-50907237D01*
X137683175Y-50921685D01*
X137727637Y-50926687D01*
X137771959Y-50921432D01*
X137809606Y-50906301D01*
X137842126Y-50881166D01*
X137867420Y-50848617D01*
X137882198Y-50813366D01*
X137887189Y-50774279D01*
G37*
G36*
X137310531Y-51114265D02*
G01*
X137071295Y-51114265D01*
X137071295Y-51274091D01*
X137067082Y-51274091D01*
X137022717Y-51205725D01*
X136957997Y-51145406D01*
X136906287Y-51116338D01*
X136840988Y-51097622D01*
X136758603Y-51090818D01*
X136662750Y-51099782D01*
X136587695Y-51124432D01*
X136523178Y-51163774D01*
X136473297Y-51212451D01*
X136435666Y-51270770D01*
X136410283Y-51338297D01*
X136396190Y-51410676D01*
X136391415Y-51487132D01*
X136391415Y-52122500D01*
X136643199Y-52122500D01*
X136643199Y-51610597D01*
X136647412Y-51516899D01*
X136655122Y-51466473D01*
X136669485Y-51419996D01*
X136692276Y-51378358D01*
X136725081Y-51344159D01*
X136767703Y-51321806D01*
X136827846Y-51313567D01*
X136887728Y-51319211D01*
X136933909Y-51334633D01*
X136973424Y-51359545D01*
X137005258Y-51391511D01*
X137029517Y-51429701D01*
X137046199Y-51473668D01*
X137055571Y-51520765D01*
X137058747Y-51570572D01*
X137058747Y-52122500D01*
X137310531Y-52122500D01*
X137310531Y-51114265D01*
G37*
G36*
X136223437Y-51331153D02*
G01*
X136223437Y-51114265D01*
X136015708Y-51114265D01*
X136015708Y-50822547D01*
X135763833Y-50822547D01*
X135763833Y-51114265D01*
X135486862Y-51114265D01*
X135486862Y-51331153D01*
X135763833Y-51331153D01*
X135763833Y-51767126D01*
X135756071Y-51836868D01*
X135735531Y-51885462D01*
X135712889Y-51908133D01*
X135677261Y-51923219D01*
X135623241Y-51929059D01*
X135549876Y-51922465D01*
X135512583Y-51913094D01*
X135486862Y-51900574D01*
X135486862Y-52112424D01*
X135529410Y-52127930D01*
X135584406Y-52138620D01*
X135686255Y-52145947D01*
X135782059Y-52139858D01*
X135850936Y-52123965D01*
X135909107Y-52095679D01*
X135951686Y-52057195D01*
X135982133Y-52007877D01*
X136002061Y-51945362D01*
X136012066Y-51875844D01*
X136015708Y-51790757D01*
X136015708Y-51331153D01*
X136223437Y-51331153D01*
G37*
G36*
X145428065Y-54642500D02*
G01*
X144892898Y-54642500D01*
X144788692Y-54637221D01*
X144686269Y-54621434D01*
X144588964Y-54592780D01*
X144505743Y-54550908D01*
X144434781Y-54493597D01*
X144378797Y-54420300D01*
X144352870Y-54364233D01*
X144336403Y-54297258D01*
X144330529Y-54217059D01*
X144332409Y-54195718D01*
X144594952Y-54195718D01*
X144603498Y-54263980D01*
X144626460Y-54312222D01*
X144662063Y-54350188D01*
X144706144Y-54378259D01*
X144756245Y-54397003D01*
X144812115Y-54407660D01*
X144920192Y-54413888D01*
X145163641Y-54413888D01*
X145163641Y-53985975D01*
X144909751Y-53985975D01*
X144801991Y-53992273D01*
X144725056Y-54008642D01*
X144671614Y-54032137D01*
X144630377Y-54069009D01*
X144604525Y-54121632D01*
X144594952Y-54195718D01*
X144332409Y-54195718D01*
X144336681Y-54147229D01*
X144354709Y-54083336D01*
X144383493Y-54024511D01*
X144420838Y-53973793D01*
X144466891Y-53930862D01*
X144522595Y-53895849D01*
X144584469Y-53870888D01*
X144651647Y-53856831D01*
X144651647Y-53852710D01*
X144578126Y-53823279D01*
X144516372Y-53784444D01*
X144464801Y-53736114D01*
X144425789Y-53678362D01*
X144401852Y-53610570D01*
X144398114Y-53574731D01*
X144657875Y-53574731D01*
X144665310Y-53626191D01*
X144686966Y-53669611D01*
X144724004Y-53707080D01*
X144770903Y-53733244D01*
X144835252Y-53750772D01*
X144922299Y-53757363D01*
X145163641Y-53757363D01*
X145163641Y-53388068D01*
X144945380Y-53388068D01*
X144844765Y-53394408D01*
X144774176Y-53410788D01*
X144726111Y-53434230D01*
X144688663Y-53469731D01*
X144665974Y-53515448D01*
X144657875Y-53574731D01*
X144398114Y-53574731D01*
X144393452Y-53530034D01*
X144403963Y-53435168D01*
X144433386Y-53359309D01*
X144479524Y-53294755D01*
X144537250Y-53243812D01*
X144604992Y-53205576D01*
X144683063Y-53179241D01*
X144765489Y-53164398D01*
X144848843Y-53159457D01*
X145428065Y-53159457D01*
X145428065Y-54642500D01*
G37*
G36*
X143704694Y-53620370D02*
G01*
X143807910Y-53648553D01*
X143902522Y-53694472D01*
X143982116Y-53755257D01*
X144047585Y-53830842D01*
X144098620Y-53921678D01*
X144130532Y-54023005D01*
X144141577Y-54138382D01*
X144130532Y-54253760D01*
X144098620Y-54355087D01*
X144047585Y-54445923D01*
X143982116Y-54521508D01*
X143902525Y-54582313D01*
X143807910Y-54628303D01*
X143704698Y-54656417D01*
X143593862Y-54665947D01*
X143483026Y-54656417D01*
X143379814Y-54628303D01*
X143285198Y-54582313D01*
X143205607Y-54521508D01*
X143140159Y-54445919D01*
X143089195Y-54355087D01*
X143065610Y-54288934D01*
X143051127Y-54217021D01*
X143046147Y-54138382D01*
X143297931Y-54138382D01*
X143302936Y-54195564D01*
X143317898Y-54250490D01*
X143342550Y-54301406D01*
X143376608Y-54346019D01*
X143419072Y-54383146D01*
X143470031Y-54412423D01*
X143527116Y-54430879D01*
X143593862Y-54437336D01*
X143660541Y-54430884D01*
X143717693Y-54412423D01*
X143768574Y-54383152D01*
X143811024Y-54346019D01*
X143845103Y-54301409D01*
X143869826Y-54250490D01*
X143884718Y-54195567D01*
X143889701Y-54138382D01*
X143884718Y-54081197D01*
X143869826Y-54026275D01*
X143845099Y-53975372D01*
X143811024Y-53930837D01*
X143768568Y-53893631D01*
X143717693Y-53864342D01*
X143660541Y-53845881D01*
X143593862Y-53839429D01*
X143527116Y-53845885D01*
X143470031Y-53864342D01*
X143419079Y-53893637D01*
X143376608Y-53930837D01*
X143342554Y-53975375D01*
X143317898Y-54026275D01*
X143302936Y-54081201D01*
X143297931Y-54138382D01*
X143046147Y-54138382D01*
X143051127Y-54059744D01*
X143065610Y-53987830D01*
X143089195Y-53921678D01*
X143140159Y-53830845D01*
X143205607Y-53755257D01*
X143285202Y-53694472D01*
X143379814Y-53648553D01*
X143483030Y-53620370D01*
X143593862Y-53610818D01*
X143704694Y-53620370D01*
G37*
G36*
X142502330Y-53620229D02*
G01*
X142616310Y-53648370D01*
X142687969Y-53678673D01*
X142753117Y-53719459D01*
X142812499Y-53771285D01*
X142680241Y-53903360D01*
X142625731Y-53860413D01*
X142560715Y-53826789D01*
X142489351Y-53805601D01*
X142411696Y-53798396D01*
X142346021Y-53804119D01*
X142291477Y-53820215D01*
X142245916Y-53845840D01*
X142210331Y-53881814D01*
X142188583Y-53928059D01*
X142180795Y-53987898D01*
X142180795Y-54015284D01*
X142243718Y-54015284D01*
X142378082Y-54018490D01*
X142519773Y-54033144D01*
X142588986Y-54047540D01*
X142655145Y-54067582D01*
X142716905Y-54094872D01*
X142769451Y-54129315D01*
X142813603Y-54172517D01*
X142848127Y-54225577D01*
X142869735Y-54287057D01*
X142877528Y-54364704D01*
X142869373Y-54436549D01*
X142846112Y-54496503D01*
X142809557Y-54548388D01*
X142763223Y-54590659D01*
X142708635Y-54623332D01*
X142645711Y-54647079D01*
X142578848Y-54661221D01*
X142510248Y-54665947D01*
X142412804Y-54656102D01*
X142325692Y-54627387D01*
X142273580Y-54596917D01*
X142227564Y-54555986D01*
X142187115Y-54503373D01*
X142180795Y-54503373D01*
X142180795Y-54642500D01*
X141954199Y-54642500D01*
X141954199Y-54247742D01*
X142195541Y-54247742D01*
X142202988Y-54316469D01*
X142223855Y-54371738D01*
X142257457Y-54416544D01*
X142302718Y-54449101D01*
X142364890Y-54470413D01*
X142449432Y-54478368D01*
X142512446Y-54471041D01*
X142569049Y-54446953D01*
X142592003Y-54428236D01*
X142609991Y-54406103D01*
X142621592Y-54379859D01*
X142625744Y-54346294D01*
X142615561Y-54297347D01*
X142585902Y-54261389D01*
X142542595Y-54235174D01*
X142488266Y-54215319D01*
X142429380Y-54202556D01*
X142365534Y-54195352D01*
X142248023Y-54191139D01*
X142195541Y-54191139D01*
X142195541Y-54247742D01*
X141954199Y-54247742D01*
X141954199Y-54063736D01*
X141956305Y-53980937D01*
X141969952Y-53883484D01*
X141984980Y-53833850D01*
X142007688Y-53783833D01*
X142038975Y-53737941D01*
X142082151Y-53696822D01*
X142134908Y-53663423D01*
X142203876Y-53634998D01*
X142281884Y-53617392D01*
X142384402Y-53610818D01*
X142502330Y-53620229D01*
G37*
G36*
X141683455Y-53634265D02*
G01*
X141431672Y-53634265D01*
X141431672Y-53796381D01*
X141427458Y-53796381D01*
X141394963Y-53741070D01*
X141355236Y-53695768D01*
X141307840Y-53659361D01*
X141254232Y-53632673D01*
X141195179Y-53616414D01*
X141129421Y-53610818D01*
X141084358Y-53614207D01*
X141039204Y-53622541D01*
X141039204Y-53868738D01*
X141101119Y-53856099D01*
X141160928Y-53851153D01*
X141243528Y-53860017D01*
X141302620Y-53883668D01*
X141350912Y-53919454D01*
X141384411Y-53957948D01*
X141408402Y-54000658D01*
X141422238Y-54041662D01*
X141431672Y-54104494D01*
X141431672Y-54642500D01*
X141683455Y-54642500D01*
X141683455Y-53634265D01*
G37*
G36*
X140101403Y-53765332D02*
G01*
X140107723Y-53765332D01*
X140155991Y-53713491D01*
X140227341Y-53663757D01*
X140271435Y-53643002D01*
X140323878Y-53625655D01*
X140380758Y-53614755D01*
X140449815Y-53610818D01*
X140553534Y-53621224D01*
X140647011Y-53651667D01*
X140730988Y-53700274D01*
X140801250Y-53763683D01*
X140857766Y-53840423D01*
X140900993Y-53931203D01*
X140927546Y-54030151D01*
X140936622Y-54138382D01*
X140928070Y-54246715D01*
X140903100Y-54345653D01*
X140861299Y-54436228D01*
X140804456Y-54513173D01*
X140733146Y-54576518D01*
X140648110Y-54625189D01*
X140552344Y-54655343D01*
X140439282Y-54665947D01*
X140335256Y-54655231D01*
X140239889Y-54623632D01*
X140182892Y-54590041D01*
X140134171Y-54545308D01*
X140092977Y-54488169D01*
X140088763Y-54488169D01*
X140088763Y-54642500D01*
X139849528Y-54642500D01*
X139849528Y-54138382D01*
X140092977Y-54138382D01*
X140097982Y-54195564D01*
X140112943Y-54250490D01*
X140137596Y-54301406D01*
X140171653Y-54346019D01*
X140214118Y-54383146D01*
X140265076Y-54412423D01*
X140322161Y-54430879D01*
X140388907Y-54437336D01*
X140455586Y-54430884D01*
X140512738Y-54412423D01*
X140563620Y-54383152D01*
X140606070Y-54346019D01*
X140640148Y-54301409D01*
X140664871Y-54250490D01*
X140679764Y-54195567D01*
X140684746Y-54138382D01*
X140679764Y-54081197D01*
X140664871Y-54026275D01*
X140640144Y-53975372D01*
X140606070Y-53930837D01*
X140563613Y-53893631D01*
X140512738Y-53864342D01*
X140455586Y-53845881D01*
X140388907Y-53839429D01*
X140322161Y-53845885D01*
X140265076Y-53864342D01*
X140214125Y-53893637D01*
X140171653Y-53930837D01*
X140137600Y-53975375D01*
X140112943Y-54026275D01*
X140097982Y-54081201D01*
X140092977Y-54138382D01*
X139849528Y-54138382D01*
X139849528Y-53058157D01*
X140101403Y-53058157D01*
X140101403Y-53765332D01*
G37*
%TO.C,JP2*%
D10*
X132259999Y-65384999D02*
X132259999Y-66784999D01*
X132959998Y-67484999D02*
X133560000Y-67484999D01*
X133560000Y-64684999D02*
X132959998Y-64684999D01*
X134259999Y-66784999D02*
X134259999Y-65384999D01*
X132259999Y-65384999D02*
G75*
G02*
X132959998Y-64684999I699999J1D01*
G01*
X132959998Y-67484999D02*
G75*
G02*
X132259999Y-66784999I1J700000D01*
G01*
X133560000Y-64684999D02*
G75*
G02*
X134259999Y-65384999I0J-699999D01*
G01*
X134259999Y-66784999D02*
G75*
G02*
X133560000Y-67484999I-700000J0D01*
G01*
%TO.C,JP3*%
X132259999Y-54635001D02*
X132259999Y-56035001D01*
X132959998Y-56735001D02*
X133560000Y-56735001D01*
X133560000Y-53935001D02*
X132959998Y-53935001D01*
X134259999Y-56035001D02*
X134259999Y-54635001D01*
X132259999Y-54635001D02*
G75*
G02*
X132959998Y-53935001I699999J1D01*
G01*
X132959998Y-56735001D02*
G75*
G02*
X132259999Y-56035001I1J700000D01*
G01*
X133560000Y-53935001D02*
G75*
G02*
X134259999Y-54635001I0J-699999D01*
G01*
X134259999Y-56035001D02*
G75*
G02*
X133560000Y-56735001I-700000J0D01*
G01*
%TO.C,JP1*%
X148520001Y-66809999D02*
X148520001Y-67410001D01*
X149220001Y-68110000D02*
X150620001Y-68110000D01*
X150620001Y-66110000D02*
X149220001Y-66110000D01*
X151320001Y-67410001D02*
X151320001Y-66809999D01*
X148520001Y-66809999D02*
G75*
G02*
X149220001Y-66110000I700000J-1D01*
G01*
X149220001Y-68110000D02*
G75*
G02*
X148520001Y-67410001I0J700000D01*
G01*
X150620001Y-66110000D02*
G75*
G02*
X151320001Y-66809999I1J-699999D01*
G01*
X151320001Y-67410001D02*
G75*
G02*
X150620001Y-68110000I-699999J0D01*
G01*
%TO.C,JP4*%
X135649999Y-69920001D02*
X135649999Y-71320001D01*
X136349998Y-72020001D02*
X136950000Y-72020001D01*
X136950000Y-69220001D02*
X136349998Y-69220001D01*
X137649999Y-71320001D02*
X137649999Y-69920001D01*
X135649999Y-69920001D02*
G75*
G02*
X136349998Y-69220001I700000J0D01*
G01*
X136349998Y-72020001D02*
G75*
G02*
X135649999Y-71320001I0J699999D01*
G01*
X136950000Y-69220001D02*
G75*
G02*
X137649999Y-69920001I-1J-700000D01*
G01*
X137649999Y-71320001D02*
G75*
G02*
X136950000Y-72020001I-699999J-1D01*
G01*
%TO.C,JP5*%
X138189999Y-69920001D02*
X138189999Y-71320001D01*
X138889998Y-72020001D02*
X139490000Y-72020001D01*
X139490000Y-69220001D02*
X138889998Y-69220001D01*
X140189999Y-71320001D02*
X140189999Y-69920001D01*
X138189999Y-69920001D02*
G75*
G02*
X138889998Y-69220001I699999J1D01*
G01*
X138889998Y-72020001D02*
G75*
G02*
X138189999Y-71320001I1J700000D01*
G01*
X139490000Y-69220001D02*
G75*
G02*
X140189999Y-69920001I0J-699999D01*
G01*
X140189999Y-71320001D02*
G75*
G02*
X139490000Y-72020001I-700000J0D01*
G01*
%TD*%
M02*
