%TF.GenerationSoftware,KiCad,Pcbnew,10.0.0*%
%TF.CreationDate,2026-08-15T17:39:26-07:00*%
%TF.ProjectId,DI2C_Endpoint,44493243-5f45-46e6-9470-6f696e742e6b,1*%
%TF.SameCoordinates,Original*%
%TF.FileFunction,Legend,Top*%
%TF.FilePolarity,Positive*%
%FSLAX46Y46*%
G04 Gerber Fmt 4.6, Leading zero omitted, Abs format (unit mm)*
G04 Created by KiCad (PCBNEW 10.0.0) date 2026-08-15 17:39:26*
%MOMM*%
%LPD*%
G01*
G04 APERTURE LIST*
%ADD10C,0.120000*%
%ADD11C,0.150000*%
%ADD12C,0.152400*%
%ADD13C,0.000000*%
%ADD14C,0.127000*%
%ADD15C,0.200000*%
%ADD16C,0.100000*%
G04 APERTURE END LIST*
D10*
G36*
X151995075Y-63052600D02*
G01*
X152021124Y-63052600D01*
X152063476Y-63050109D01*
X152083289Y-63046080D01*
X152100442Y-63039301D01*
X152115211Y-63029146D01*
X152126893Y-63015195D01*
X152134214Y-62997665D01*
X152136968Y-62972806D01*
X152134262Y-62951125D01*
X152126465Y-62932832D01*
X152113448Y-62917119D01*
X152096649Y-62905341D01*
X152076522Y-62898072D01*
X152052155Y-62895503D01*
X152023452Y-62899834D01*
X151998043Y-62912722D01*
X151977615Y-62933039D01*
X151963202Y-62960973D01*
X151856590Y-62932433D01*
X151868956Y-62901353D01*
X151885129Y-62875170D01*
X151905365Y-62852762D01*
X151928763Y-62834980D01*
X151955055Y-62821382D01*
X151984158Y-62811679D01*
X152014827Y-62805987D01*
X152047136Y-62804059D01*
X152085027Y-62806623D01*
X152120152Y-62814134D01*
X152152833Y-62826763D01*
X152180602Y-62843883D01*
X152203924Y-62866018D01*
X152222148Y-62893342D01*
X152233641Y-62924814D01*
X152237682Y-62962511D01*
X152234639Y-62993492D01*
X152225713Y-63021645D01*
X152210827Y-63047618D01*
X152190753Y-63069503D01*
X152166136Y-63085759D01*
X152136126Y-63096637D01*
X152136126Y-63098323D01*
X152172087Y-63107862D01*
X152200412Y-63124087D01*
X152222588Y-63147049D01*
X152238726Y-63175174D01*
X152248564Y-63206803D01*
X152251970Y-63242817D01*
X152247715Y-63283868D01*
X152235594Y-63318434D01*
X152216307Y-63348668D01*
X152191520Y-63373462D01*
X152161905Y-63392828D01*
X152127296Y-63407058D01*
X152090185Y-63415528D01*
X152051349Y-63418378D01*
X152015044Y-63416318D01*
X151981630Y-63410318D01*
X151950228Y-63399963D01*
X151922462Y-63385369D01*
X151897951Y-63366119D01*
X151876740Y-63341808D01*
X151860020Y-63313230D01*
X151847357Y-63278281D01*
X151954812Y-63249741D01*
X151962913Y-63273302D01*
X151973851Y-63292062D01*
X151987528Y-63306821D01*
X152004285Y-63317626D01*
X152025186Y-63324468D01*
X152051349Y-63326934D01*
X152071050Y-63325249D01*
X152089524Y-63320266D01*
X152106623Y-63312162D01*
X152121434Y-63301472D01*
X152133776Y-63288143D01*
X152143233Y-63272236D01*
X152149173Y-63254418D01*
X152151220Y-63234244D01*
X152147965Y-63207661D01*
X152139057Y-63187899D01*
X152125165Y-63171997D01*
X152107989Y-63160348D01*
X152088256Y-63152380D01*
X152065600Y-63147379D01*
X152019439Y-63144045D01*
X151995075Y-63144045D01*
X151995075Y-63052600D01*
G37*
G36*
X152362905Y-63350051D02*
G01*
X152365101Y-63332993D01*
X152371574Y-63317817D01*
X152382615Y-63304000D01*
X152396737Y-63293252D01*
X152412375Y-63286897D01*
X152430060Y-63284729D01*
X152447255Y-63286786D01*
X152462768Y-63292854D01*
X152477064Y-63303157D01*
X152488346Y-63316509D01*
X152494961Y-63331391D01*
X152497214Y-63348366D01*
X152495016Y-63365423D01*
X152488533Y-63380612D01*
X152477467Y-63394455D01*
X152463371Y-63405180D01*
X152447746Y-63411524D01*
X152430060Y-63413689D01*
X152416901Y-63412428D01*
X152404451Y-63408670D01*
X152383055Y-63395297D01*
X152374798Y-63386118D01*
X152368364Y-63375184D01*
X152364282Y-63363095D01*
X152362905Y-63350051D01*
G37*
G36*
X152740700Y-63052600D02*
G01*
X152766748Y-63052600D01*
X152809100Y-63050109D01*
X152828913Y-63046080D01*
X152846066Y-63039301D01*
X152860835Y-63029146D01*
X152872518Y-63015195D01*
X152879839Y-62997665D01*
X152882593Y-62972806D01*
X152879887Y-62951125D01*
X152872090Y-62932832D01*
X152859072Y-62917119D01*
X152842273Y-62905341D01*
X152822146Y-62898072D01*
X152797779Y-62895503D01*
X152769076Y-62899834D01*
X152743667Y-62912722D01*
X152723240Y-62933039D01*
X152708826Y-62960973D01*
X152602214Y-62932433D01*
X152614581Y-62901353D01*
X152630754Y-62875170D01*
X152650990Y-62852762D01*
X152674388Y-62834980D01*
X152700680Y-62821382D01*
X152729782Y-62811679D01*
X152760451Y-62805987D01*
X152792760Y-62804059D01*
X152830652Y-62806623D01*
X152865777Y-62814134D01*
X152898458Y-62826763D01*
X152926227Y-62843883D01*
X152949548Y-62866018D01*
X152967773Y-62893342D01*
X152979265Y-62924814D01*
X152983306Y-62962511D01*
X152980263Y-62993492D01*
X152971338Y-63021645D01*
X152956452Y-63047618D01*
X152936377Y-63069503D01*
X152911760Y-63085759D01*
X152881750Y-63096637D01*
X152881750Y-63098323D01*
X152917712Y-63107862D01*
X152946037Y-63124087D01*
X152968212Y-63147049D01*
X152984350Y-63175174D01*
X152994188Y-63206803D01*
X152997595Y-63242817D01*
X152993340Y-63283868D01*
X152981218Y-63318434D01*
X152961931Y-63348668D01*
X152937144Y-63373462D01*
X152907530Y-63392828D01*
X152872921Y-63407058D01*
X152835810Y-63415528D01*
X152796973Y-63418378D01*
X152760669Y-63416318D01*
X152727254Y-63410318D01*
X152695852Y-63399963D01*
X152668087Y-63385369D01*
X152643576Y-63366119D01*
X152622364Y-63341808D01*
X152605645Y-63313230D01*
X152592982Y-63278281D01*
X152700436Y-63249741D01*
X152708538Y-63273302D01*
X152719476Y-63292062D01*
X152733153Y-63306821D01*
X152749909Y-63317626D01*
X152770811Y-63324468D01*
X152796973Y-63326934D01*
X152816675Y-63325249D01*
X152835149Y-63320266D01*
X152852248Y-63312162D01*
X152867059Y-63301472D01*
X152879400Y-63288143D01*
X152888858Y-63272236D01*
X152894798Y-63254418D01*
X152896844Y-63234244D01*
X152893589Y-63207661D01*
X152884681Y-63187899D01*
X152870790Y-63171997D01*
X152853613Y-63160348D01*
X152833881Y-63152380D01*
X152811225Y-63147379D01*
X152765063Y-63144045D01*
X152740700Y-63144045D01*
X152740700Y-63052600D01*
G37*
G36*
X153048922Y-62815782D02*
G01*
X153170665Y-62815782D01*
X153332671Y-63264029D01*
X153499697Y-62815782D01*
X153613856Y-62815782D01*
X153373777Y-63409000D01*
X153282296Y-63409000D01*
X153048922Y-62815782D01*
G37*
G36*
X152325098Y-65914560D02*
G01*
X152269209Y-65939882D01*
X152209941Y-65958123D01*
X152146776Y-65969265D01*
X152079121Y-65973068D01*
X152033673Y-65970505D01*
X151991716Y-65963035D01*
X151952798Y-65950866D01*
X151915862Y-65933790D01*
X151882971Y-65912857D01*
X151853733Y-65887998D01*
X151828231Y-65859320D01*
X151806568Y-65826893D01*
X151788667Y-65790325D01*
X151775814Y-65751677D01*
X151767905Y-65709658D01*
X151765183Y-65663747D01*
X151767909Y-65616700D01*
X151775824Y-65573707D01*
X151788667Y-65534237D01*
X151806615Y-65496822D01*
X151828286Y-65463847D01*
X151853733Y-65434879D01*
X151883001Y-65409760D01*
X151915892Y-65388697D01*
X151952798Y-65371608D01*
X151991717Y-65359419D01*
X152033674Y-65351936D01*
X152079121Y-65349369D01*
X152145763Y-65353578D01*
X152206725Y-65365819D01*
X152245008Y-65379618D01*
X152280419Y-65399063D01*
X152313337Y-65424437D01*
X152235265Y-65503426D01*
X152204056Y-65479109D01*
X152166022Y-65460634D01*
X152124383Y-65449326D01*
X152079963Y-65445503D01*
X152035360Y-65449705D01*
X151996432Y-65461807D01*
X151961592Y-65481341D01*
X151932245Y-65506979D01*
X151908543Y-65538041D01*
X151890700Y-65574280D01*
X151879748Y-65613811D01*
X151876008Y-65657042D01*
X151879780Y-65703414D01*
X151890700Y-65744860D01*
X151908616Y-65782573D01*
X151932245Y-65814249D01*
X151961602Y-65840277D01*
X151996432Y-65860228D01*
X152035385Y-65872632D01*
X152080000Y-65876934D01*
X152119588Y-65875028D01*
X152155947Y-65869497D01*
X152190167Y-65859767D01*
X152219328Y-65846306D01*
X152219328Y-65708113D01*
X152097622Y-65708113D01*
X152097622Y-65611979D01*
X152325098Y-65611979D01*
X152325098Y-65914560D01*
G37*
G36*
X152450101Y-65365782D02*
G01*
X152590272Y-65365782D01*
X152878198Y-65806519D01*
X152879883Y-65806519D01*
X152879883Y-65365782D01*
X152985652Y-65365782D01*
X152985652Y-65959000D01*
X152851343Y-65959000D01*
X152557556Y-65504048D01*
X152555870Y-65504048D01*
X152555870Y-65959000D01*
X152450101Y-65959000D01*
X152450101Y-65365782D01*
G37*
G36*
X153410400Y-65370313D02*
G01*
X153465846Y-65383808D01*
X153501037Y-65397998D01*
X153533110Y-65416258D01*
X153562383Y-65438689D01*
X153588187Y-65464980D01*
X153610553Y-65495676D01*
X153629538Y-65531269D01*
X153643162Y-65569215D01*
X153651732Y-65612617D01*
X153654743Y-65662391D01*
X153651296Y-65712539D01*
X153641470Y-65756189D01*
X153625764Y-65794355D01*
X153604298Y-65829794D01*
X153579434Y-65860373D01*
X153551062Y-65886533D01*
X153519437Y-65908800D01*
X153485665Y-65926919D01*
X153449506Y-65941011D01*
X153393614Y-65954599D01*
X153339963Y-65959000D01*
X153118350Y-65959000D01*
X153118350Y-65862866D01*
X153224119Y-65862866D01*
X153303034Y-65862866D01*
X153351656Y-65859986D01*
X153396603Y-65851581D01*
X153438394Y-65836919D01*
X153473393Y-65816520D01*
X153493583Y-65799174D01*
X153510741Y-65778682D01*
X153525014Y-65754715D01*
X153535180Y-65728701D01*
X153541630Y-65698204D01*
X153543918Y-65662391D01*
X153541890Y-65627041D01*
X153536162Y-65596652D01*
X153527139Y-65570507D01*
X153514253Y-65546118D01*
X153498741Y-65525521D01*
X153480537Y-65508298D01*
X153448464Y-65487838D01*
X153410049Y-65473200D01*
X153368145Y-65464839D01*
X153320656Y-65461916D01*
X153224119Y-65461916D01*
X153224119Y-65862866D01*
X153118350Y-65862866D01*
X153118350Y-65365782D01*
X153352566Y-65365782D01*
X153410400Y-65370313D01*
G37*
G36*
X152345002Y-57852508D02*
G01*
X152325453Y-57831461D01*
X152300086Y-57816824D01*
X152271339Y-57808350D01*
X152240955Y-57805503D01*
X152205271Y-57809717D01*
X152188774Y-57815200D01*
X152174203Y-57823089D01*
X152161740Y-57833626D01*
X152151965Y-57846939D01*
X152145766Y-57862577D01*
X152143575Y-57881707D01*
X152146060Y-57900767D01*
X152153054Y-57915793D01*
X152164568Y-57927759D01*
X152187295Y-57942201D01*
X152216591Y-57955383D01*
X152284589Y-57978024D01*
X152320259Y-57991098D01*
X152352549Y-58008176D01*
X152380962Y-58030428D01*
X152404609Y-58059247D01*
X152415772Y-58081416D01*
X152422984Y-58109154D01*
X152425602Y-58143804D01*
X152423514Y-58175232D01*
X152417544Y-58202822D01*
X152407980Y-58227152D01*
X152387176Y-58259858D01*
X152360536Y-58286173D01*
X152328680Y-58306512D01*
X152291293Y-58321344D01*
X152251084Y-58330095D01*
X152208202Y-58333068D01*
X152171600Y-58330993D01*
X152136142Y-58324815D01*
X152101590Y-58314530D01*
X152069215Y-58299444D01*
X152039951Y-58278784D01*
X152013442Y-58252101D01*
X152093200Y-58174835D01*
X152115520Y-58200941D01*
X152143978Y-58220594D01*
X152176422Y-58232854D01*
X152210730Y-58236934D01*
X152229115Y-58235690D01*
X152247659Y-58231915D01*
X152265391Y-58225591D01*
X152281218Y-58216857D01*
X152294886Y-58205415D01*
X152305581Y-58191285D01*
X152312444Y-58174879D01*
X152314814Y-58155711D01*
X152312299Y-58134897D01*
X152305260Y-58118489D01*
X152293821Y-58105446D01*
X152270960Y-58089598D01*
X152241761Y-58075734D01*
X152173763Y-58052726D01*
X152138060Y-58039725D01*
X152105766Y-58022977D01*
X152077371Y-58001126D01*
X152053742Y-57972749D01*
X152042593Y-57950811D01*
X152035376Y-57923209D01*
X152032750Y-57888558D01*
X152034986Y-57858341D01*
X152041370Y-57832044D01*
X152051618Y-57809020D01*
X152073502Y-57778300D01*
X152101150Y-57753333D01*
X152133674Y-57734117D01*
X152171235Y-57720250D01*
X152211089Y-57712093D01*
X152251836Y-57709369D01*
X152298184Y-57712972D01*
X152342914Y-57723731D01*
X152371188Y-57735277D01*
X152397549Y-57750927D01*
X152422232Y-57770919D01*
X152345002Y-57852508D01*
G37*
G36*
X152827635Y-57730313D02*
G01*
X152883081Y-57743808D01*
X152918272Y-57757998D01*
X152950345Y-57776258D01*
X152979618Y-57798689D01*
X153005422Y-57824980D01*
X153027788Y-57855676D01*
X153046773Y-57891269D01*
X153060397Y-57929215D01*
X153068967Y-57972617D01*
X153071979Y-58022391D01*
X153068532Y-58072539D01*
X153058706Y-58116189D01*
X153042999Y-58154355D01*
X153021534Y-58189794D01*
X152996669Y-58220373D01*
X152968298Y-58246533D01*
X152936672Y-58268800D01*
X152902900Y-58286919D01*
X152866741Y-58301011D01*
X152810849Y-58314599D01*
X152757198Y-58319000D01*
X152535585Y-58319000D01*
X152535585Y-58222866D01*
X152641354Y-58222866D01*
X152720269Y-58222866D01*
X152768891Y-58219986D01*
X152813838Y-58211581D01*
X152855629Y-58196919D01*
X152890628Y-58176520D01*
X152910818Y-58159174D01*
X152927976Y-58138682D01*
X152942249Y-58114715D01*
X152952415Y-58088701D01*
X152958865Y-58058204D01*
X152961153Y-58022391D01*
X152959125Y-57987041D01*
X152953397Y-57956652D01*
X152944374Y-57930507D01*
X152931488Y-57906118D01*
X152915976Y-57885521D01*
X152897772Y-57868298D01*
X152865700Y-57847838D01*
X152827284Y-57833200D01*
X152785380Y-57824839D01*
X152737891Y-57821916D01*
X152641354Y-57821916D01*
X152641354Y-58222866D01*
X152535585Y-58222866D01*
X152535585Y-57725782D01*
X152769801Y-57725782D01*
X152827635Y-57730313D01*
G37*
G36*
X153712493Y-58319000D02*
G01*
X153591630Y-58319000D01*
X153536235Y-58183005D01*
X153278535Y-58183005D01*
X153224826Y-58319000D01*
X153106454Y-58319000D01*
X153205579Y-58091561D01*
X153314622Y-58091561D01*
X153499306Y-58091561D01*
X153407788Y-57849797D01*
X153314622Y-58091561D01*
X153205579Y-58091561D01*
X153364997Y-57725782D01*
X153456478Y-57725782D01*
X153712493Y-58319000D01*
G37*
G36*
X152601361Y-55272508D02*
G01*
X152581812Y-55251461D01*
X152556445Y-55236824D01*
X152527698Y-55228350D01*
X152497314Y-55225503D01*
X152461630Y-55229717D01*
X152445133Y-55235200D01*
X152430562Y-55243089D01*
X152418099Y-55253626D01*
X152408324Y-55266939D01*
X152402125Y-55282577D01*
X152399934Y-55301707D01*
X152402419Y-55320767D01*
X152409413Y-55335793D01*
X152420927Y-55347759D01*
X152443654Y-55362201D01*
X152472950Y-55375383D01*
X152540948Y-55398024D01*
X152576618Y-55411098D01*
X152608908Y-55428176D01*
X152637321Y-55450428D01*
X152660968Y-55479247D01*
X152672131Y-55501416D01*
X152679343Y-55529154D01*
X152681961Y-55563804D01*
X152679873Y-55595232D01*
X152673903Y-55622822D01*
X152664339Y-55647152D01*
X152643535Y-55679858D01*
X152616895Y-55706173D01*
X152585039Y-55726512D01*
X152547652Y-55741344D01*
X152507443Y-55750095D01*
X152464561Y-55753068D01*
X152427959Y-55750993D01*
X152392501Y-55744815D01*
X152357949Y-55734530D01*
X152325574Y-55719444D01*
X152296310Y-55698784D01*
X152269801Y-55672101D01*
X152349559Y-55594835D01*
X152371879Y-55620941D01*
X152400337Y-55640594D01*
X152432781Y-55652854D01*
X152467089Y-55656934D01*
X152485474Y-55655690D01*
X152504018Y-55651915D01*
X152521750Y-55645591D01*
X152537577Y-55636857D01*
X152551245Y-55625415D01*
X152561940Y-55611285D01*
X152568803Y-55594879D01*
X152571173Y-55575711D01*
X152568658Y-55554897D01*
X152561619Y-55538489D01*
X152550180Y-55525446D01*
X152527319Y-55509598D01*
X152498120Y-55495734D01*
X152430122Y-55472726D01*
X152394419Y-55459725D01*
X152362125Y-55442977D01*
X152333730Y-55421126D01*
X152310101Y-55392749D01*
X152298952Y-55370811D01*
X152291735Y-55343209D01*
X152289109Y-55308558D01*
X152291345Y-55278341D01*
X152297729Y-55252044D01*
X152307977Y-55229020D01*
X152329861Y-55198300D01*
X152357509Y-55173333D01*
X152390033Y-55154117D01*
X152427594Y-55140250D01*
X152467448Y-55132093D01*
X152508195Y-55129369D01*
X152554543Y-55132972D01*
X152599273Y-55143731D01*
X152627547Y-55155277D01*
X152653908Y-55170927D01*
X152678591Y-55190919D01*
X152601361Y-55272508D01*
G37*
G36*
X153199890Y-55284268D02*
G01*
X153176836Y-55262116D01*
X153155829Y-55246863D01*
X153136509Y-55237264D01*
X153105567Y-55228405D01*
X153074814Y-55225503D01*
X153030210Y-55229705D01*
X152991283Y-55241807D01*
X152956442Y-55261341D01*
X152927096Y-55286979D01*
X152903393Y-55318041D01*
X152885550Y-55354280D01*
X152874598Y-55393811D01*
X152870859Y-55437042D01*
X152874630Y-55483414D01*
X152885550Y-55524860D01*
X152903466Y-55562573D01*
X152927096Y-55594249D01*
X152956452Y-55620277D01*
X152991283Y-55640228D01*
X153030231Y-55652633D01*
X153074814Y-55656934D01*
X153110172Y-55652693D01*
X153144899Y-55639751D01*
X153166258Y-55626573D01*
X153187345Y-55608487D01*
X153208280Y-55584760D01*
X153295585Y-55646896D01*
X153266261Y-55681074D01*
X153233636Y-55707809D01*
X153197362Y-55727789D01*
X153158102Y-55741783D01*
X153117106Y-55750217D01*
X153073971Y-55753068D01*
X153028523Y-55750505D01*
X152986566Y-55743035D01*
X152947649Y-55730866D01*
X152910713Y-55713790D01*
X152877822Y-55692857D01*
X152848584Y-55667998D01*
X152823081Y-55639320D01*
X152801418Y-55606893D01*
X152783517Y-55570325D01*
X152770664Y-55531677D01*
X152762755Y-55489658D01*
X152760033Y-55443747D01*
X152762760Y-55396700D01*
X152770674Y-55353707D01*
X152783517Y-55314237D01*
X152801465Y-55276822D01*
X152823136Y-55243847D01*
X152848584Y-55214879D01*
X152877851Y-55189760D01*
X152910742Y-55168697D01*
X152947649Y-55151608D01*
X152986568Y-55139419D01*
X153028525Y-55131936D01*
X153073971Y-55129369D01*
X153113829Y-55131827D01*
X153151056Y-55139035D01*
X153186042Y-55150875D01*
X153218653Y-55167894D01*
X153250619Y-55191892D01*
X153282176Y-55223818D01*
X153199890Y-55284268D01*
G37*
G36*
X153366989Y-55145782D02*
G01*
X153472758Y-55145782D01*
X153472758Y-55642866D01*
X153725403Y-55642866D01*
X153725403Y-55739000D01*
X153366989Y-55739000D01*
X153366989Y-55145782D01*
G37*
G36*
X152625731Y-60265782D02*
G01*
X153019426Y-60265782D01*
X153019426Y-60361916D01*
X152731501Y-60361916D01*
X152731501Y-60507290D01*
X153004296Y-60507290D01*
X153004296Y-60603424D01*
X152731501Y-60603424D01*
X152731501Y-60762866D01*
X153034521Y-60762866D01*
X153034521Y-60859000D01*
X152625731Y-60859000D01*
X152625731Y-60265782D01*
G37*
G36*
X153138641Y-60265782D02*
G01*
X153278812Y-60265782D01*
X153566738Y-60706519D01*
X153568423Y-60706519D01*
X153568423Y-60265782D01*
X153674193Y-60265782D01*
X153674193Y-60859000D01*
X153539884Y-60859000D01*
X153246096Y-60404048D01*
X153244411Y-60404048D01*
X153244411Y-60859000D01*
X153138641Y-60859000D01*
X153138641Y-60265782D01*
G37*
D11*
G36*
X137805569Y-55510011D02*
G01*
X137779503Y-55481948D01*
X137745680Y-55462432D01*
X137707351Y-55451133D01*
X137666839Y-55447338D01*
X137619260Y-55452956D01*
X137597264Y-55460266D01*
X137577837Y-55470785D01*
X137561220Y-55484835D01*
X137548185Y-55502586D01*
X137539920Y-55523437D01*
X137536999Y-55548943D01*
X137540312Y-55574357D01*
X137549637Y-55594391D01*
X137564989Y-55610346D01*
X137595292Y-55629602D01*
X137634354Y-55647177D01*
X137725017Y-55677366D01*
X137772578Y-55694798D01*
X137815631Y-55717568D01*
X137853516Y-55747237D01*
X137885045Y-55785663D01*
X137899929Y-55815221D01*
X137909544Y-55852205D01*
X137913035Y-55898406D01*
X137910251Y-55940310D01*
X137902291Y-55977096D01*
X137889539Y-56009536D01*
X137861801Y-56053144D01*
X137826280Y-56088231D01*
X137783806Y-56115350D01*
X137733957Y-56135126D01*
X137680345Y-56146794D01*
X137623168Y-56150757D01*
X137574366Y-56147990D01*
X137527088Y-56139754D01*
X137481019Y-56126040D01*
X137437852Y-56105926D01*
X137398834Y-56078379D01*
X137363489Y-56042802D01*
X137469832Y-55939780D01*
X137499592Y-55974588D01*
X137537536Y-56000792D01*
X137580795Y-56017139D01*
X137626539Y-56022579D01*
X137651053Y-56020920D01*
X137675778Y-56015886D01*
X137699420Y-56007455D01*
X137720523Y-55995810D01*
X137738747Y-55980553D01*
X137753007Y-55961713D01*
X137762157Y-55939839D01*
X137765317Y-55914281D01*
X137761964Y-55886530D01*
X137752579Y-55864652D01*
X137737327Y-55847261D01*
X137706846Y-55826131D01*
X137667913Y-55807645D01*
X137577250Y-55776968D01*
X137529645Y-55759633D01*
X137486587Y-55737303D01*
X137448727Y-55708168D01*
X137417222Y-55670332D01*
X137402356Y-55641081D01*
X137392734Y-55604279D01*
X137389232Y-55558078D01*
X137392213Y-55517788D01*
X137400726Y-55482725D01*
X137414389Y-55452027D01*
X137443569Y-55411067D01*
X137480432Y-55377778D01*
X137523798Y-55352157D01*
X137573880Y-55333667D01*
X137627018Y-55322791D01*
X137681347Y-55319159D01*
X137743144Y-55323963D01*
X137802784Y-55338308D01*
X137840483Y-55353703D01*
X137875632Y-55374569D01*
X137908541Y-55401225D01*
X137805569Y-55510011D01*
G37*
G36*
X138603608Y-55525691D02*
G01*
X138572868Y-55496155D01*
X138544859Y-55475818D01*
X138519100Y-55463018D01*
X138477844Y-55451206D01*
X138436839Y-55447338D01*
X138377367Y-55452940D01*
X138325464Y-55469076D01*
X138279010Y-55495121D01*
X138239881Y-55529306D01*
X138208278Y-55570722D01*
X138184487Y-55619041D01*
X138169885Y-55671748D01*
X138164899Y-55729390D01*
X138169927Y-55791219D01*
X138184487Y-55846480D01*
X138208376Y-55896764D01*
X138239881Y-55938999D01*
X138279023Y-55973703D01*
X138325464Y-56000304D01*
X138377395Y-56016844D01*
X138436839Y-56022579D01*
X138483984Y-56016924D01*
X138530286Y-55999669D01*
X138558765Y-55982098D01*
X138586881Y-55957983D01*
X138614794Y-55926347D01*
X138731200Y-56009194D01*
X138692102Y-56054766D01*
X138648602Y-56090413D01*
X138600237Y-56117052D01*
X138547889Y-56135711D01*
X138493228Y-56146957D01*
X138435715Y-56150757D01*
X138375118Y-56147341D01*
X138319175Y-56137380D01*
X138267285Y-56121155D01*
X138218037Y-56098387D01*
X138174183Y-56070476D01*
X138135199Y-56037331D01*
X138101195Y-55999094D01*
X138072311Y-55955858D01*
X138048444Y-55907101D01*
X138031306Y-55855569D01*
X138020760Y-55799545D01*
X138017132Y-55738329D01*
X138020767Y-55675600D01*
X138031320Y-55618276D01*
X138048444Y-55565649D01*
X138072374Y-55515762D01*
X138101269Y-55471796D01*
X138135199Y-55433172D01*
X138174222Y-55399680D01*
X138218077Y-55371596D01*
X138267285Y-55348810D01*
X138319177Y-55332558D01*
X138375120Y-55322581D01*
X138435715Y-55319159D01*
X138488860Y-55322436D01*
X138538496Y-55332047D01*
X138585143Y-55347833D01*
X138628625Y-55370525D01*
X138671246Y-55402523D01*
X138713322Y-55445091D01*
X138603608Y-55525691D01*
G37*
G36*
X138826406Y-55341043D02*
G01*
X138967432Y-55341043D01*
X138967432Y-56003821D01*
X139304291Y-56003821D01*
X139304291Y-56132000D01*
X138826406Y-56132000D01*
X138826406Y-55341043D01*
G37*
G36*
X139633189Y-55913158D02*
G01*
X139356755Y-55913158D01*
X139356755Y-55797484D01*
X139633189Y-55797484D01*
X139633189Y-55913158D01*
G37*
G36*
X137790425Y-65380011D02*
G01*
X137764359Y-65351948D01*
X137730536Y-65332432D01*
X137692207Y-65321133D01*
X137651695Y-65317338D01*
X137604116Y-65322956D01*
X137582120Y-65330266D01*
X137562693Y-65340785D01*
X137546076Y-65354835D01*
X137533041Y-65372586D01*
X137524776Y-65393437D01*
X137521855Y-65418943D01*
X137525168Y-65444357D01*
X137534493Y-65464391D01*
X137549845Y-65480346D01*
X137580148Y-65499602D01*
X137619210Y-65517177D01*
X137709873Y-65547366D01*
X137757434Y-65564798D01*
X137800487Y-65587568D01*
X137838372Y-65617237D01*
X137869901Y-65655663D01*
X137884785Y-65685221D01*
X137894400Y-65722205D01*
X137897891Y-65768406D01*
X137895107Y-65810310D01*
X137887147Y-65847096D01*
X137874395Y-65879536D01*
X137846657Y-65923144D01*
X137811136Y-65958231D01*
X137768662Y-65985350D01*
X137718813Y-66005126D01*
X137665201Y-66016794D01*
X137608024Y-66020757D01*
X137559222Y-66017990D01*
X137511944Y-66009754D01*
X137465875Y-65996040D01*
X137422708Y-65975926D01*
X137383690Y-65948379D01*
X137348345Y-65912802D01*
X137454688Y-65809780D01*
X137484448Y-65844588D01*
X137522392Y-65870792D01*
X137565651Y-65887139D01*
X137611395Y-65892579D01*
X137635909Y-65890920D01*
X137660634Y-65885886D01*
X137684276Y-65877455D01*
X137705379Y-65865810D01*
X137723603Y-65850553D01*
X137737863Y-65831713D01*
X137747013Y-65809839D01*
X137750173Y-65784281D01*
X137746820Y-65756530D01*
X137737435Y-65734652D01*
X137722183Y-65717261D01*
X137691702Y-65696131D01*
X137652769Y-65677645D01*
X137562106Y-65646968D01*
X137514501Y-65629633D01*
X137471443Y-65607303D01*
X137433583Y-65578168D01*
X137402078Y-65540332D01*
X137387212Y-65511081D01*
X137377590Y-65474279D01*
X137374088Y-65428078D01*
X137377069Y-65387788D01*
X137385582Y-65352725D01*
X137399245Y-65322027D01*
X137428425Y-65281067D01*
X137465288Y-65247778D01*
X137508654Y-65222157D01*
X137558736Y-65203667D01*
X137611874Y-65192791D01*
X137666203Y-65189159D01*
X137728000Y-65193963D01*
X137787640Y-65208308D01*
X137825339Y-65223703D01*
X137860488Y-65244569D01*
X137893397Y-65271225D01*
X137790425Y-65380011D01*
G37*
G36*
X138433935Y-65217084D02*
G01*
X138507863Y-65235077D01*
X138554785Y-65253998D01*
X138597548Y-65278345D01*
X138636579Y-65308252D01*
X138670984Y-65343307D01*
X138700806Y-65384235D01*
X138726119Y-65431692D01*
X138744285Y-65482287D01*
X138755711Y-65540157D01*
X138759727Y-65606521D01*
X138755131Y-65673386D01*
X138742029Y-65731585D01*
X138721087Y-65782474D01*
X138692467Y-65829725D01*
X138659314Y-65870497D01*
X138621485Y-65905377D01*
X138579318Y-65935066D01*
X138534288Y-65959226D01*
X138486077Y-65978015D01*
X138411554Y-65996132D01*
X138340020Y-66002000D01*
X138044535Y-66002000D01*
X138044535Y-65873821D01*
X138185561Y-65873821D01*
X138290780Y-65873821D01*
X138355610Y-65869982D01*
X138415540Y-65858775D01*
X138471260Y-65839226D01*
X138517926Y-65812027D01*
X138544846Y-65788899D01*
X138567723Y-65761576D01*
X138586754Y-65729620D01*
X138600308Y-65694935D01*
X138608908Y-65654272D01*
X138611960Y-65606521D01*
X138609256Y-65559388D01*
X138601618Y-65518869D01*
X138589587Y-65484009D01*
X138572406Y-65451491D01*
X138551723Y-65424029D01*
X138527452Y-65401064D01*
X138484688Y-65373784D01*
X138433467Y-65354267D01*
X138377595Y-65343119D01*
X138314277Y-65339222D01*
X138185561Y-65339222D01*
X138185561Y-65873821D01*
X138044535Y-65873821D01*
X138044535Y-65211043D01*
X138356824Y-65211043D01*
X138433935Y-65217084D01*
G37*
G36*
X139613746Y-66002000D02*
G01*
X139452595Y-66002000D01*
X139378736Y-65820674D01*
X139035135Y-65820674D01*
X138963523Y-66002000D01*
X138805693Y-66002000D01*
X138937860Y-65698748D01*
X139083251Y-65698748D01*
X139329496Y-65698748D01*
X139207473Y-65376396D01*
X139083251Y-65698748D01*
X138937860Y-65698748D01*
X139150418Y-65211043D01*
X139272392Y-65211043D01*
X139613746Y-66002000D01*
G37*
G36*
X139928331Y-65783158D02*
G01*
X139651897Y-65783158D01*
X139651897Y-65667484D01*
X139928331Y-65667484D01*
X139928331Y-65783158D01*
G37*
G36*
X143369003Y-55550011D02*
G01*
X143342937Y-55521948D01*
X143309114Y-55502432D01*
X143270785Y-55491133D01*
X143230273Y-55487338D01*
X143182694Y-55492956D01*
X143160698Y-55500266D01*
X143141271Y-55510785D01*
X143124654Y-55524835D01*
X143111619Y-55542586D01*
X143103354Y-55563437D01*
X143100433Y-55588943D01*
X143103746Y-55614357D01*
X143113071Y-55634391D01*
X143128423Y-55650346D01*
X143158726Y-55669602D01*
X143197788Y-55687177D01*
X143288451Y-55717366D01*
X143336012Y-55734798D01*
X143379065Y-55757568D01*
X143416950Y-55787237D01*
X143448479Y-55825663D01*
X143463363Y-55855221D01*
X143472978Y-55892205D01*
X143476469Y-55938406D01*
X143473685Y-55980310D01*
X143465725Y-56017096D01*
X143452973Y-56049536D01*
X143425235Y-56093144D01*
X143389714Y-56128231D01*
X143347240Y-56155350D01*
X143297391Y-56175126D01*
X143243779Y-56186794D01*
X143186602Y-56190757D01*
X143137800Y-56187990D01*
X143090522Y-56179754D01*
X143044453Y-56166040D01*
X143001286Y-56145926D01*
X142962268Y-56118379D01*
X142926923Y-56082802D01*
X143033266Y-55979780D01*
X143063026Y-56014588D01*
X143100970Y-56040792D01*
X143144229Y-56057139D01*
X143189973Y-56062579D01*
X143214487Y-56060920D01*
X143239212Y-56055886D01*
X143262854Y-56047455D01*
X143283957Y-56035810D01*
X143302181Y-56020553D01*
X143316441Y-56001713D01*
X143325591Y-55979839D01*
X143328751Y-55954281D01*
X143325398Y-55926530D01*
X143316013Y-55904652D01*
X143300761Y-55887261D01*
X143270280Y-55866131D01*
X143231347Y-55847645D01*
X143140684Y-55816968D01*
X143093079Y-55799633D01*
X143050021Y-55777303D01*
X143012161Y-55748168D01*
X142980656Y-55710332D01*
X142965790Y-55681081D01*
X142956168Y-55644279D01*
X142952666Y-55598078D01*
X142955647Y-55557788D01*
X142964160Y-55522725D01*
X142977823Y-55492027D01*
X143007003Y-55451067D01*
X143043866Y-55417778D01*
X143087232Y-55392157D01*
X143137314Y-55373667D01*
X143190452Y-55362791D01*
X143244781Y-55359159D01*
X143306578Y-55363963D01*
X143366218Y-55378308D01*
X143403917Y-55393703D01*
X143439066Y-55414569D01*
X143471975Y-55441225D01*
X143369003Y-55550011D01*
G37*
G36*
X144167042Y-55565691D02*
G01*
X144136302Y-55536155D01*
X144108293Y-55515818D01*
X144082534Y-55503018D01*
X144041278Y-55491206D01*
X144000273Y-55487338D01*
X143940801Y-55492940D01*
X143888898Y-55509076D01*
X143842444Y-55535121D01*
X143803315Y-55569306D01*
X143771712Y-55610722D01*
X143747921Y-55659041D01*
X143733319Y-55711748D01*
X143728333Y-55769390D01*
X143733361Y-55831219D01*
X143747921Y-55886480D01*
X143771810Y-55936764D01*
X143803315Y-55978999D01*
X143842457Y-56013703D01*
X143888898Y-56040304D01*
X143940829Y-56056844D01*
X144000273Y-56062579D01*
X144047418Y-56056924D01*
X144093720Y-56039669D01*
X144122199Y-56022098D01*
X144150315Y-55997983D01*
X144178228Y-55966347D01*
X144294634Y-56049194D01*
X144255536Y-56094766D01*
X144212036Y-56130413D01*
X144163671Y-56157052D01*
X144111323Y-56175711D01*
X144056662Y-56186957D01*
X143999149Y-56190757D01*
X143938552Y-56187341D01*
X143882609Y-56177380D01*
X143830719Y-56161155D01*
X143781471Y-56138387D01*
X143737617Y-56110476D01*
X143698633Y-56077331D01*
X143664629Y-56039094D01*
X143635745Y-55995858D01*
X143611878Y-55947101D01*
X143594740Y-55895569D01*
X143584194Y-55839545D01*
X143580566Y-55778329D01*
X143584201Y-55715600D01*
X143594754Y-55658276D01*
X143611878Y-55605649D01*
X143635808Y-55555762D01*
X143664703Y-55511796D01*
X143698633Y-55473172D01*
X143737656Y-55439680D01*
X143781511Y-55411596D01*
X143830719Y-55388810D01*
X143882611Y-55372558D01*
X143938554Y-55362581D01*
X143999149Y-55359159D01*
X144052294Y-55362436D01*
X144101930Y-55372047D01*
X144148577Y-55387833D01*
X144192059Y-55410525D01*
X144234680Y-55442523D01*
X144276756Y-55485091D01*
X144167042Y-55565691D01*
G37*
G36*
X144389840Y-55381043D02*
G01*
X144530866Y-55381043D01*
X144530866Y-56043821D01*
X144867725Y-56043821D01*
X144867725Y-56172000D01*
X144389840Y-56172000D01*
X144389840Y-55381043D01*
G37*
G36*
X145197746Y-55774958D02*
G01*
X145197746Y-55528762D01*
X145311906Y-55528762D01*
X145311906Y-55774958D01*
X145558151Y-55774958D01*
X145558151Y-55890632D01*
X145311906Y-55890632D01*
X145311906Y-56136877D01*
X145197746Y-56136877D01*
X145197746Y-55890632D01*
X144951550Y-55890632D01*
X144951550Y-55774958D01*
X145197746Y-55774958D01*
G37*
G36*
X143383859Y-65380011D02*
G01*
X143357793Y-65351948D01*
X143323970Y-65332432D01*
X143285641Y-65321133D01*
X143245129Y-65317338D01*
X143197550Y-65322956D01*
X143175554Y-65330266D01*
X143156127Y-65340785D01*
X143139510Y-65354835D01*
X143126475Y-65372586D01*
X143118210Y-65393437D01*
X143115289Y-65418943D01*
X143118602Y-65444357D01*
X143127927Y-65464391D01*
X143143279Y-65480346D01*
X143173582Y-65499602D01*
X143212644Y-65517177D01*
X143303307Y-65547366D01*
X143350868Y-65564798D01*
X143393921Y-65587568D01*
X143431806Y-65617237D01*
X143463335Y-65655663D01*
X143478219Y-65685221D01*
X143487834Y-65722205D01*
X143491325Y-65768406D01*
X143488541Y-65810310D01*
X143480581Y-65847096D01*
X143467829Y-65879536D01*
X143440091Y-65923144D01*
X143404570Y-65958231D01*
X143362096Y-65985350D01*
X143312247Y-66005126D01*
X143258635Y-66016794D01*
X143201458Y-66020757D01*
X143152656Y-66017990D01*
X143105378Y-66009754D01*
X143059309Y-65996040D01*
X143016142Y-65975926D01*
X142977124Y-65948379D01*
X142941779Y-65912802D01*
X143048122Y-65809780D01*
X143077882Y-65844588D01*
X143115826Y-65870792D01*
X143159085Y-65887139D01*
X143204829Y-65892579D01*
X143229343Y-65890920D01*
X143254068Y-65885886D01*
X143277710Y-65877455D01*
X143298813Y-65865810D01*
X143317037Y-65850553D01*
X143331297Y-65831713D01*
X143340447Y-65809839D01*
X143343607Y-65784281D01*
X143340254Y-65756530D01*
X143330869Y-65734652D01*
X143315617Y-65717261D01*
X143285136Y-65696131D01*
X143246203Y-65677645D01*
X143155540Y-65646968D01*
X143107935Y-65629633D01*
X143064877Y-65607303D01*
X143027017Y-65578168D01*
X142995512Y-65540332D01*
X142980646Y-65511081D01*
X142971024Y-65474279D01*
X142967522Y-65428078D01*
X142970503Y-65387788D01*
X142979016Y-65352725D01*
X142992679Y-65322027D01*
X143021859Y-65281067D01*
X143058722Y-65247778D01*
X143102088Y-65222157D01*
X143152170Y-65203667D01*
X143205308Y-65192791D01*
X143259637Y-65189159D01*
X143321434Y-65193963D01*
X143381074Y-65208308D01*
X143418773Y-65223703D01*
X143453922Y-65244569D01*
X143486831Y-65271225D01*
X143383859Y-65380011D01*
G37*
G36*
X144027369Y-65217084D02*
G01*
X144101297Y-65235077D01*
X144148219Y-65253998D01*
X144190982Y-65278345D01*
X144230013Y-65308252D01*
X144264418Y-65343307D01*
X144294240Y-65384235D01*
X144319553Y-65431692D01*
X144337719Y-65482287D01*
X144349145Y-65540157D01*
X144353161Y-65606521D01*
X144348565Y-65673386D01*
X144335463Y-65731585D01*
X144314521Y-65782474D01*
X144285901Y-65829725D01*
X144252748Y-65870497D01*
X144214919Y-65905377D01*
X144172752Y-65935066D01*
X144127722Y-65959226D01*
X144079511Y-65978015D01*
X144004988Y-65996132D01*
X143933454Y-66002000D01*
X143637969Y-66002000D01*
X143637969Y-65873821D01*
X143778995Y-65873821D01*
X143884214Y-65873821D01*
X143949044Y-65869982D01*
X144008974Y-65858775D01*
X144064694Y-65839226D01*
X144111360Y-65812027D01*
X144138280Y-65788899D01*
X144161157Y-65761576D01*
X144180188Y-65729620D01*
X144193742Y-65694935D01*
X144202342Y-65654272D01*
X144205394Y-65606521D01*
X144202690Y-65559388D01*
X144195052Y-65518869D01*
X144183021Y-65484009D01*
X144165840Y-65451491D01*
X144145157Y-65424029D01*
X144120886Y-65401064D01*
X144078122Y-65373784D01*
X144026901Y-65354267D01*
X143971029Y-65343119D01*
X143907711Y-65339222D01*
X143778995Y-65339222D01*
X143778995Y-65873821D01*
X143637969Y-65873821D01*
X143637969Y-65211043D01*
X143950258Y-65211043D01*
X144027369Y-65217084D01*
G37*
G36*
X145207180Y-66002000D02*
G01*
X145046029Y-66002000D01*
X144972170Y-65820674D01*
X144628569Y-65820674D01*
X144556957Y-66002000D01*
X144399127Y-66002000D01*
X144531294Y-65698748D01*
X144676685Y-65698748D01*
X144922930Y-65698748D01*
X144800907Y-65376396D01*
X144676685Y-65698748D01*
X144531294Y-65698748D01*
X144743852Y-65211043D01*
X144865826Y-65211043D01*
X145207180Y-66002000D01*
G37*
G36*
X145522889Y-65604958D02*
G01*
X145522889Y-65358762D01*
X145637048Y-65358762D01*
X145637048Y-65604958D01*
X145883293Y-65604958D01*
X145883293Y-65720632D01*
X145637048Y-65720632D01*
X145637048Y-65966877D01*
X145522889Y-65966877D01*
X145522889Y-65720632D01*
X145276692Y-65720632D01*
X145276692Y-65604958D01*
X145522889Y-65604958D01*
G37*
D10*
G36*
X146328193Y-63284268D02*
G01*
X146305138Y-63262116D01*
X146284132Y-63246863D01*
X146264812Y-63237264D01*
X146233870Y-63228405D01*
X146203116Y-63225503D01*
X146158513Y-63229705D01*
X146119585Y-63241807D01*
X146084745Y-63261341D01*
X146055398Y-63286979D01*
X146031696Y-63318041D01*
X146013853Y-63354280D01*
X146002901Y-63393811D01*
X145999161Y-63437042D01*
X146002933Y-63483414D01*
X146013853Y-63524860D01*
X146031769Y-63562573D01*
X146055398Y-63594249D01*
X146084755Y-63620277D01*
X146119585Y-63640228D01*
X146158533Y-63652633D01*
X146203116Y-63656934D01*
X146238475Y-63652693D01*
X146273202Y-63639751D01*
X146294561Y-63626573D01*
X146315648Y-63608487D01*
X146336583Y-63584760D01*
X146423887Y-63646896D01*
X146394564Y-63681074D01*
X146361939Y-63707809D01*
X146325665Y-63727789D01*
X146286404Y-63741783D01*
X146245409Y-63750217D01*
X146202274Y-63753068D01*
X146156826Y-63750505D01*
X146114869Y-63743035D01*
X146075951Y-63730866D01*
X146039015Y-63713790D01*
X146006124Y-63692857D01*
X145976886Y-63667998D01*
X145951384Y-63639320D01*
X145929721Y-63606893D01*
X145911820Y-63570325D01*
X145898967Y-63531677D01*
X145891058Y-63489658D01*
X145888336Y-63443747D01*
X145891062Y-63396700D01*
X145898977Y-63353707D01*
X145911820Y-63314237D01*
X145929768Y-63276822D01*
X145951439Y-63243847D01*
X145976886Y-63214879D01*
X146006154Y-63189760D01*
X146039045Y-63168697D01*
X146075951Y-63151608D01*
X146114870Y-63139419D01*
X146156827Y-63131936D01*
X146202274Y-63129369D01*
X146242132Y-63131827D01*
X146279359Y-63139035D01*
X146314344Y-63150875D01*
X146346956Y-63167894D01*
X146378922Y-63191892D01*
X146410478Y-63223818D01*
X146328193Y-63284268D01*
G37*
G36*
X146653928Y-63261407D02*
G01*
X146542296Y-63364648D01*
X146483531Y-63295003D01*
X146663160Y-63145782D01*
X146754678Y-63145782D01*
X146754678Y-63739000D01*
X146653928Y-63739000D01*
X146653928Y-63261407D01*
G37*
G36*
X148402206Y-60750535D02*
G01*
X148400057Y-60785839D01*
X148393832Y-60817894D01*
X148383741Y-60847146D01*
X148361712Y-60887283D01*
X148333366Y-60920345D01*
X148298825Y-60946835D01*
X148257822Y-60966764D01*
X148212843Y-60978896D01*
X148162970Y-60983067D01*
X148113093Y-60978897D01*
X148068082Y-60966764D01*
X148027033Y-60946858D01*
X147992135Y-60920345D01*
X147972314Y-60898999D01*
X147955548Y-60874705D01*
X147941760Y-60847146D01*
X147931915Y-60817915D01*
X147925834Y-60785858D01*
X147923735Y-60750535D01*
X147923735Y-60375781D01*
X148029504Y-60375781D01*
X148029504Y-60746835D01*
X148031127Y-60768747D01*
X148036208Y-60792411D01*
X148045106Y-60815225D01*
X148058447Y-60836301D01*
X148076184Y-60854320D01*
X148099589Y-60869311D01*
X148127123Y-60878778D01*
X148162970Y-60882243D01*
X148198817Y-60878778D01*
X148226351Y-60869311D01*
X148249749Y-60854318D01*
X148267457Y-60836301D01*
X148280819Y-60815222D01*
X148289696Y-60792411D01*
X148294805Y-60768745D01*
X148296437Y-60746835D01*
X148296437Y-60375781D01*
X148402206Y-60375781D01*
X148402206Y-60750535D01*
G37*
G36*
X148691011Y-60491406D02*
G01*
X148579380Y-60594647D01*
X148520615Y-60525002D01*
X148700244Y-60375781D01*
X148791761Y-60375781D01*
X148791761Y-60968999D01*
X148691011Y-60968999D01*
X148691011Y-60491406D01*
G37*
G36*
X150575864Y-62655734D02*
G01*
X150462548Y-62692664D01*
X150440712Y-62625692D01*
X150554871Y-62588983D01*
X150482698Y-62490797D01*
X150540620Y-62448812D01*
X150612794Y-62547877D01*
X150683319Y-62451340D01*
X150739556Y-62494131D01*
X150667382Y-62588983D01*
X150782347Y-62628184D01*
X150760548Y-62695192D01*
X150646389Y-62655734D01*
X150646389Y-62774217D01*
X150575864Y-62774217D01*
X150575864Y-62655734D01*
G37*
G36*
X143362231Y-61097804D02*
G01*
X143402573Y-61103769D01*
X143440694Y-61114735D01*
X143473501Y-61131027D01*
X143501335Y-61153572D01*
X143523033Y-61183014D01*
X143532896Y-61205562D01*
X143539224Y-61232909D01*
X143541498Y-61266069D01*
X143537313Y-61307852D01*
X143525341Y-61343505D01*
X143505814Y-61374293D01*
X143486603Y-61393514D01*
X143463636Y-61408704D01*
X143436327Y-61419979D01*
X143403855Y-61427122D01*
X143561648Y-61689000D01*
X143434043Y-61689000D01*
X143296400Y-61438113D01*
X143219171Y-61438113D01*
X143219171Y-61689000D01*
X143113401Y-61689000D01*
X143113401Y-61346669D01*
X143219171Y-61346669D01*
X143301420Y-61346669D01*
X143346739Y-61344617D01*
X143368740Y-61341015D01*
X143388285Y-61334652D01*
X143405448Y-61324633D01*
X143418949Y-61310545D01*
X143427475Y-61292234D01*
X143430710Y-61265299D01*
X143427768Y-61241256D01*
X143419792Y-61223790D01*
X143407208Y-61209986D01*
X143391252Y-61200123D01*
X143372943Y-61193636D01*
X143352198Y-61189718D01*
X143310652Y-61187227D01*
X143219171Y-61187227D01*
X143219171Y-61346669D01*
X143113401Y-61346669D01*
X143113401Y-61095782D01*
X143319884Y-61095782D01*
X143362231Y-61097804D01*
G37*
G36*
X143869238Y-61087623D02*
G01*
X143909474Y-61097944D01*
X143946111Y-61115034D01*
X143976629Y-61137841D01*
X144001444Y-61166580D01*
X144020300Y-61201698D01*
X144031813Y-61241077D01*
X144035833Y-61286548D01*
X144031823Y-61332079D01*
X144020300Y-61371838D01*
X144002865Y-61409789D01*
X143980439Y-61449544D01*
X143828471Y-61689000D01*
X143705922Y-61689000D01*
X143848621Y-61469694D01*
X143846973Y-61468009D01*
X143822206Y-61475482D01*
X143791578Y-61477974D01*
X143753401Y-61474107D01*
X143719368Y-61462843D01*
X143688755Y-61444897D01*
X143662691Y-61421590D01*
X143641589Y-61393550D01*
X143625762Y-61360994D01*
X143616046Y-61325645D01*
X143612883Y-61289223D01*
X143713506Y-61289223D01*
X143715633Y-61311454D01*
X143721896Y-61331904D01*
X143731907Y-61350567D01*
X143744977Y-61366562D01*
X143760864Y-61379739D01*
X143779378Y-61389826D01*
X143799717Y-61396118D01*
X143821803Y-61398253D01*
X143843853Y-61396118D01*
X143864155Y-61389826D01*
X143882700Y-61379737D01*
X143898593Y-61366562D01*
X143911663Y-61350567D01*
X143921674Y-61331904D01*
X143927937Y-61311454D01*
X143930064Y-61289223D01*
X143927937Y-61266992D01*
X143921674Y-61246541D01*
X143911663Y-61227879D01*
X143898593Y-61211883D01*
X143882699Y-61198717D01*
X143864155Y-61188656D01*
X143843851Y-61182336D01*
X143821803Y-61180193D01*
X143799719Y-61182336D01*
X143779378Y-61188656D01*
X143760866Y-61198715D01*
X143744977Y-61211883D01*
X143731907Y-61227879D01*
X143721896Y-61246541D01*
X143715633Y-61266992D01*
X143713506Y-61289223D01*
X143612883Y-61289223D01*
X143612756Y-61287757D01*
X143616859Y-61242941D01*
X143628693Y-61203603D01*
X143647865Y-61168318D01*
X143672766Y-61139197D01*
X143703329Y-61115910D01*
X143739921Y-61098384D01*
X143780101Y-61087715D01*
X143824295Y-61084059D01*
X143869238Y-61087623D01*
G37*
G36*
X143362231Y-59597804D02*
G01*
X143402573Y-59603769D01*
X143440694Y-59614735D01*
X143473501Y-59631027D01*
X143501335Y-59653572D01*
X143523033Y-59683014D01*
X143532896Y-59705562D01*
X143539224Y-59732909D01*
X143541498Y-59766069D01*
X143537313Y-59807852D01*
X143525341Y-59843505D01*
X143505814Y-59874293D01*
X143486603Y-59893514D01*
X143463636Y-59908704D01*
X143436327Y-59919979D01*
X143403855Y-59927122D01*
X143561648Y-60189000D01*
X143434043Y-60189000D01*
X143296400Y-59938113D01*
X143219171Y-59938113D01*
X143219171Y-60189000D01*
X143113401Y-60189000D01*
X143113401Y-59846669D01*
X143219171Y-59846669D01*
X143301420Y-59846669D01*
X143346739Y-59844617D01*
X143368740Y-59841015D01*
X143388285Y-59834652D01*
X143405448Y-59824633D01*
X143418949Y-59810545D01*
X143427475Y-59792234D01*
X143430710Y-59765299D01*
X143427768Y-59741256D01*
X143419792Y-59723790D01*
X143407208Y-59709986D01*
X143391252Y-59700123D01*
X143372943Y-59693636D01*
X143352198Y-59689718D01*
X143310652Y-59687227D01*
X143219171Y-59687227D01*
X143219171Y-59846669D01*
X143113401Y-59846669D01*
X143113401Y-59595782D01*
X143319884Y-59595782D01*
X143362231Y-59597804D01*
G37*
G36*
X143799968Y-59815088D02*
G01*
X143801617Y-59816773D01*
X143826383Y-59809300D01*
X143857011Y-59806808D01*
X143895192Y-59810657D01*
X143929221Y-59821866D01*
X143959840Y-59839697D01*
X143985898Y-59862862D01*
X144007004Y-59890754D01*
X144022827Y-59923129D01*
X144032544Y-59958254D01*
X144035833Y-59995889D01*
X144031723Y-60040422D01*
X144019860Y-60079566D01*
X144000715Y-60114636D01*
X143975786Y-60143607D01*
X143945259Y-60166728D01*
X143908632Y-60184163D01*
X143868488Y-60194748D01*
X143824295Y-60198378D01*
X143778664Y-60194808D01*
X143738675Y-60184566D01*
X143702399Y-60167555D01*
X143671924Y-60144816D01*
X143647134Y-60116192D01*
X143628290Y-60081215D01*
X143616776Y-60041982D01*
X143612756Y-59996658D01*
X143612957Y-59994387D01*
X143718525Y-59994387D01*
X143720650Y-60016369D01*
X143726915Y-60036629D01*
X143736920Y-60055080D01*
X143749996Y-60070920D01*
X143765874Y-60083927D01*
X143784398Y-60093891D01*
X143804733Y-60100128D01*
X143826823Y-60102244D01*
X143848876Y-60100128D01*
X143869174Y-60093891D01*
X143887728Y-60083925D01*
X143903613Y-60070920D01*
X143916688Y-60055080D01*
X143926693Y-60036629D01*
X143932958Y-60016369D01*
X143935083Y-59994387D01*
X143932957Y-59972410D01*
X143926693Y-59952182D01*
X143916684Y-59933706D01*
X143903613Y-59917890D01*
X143887726Y-59904856D01*
X143869174Y-59894882D01*
X143848876Y-59888646D01*
X143826823Y-59886529D01*
X143804733Y-59888646D01*
X143784398Y-59894882D01*
X143765877Y-59904854D01*
X143749996Y-59917890D01*
X143736924Y-59933706D01*
X143726915Y-59952182D01*
X143720651Y-59972410D01*
X143718525Y-59994387D01*
X143612957Y-59994387D01*
X143616766Y-59951312D01*
X143628290Y-59911735D01*
X143645727Y-59873905D01*
X143668150Y-59834322D01*
X143820118Y-59595782D01*
X143942667Y-59595782D01*
X143799968Y-59815088D01*
G37*
G36*
X138589213Y-51094062D02*
G01*
X138586362Y-51128641D01*
X138577855Y-51161840D01*
X138563728Y-51192600D01*
X138544296Y-51219139D01*
X138519557Y-51241056D01*
X138488462Y-51258450D01*
X138453126Y-51269231D01*
X138410390Y-51273068D01*
X138364424Y-51269087D01*
X138326475Y-51257924D01*
X138294986Y-51240205D01*
X138275257Y-51222265D01*
X138258784Y-51199482D01*
X138245538Y-51171040D01*
X138235818Y-51135828D01*
X138334846Y-51112307D01*
X138343574Y-51139177D01*
X138358770Y-51159312D01*
X138372254Y-51169050D01*
X138387602Y-51174909D01*
X138405371Y-51176934D01*
X138433817Y-51173118D01*
X138453596Y-51162861D01*
X138467067Y-51146452D01*
X138475616Y-51125447D01*
X138481325Y-51097995D01*
X138483443Y-51062518D01*
X138483443Y-50665782D01*
X138589213Y-50665782D01*
X138589213Y-51094062D01*
G37*
G36*
X138936753Y-50656750D02*
G01*
X138970708Y-50664610D01*
X139002093Y-50677622D01*
X139028630Y-50694945D01*
X139050716Y-50716991D01*
X139067648Y-50743818D01*
X139078222Y-50774428D01*
X139081936Y-50810789D01*
X139079346Y-50842174D01*
X139071863Y-50870052D01*
X139059661Y-50895053D01*
X139042532Y-50916430D01*
X139020329Y-50932927D01*
X138992103Y-50944769D01*
X138992103Y-50946454D01*
X139012532Y-50952727D01*
X139032807Y-50963600D01*
X139051346Y-50977994D01*
X139067648Y-50995400D01*
X139081097Y-51015385D01*
X139091571Y-51038448D01*
X139098156Y-51063299D01*
X139100401Y-51090289D01*
X139096217Y-51132682D01*
X139084427Y-51167628D01*
X139065648Y-51198183D01*
X139041636Y-51223242D01*
X139012638Y-51242790D01*
X138977852Y-51257094D01*
X138940169Y-51265514D01*
X138899780Y-51268378D01*
X138858709Y-51265492D01*
X138821268Y-51257094D01*
X138786857Y-51242813D01*
X138757923Y-51223242D01*
X138733903Y-51198184D01*
X138715095Y-51167628D01*
X138703336Y-51132711D01*
X138699159Y-51090289D01*
X138700243Y-51077210D01*
X138799872Y-51077210D01*
X138803143Y-51104320D01*
X138812498Y-51126892D01*
X138827972Y-51145976D01*
X138848093Y-51160380D01*
X138871692Y-51169168D01*
X138899743Y-51172244D01*
X138927818Y-51169166D01*
X138951415Y-51160377D01*
X138971514Y-51145976D01*
X138987010Y-51126889D01*
X138996376Y-51104317D01*
X138999651Y-51077210D01*
X138997625Y-51057804D01*
X138991664Y-51040133D01*
X138982304Y-51024129D01*
X138970268Y-51010531D01*
X138955696Y-50999544D01*
X138938358Y-50991334D01*
X138919532Y-50986343D01*
X138899743Y-50984666D01*
X138879980Y-50986342D01*
X138861128Y-50991334D01*
X138843790Y-50999544D01*
X138829218Y-51010531D01*
X138817203Y-51024125D01*
X138807822Y-51040133D01*
X138801889Y-51057802D01*
X138799872Y-51077210D01*
X138700243Y-51077210D01*
X138701393Y-51063324D01*
X138707951Y-51038448D01*
X138718446Y-51015381D01*
X138731875Y-50995400D01*
X138748202Y-50977997D01*
X138766716Y-50963637D01*
X138787021Y-50952762D01*
X138807456Y-50946491D01*
X138807456Y-50944806D01*
X138779228Y-50932965D01*
X138757012Y-50916468D01*
X138739862Y-50895090D01*
X138727681Y-50870091D01*
X138720210Y-50842213D01*
X138718514Y-50821634D01*
X138818337Y-50821634D01*
X138820855Y-50844333D01*
X138828118Y-50863869D01*
X138840136Y-50880948D01*
X138856104Y-50894066D01*
X138875620Y-50902100D01*
X138899743Y-50904945D01*
X138916125Y-50903350D01*
X138931250Y-50898644D01*
X138945095Y-50891053D01*
X138957262Y-50880948D01*
X138967305Y-50868683D01*
X138974884Y-50854460D01*
X138979582Y-50838815D01*
X138981186Y-50821634D01*
X138978574Y-50800127D01*
X138970949Y-50781273D01*
X138958105Y-50764408D01*
X138941462Y-50751358D01*
X138922270Y-50743527D01*
X138899743Y-50740814D01*
X138875058Y-50743649D01*
X138855444Y-50751582D01*
X138839733Y-50764408D01*
X138827889Y-50781154D01*
X138820784Y-50800016D01*
X138818337Y-50821634D01*
X138718514Y-50821634D01*
X138717623Y-50810826D01*
X138721329Y-50774431D01*
X138731875Y-50743818D01*
X138748835Y-50716989D01*
X138770929Y-50694945D01*
X138797467Y-50677622D01*
X138828852Y-50664610D01*
X138862807Y-50656750D01*
X138899780Y-50654059D01*
X138936753Y-50656750D01*
G37*
G36*
X145724213Y-71074062D02*
G01*
X145721362Y-71108641D01*
X145712855Y-71141840D01*
X145698728Y-71172600D01*
X145679296Y-71199139D01*
X145654557Y-71221056D01*
X145623462Y-71238450D01*
X145588126Y-71249231D01*
X145545390Y-71253068D01*
X145499424Y-71249087D01*
X145461475Y-71237924D01*
X145429986Y-71220205D01*
X145410257Y-71202265D01*
X145393784Y-71179482D01*
X145380538Y-71151040D01*
X145370818Y-71115828D01*
X145469846Y-71092307D01*
X145478574Y-71119177D01*
X145493770Y-71139312D01*
X145507254Y-71149050D01*
X145522602Y-71154909D01*
X145540371Y-71156934D01*
X145568817Y-71153118D01*
X145588596Y-71142861D01*
X145602067Y-71126452D01*
X145610616Y-71105447D01*
X145616325Y-71077995D01*
X145618443Y-71042518D01*
X145618443Y-70645782D01*
X145724213Y-70645782D01*
X145724213Y-71074062D01*
G37*
G36*
X146210232Y-70737227D02*
G01*
X145970996Y-70737227D01*
X145968468Y-70852705D01*
X145998253Y-70846770D01*
X146032252Y-70845085D01*
X146074679Y-70848652D01*
X146112412Y-70858970D01*
X146146536Y-70876013D01*
X146174951Y-70898867D01*
X146197989Y-70927216D01*
X146215654Y-70961039D01*
X146226533Y-70998706D01*
X146230345Y-71042518D01*
X146226105Y-71088770D01*
X146213968Y-71128651D01*
X146194311Y-71164156D01*
X146168649Y-71193351D01*
X146137361Y-71216592D01*
X146100249Y-71234090D01*
X146059723Y-71244739D01*
X146015472Y-71248378D01*
X145968918Y-71244392D01*
X145928884Y-71233019D01*
X145894169Y-71214673D01*
X145871586Y-71196170D01*
X145852287Y-71173293D01*
X145836136Y-71145481D01*
X145823241Y-71111944D01*
X145929010Y-71083405D01*
X145937496Y-71103526D01*
X145948932Y-71120156D01*
X145963412Y-71133780D01*
X145980543Y-71143741D01*
X146001243Y-71150009D01*
X146026390Y-71152244D01*
X146048365Y-71150316D01*
X146067899Y-71144734D01*
X146085621Y-71135576D01*
X146100652Y-71123412D01*
X146112933Y-71108484D01*
X146122084Y-71091208D01*
X146127703Y-71072201D01*
X146129631Y-71051091D01*
X146126621Y-71021662D01*
X146118274Y-70998408D01*
X146104894Y-70978570D01*
X146087646Y-70962871D01*
X146067139Y-70951058D01*
X146043169Y-70942794D01*
X146017579Y-70938120D01*
X145990303Y-70936529D01*
X145957711Y-70938410D01*
X145925237Y-70944076D01*
X145893924Y-70953227D01*
X145866069Y-70965069D01*
X145871931Y-70645782D01*
X146210232Y-70645782D01*
X146210232Y-70737227D01*
G37*
G36*
X146228193Y-56304268D02*
G01*
X146205138Y-56282116D01*
X146184132Y-56266863D01*
X146164812Y-56257264D01*
X146133870Y-56248405D01*
X146103116Y-56245503D01*
X146058513Y-56249705D01*
X146019585Y-56261807D01*
X145984745Y-56281341D01*
X145955398Y-56306979D01*
X145931696Y-56338041D01*
X145913853Y-56374280D01*
X145902901Y-56413811D01*
X145899161Y-56457042D01*
X145902933Y-56503414D01*
X145913853Y-56544860D01*
X145931769Y-56582573D01*
X145955398Y-56614249D01*
X145984755Y-56640277D01*
X146019585Y-56660228D01*
X146058533Y-56672633D01*
X146103116Y-56676934D01*
X146138475Y-56672693D01*
X146173202Y-56659751D01*
X146194561Y-56646573D01*
X146215648Y-56628487D01*
X146236583Y-56604760D01*
X146323887Y-56666896D01*
X146294564Y-56701074D01*
X146261939Y-56727809D01*
X146225665Y-56747789D01*
X146186404Y-56761783D01*
X146145409Y-56770217D01*
X146102274Y-56773068D01*
X146056826Y-56770505D01*
X146014869Y-56763035D01*
X145975951Y-56750866D01*
X145939015Y-56733790D01*
X145906124Y-56712857D01*
X145876886Y-56687998D01*
X145851384Y-56659320D01*
X145829721Y-56626893D01*
X145811820Y-56590325D01*
X145798967Y-56551677D01*
X145791058Y-56509658D01*
X145788336Y-56463747D01*
X145791062Y-56416700D01*
X145798977Y-56373707D01*
X145811820Y-56334237D01*
X145829768Y-56296822D01*
X145851439Y-56263847D01*
X145876886Y-56234879D01*
X145906154Y-56209760D01*
X145939045Y-56188697D01*
X145975951Y-56171608D01*
X146014870Y-56159419D01*
X146056827Y-56151936D01*
X146102274Y-56149369D01*
X146142132Y-56151827D01*
X146179359Y-56159035D01*
X146214344Y-56170875D01*
X146246956Y-56187894D01*
X146278922Y-56211892D01*
X146310478Y-56243818D01*
X146228193Y-56304268D01*
G37*
G36*
X146515313Y-56402600D02*
G01*
X146541361Y-56402600D01*
X146583713Y-56400109D01*
X146603526Y-56396080D01*
X146620679Y-56389301D01*
X146635448Y-56379146D01*
X146647131Y-56365195D01*
X146654451Y-56347665D01*
X146657206Y-56322806D01*
X146654499Y-56301125D01*
X146646702Y-56282832D01*
X146633685Y-56267119D01*
X146616886Y-56255341D01*
X146596759Y-56248072D01*
X146572392Y-56245503D01*
X146543689Y-56249834D01*
X146518280Y-56262722D01*
X146497853Y-56283039D01*
X146483439Y-56310973D01*
X146376827Y-56282433D01*
X146389193Y-56251353D01*
X146405367Y-56225170D01*
X146425602Y-56202762D01*
X146449001Y-56184980D01*
X146475293Y-56171382D01*
X146504395Y-56161679D01*
X146535064Y-56155987D01*
X146567373Y-56154059D01*
X146605265Y-56156623D01*
X146640389Y-56164134D01*
X146673070Y-56176763D01*
X146700840Y-56193883D01*
X146724161Y-56216018D01*
X146742385Y-56243342D01*
X146753878Y-56274814D01*
X146757919Y-56312511D01*
X146754876Y-56343492D01*
X146745950Y-56371645D01*
X146731065Y-56397618D01*
X146710990Y-56419503D01*
X146686373Y-56435759D01*
X146656363Y-56446637D01*
X146656363Y-56448323D01*
X146692325Y-56457862D01*
X146720650Y-56474087D01*
X146742825Y-56497049D01*
X146758963Y-56525174D01*
X146768801Y-56556803D01*
X146772207Y-56592817D01*
X146767953Y-56633868D01*
X146755831Y-56668434D01*
X146736544Y-56698668D01*
X146711757Y-56723462D01*
X146682142Y-56742828D01*
X146647534Y-56757058D01*
X146610422Y-56765528D01*
X146571586Y-56768378D01*
X146535281Y-56766318D01*
X146501867Y-56760318D01*
X146470465Y-56749963D01*
X146442699Y-56735369D01*
X146418189Y-56716119D01*
X146396977Y-56691808D01*
X146380258Y-56663230D01*
X146367595Y-56628281D01*
X146475049Y-56599741D01*
X146483151Y-56623302D01*
X146494088Y-56642062D01*
X146507766Y-56656821D01*
X146524522Y-56667626D01*
X146545424Y-56674468D01*
X146571586Y-56676934D01*
X146591288Y-56675249D01*
X146609761Y-56670266D01*
X146626860Y-56662162D01*
X146641672Y-56651472D01*
X146654013Y-56638143D01*
X146663470Y-56622236D01*
X146669411Y-56604418D01*
X146671457Y-56584244D01*
X146668202Y-56557661D01*
X146659294Y-56537899D01*
X146645402Y-56521997D01*
X146628226Y-56510348D01*
X146608494Y-56502380D01*
X146585838Y-56497379D01*
X146539676Y-56494045D01*
X146515313Y-56494045D01*
X146515313Y-56402600D01*
G37*
G36*
X146202231Y-64667804D02*
G01*
X146242573Y-64673769D01*
X146280694Y-64684735D01*
X146313501Y-64701027D01*
X146341335Y-64723572D01*
X146363033Y-64753014D01*
X146372896Y-64775562D01*
X146379224Y-64802909D01*
X146381498Y-64836069D01*
X146377313Y-64877852D01*
X146365341Y-64913505D01*
X146345814Y-64944293D01*
X146326603Y-64963514D01*
X146303636Y-64978704D01*
X146276327Y-64989979D01*
X146243855Y-64997122D01*
X146401648Y-65259000D01*
X146274043Y-65259000D01*
X146136400Y-65008113D01*
X146059171Y-65008113D01*
X146059171Y-65259000D01*
X145953401Y-65259000D01*
X145953401Y-64916669D01*
X146059171Y-64916669D01*
X146141420Y-64916669D01*
X146186739Y-64914617D01*
X146208740Y-64911015D01*
X146228285Y-64904652D01*
X146245448Y-64894633D01*
X146258949Y-64880545D01*
X146267475Y-64862234D01*
X146270710Y-64835299D01*
X146267768Y-64811256D01*
X146259792Y-64793790D01*
X146247208Y-64779986D01*
X146231252Y-64770123D01*
X146212943Y-64763636D01*
X146192198Y-64759718D01*
X146150652Y-64757227D01*
X146059171Y-64757227D01*
X146059171Y-64916669D01*
X145953401Y-64916669D01*
X145953401Y-64665782D01*
X146159884Y-64665782D01*
X146202231Y-64667804D01*
G37*
G36*
X146640774Y-64781407D02*
G01*
X146529143Y-64884648D01*
X146470378Y-64815003D01*
X146650006Y-64665782D01*
X146741524Y-64665782D01*
X146741524Y-65259000D01*
X146640774Y-65259000D01*
X146640774Y-64781407D01*
G37*
G36*
X143342231Y-58037804D02*
G01*
X143382573Y-58043769D01*
X143420694Y-58054735D01*
X143453501Y-58071027D01*
X143481335Y-58093572D01*
X143503033Y-58123014D01*
X143512896Y-58145562D01*
X143519224Y-58172909D01*
X143521498Y-58206069D01*
X143517313Y-58247852D01*
X143505341Y-58283505D01*
X143485814Y-58314293D01*
X143466603Y-58333514D01*
X143443636Y-58348704D01*
X143416327Y-58359979D01*
X143383855Y-58367122D01*
X143541648Y-58629000D01*
X143414043Y-58629000D01*
X143276400Y-58378113D01*
X143199171Y-58378113D01*
X143199171Y-58629000D01*
X143093401Y-58629000D01*
X143093401Y-58286669D01*
X143199171Y-58286669D01*
X143281420Y-58286669D01*
X143326739Y-58284617D01*
X143348740Y-58281015D01*
X143368285Y-58274652D01*
X143385448Y-58264633D01*
X143398949Y-58250545D01*
X143407475Y-58232234D01*
X143410710Y-58205299D01*
X143407768Y-58181256D01*
X143399792Y-58163790D01*
X143387208Y-58149986D01*
X143371252Y-58140123D01*
X143352943Y-58133636D01*
X143332198Y-58129718D01*
X143290652Y-58127227D01*
X143199171Y-58127227D01*
X143199171Y-58286669D01*
X143093401Y-58286669D01*
X143093401Y-58035782D01*
X143299884Y-58035782D01*
X143342231Y-58037804D01*
G37*
G36*
X143937761Y-58417974D02*
G01*
X144024223Y-58417974D01*
X144024223Y-58509418D01*
X143937761Y-58509418D01*
X143937761Y-58629000D01*
X143837048Y-58629000D01*
X143837048Y-58509418D01*
X143584366Y-58509418D01*
X143584366Y-58417974D01*
X143686765Y-58417974D01*
X143837048Y-58417974D01*
X143837048Y-58178225D01*
X143835362Y-58178225D01*
X143686765Y-58417974D01*
X143584366Y-58417974D01*
X143584366Y-58409474D01*
X143823602Y-58035782D01*
X143937761Y-58035782D01*
X143937761Y-58417974D01*
G37*
G36*
X136452231Y-68212804D02*
G01*
X136492573Y-68218769D01*
X136530694Y-68229735D01*
X136563501Y-68246027D01*
X136591335Y-68268572D01*
X136613033Y-68298014D01*
X136622896Y-68320562D01*
X136629224Y-68347909D01*
X136631498Y-68381069D01*
X136627313Y-68422852D01*
X136615341Y-68458505D01*
X136595814Y-68489293D01*
X136576603Y-68508514D01*
X136553636Y-68523704D01*
X136526327Y-68534979D01*
X136493855Y-68542122D01*
X136651648Y-68804000D01*
X136524043Y-68804000D01*
X136386400Y-68553113D01*
X136309171Y-68553113D01*
X136309171Y-68804000D01*
X136203401Y-68804000D01*
X136203401Y-68461669D01*
X136309171Y-68461669D01*
X136391420Y-68461669D01*
X136436739Y-68459617D01*
X136458740Y-68456015D01*
X136478285Y-68449652D01*
X136495448Y-68439633D01*
X136508949Y-68425545D01*
X136517475Y-68407234D01*
X136520710Y-68380299D01*
X136517768Y-68356256D01*
X136509792Y-68338790D01*
X136497208Y-68324986D01*
X136481252Y-68315123D01*
X136462943Y-68308636D01*
X136442198Y-68304718D01*
X136400652Y-68302227D01*
X136309171Y-68302227D01*
X136309171Y-68461669D01*
X136203401Y-68461669D01*
X136203401Y-68210782D01*
X136409884Y-68210782D01*
X136452231Y-68212804D01*
G37*
G36*
X136715359Y-68697351D02*
G01*
X136946205Y-68474015D01*
X136967161Y-68452620D01*
X136986871Y-68428696D01*
X137001563Y-68402244D01*
X137005985Y-68388084D01*
X137007461Y-68373265D01*
X137005609Y-68355555D01*
X137000317Y-68340549D01*
X136992012Y-68327269D01*
X136981449Y-68316185D01*
X136968847Y-68307322D01*
X136954155Y-68300652D01*
X136938236Y-68296580D01*
X136920999Y-68295193D01*
X136896653Y-68297764D01*
X136876221Y-68305088D01*
X136858864Y-68317028D01*
X136845003Y-68332946D01*
X136835216Y-68352280D01*
X136829518Y-68375793D01*
X136723749Y-68367403D01*
X136730547Y-68327982D01*
X136743459Y-68294717D01*
X136762402Y-68265569D01*
X136785847Y-68242070D01*
X136813711Y-68223649D01*
X136846297Y-68210013D01*
X136881668Y-68201872D01*
X136920999Y-68199059D01*
X136960405Y-68201754D01*
X136996140Y-68209573D01*
X137029120Y-68222747D01*
X137056994Y-68240605D01*
X137080120Y-68263789D01*
X137098100Y-68293031D01*
X137109262Y-68326730D01*
X137113230Y-68367696D01*
X137110217Y-68404451D01*
X137101583Y-68436485D01*
X137087622Y-68464636D01*
X137058875Y-68503748D01*
X137021749Y-68542232D01*
X136837908Y-68712555D01*
X137113230Y-68712555D01*
X137113230Y-68804000D01*
X136715359Y-68804000D01*
X136715359Y-68697351D01*
G37*
G36*
X138872231Y-63717804D02*
G01*
X138912573Y-63723769D01*
X138950694Y-63734735D01*
X138983501Y-63751027D01*
X139011335Y-63773572D01*
X139033033Y-63803014D01*
X139042896Y-63825562D01*
X139049224Y-63852909D01*
X139051498Y-63886069D01*
X139047313Y-63927852D01*
X139035341Y-63963505D01*
X139015814Y-63994293D01*
X138996603Y-64013514D01*
X138973636Y-64028704D01*
X138946327Y-64039979D01*
X138913855Y-64047122D01*
X139071648Y-64309000D01*
X138944043Y-64309000D01*
X138806400Y-64058113D01*
X138729171Y-64058113D01*
X138729171Y-64309000D01*
X138623401Y-64309000D01*
X138623401Y-63966669D01*
X138729171Y-63966669D01*
X138811420Y-63966669D01*
X138856739Y-63964617D01*
X138878740Y-63961015D01*
X138898285Y-63954652D01*
X138915448Y-63944633D01*
X138928949Y-63930545D01*
X138937475Y-63912234D01*
X138940710Y-63885299D01*
X138937768Y-63861256D01*
X138929792Y-63843790D01*
X138917208Y-63829986D01*
X138901252Y-63820123D01*
X138882943Y-63813636D01*
X138862198Y-63809718D01*
X138820652Y-63807227D01*
X138729171Y-63807227D01*
X138729171Y-63966669D01*
X138623401Y-63966669D01*
X138623401Y-63715782D01*
X138829884Y-63715782D01*
X138872231Y-63717804D01*
G37*
G36*
X139371268Y-63706750D02*
G01*
X139405223Y-63714610D01*
X139436608Y-63727622D01*
X139463145Y-63744945D01*
X139485231Y-63766991D01*
X139502163Y-63793818D01*
X139512737Y-63824428D01*
X139516451Y-63860789D01*
X139513861Y-63892174D01*
X139506378Y-63920052D01*
X139494176Y-63945053D01*
X139477047Y-63966430D01*
X139454844Y-63982927D01*
X139426618Y-63994769D01*
X139426618Y-63996454D01*
X139447047Y-64002727D01*
X139467322Y-64013600D01*
X139485861Y-64027994D01*
X139502163Y-64045400D01*
X139515612Y-64065385D01*
X139526086Y-64088448D01*
X139532671Y-64113299D01*
X139534916Y-64140289D01*
X139530732Y-64182682D01*
X139518942Y-64217628D01*
X139500163Y-64248183D01*
X139476151Y-64273242D01*
X139447153Y-64292790D01*
X139412367Y-64307094D01*
X139374684Y-64315514D01*
X139334295Y-64318378D01*
X139293224Y-64315492D01*
X139255783Y-64307094D01*
X139221372Y-64292813D01*
X139192438Y-64273242D01*
X139168418Y-64248184D01*
X139149610Y-64217628D01*
X139137851Y-64182711D01*
X139133674Y-64140289D01*
X139134758Y-64127210D01*
X139234387Y-64127210D01*
X139237658Y-64154320D01*
X139247013Y-64176892D01*
X139262487Y-64195976D01*
X139282608Y-64210380D01*
X139306207Y-64219168D01*
X139334258Y-64222244D01*
X139362333Y-64219166D01*
X139385930Y-64210377D01*
X139406029Y-64195976D01*
X139421525Y-64176889D01*
X139430891Y-64154317D01*
X139434166Y-64127210D01*
X139432140Y-64107804D01*
X139426179Y-64090133D01*
X139416819Y-64074129D01*
X139404783Y-64060531D01*
X139390211Y-64049544D01*
X139372873Y-64041334D01*
X139354047Y-64036343D01*
X139334258Y-64034666D01*
X139314495Y-64036342D01*
X139295643Y-64041334D01*
X139278305Y-64049544D01*
X139263733Y-64060531D01*
X139251718Y-64074125D01*
X139242337Y-64090133D01*
X139236404Y-64107802D01*
X139234387Y-64127210D01*
X139134758Y-64127210D01*
X139135908Y-64113324D01*
X139142466Y-64088448D01*
X139152961Y-64065381D01*
X139166390Y-64045400D01*
X139182717Y-64027997D01*
X139201231Y-64013637D01*
X139221536Y-64002762D01*
X139241971Y-63996491D01*
X139241971Y-63994806D01*
X139213743Y-63982965D01*
X139191527Y-63966468D01*
X139174377Y-63945090D01*
X139162196Y-63920091D01*
X139154725Y-63892213D01*
X139153029Y-63871634D01*
X139252852Y-63871634D01*
X139255370Y-63894333D01*
X139262633Y-63913869D01*
X139274651Y-63930948D01*
X139290619Y-63944066D01*
X139310135Y-63952100D01*
X139334258Y-63954945D01*
X139350640Y-63953350D01*
X139365765Y-63948644D01*
X139379610Y-63941053D01*
X139391777Y-63930948D01*
X139401820Y-63918683D01*
X139409399Y-63904460D01*
X139414097Y-63888815D01*
X139415701Y-63871634D01*
X139413089Y-63850127D01*
X139405464Y-63831273D01*
X139392620Y-63814408D01*
X139375977Y-63801358D01*
X139356785Y-63793527D01*
X139334258Y-63790814D01*
X139309573Y-63793649D01*
X139289959Y-63801582D01*
X139274248Y-63814408D01*
X139262404Y-63831154D01*
X139255299Y-63850016D01*
X139252852Y-63871634D01*
X139153029Y-63871634D01*
X139152138Y-63860826D01*
X139155844Y-63824431D01*
X139166390Y-63793818D01*
X139183350Y-63766989D01*
X139205444Y-63744945D01*
X139231982Y-63727622D01*
X139263367Y-63714610D01*
X139297322Y-63706750D01*
X139334295Y-63704059D01*
X139371268Y-63706750D01*
G37*
G36*
X146218193Y-57864269D02*
G01*
X146195138Y-57842117D01*
X146174132Y-57826864D01*
X146154812Y-57817265D01*
X146123870Y-57808406D01*
X146093116Y-57805504D01*
X146048513Y-57809706D01*
X146009585Y-57821808D01*
X145974745Y-57841342D01*
X145945398Y-57866980D01*
X145921696Y-57898042D01*
X145903853Y-57934281D01*
X145892901Y-57973812D01*
X145889161Y-58017043D01*
X145892933Y-58063415D01*
X145903853Y-58104861D01*
X145921769Y-58142574D01*
X145945398Y-58174250D01*
X145974755Y-58200278D01*
X146009585Y-58220229D01*
X146048533Y-58232634D01*
X146093116Y-58236935D01*
X146128475Y-58232694D01*
X146163202Y-58219752D01*
X146184561Y-58206574D01*
X146205648Y-58188488D01*
X146226583Y-58164761D01*
X146313887Y-58226897D01*
X146284564Y-58261075D01*
X146251939Y-58287810D01*
X146215665Y-58307790D01*
X146176404Y-58321784D01*
X146135409Y-58330218D01*
X146092274Y-58333069D01*
X146046826Y-58330506D01*
X146004869Y-58323036D01*
X145965951Y-58310867D01*
X145929015Y-58293791D01*
X145896124Y-58272858D01*
X145866886Y-58247999D01*
X145841384Y-58219321D01*
X145819721Y-58186894D01*
X145801820Y-58150326D01*
X145788967Y-58111678D01*
X145781058Y-58069659D01*
X145778336Y-58023748D01*
X145781062Y-57976701D01*
X145788977Y-57933708D01*
X145801820Y-57894238D01*
X145819768Y-57856823D01*
X145841439Y-57823848D01*
X145866886Y-57794880D01*
X145896154Y-57769761D01*
X145929045Y-57748698D01*
X145965951Y-57731609D01*
X146004870Y-57719420D01*
X146046827Y-57711937D01*
X146092274Y-57709370D01*
X146132132Y-57711828D01*
X146169359Y-57719036D01*
X146204344Y-57730876D01*
X146236956Y-57747895D01*
X146268922Y-57771893D01*
X146300478Y-57803819D01*
X146218193Y-57864269D01*
G37*
G36*
X146368512Y-58212352D02*
G01*
X146599358Y-57989016D01*
X146620314Y-57967621D01*
X146640025Y-57943697D01*
X146654716Y-57917245D01*
X146659138Y-57903085D01*
X146660615Y-57888266D01*
X146658763Y-57870556D01*
X146653470Y-57855550D01*
X146645165Y-57842270D01*
X146634603Y-57831186D01*
X146622001Y-57822323D01*
X146607309Y-57815653D01*
X146591389Y-57811581D01*
X146574153Y-57810194D01*
X146549807Y-57812765D01*
X146529374Y-57820089D01*
X146512017Y-57832029D01*
X146498156Y-57847947D01*
X146488370Y-57867281D01*
X146482671Y-57890794D01*
X146376902Y-57882404D01*
X146383700Y-57842983D01*
X146396612Y-57809718D01*
X146415555Y-57780570D01*
X146439001Y-57757071D01*
X146466865Y-57738650D01*
X146499451Y-57725014D01*
X146534822Y-57716873D01*
X146574153Y-57714060D01*
X146613558Y-57716755D01*
X146649294Y-57724574D01*
X146682274Y-57737748D01*
X146710147Y-57755606D01*
X146733274Y-57778790D01*
X146751253Y-57808032D01*
X146762415Y-57841731D01*
X146766384Y-57882697D01*
X146763370Y-57919452D01*
X146754736Y-57951486D01*
X146740775Y-57979637D01*
X146712028Y-58018749D01*
X146674903Y-58057233D01*
X146491061Y-58227556D01*
X146766384Y-58227556D01*
X146766384Y-58319001D01*
X146368512Y-58319001D01*
X146368512Y-58212352D01*
G37*
G36*
X138877231Y-56957804D02*
G01*
X138917573Y-56963769D01*
X138955694Y-56974735D01*
X138988501Y-56991027D01*
X139016335Y-57013572D01*
X139038033Y-57043014D01*
X139047896Y-57065562D01*
X139054224Y-57092909D01*
X139056498Y-57126069D01*
X139052313Y-57167852D01*
X139040341Y-57203505D01*
X139020814Y-57234293D01*
X139001603Y-57253514D01*
X138978636Y-57268704D01*
X138951327Y-57279979D01*
X138918855Y-57287122D01*
X139076648Y-57549000D01*
X138949043Y-57549000D01*
X138811400Y-57298113D01*
X138734171Y-57298113D01*
X138734171Y-57549000D01*
X138628401Y-57549000D01*
X138628401Y-57206669D01*
X138734171Y-57206669D01*
X138816420Y-57206669D01*
X138861739Y-57204617D01*
X138883740Y-57201015D01*
X138903285Y-57194652D01*
X138920448Y-57184633D01*
X138933949Y-57170545D01*
X138942475Y-57152234D01*
X138945710Y-57125299D01*
X138942768Y-57101256D01*
X138934792Y-57083790D01*
X138922208Y-57069986D01*
X138906252Y-57060123D01*
X138887943Y-57053636D01*
X138867198Y-57049718D01*
X138825652Y-57047227D01*
X138734171Y-57047227D01*
X138734171Y-57206669D01*
X138628401Y-57206669D01*
X138628401Y-56955782D01*
X138834884Y-56955782D01*
X138877231Y-56957804D01*
G37*
G36*
X139514747Y-57047227D02*
G01*
X139275511Y-57047227D01*
X139272983Y-57162705D01*
X139302768Y-57156770D01*
X139336767Y-57155085D01*
X139379194Y-57158652D01*
X139416927Y-57168970D01*
X139451051Y-57186013D01*
X139479466Y-57208867D01*
X139502504Y-57237216D01*
X139520169Y-57271039D01*
X139531048Y-57308706D01*
X139534860Y-57352518D01*
X139530620Y-57398770D01*
X139518483Y-57438651D01*
X139498826Y-57474156D01*
X139473164Y-57503351D01*
X139441876Y-57526592D01*
X139404764Y-57544090D01*
X139364238Y-57554739D01*
X139319987Y-57558378D01*
X139273433Y-57554392D01*
X139233399Y-57543019D01*
X139198684Y-57524673D01*
X139176101Y-57506170D01*
X139156802Y-57483293D01*
X139140651Y-57455481D01*
X139127756Y-57421944D01*
X139233525Y-57393405D01*
X139242011Y-57413526D01*
X139253447Y-57430156D01*
X139267927Y-57443780D01*
X139285058Y-57453741D01*
X139305758Y-57460009D01*
X139330905Y-57462244D01*
X139352880Y-57460316D01*
X139372414Y-57454734D01*
X139390136Y-57445576D01*
X139405167Y-57433412D01*
X139417448Y-57418484D01*
X139426599Y-57401208D01*
X139432218Y-57382201D01*
X139434146Y-57361091D01*
X139431136Y-57331662D01*
X139422789Y-57308408D01*
X139409409Y-57288570D01*
X139392161Y-57272871D01*
X139371654Y-57261058D01*
X139347684Y-57252794D01*
X139322094Y-57248120D01*
X139294818Y-57246529D01*
X139262226Y-57248410D01*
X139229752Y-57254076D01*
X139198439Y-57263227D01*
X139170584Y-57275069D01*
X139176446Y-56955782D01*
X139514747Y-56955782D01*
X139514747Y-57047227D01*
G37*
G36*
X146429213Y-51084062D02*
G01*
X146426362Y-51118641D01*
X146417855Y-51151840D01*
X146403728Y-51182600D01*
X146384296Y-51209139D01*
X146359557Y-51231056D01*
X146328462Y-51248450D01*
X146293126Y-51259231D01*
X146250390Y-51263068D01*
X146204424Y-51259087D01*
X146166475Y-51247924D01*
X146134986Y-51230205D01*
X146115257Y-51212265D01*
X146098784Y-51189482D01*
X146085538Y-51161040D01*
X146075818Y-51125828D01*
X146174846Y-51102307D01*
X146183574Y-51129177D01*
X146198770Y-51149312D01*
X146212254Y-51159050D01*
X146227602Y-51164909D01*
X146245371Y-51166934D01*
X146273817Y-51163118D01*
X146293596Y-51152861D01*
X146307067Y-51136452D01*
X146315616Y-51115447D01*
X146321325Y-51087995D01*
X146323443Y-51052518D01*
X146323443Y-50655782D01*
X146429213Y-50655782D01*
X146429213Y-51084062D01*
G37*
G36*
X146784723Y-50647623D02*
G01*
X146824959Y-50657944D01*
X146861596Y-50675034D01*
X146892114Y-50697841D01*
X146916929Y-50726580D01*
X146935785Y-50761698D01*
X146947298Y-50801077D01*
X146951318Y-50846548D01*
X146947308Y-50892079D01*
X146935785Y-50931838D01*
X146918350Y-50969789D01*
X146895924Y-51009544D01*
X146743956Y-51249000D01*
X146621407Y-51249000D01*
X146764106Y-51029694D01*
X146762458Y-51028009D01*
X146737691Y-51035482D01*
X146707063Y-51037974D01*
X146668886Y-51034107D01*
X146634853Y-51022843D01*
X146604240Y-51004897D01*
X146578176Y-50981590D01*
X146557074Y-50953550D01*
X146541247Y-50920994D01*
X146531531Y-50885645D01*
X146528368Y-50849223D01*
X146628991Y-50849223D01*
X146631118Y-50871454D01*
X146637381Y-50891904D01*
X146647392Y-50910567D01*
X146660462Y-50926562D01*
X146676349Y-50939739D01*
X146694863Y-50949826D01*
X146715202Y-50956118D01*
X146737288Y-50958253D01*
X146759338Y-50956118D01*
X146779640Y-50949826D01*
X146798185Y-50939737D01*
X146814078Y-50926562D01*
X146827148Y-50910567D01*
X146837159Y-50891904D01*
X146843422Y-50871454D01*
X146845549Y-50849223D01*
X146843422Y-50826992D01*
X146837159Y-50806541D01*
X146827148Y-50787879D01*
X146814078Y-50771883D01*
X146798184Y-50758717D01*
X146779640Y-50748656D01*
X146759336Y-50742336D01*
X146737288Y-50740193D01*
X146715204Y-50742336D01*
X146694863Y-50748656D01*
X146676350Y-50758715D01*
X146660462Y-50771883D01*
X146647392Y-50787879D01*
X146637381Y-50806541D01*
X146631118Y-50826992D01*
X146628991Y-50849223D01*
X146528368Y-50849223D01*
X146528241Y-50847757D01*
X146532344Y-50802941D01*
X146544178Y-50763603D01*
X146563350Y-50728318D01*
X146588251Y-50699197D01*
X146618814Y-50675910D01*
X146655406Y-50658384D01*
X146695586Y-50647715D01*
X146739780Y-50644059D01*
X146784723Y-50647623D01*
G37*
G36*
X130984213Y-60794062D02*
G01*
X130981362Y-60828641D01*
X130972855Y-60861840D01*
X130958728Y-60892600D01*
X130939296Y-60919139D01*
X130914557Y-60941056D01*
X130883462Y-60958450D01*
X130848126Y-60969231D01*
X130805390Y-60973068D01*
X130759424Y-60969087D01*
X130721475Y-60957924D01*
X130689986Y-60940205D01*
X130670257Y-60922265D01*
X130653784Y-60899482D01*
X130640538Y-60871040D01*
X130630818Y-60835828D01*
X130729846Y-60812307D01*
X130738574Y-60839177D01*
X130753770Y-60859312D01*
X130767254Y-60869050D01*
X130782602Y-60874909D01*
X130800371Y-60876934D01*
X130828817Y-60873118D01*
X130848596Y-60862861D01*
X130862067Y-60846452D01*
X130870616Y-60825447D01*
X130876325Y-60797995D01*
X130878443Y-60762518D01*
X130878443Y-60365782D01*
X130984213Y-60365782D01*
X130984213Y-60794062D01*
G37*
G36*
X131271259Y-60481407D02*
G01*
X131159628Y-60584648D01*
X131100863Y-60515003D01*
X131280491Y-60365782D01*
X131372009Y-60365782D01*
X131372009Y-60959000D01*
X131271259Y-60959000D01*
X131271259Y-60481407D01*
G37*
G36*
X136073825Y-57184268D02*
G01*
X136050770Y-57162116D01*
X136029764Y-57146863D01*
X136010444Y-57137264D01*
X135979502Y-57128405D01*
X135948748Y-57125503D01*
X135904145Y-57129705D01*
X135865217Y-57141807D01*
X135830377Y-57161341D01*
X135801030Y-57186979D01*
X135777328Y-57218041D01*
X135759485Y-57254280D01*
X135748533Y-57293811D01*
X135744793Y-57337042D01*
X135748565Y-57383414D01*
X135759485Y-57424860D01*
X135777401Y-57462573D01*
X135801030Y-57494249D01*
X135830387Y-57520277D01*
X135865217Y-57540228D01*
X135904165Y-57552633D01*
X135948748Y-57556934D01*
X135984107Y-57552693D01*
X136018834Y-57539751D01*
X136040193Y-57526573D01*
X136061280Y-57508487D01*
X136082215Y-57484760D01*
X136169519Y-57546896D01*
X136140196Y-57581074D01*
X136107571Y-57607809D01*
X136071297Y-57627789D01*
X136032036Y-57641783D01*
X135991041Y-57650217D01*
X135947906Y-57653068D01*
X135902458Y-57650505D01*
X135860501Y-57643035D01*
X135821583Y-57630866D01*
X135784647Y-57613790D01*
X135751756Y-57592857D01*
X135722518Y-57567998D01*
X135697016Y-57539320D01*
X135675353Y-57506893D01*
X135657452Y-57470325D01*
X135644599Y-57431677D01*
X135636690Y-57389658D01*
X135633968Y-57343747D01*
X135636694Y-57296700D01*
X135644609Y-57253707D01*
X135657452Y-57214237D01*
X135675400Y-57176822D01*
X135697071Y-57143847D01*
X135722518Y-57114879D01*
X135751786Y-57089760D01*
X135784677Y-57068697D01*
X135821583Y-57051608D01*
X135860502Y-57039419D01*
X135902459Y-57031936D01*
X135947906Y-57029369D01*
X135987764Y-57031827D01*
X136024991Y-57039035D01*
X136059976Y-57050875D01*
X136092588Y-57067894D01*
X136124554Y-57091892D01*
X136156110Y-57123818D01*
X136073825Y-57184268D01*
G37*
G36*
X136489753Y-57047804D02*
G01*
X136530095Y-57053769D01*
X136568216Y-57064735D01*
X136601023Y-57081027D01*
X136628857Y-57103572D01*
X136650556Y-57133014D01*
X136660419Y-57155562D01*
X136666747Y-57182909D01*
X136669020Y-57216069D01*
X136664835Y-57257852D01*
X136652863Y-57293505D01*
X136633337Y-57324293D01*
X136614125Y-57343514D01*
X136591158Y-57358704D01*
X136563849Y-57369979D01*
X136531377Y-57377122D01*
X136689170Y-57639000D01*
X136561566Y-57639000D01*
X136423923Y-57388113D01*
X136346693Y-57388113D01*
X136346693Y-57639000D01*
X136240924Y-57639000D01*
X136240924Y-57296669D01*
X136346693Y-57296669D01*
X136428942Y-57296669D01*
X136474261Y-57294617D01*
X136496262Y-57291015D01*
X136515807Y-57284652D01*
X136532970Y-57274633D01*
X136546472Y-57260545D01*
X136554998Y-57242234D01*
X136558232Y-57215299D01*
X136555290Y-57191256D01*
X136547314Y-57173790D01*
X136534730Y-57159986D01*
X136518774Y-57150123D01*
X136500466Y-57143636D01*
X136479720Y-57139718D01*
X136438174Y-57137227D01*
X136346693Y-57137227D01*
X136346693Y-57296669D01*
X136240924Y-57296669D01*
X136240924Y-57045782D01*
X136447407Y-57045782D01*
X136489753Y-57047804D01*
G37*
G36*
X136752881Y-57532351D02*
G01*
X136983727Y-57309015D01*
X137004683Y-57287620D01*
X137024394Y-57263696D01*
X137039085Y-57237244D01*
X137043507Y-57223084D01*
X137044983Y-57208265D01*
X137043132Y-57190555D01*
X137037839Y-57175549D01*
X137029534Y-57162269D01*
X137018972Y-57151185D01*
X137006370Y-57142322D01*
X136991677Y-57135652D01*
X136975758Y-57131580D01*
X136958521Y-57130193D01*
X136934176Y-57132764D01*
X136913743Y-57140088D01*
X136896386Y-57152028D01*
X136882525Y-57167946D01*
X136872739Y-57187280D01*
X136867040Y-57210793D01*
X136761271Y-57202403D01*
X136768069Y-57162982D01*
X136780981Y-57129717D01*
X136799924Y-57100569D01*
X136823370Y-57077070D01*
X136851234Y-57058649D01*
X136883820Y-57045013D01*
X136919191Y-57036872D01*
X136958521Y-57034059D01*
X136997927Y-57036754D01*
X137033663Y-57044573D01*
X137066643Y-57057747D01*
X137094516Y-57075605D01*
X137117642Y-57098789D01*
X137135622Y-57128031D01*
X137146784Y-57161730D01*
X137150753Y-57202696D01*
X137147739Y-57239451D01*
X137139105Y-57271485D01*
X137125144Y-57299636D01*
X137096397Y-57338748D01*
X137059272Y-57377232D01*
X136875430Y-57547555D01*
X137150753Y-57547555D01*
X137150753Y-57639000D01*
X136752881Y-57639000D01*
X136752881Y-57532351D01*
G37*
G36*
X138982231Y-68217804D02*
G01*
X139022573Y-68223769D01*
X139060694Y-68234735D01*
X139093501Y-68251027D01*
X139121335Y-68273572D01*
X139143033Y-68303014D01*
X139152896Y-68325562D01*
X139159224Y-68352909D01*
X139161498Y-68386069D01*
X139157313Y-68427852D01*
X139145341Y-68463505D01*
X139125814Y-68494293D01*
X139106603Y-68513514D01*
X139083636Y-68528704D01*
X139056327Y-68539979D01*
X139023855Y-68547122D01*
X139181648Y-68809000D01*
X139054043Y-68809000D01*
X138916400Y-68558113D01*
X138839171Y-68558113D01*
X138839171Y-68809000D01*
X138733401Y-68809000D01*
X138733401Y-68466669D01*
X138839171Y-68466669D01*
X138921420Y-68466669D01*
X138966739Y-68464617D01*
X138988740Y-68461015D01*
X139008285Y-68454652D01*
X139025448Y-68444633D01*
X139038949Y-68430545D01*
X139047475Y-68412234D01*
X139050710Y-68385299D01*
X139047768Y-68361256D01*
X139039792Y-68343790D01*
X139027208Y-68329986D01*
X139011252Y-68320123D01*
X138992943Y-68313636D01*
X138972198Y-68309718D01*
X138930652Y-68307227D01*
X138839171Y-68307227D01*
X138839171Y-68466669D01*
X138733401Y-68466669D01*
X138733401Y-68215782D01*
X138939884Y-68215782D01*
X138982231Y-68217804D01*
G37*
G36*
X139382159Y-68452600D02*
G01*
X139408208Y-68452600D01*
X139450559Y-68450109D01*
X139470373Y-68446080D01*
X139487526Y-68439301D01*
X139502295Y-68429146D01*
X139513977Y-68415195D01*
X139521298Y-68397665D01*
X139524052Y-68372806D01*
X139521346Y-68351125D01*
X139513549Y-68332832D01*
X139500532Y-68317119D01*
X139483732Y-68305341D01*
X139463606Y-68298072D01*
X139439239Y-68295503D01*
X139410536Y-68299834D01*
X139385127Y-68312722D01*
X139364699Y-68333039D01*
X139350286Y-68360973D01*
X139243674Y-68332433D01*
X139256040Y-68301353D01*
X139272213Y-68275170D01*
X139292449Y-68252762D01*
X139315847Y-68234980D01*
X139342139Y-68221382D01*
X139371242Y-68211679D01*
X139401911Y-68205987D01*
X139434220Y-68204059D01*
X139472111Y-68206623D01*
X139507236Y-68214134D01*
X139539917Y-68226763D01*
X139567686Y-68243883D01*
X139591008Y-68266018D01*
X139609232Y-68293342D01*
X139620724Y-68324814D01*
X139624766Y-68362511D01*
X139621723Y-68393492D01*
X139612797Y-68421645D01*
X139597911Y-68447618D01*
X139577837Y-68469503D01*
X139553220Y-68485759D01*
X139523210Y-68496637D01*
X139523210Y-68498323D01*
X139559171Y-68507862D01*
X139587496Y-68524087D01*
X139609671Y-68547049D01*
X139625810Y-68575174D01*
X139635648Y-68606803D01*
X139639054Y-68642817D01*
X139634799Y-68683868D01*
X139622677Y-68718434D01*
X139603391Y-68748668D01*
X139578604Y-68773462D01*
X139548989Y-68792828D01*
X139514380Y-68807058D01*
X139477269Y-68815528D01*
X139438433Y-68818378D01*
X139402128Y-68816318D01*
X139368714Y-68810318D01*
X139337312Y-68799963D01*
X139309546Y-68785369D01*
X139285035Y-68766119D01*
X139263824Y-68741808D01*
X139247104Y-68713230D01*
X139234441Y-68678281D01*
X139341896Y-68649741D01*
X139349997Y-68673302D01*
X139360935Y-68692062D01*
X139374612Y-68706821D01*
X139391368Y-68717626D01*
X139412270Y-68724468D01*
X139438433Y-68726934D01*
X139458134Y-68725249D01*
X139476608Y-68720266D01*
X139493707Y-68712162D01*
X139508518Y-68701472D01*
X139520860Y-68688143D01*
X139530317Y-68672236D01*
X139536257Y-68654418D01*
X139538304Y-68634244D01*
X139535049Y-68607661D01*
X139526140Y-68587899D01*
X139512249Y-68571997D01*
X139495073Y-68560348D01*
X139475340Y-68552380D01*
X139452684Y-68547379D01*
X139406523Y-68544045D01*
X139382159Y-68544045D01*
X139382159Y-68452600D01*
G37*
G36*
X136085075Y-63804268D02*
G01*
X136062020Y-63782116D01*
X136041014Y-63766863D01*
X136021694Y-63757264D01*
X135990752Y-63748405D01*
X135959998Y-63745503D01*
X135915395Y-63749705D01*
X135876467Y-63761807D01*
X135841627Y-63781341D01*
X135812280Y-63806979D01*
X135788578Y-63838041D01*
X135770735Y-63874280D01*
X135759783Y-63913811D01*
X135756043Y-63957042D01*
X135759815Y-64003414D01*
X135770735Y-64044860D01*
X135788651Y-64082573D01*
X135812280Y-64114249D01*
X135841637Y-64140277D01*
X135876467Y-64160228D01*
X135915415Y-64172633D01*
X135959998Y-64176934D01*
X135995357Y-64172693D01*
X136030084Y-64159751D01*
X136051443Y-64146573D01*
X136072530Y-64128487D01*
X136093465Y-64104760D01*
X136180769Y-64166896D01*
X136151446Y-64201074D01*
X136118821Y-64227809D01*
X136082547Y-64247789D01*
X136043286Y-64261783D01*
X136002291Y-64270217D01*
X135959156Y-64273068D01*
X135913708Y-64270505D01*
X135871751Y-64263035D01*
X135832833Y-64250866D01*
X135795897Y-64233790D01*
X135763006Y-64212857D01*
X135733768Y-64187998D01*
X135708266Y-64159320D01*
X135686603Y-64126893D01*
X135668702Y-64090325D01*
X135655849Y-64051677D01*
X135647940Y-64009658D01*
X135645218Y-63963747D01*
X135647944Y-63916700D01*
X135655859Y-63873707D01*
X135668702Y-63834237D01*
X135686650Y-63796822D01*
X135708321Y-63763847D01*
X135733768Y-63734879D01*
X135763036Y-63709760D01*
X135795927Y-63688697D01*
X135832833Y-63671608D01*
X135871752Y-63659419D01*
X135913709Y-63651936D01*
X135959156Y-63649369D01*
X135999014Y-63651827D01*
X136036241Y-63659035D01*
X136071226Y-63670875D01*
X136103838Y-63687894D01*
X136135804Y-63711892D01*
X136167360Y-63743818D01*
X136085075Y-63804268D01*
G37*
G36*
X136501003Y-63667804D02*
G01*
X136541345Y-63673769D01*
X136579466Y-63684735D01*
X136612273Y-63701027D01*
X136640107Y-63723572D01*
X136661806Y-63753014D01*
X136671669Y-63775562D01*
X136677997Y-63802909D01*
X136680270Y-63836069D01*
X136676085Y-63877852D01*
X136664113Y-63913505D01*
X136644587Y-63944293D01*
X136625375Y-63963514D01*
X136602408Y-63978704D01*
X136575099Y-63989979D01*
X136542627Y-63997122D01*
X136700420Y-64259000D01*
X136572816Y-64259000D01*
X136435173Y-64008113D01*
X136357943Y-64008113D01*
X136357943Y-64259000D01*
X136252174Y-64259000D01*
X136252174Y-63916669D01*
X136357943Y-63916669D01*
X136440192Y-63916669D01*
X136485511Y-63914617D01*
X136507512Y-63911015D01*
X136527057Y-63904652D01*
X136544220Y-63894633D01*
X136557722Y-63880545D01*
X136566248Y-63862234D01*
X136569482Y-63835299D01*
X136566540Y-63811256D01*
X136558564Y-63793790D01*
X136545980Y-63779986D01*
X136530024Y-63770123D01*
X136511716Y-63763636D01*
X136490970Y-63759718D01*
X136449424Y-63757227D01*
X136357943Y-63757227D01*
X136357943Y-63916669D01*
X136252174Y-63916669D01*
X136252174Y-63665782D01*
X136458657Y-63665782D01*
X136501003Y-63667804D01*
G37*
G36*
X136939546Y-63781407D02*
G01*
X136827915Y-63884648D01*
X136769150Y-63815003D01*
X136948779Y-63665782D01*
X137040297Y-63665782D01*
X137040297Y-64259000D01*
X136939546Y-64259000D01*
X136939546Y-63781407D01*
G37*
G36*
X143362231Y-62677804D02*
G01*
X143402573Y-62683769D01*
X143440694Y-62694735D01*
X143473501Y-62711027D01*
X143501335Y-62733572D01*
X143523033Y-62763014D01*
X143532896Y-62785562D01*
X143539224Y-62812909D01*
X143541498Y-62846069D01*
X143537313Y-62887852D01*
X143525341Y-62923505D01*
X143505814Y-62954293D01*
X143486603Y-62973514D01*
X143463636Y-62988704D01*
X143436327Y-62999979D01*
X143403855Y-63007122D01*
X143561648Y-63269000D01*
X143434043Y-63269000D01*
X143296400Y-63018113D01*
X143219171Y-63018113D01*
X143219171Y-63269000D01*
X143113401Y-63269000D01*
X143113401Y-62926669D01*
X143219171Y-62926669D01*
X143301420Y-62926669D01*
X143346739Y-62924617D01*
X143368740Y-62921015D01*
X143388285Y-62914652D01*
X143405448Y-62904633D01*
X143418949Y-62890545D01*
X143427475Y-62872234D01*
X143430710Y-62845299D01*
X143427768Y-62821256D01*
X143419792Y-62803790D01*
X143407208Y-62789986D01*
X143391252Y-62780123D01*
X143372943Y-62773636D01*
X143352198Y-62769718D01*
X143310652Y-62767227D01*
X143219171Y-62767227D01*
X143219171Y-62926669D01*
X143113401Y-62926669D01*
X143113401Y-62675782D01*
X143319884Y-62675782D01*
X143362231Y-62677804D01*
G37*
G36*
X143611071Y-62675782D02*
G01*
X144014841Y-62675782D01*
X144014841Y-62767960D01*
X143777290Y-63269000D01*
X143658918Y-63269000D01*
X143901524Y-62771916D01*
X143611071Y-62771916D01*
X143611071Y-62675782D01*
G37*
%TO.C,TP5*%
X136939999Y-55750000D02*
G75*
G02*
X135039999Y-55750000I-950000J0D01*
G01*
X135039999Y-55750000D02*
G75*
G02*
X136939999Y-55750000I950000J0D01*
G01*
%TO.C,C1*%
X148259419Y-62900000D02*
X148540579Y-62900000D01*
X148259419Y-63920000D02*
X148540579Y-63920000D01*
%TO.C,U1*%
D12*
X146735149Y-59043599D02*
X146735149Y-59234858D01*
X146735149Y-62205140D02*
X146735149Y-62396399D01*
X146735149Y-62396399D02*
X150087949Y-62396399D01*
X150087949Y-59043599D02*
X146735149Y-59043599D01*
X150087949Y-59234858D02*
X150087949Y-59043599D01*
X150087949Y-62396399D02*
X150087949Y-62205140D01*
D13*
G36*
X145300049Y-61910500D02*
G01*
X145046049Y-61910500D01*
X145046049Y-61529500D01*
X145300049Y-61529500D01*
X145300049Y-61910500D01*
G37*
%TO.C,R9*%
D10*
X141312741Y-60927500D02*
X141787257Y-60927500D01*
X141312741Y-61972500D02*
X141787257Y-61972500D01*
%TO.C,R6*%
X141312741Y-59417500D02*
X141787257Y-59417500D01*
X141312741Y-60462500D02*
X141787257Y-60462500D01*
%TO.C,TP2*%
X136939999Y-65670000D02*
G75*
G02*
X135039999Y-65670000I-950000J0D01*
G01*
X135039999Y-65670000D02*
G75*
G02*
X136939999Y-65670000I950000J0D01*
G01*
%TO.C,J8*%
D14*
X135689999Y-53135000D02*
X135689999Y-50805000D01*
X136570000Y-53135000D02*
X135689999Y-53135000D01*
X140569999Y-48885000D02*
X136809999Y-48885000D01*
X141689999Y-50805000D02*
X141689999Y-53135000D01*
X141689999Y-53135000D02*
X140809998Y-53135000D01*
D15*
X140289999Y-54760000D02*
G75*
G02*
X140089999Y-54760000I-100000J0D01*
G01*
X140089999Y-54760000D02*
G75*
G02*
X140289999Y-54760000I100000J0D01*
G01*
%TO.C,REF\u002A\u002A*%
D16*
X155699999Y-70045000D02*
G75*
G02*
X151199999Y-70045000I-2250000J0D01*
G01*
X151199999Y-70045000D02*
G75*
G02*
X155699999Y-70045000I2250000J0D01*
G01*
%TO.C,J5*%
D14*
X141679999Y-68425000D02*
X143309999Y-68425000D01*
X141679999Y-69705000D02*
X141679999Y-68425000D01*
X148299999Y-68425000D02*
X149929999Y-68425000D01*
X148709999Y-72475000D02*
X142899999Y-72475000D01*
X149929999Y-68425000D02*
X149929999Y-69705000D01*
D15*
X144029999Y-66800000D02*
G75*
G02*
X143829999Y-66800000I-100000J0D01*
G01*
X143829999Y-66800000D02*
G75*
G02*
X144029999Y-66800000I100000J0D01*
G01*
%TO.C,C3*%
D10*
X148550580Y-55990000D02*
X148269418Y-55990000D01*
X148550580Y-57010000D02*
X148269418Y-57010000D01*
%TO.C,R1*%
X148157741Y-64457500D02*
X148632257Y-64457500D01*
X148157741Y-65502500D02*
X148632257Y-65502500D01*
%TO.C,TP3*%
X142539999Y-65660000D02*
G75*
G02*
X140639999Y-65660000I-950000J0D01*
G01*
X140639999Y-65660000D02*
G75*
G02*
X142539999Y-65660000I950000J0D01*
G01*
%TO.C,R4*%
X141792257Y-57857500D02*
X141317741Y-57857500D01*
X141792257Y-58902500D02*
X141317741Y-58902500D01*
%TO.C,REF\u002A\u002A*%
D16*
X134069999Y-51455000D02*
G75*
G02*
X129569999Y-51455000I-2250000J0D01*
G01*
X129569999Y-51455000D02*
G75*
G02*
X134069999Y-51455000I2250000J0D01*
G01*
%TO.C,TP4*%
D10*
X142519999Y-55780000D02*
G75*
G02*
X140619999Y-55780000I-950000J0D01*
G01*
X140619999Y-55780000D02*
G75*
G02*
X142519999Y-55780000I950000J0D01*
G01*
%TO.C,R2*%
X136117499Y-70677258D02*
X136117499Y-70202742D01*
X137162499Y-70677258D02*
X137162499Y-70202742D01*
%TO.C,R8*%
X138542499Y-62437258D02*
X138542499Y-61962742D01*
X139587499Y-62437258D02*
X139587499Y-61962742D01*
%TO.C,C2*%
X148560580Y-57530000D02*
X148279418Y-57530000D01*
X148560580Y-58550000D02*
X148279418Y-58550000D01*
%TO.C,R5*%
X138542499Y-58962742D02*
X138542499Y-59437258D01*
X139587499Y-58962742D02*
X139587499Y-59437258D01*
%TO.C,J9*%
D14*
X143529999Y-53125000D02*
X143529999Y-50795000D01*
X144410000Y-53125000D02*
X143529999Y-53125000D01*
X148409999Y-48875000D02*
X144649999Y-48875000D01*
X149529999Y-50795000D02*
X149529999Y-53125000D01*
X149529999Y-53125000D02*
X148649998Y-53125000D01*
D15*
X148129999Y-54750000D02*
G75*
G02*
X147929999Y-54750000I-100000J0D01*
G01*
X147929999Y-54750000D02*
G75*
G02*
X148129999Y-54750000I100000J0D01*
G01*
%TO.C,J1*%
D14*
X129209999Y-64865000D02*
X129209999Y-56555000D01*
X131979999Y-55335000D02*
X133259999Y-55335001D01*
X133259999Y-55335001D02*
X133259999Y-56965001D01*
X133259999Y-64454999D02*
X133259999Y-66084999D01*
X133259999Y-66084999D02*
X131979999Y-66085000D01*
%TO.C,CR2*%
D12*
X135616149Y-60497301D02*
X137216349Y-60497301D01*
X137216349Y-57982701D02*
X135616149Y-57982701D01*
X137216349Y-59404860D02*
X137216349Y-59075142D01*
%TO.C,REF\u002A\u002A*%
D16*
X134079999Y-70035000D02*
G75*
G02*
X129579999Y-70035000I-2250000J0D01*
G01*
X129579999Y-70035000D02*
G75*
G02*
X134079999Y-70035000I2250000J0D01*
G01*
%TO.C,R3*%
D10*
X138657499Y-70677258D02*
X138657499Y-70202742D01*
X139702499Y-70677258D02*
X139702499Y-70202742D01*
%TO.C,CR1*%
D12*
X135611149Y-63412299D02*
X137211349Y-63412299D01*
X137211349Y-60897699D02*
X135611149Y-60897699D01*
X137211349Y-62319858D02*
X137211349Y-61990140D01*
%TO.C,R7*%
D10*
X141787257Y-62507500D02*
X141312741Y-62507500D01*
X141787257Y-63552500D02*
X141312741Y-63552500D01*
%TO.C,REF\u002A\u002A*%
D16*
X155689999Y-51465000D02*
G75*
G02*
X151189999Y-51465000I-2250000J0D01*
G01*
X151189999Y-51465000D02*
G75*
G02*
X155689999Y-51465000I2250000J0D01*
G01*
%TD*%
M02*
